<?xml version="1.0" encoding="utf-8"?>
<!-- Generator: Adobe Illustrator 23.0.3, SVG Export Plug-In . SVG Version: 6.00 Build 0)  -->
<svg version="1.1" id="Layer_1" xmlns="http://www.w3.org/2000/svg" xmlns:xlink="http://www.w3.org/1999/xlink" x="0px" y="0px"
	 viewBox="0 0 1920 1080" style="enable-background:new 0 0 1920 1080;" xml:space="preserve">
<style type="text/css">
	.st0{opacity:0.6;}
	.st1{fill:#7B8EC8;}
	.st2{opacity:0.23;}
	.st3{fill:#2F3857;}
	.st4{fill:#675E94;}
	.st5{fill:#7693F2;}
	.st6{fill:#FFD96F;}
	.st7{fill:#FFFFFF;}
	.st8{clip-path:url(#SVGID_2_);}
	.st9{clip-path:url(#SVGID_4_);fill:url(#Rectangle_181_1_);}
	.st10{clip-path:url(#SVGID_6_);}
	.st11{clip-path:url(#SVGID_8_);fill:url(#Rectangle_183_2_);}
	.st12{clip-path:url(#SVGID_10_);}
	.st13{clip-path:url(#SVGID_12_);fill:url(#Rectangle_184_1_);}
	.st14{clip-path:url(#SVGID_14_);}
	.st15{clip-path:url(#SVGID_16_);fill:url(#Rectangle_182_1_);}
</style>
<g>
	<g class="st0">
		
			<image style="overflow:visible;enable-background:new    ;" width="192" height="191" xlink:href="4985B041.png"  transform="matrix(1 0 0 1 152 -627)">
		</image>
	</g>
	<g class="st0">
		
			<image style="overflow:visible;enable-background:new    ;" width="192" height="191" xlink:href="4985B040.png"  transform="matrix(1 0 0 1 353 -627)">
		</image>
	</g>
	<g class="st0">
		
			<image style="overflow:visible;enable-background:new    ;" width="192" height="191" xlink:href="4985B04E.png"  transform="matrix(1 0 0 1 553 -627)">
		</image>
	</g>
	<g class="st0">
		
			<image style="overflow:visible;enable-background:new    ;" width="192" height="191" xlink:href="4985B058.png"  transform="matrix(1 0 0 1 754 -627)">
		</image>
	</g>
	<g class="st0">
		
			<image style="overflow:visible;enable-background:new    ;" width="191" height="191" xlink:href="4985B059.png"  transform="matrix(1 0 0 1 955 -627)">
		</image>
	</g>
	<g class="st0">
		
			<image style="overflow:visible;enable-background:new    ;" width="192" height="192" xlink:href="4985B05A.png"  transform="matrix(1 0 0 1 152 -235)">
		</image>
	</g>
	<g class="st0">
		
			<image style="overflow:visible;enable-background:new    ;" width="192" height="192" xlink:href="4985B05B.png"  transform="matrix(1 0 0 1 353 -235)">
		</image>
	</g>
	<g class="st0">
		
			<image style="overflow:visible;enable-background:new    ;" width="192" height="192" xlink:href="4985B05C.png"  transform="matrix(1 0 0 1 553 -235)">
		</image>
	</g>
	<g class="st0">
		
			<image style="overflow:visible;enable-background:new    ;" width="192" height="192" xlink:href="4985B05D.png"  transform="matrix(1 0 0 1 754 -235)">
		</image>
	</g>
	<g>
		<g>
			<path class="st1" d="M190-722.1L190-722.1c0-5.5,4.1-9.9,9.9-9.9c3.6,0,5.7,1.2,7.5,2.9l-2.7,3.1c-1.5-1.3-3-2.2-4.9-2.2
				c-3.2,0-5.5,2.7-5.5,5.9v0c0,3.3,2.3,6,5.5,6c2.2,0,3.5-0.9,5-2.2l2.7,2.7c-2,2.1-4.1,3.4-7.8,3.4
				C194.2-712.3,190-716.6,190-722.1z"/>
			<path class="st1" d="M210.3-722.1L210.3-722.1c0-5.5,4.3-9.9,10.1-9.9s10.1,4.4,10.1,9.8v0c0,5.4-4.3,9.8-10.1,9.8
				C214.5-712.3,210.3-716.7,210.3-722.1z M226.1-722.1L226.1-722.1c0-3.3-2.4-6-5.8-6s-5.7,2.7-5.7,5.9v0c0,3.3,2.4,6,5.8,6
				S226.1-718.8,226.1-722.1z"/>
			<path class="st1" d="M234.9-731.7h4.2v15.2h9.5v3.8h-13.7V-731.7z"/>
			<path class="st1" d="M250.5-722.1L250.5-722.1c0-5.5,4.3-9.9,10.2-9.9s10.1,4.4,10.1,9.8v0c0,5.4-4.3,9.8-10.1,9.8
				C254.7-712.3,250.5-716.7,250.5-722.1z M266.3-722.1L266.3-722.1c0-3.3-2.4-6-5.8-6s-5.7,2.7-5.7,5.9v0c0,3.3,2.4,6,5.8,6
				S266.3-718.8,266.3-722.1z"/>
			<path class="st1" d="M275.1-731.7h8.7c2.4,0,4.3,0.7,5.5,1.9c1.1,1.1,1.6,2.6,1.6,4.3v0c0,3.1-1.7,5-4.1,5.9l4.6,6.8h-4.9
				l-4.1-6.1h-3.3v6.1h-4.2V-731.7z M283.6-722.4c2,0,3.2-1.1,3.2-2.7v0c0-1.8-1.3-2.7-3.3-2.7h-4.2v5.5L283.6-722.4L283.6-722.4z"
				/>
			<path class="st1" d="M294.2-715.4l2.5-3c1.7,1.4,3.5,2.3,5.7,2.3c1.7,0,2.8-0.7,2.8-1.8v0c0-1.1-0.6-1.6-3.8-2.4
				c-3.8-1-6.3-2-6.3-5.8v0c0-3.5,2.8-5.7,6.7-5.7c2.8,0,5.1,0.9,7.1,2.4l-2.2,3.2c-1.7-1.2-3.4-1.9-5-1.9c-1.6,0-2.5,0.7-2.5,1.7v0
				c0,1.3,0.8,1.7,4.1,2.5c3.9,1,6,2.4,6,5.7v0c0,3.8-2.9,5.9-7,5.9C299.4-712.3,296.5-713.3,294.2-715.4z"/>
		</g>
		<g class="st2">
			<path class="st1" d="M190.9-768.1h14.5v3.8h-10.3v4h9.1v3.8h-9.1v7.4h-4.2V-768.1z"/>
			<path class="st1" d="M209.4-768.1h4.2v15.2h9.5v3.8h-13.7V-768.1z"/>
			<path class="st1" d="M233.4-768.3h3.9l8.2,19.2h-4.4l-1.7-4.3h-8.1l-1.7,4.3h-4.3L233.4-768.3z M237.9-757.1l-2.5-6.2l-2.5,6.2
				H237.9z"/>
			<path class="st1" d="M251.1-764.3h-5.8v-3.9h15.8v3.9h-5.8v15.2h-4.2V-764.3z"/>
		</g>
	</g>
	<g>
		<g>
			<path class="st1" d="M190-319.4L190-319.4c0-5.5,4.1-9.9,9.9-9.9c3.6,0,5.7,1.2,7.5,2.9l-2.7,3.1c-1.5-1.3-3-2.1-4.9-2.1
				c-3.2,0-5.5,2.7-5.5,5.9v0c0,3.3,2.3,6,5.5,6c2.2,0,3.5-0.9,5-2.2l2.7,2.7c-2,2.1-4.1,3.4-7.8,3.4C194.2-309.6,190-314,190-319.4
				z"/>
			<path class="st1" d="M210.3-319.4L210.3-319.4c0-5.5,4.3-9.9,10.1-9.9s10.1,4.4,10.1,9.8v0c0,5.4-4.3,9.9-10.1,9.9
				C214.5-309.6,210.3-314,210.3-319.4z M226.1-319.4L226.1-319.4c0-3.3-2.4-6-5.8-6s-5.7,2.7-5.7,5.9v0c0,3.3,2.4,6,5.8,6
				S226.1-316.2,226.1-319.4z"/>
			<path class="st1" d="M234.9-329h4.2v15.2h9.5v3.8h-13.7V-329z"/>
			<path class="st1" d="M250.5-319.4L250.5-319.4c0-5.5,4.3-9.9,10.2-9.9s10.1,4.4,10.1,9.8v0c0,5.4-4.3,9.9-10.1,9.9
				C254.7-309.6,250.5-314,250.5-319.4z M266.3-319.4L266.3-319.4c0-3.3-2.4-6-5.8-6s-5.7,2.7-5.7,5.9v0c0,3.3,2.4,6,5.8,6
				S266.3-316.2,266.3-319.4z"/>
			<path class="st1" d="M275.1-329h8.7c2.4,0,4.3,0.7,5.5,1.9c1.1,1.1,1.6,2.6,1.6,4.4v0c0,3.1-1.7,5-4.1,5.9l4.6,6.8h-4.9l-4.1-6.1
				h-3.3v6.1h-4.2V-329z M283.6-319.8c2,0,3.2-1.1,3.2-2.7v0c0-1.8-1.3-2.7-3.3-2.7h-4.2v5.5L283.6-319.8L283.6-319.8z"/>
			<path class="st1" d="M294.2-312.7l2.5-3c1.7,1.4,3.5,2.3,5.7,2.3c1.7,0,2.8-0.7,2.8-1.8v0c0-1.1-0.6-1.6-3.8-2.4
				c-3.8-1-6.3-2-6.3-5.8v0c0-3.5,2.8-5.7,6.7-5.7c2.8,0,5.1,0.9,7.1,2.4l-2.2,3.2c-1.7-1.2-3.4-1.9-5-1.9c-1.6,0-2.5,0.7-2.5,1.7v0
				c0,1.3,0.8,1.7,4.1,2.5c3.9,1,6,2.4,6,5.7v0c0,3.8-2.9,5.9-7,5.9C299.4-309.7,296.5-310.7,294.2-312.7z"/>
		</g>
		<g class="st2">
			<path class="st1" d="M190-355.9L190-355.9c0-5.5,4.2-9.9,10-9.9c3.4,0,5.5,0.9,7.5,2.6l-2.6,3.2c-1.5-1.2-2.8-1.9-5-1.9
				c-3.1,0-5.5,2.7-5.5,5.9v0c0,3.5,2.4,6,5.8,6c1.5,0,2.9-0.4,3.9-1.1v-2.7h-4.2v-3.6h8.3v8.3c-2,1.7-4.6,3-8.1,3
				C194.1-346.1,190-350.3,190-355.9z"/>
			<path class="st1" d="M212.9-365.5h8.7c2.4,0,4.3,0.7,5.6,1.9c1.1,1.1,1.6,2.6,1.6,4.4v0c0,3.1-1.7,5-4.1,5.9l4.6,6.8h-4.9
				l-4.1-6.1h-3.3v6.1h-4.2L212.9-365.5L212.9-365.5z M221.3-356.2c2,0,3.2-1.1,3.2-2.7v0c0-1.8-1.3-2.7-3.3-2.7h-4.2v5.5
				L221.3-356.2L221.3-356.2z"/>
			<path class="st1" d="M239.8-365.6h3.9l8.2,19.2h-4.4l-1.7-4.3h-8.1l-1.7,4.3h-4.3L239.8-365.6z M244.2-354.4l-2.5-6.2l-2.5,6.2
				H244.2z"/>
			<path class="st1" d="M255.4-365.5h7.4c6,0,10.1,4.1,10.1,9.5v0c0,5.4-4.1,9.5-10.1,9.5h-7.4V-365.5z M259.6-361.7v11.5h3.2
				c3.4,0,5.7-2.3,5.7-5.7v0c0-3.4-2.3-5.7-5.7-5.7L259.6-361.7L259.6-361.7z"/>
			<path class="st1" d="M277.5-365.5h4.2v19h-4.2V-365.5z"/>
			<path class="st1" d="M287.2-365.5h14.4v3.7h-10.2v3.9h9v3.7h-9v4h10.3v3.7h-14.5L287.2-365.5L287.2-365.5z"/>
			<path class="st1" d="M306.1-365.5h3.9l8.9,11.7v-11.7h4.1v19h-3.6l-9.2-12.1v12.1h-4.1V-365.5z"/>
			<path class="st1" d="M332.7-361.6h-5.8v-3.9h15.8v3.9h-5.8v15.2h-4.2V-361.6z"/>
		</g>
	</g>
	<g>
		<circle class="st3" cx="248.1" cy="-566.4" r="59.5"/>
	</g>
	<g>
		<circle class="st4" cx="448.7" cy="-566.4" r="59.5"/>
	</g>
	<g>
		<circle class="st5" cx="649.3" cy="-566.4" r="59.5"/>
	</g>
	<g>
		<circle class="st6" cx="849.9" cy="-566.4" r="59.5"/>
	</g>
	<g>
		<circle class="st7" cx="1050.5" cy="-566.4" r="59.5"/>
	</g>
	<g>
		<g>
			<defs>
				<circle id="SVGID_1_" cx="849.9" cy="-174.1" r="59.5"/>
			</defs>
			<clipPath id="SVGID_2_">
				<use xlink:href="#SVGID_1_"  style="overflow:visible;"/>
			</clipPath>
			<g class="st8">
				<circle class="st3" cx="849.9" cy="-174.1" r="59.5"/>
			</g>
		</g>
		<g>
			<defs>
				<circle id="SVGID_3_" cx="849.9" cy="-174.1" r="59.5"/>
			</defs>
			<clipPath id="SVGID_4_">
				<use xlink:href="#SVGID_3_"  style="overflow:visible;"/>
			</clipPath>
			
				<linearGradient id="Rectangle_181_1_" gradientUnits="userSpaceOnUse" x1="2.1345" y1="-5.0177" x2="2.1345" y2="-3.554" gradientTransform="matrix(316.772 0 0 119.183 248.228 354.1818)">
				<stop  offset="0" style="stop-color:#8FA6EF;stop-opacity:0.188"/>
				<stop  offset="1" style="stop-color:#485378;stop-opacity:0.188"/>
			</linearGradient>
			<path id="Rectangle_181_2_" class="st9" d="M751.8-243.8h345.1c7.1,0,12.9,7.2,12.9,16.1v142.2c0,8.9-5.8,16.1-12.9,16.1H751.8
				c-7.1,0-12.9-7.2-12.9-16.1v-142.2C738.9-236.6,744.7-243.8,751.8-243.8z"/>
		</g>
	</g>
	<g>
		<g>
			<defs>
				<circle id="SVGID_5_" cx="248.1" cy="-174.1" r="59.5"/>
			</defs>
			<clipPath id="SVGID_6_">
				<use xlink:href="#SVGID_5_"  style="overflow:visible;"/>
			</clipPath>
			<g class="st10">
				<circle class="st3" cx="248.1" cy="-174.1" r="59.5"/>
			</g>
		</g>
		<g>
			<defs>
				<circle id="SVGID_7_" cx="248.1" cy="-174.1" r="59.5"/>
			</defs>
			<clipPath id="SVGID_8_">
				<use xlink:href="#SVGID_7_"  style="overflow:visible;"/>
			</clipPath>
			
				<linearGradient id="Rectangle_183_2_" gradientUnits="userSpaceOnUse" x1="-0.4461" y1="-5.1374" x2="-0.4461" y2="-3.7213" gradientTransform="matrix(316.772 0 0 119.183 248.228 354.1818)">
				<stop  offset="0" style="stop-color:#EFC28F;stop-opacity:0.188"/>
				<stop  offset="1" style="stop-color:#485378;stop-opacity:0.188"/>
			</linearGradient>
			<path id="Rectangle_183_1_" class="st11" d="M-101.8-258.1h417.4c8.6,0,15.6,7,15.6,15.6v137.6c0,8.6-7,15.6-15.6,15.6h-417.4
				c-8.6,0-15.6-7-15.6-15.6v-137.6C-117.4-251.1-110.4-258.1-101.8-258.1z"/>
		</g>
	</g>
	<g>
		<g>
			<defs>
				<circle id="SVGID_9_" cx="448.7" cy="-174.1" r="59.5"/>
			</defs>
			<clipPath id="SVGID_10_">
				<use xlink:href="#SVGID_9_"  style="overflow:visible;"/>
			</clipPath>
			<g class="st12">
				<circle class="st3" cx="448.7" cy="-174.1" r="59.5"/>
			</g>
		</g>
		<g>
			<defs>
				<circle id="SVGID_11_" cx="448.7" cy="-174.1" r="59.5"/>
			</defs>
			<clipPath id="SVGID_12_">
				<use xlink:href="#SVGID_11_"  style="overflow:visible;"/>
			</clipPath>
			
				<linearGradient id="Rectangle_184_1_" gradientUnits="userSpaceOnUse" x1="0.2835" y1="-8.8196" x2="0.2835" y2="-7.5262" gradientTransform="matrix(316.772 0 0 119.183 248.228 800.1818)">
				<stop  offset="0" style="stop-color:#8FD9EF;stop-opacity:0.188"/>
				<stop  offset="1" style="stop-color:#485378;stop-opacity:0.188"/>
			</linearGradient>
			<path id="Rectangle_184_2_" class="st13" d="M147.4-251h381.3c7.9,0,14.2,6.4,14.2,14.2V-111c0,7.9-6.4,14.2-14.2,14.2H147.4
				c-7.9,0-14.2-6.4-14.2-14.2v-125.7C133.2-244.6,139.5-251,147.4-251z"/>
		</g>
	</g>
	<g>
		<g>
			<defs>
				<circle id="SVGID_13_" cx="649.3" cy="-174.1" r="59.5"/>
			</defs>
			<clipPath id="SVGID_14_">
				<use xlink:href="#SVGID_13_"  style="overflow:visible;"/>
			</clipPath>
			<g class="st14">
				<circle class="st3" cx="649.3" cy="-174.1" r="59.5"/>
			</g>
		</g>
		<g>
			<defs>
				<circle id="SVGID_15_" cx="649.3" cy="-174.1" r="59.5"/>
			</defs>
			<clipPath id="SVGID_16_">
				<use xlink:href="#SVGID_15_"  style="overflow:visible;"/>
			</clipPath>
			
				<linearGradient id="Rectangle_182_1_" gradientUnits="userSpaceOnUse" x1="1.0435" y1="-6.356" x2="1.0435" y2="-5.0195" gradientTransform="matrix(316.772 0 0 119.183 248.228 504.1818)">
				<stop  offset="0" style="stop-color:#EF8FDF;stop-opacity:0.188"/>
				<stop  offset="1" style="stop-color:#485378;stop-opacity:0.188"/>
			</linearGradient>
			<path id="Rectangle_182_2_" class="st15" d="M381.8-253.4h394c8.1,0,14.7,6.6,14.7,14.7v129.9c0,8.1-6.6,14.7-14.7,14.7h-394
				c-8.1,0-14.7-6.6-14.7-14.7v-129.9C367.1-246.8,373.6-253.4,381.8-253.4z"/>
		</g>
	</g>
</g>
<g>
	<g>
		<path class="st1" d="M540.9,955.5h4.2l8.9,20.8h-4.8l-1.9-4.6h-8.8l-1.9,4.6h-4.6L540.9,955.5z M545.7,967.7L543,961l-2.8,6.7
			H545.7z"/>
		<path class="st1" d="M556.5,971.8L556.5,971.8c0-3.5,2.6-5.1,6.4-5.1c1.6,0,2.8,0.3,3.9,0.7v-0.3c0-1.9-1.2-2.9-3.4-2.9
			c-1.7,0-2.9,0.3-4.4,0.9l-1.1-3.4c1.7-0.8,3.5-1.3,6.2-1.3c2.5,0,4.2,0.7,5.3,1.8c1.2,1.2,1.7,2.9,1.7,5v9.2h-4.3v-1.7
			c-1.1,1.2-2.6,2-4.8,2C559,976.7,556.5,974.9,556.5,971.8z M566.8,970.8V970c-0.8-0.4-1.8-0.6-2.9-0.6c-1.9,0-3.1,0.8-3.1,2.2v0.1
			c0,1.2,1,1.9,2.5,1.9C565.4,973.5,566.8,972.4,566.8,970.8z"/>
	</g>
	<g>
		<path class="st1" d="M597.1,955.7h9.6c2.4,0,4.2,0.7,5.4,1.8c1,1,1.4,2.1,1.4,3.5v0.1c0,2.3-1.2,3.6-2.7,4.5
			c2.4,0.9,3.9,2.3,3.9,5.1v0.1c0,3.8-3.1,5.7-7.7,5.7h-9.8L597.1,955.7L597.1,955.7z M609,961.8c0-1.4-1.1-2.1-3-2.1h-4.5v4.4h4.2
			C607.8,964,609,963.4,609,961.8L609,961.8L609,961.8z M606.8,967.8h-5.3v4.5h5.4c2,0,3.2-0.7,3.2-2.3V970
			C610.2,968.7,609.1,967.8,606.8,967.8z"/>
		<path class="st1" d="M623.2,974.3v2.1h-4.5v-21.6h4.5v8c1.1-1.5,2.6-2.6,4.9-2.6c3.7,0,7.2,2.9,7.2,8.2v0.1c0,5.3-3.5,8.2-7.2,8.2
			C625.8,976.7,624.3,975.6,623.2,974.3z M630.9,968.5L630.9,968.5c0-2.7-1.8-4.4-3.9-4.4s-3.8,1.7-3.8,4.4v0.1
			c0,2.6,1.7,4.4,3.8,4.4S630.9,971.1,630.9,968.5z"/>
	</g>
	<g>
		<path class="st1" d="M659.4,966.1L659.4,966.1c0-5.9,4.4-10.8,10.8-10.8c3.9,0,6.2,1.3,8.2,3.2l-2.9,3.3c-1.6-1.5-3.2-2.3-5.3-2.3
			c-3.5,0-6,2.9-6,6.4v0.1c0,3.5,2.5,6.5,6,6.5c2.4,0,3.8-1,5.4-2.4l2.9,2.9c-2.1,2.3-4.5,3.7-8.5,3.7
			C664,976.7,659.4,972,659.4,966.1z"/>
		<path class="st1" d="M681.4,968.5L681.4,968.5c0-4.6,3.5-8.3,8.3-8.3c3,0,4.8,1,6.3,2.7l-2.8,3c-1-1.1-2-1.7-3.6-1.7
			c-2.3,0-3.8,2-3.8,4.3v0.1c0,2.4,1.6,4.4,4,4.4c1.5,0,2.5-0.7,3.6-1.7l2.6,2.7c-1.5,1.7-3.3,2.9-6.5,2.9
			C684.9,976.7,681.4,973,681.4,968.5z"/>
	</g>
	<g>
		<path class="st1" d="M723.6,955.7h8.1c6.5,0,11,4.5,11,10.3v0.1c0,5.8-4.5,10.3-11,10.3h-8.1V955.7z M728.2,959.8v12.5h3.5
			c3.7,0,6.2-2.5,6.2-6.2V966c0-3.7-2.5-6.2-6.2-6.2L728.2,959.8L728.2,959.8z"/>
		<path class="st1" d="M746.3,968.5L746.3,968.5c0-5.3,3.5-8.3,7.2-8.3c2.4,0,3.9,1.1,4.9,2.4v-7.8h4.5v21.6h-4.5v-2.3
			c-1.1,1.5-2.6,2.6-4.9,2.6C749.8,976.7,746.3,973.8,746.3,968.5z M758.5,968.5L758.5,968.5c0-2.7-1.7-4.4-3.8-4.4
			c-2.1,0-3.9,1.7-3.9,4.4v0.1c0,2.6,1.8,4.4,3.9,4.4C756.8,972.8,758.5,971.1,758.5,968.5z"/>
	</g>
	<g>
		<path class="st1" d="M533.8,1010.3h15.6v4h-11.1v4.2h9.8v4h-9.8v4.3h11.2v4.1h-15.8L533.8,1010.3L533.8,1010.3z"/>
		<path class="st1" d="M552.9,1023.2L552.9,1023.2c0-4.6,3.2-8.3,7.8-8.3c5.3,0,7.7,4.1,7.7,8.6c0,0.3,0,0.8-0.1,1.2h-11
			c0.4,2,1.9,3.1,3.9,3.1c1.5,0,2.6-0.5,3.8-1.6l2.6,2.3c-1.5,1.8-3.6,3-6.5,3C556.4,1031.4,552.9,1028,552.9,1023.2z M564,1021.8
			c-0.3-2-1.5-3.4-3.3-3.4c-1.9,0-3.1,1.3-3.4,3.4H564z"/>
	</g>
	<g>
		<path class="st1" d="M597.1,1010.3h15.8v4.1h-11.2v4.4h9.9v4.1h-9.9v8h-4.5V1010.3z"/>
		<path class="st1" d="M617.5,1019h-1.9v-3.7h1.9v-1c0-1.7,0.4-3,1.3-3.8s2-1.2,3.6-1.2c1.4,0,2.4,0.2,3.2,0.4v3.7
			c-0.7-0.2-1.3-0.4-2-0.4c-1,0-1.6,0.5-1.6,1.7v0.6h3.6v3.7H622v12h-4.5L617.5,1019L617.5,1019z"/>
	</g>
	<g>
		<path class="st1" d="M659.4,1020.7L659.4,1020.7c0-5.9,4.6-10.8,10.8-10.8c3.7,0,6,1,8.1,2.8l-2.9,3.5c-1.6-1.3-3-2.1-5.4-2.1
			c-3.3,0-5.9,2.9-5.9,6.4v0.1c0,3.8,2.6,6.6,6.3,6.6c1.7,0,3.1-0.4,4.3-1.2v-3h-4.6v-3.9h9v9c-2.1,1.8-5,3.3-8.8,3.3
			C663.9,1031.4,659.4,1026.8,659.4,1020.7z"/>
		<path class="st1" d="M683.9,1034.1l1.5-3.4c1.6,0.9,3.3,1.4,5.3,1.4c3.1,0,4.5-1.5,4.5-4.3v-0.8c-1.3,1.6-2.8,2.6-5.2,2.6
			c-3.7,0-7-2.7-7-7.4v-0.1c0-4.7,3.4-7.4,7-7.4c2.5,0,3.9,1,5.1,2.4v-2.1h4.5v12.3c0,2.8-0.7,4.9-2,6.2c-1.5,1.5-3.8,2.1-6.8,2.1
			C688.3,1035.8,685.9,1035.2,683.9,1034.1z M695.3,1022.3L695.3,1022.3c0-2.2-1.7-3.7-3.9-3.7s-3.8,1.5-3.8,3.7v0.1
			c0,2.2,1.7,3.7,3.8,3.7C693.6,1026,695.3,1024.5,695.3,1022.3z"/>
	</g>
	<g>
		<path class="st1" d="M723.6,1010.3h4.5v8.2h8.4v-8.2h4.5v20.7h-4.5v-8.3h-8.4v8.3h-4.5V1010.3z"/>
		<path class="st1" d="M746.3,1009.4h4.5v8c1-1.3,2.4-2.5,4.6-2.5c3.4,0,5.4,2.3,5.4,5.9v10.3h-4.5v-8.8c0-2.1-1-3.2-2.7-3.2
			c-1.7,0-2.8,1.1-2.8,3.2v8.8h-4.5L746.3,1009.4L746.3,1009.4z"/>
	</g>
</g>
<g>
	<path class="st1" d="M192.4,187.5h7.8c4.5,0,7.3,2.7,7.3,6.6v0.1c0,4.4-3.4,6.7-7.7,6.7h-3.2v5.7h-4.2V187.5z M199.9,197.1
		c2.1,0,3.3-1.3,3.3-2.9v-0.1c0-1.9-1.3-2.9-3.4-2.9h-3.2v5.8L199.9,197.1L199.9,197.1z"/>
	<path class="st1" d="M211.3,187.5h4.2v15.2h9.5v3.8h-13.7V187.5z"/>
	<path class="st1" d="M235.3,187.3h3.9l8.2,19.2H243l-1.7-4.3h-8.1l-1.7,4.3h-4.3L235.3,187.3z M239.7,198.5l-2.5-6.2l-2.5,6.2
		H239.7z"/>
	<path class="st1" d="M253.3,199l-7.3-11.5h4.9l4.5,7.6l4.6-7.6h4.8l-7.3,11.4v7.6h-4.2L253.3,199L253.3,199z"/>
	<path class="st1" d="M268.1,187.5h14.5v3.8h-10.3v4.1h9.1v3.8h-9.1v7.4h-4.2V187.5z"/>
	<path class="st1" d="M291,187.3h3.9l8.2,19.2h-4.4l-1.7-4.3h-8l-1.7,4.3h-4.3L291,187.3z M295.4,198.5l-2.5-6.2l-2.5,6.2H295.4z"/>
	<path class="st1" d="M306.8,187.5h4.2v19h-4.2V187.5z"/>
	<path class="st1" d="M316.5,187.5h8.7c2.4,0,4.3,0.7,5.5,1.9c1.1,1.1,1.6,2.6,1.6,4.4v0.1c0,3.1-1.7,5-4.1,5.9l4.6,6.8H328
		l-4.1-6.1h-3.3v6.1h-4.2V187.5z M324.9,196.7c2,0,3.2-1.1,3.2-2.7V194c0-1.8-1.3-2.7-3.3-2.7h-4.2v5.5L324.9,196.7L324.9,196.7z"/>
	<path class="st1" d="M345.6,187.5h7.4c6,0,10.1,4.1,10.1,9.5v0.1c0,5.4-4.1,9.5-10.1,9.5h-7.4V187.5z M349.8,191.2v11.5h3.2
		c3.4,0,5.7-2.3,5.7-5.7V197c0-3.4-2.3-5.7-5.7-5.7L349.8,191.2L349.8,191.2z"/>
	<path class="st1" d="M376.6,187.5h4.2v19h-4.2V187.5z"/>
	<path class="st1" d="M384.9,203.7l2.5-3c1.7,1.4,3.5,2.3,5.7,2.3c1.7,0,2.8-0.7,2.8-1.8v-0.1c0-1.1-0.6-1.6-3.8-2.4
		c-3.8-1-6.3-2-6.3-5.8v-0.1c0-3.5,2.8-5.7,6.7-5.7c2.8,0,5.1,0.9,7.1,2.4l-2.2,3.2c-1.7-1.2-3.4-1.9-5-1.9c-1.6,0-2.5,0.7-2.5,1.7
		v0.1c0,1.3,0.8,1.7,4.1,2.5c3.9,1,6,2.4,6,5.7v0.1c0,3.8-2.9,5.9-7,5.9C390.1,206.8,387.2,205.8,384.9,203.7z"/>
	<path class="st1" d="M404.3,187.5h7.8c4.5,0,7.3,2.7,7.3,6.6v0.1c0,4.4-3.4,6.7-7.7,6.7h-3.2v5.7h-4.2V187.5z M411.9,197.1
		c2.1,0,3.3-1.3,3.3-2.9v-0.1c0-1.9-1.3-2.9-3.4-2.9h-3.2v5.8L411.9,197.1L411.9,197.1z"/>
	<path class="st1" d="M423.2,187.5h4.2v15.2h9.5v3.8h-13.7V187.5z"/>
	<path class="st1" d="M447.2,187.3h3.9l8.2,19.2h-4.4l-1.7-4.3h-8l-1.7,4.3h-4.3L447.2,187.3z M451.6,198.5l-2.5-6.2l-2.5,6.2H451.6
		z"/>
	<path class="st1" d="M465.2,199l-7.3-11.5h4.9l4.5,7.6l4.6-7.6h4.8l-7.3,11.4v7.6h-4.2V199z"/>
</g>
<g class="st2">
	<path class="st1" d="M192.4,151h8.8c2.2,0,3.9,0.6,5,1.7c0.9,0.9,1.3,1.9,1.3,3.2v0.1c0,2.1-1.1,3.4-2.5,4.1
		c2.2,0.8,3.6,2.1,3.6,4.7v0.1c0,3.5-2.8,5.2-7.1,5.2h-9.1L192.4,151L192.4,151z M203.4,156.6c0-1.3-1-2-2.8-2h-4.1v4h3.9
		C202.2,158.7,203.4,158.1,203.4,156.6L203.4,156.6L203.4,156.6z M201.4,162.2h-4.8v4.2h5c1.9,0,3-0.6,3-2.1v-0.1
		C204.4,163,203.5,162.2,201.4,162.2z"/>
	<path class="st1" d="M211.9,160.6L211.9,160.6c0-5.5,4.3-9.9,10.1-9.9s10.1,4.4,10.1,9.8v0.1c0,5.4-4.3,9.9-10.1,9.9
		C216.1,170.4,211.9,166,211.9,160.6z M227.8,160.6L227.8,160.6c0-3.3-2.4-6-5.8-6s-5.7,2.7-5.7,5.9v0.1c0,3.3,2.4,6,5.8,6
		S227.8,163.8,227.8,160.6z"/>
	<path class="st1" d="M236.5,151h4.2v15.2h9.5v3.8h-13.7V151z"/>
	<path class="st1" d="M254.1,151h7.4c6,0,10.1,4.1,10.1,9.5v0.1c0,5.4-4.1,9.5-10.1,9.5h-7.4V151z M258.3,154.8v11.5h3.2
		c3.4,0,5.7-2.3,5.7-5.7v-0.1c0-3.4-2.3-5.7-5.7-5.7L258.3,154.8L258.3,154.8z"/>
</g>
<g class="st2">
	<g>
		<path class="st1" d="M260.7,901.3h30.9l65.3,153.4h-35l-13.9-34.2h-64.4l-13.9,34.2h-34.2L260.7,901.3z M295.9,991l-20.2-49.4
			L255.5,991H295.9z"/>
		<path class="st1" d="M375.4,1021.2v-0.4c0-25.5,19.4-37.2,47-37.2c11.8,0,20.2,2,28.5,4.8v-2c0-13.7-8.5-21.3-25-21.3
			c-12.6,0-21.5,2.4-32.2,6.3l-8.3-25.2c12.8-5.7,25.5-9.3,45.3-9.3c18.1,0,31.1,4.8,39.4,13c8.7,8.7,12.6,21.5,12.6,37.2v67.7h-32
			v-12.6c-8,8.9-19.1,14.8-35.2,14.8C393.4,1056.9,375.4,1044.3,375.4,1021.2z M451.3,1013.6v-5.9c-5.7-2.6-13-4.3-21.1-4.3
			c-14.1,0-22.8,5.7-22.8,16.1v0.4c0,8.9,7.4,14.1,18.1,14.1C440.8,1034,451.3,1025.6,451.3,1013.6z"/>
	</g>
</g>
<g>
	<path class="st1" d="M549.4,393.5c0.5,1.4,1.3,1.9,1.9,1.9v0.6c-1.2-0.1-2.9-0.1-4.5-0.1c-1.8,0-3.5,0-4.5,0.1v-0.6
		c1.4-0.1,2.1-0.3,2.1-1.1c0-0.4-0.1-0.8-0.3-1.4l-1.8-4.9h-6.4l-0.8,2c-0.6,1.4-0.8,2.5-0.8,3.3c0,1.6,1,2,2.6,2v0.6
		c-1.3-0.1-2.5-0.1-3.7-0.1c-0.9,0-1.7,0-2.3,0.1v-0.6c0.9-0.2,1.7-0.9,2.6-3.1l6.7-17.3c0.3,0,0.7,0,1,0c0.3,0,0.7,0,1,0
		L549.4,393.5z M539.1,379.5l-3.1,8h6L539.1,379.5z"/>
	<path class="st1" d="M563.9,381.6c0.9,0.9,1,2.1,1,4.1v8c0,1,0.2,1.3,0.6,1.3c0.4,0,0.8-0.3,1.1-0.5l0.3,0.5
		c-0.9,0.7-1.9,1.1-3.4,1.1c-2.2,0-2.8-1.1-2.8-2.4c-1,1.7-2.7,2.4-4.4,2.4c-2.2,0-3.7-1.2-3.7-3.4c0-2.1,1.4-3.3,4.2-4.3
		c2.2-0.8,3.9-1.4,3.9-2.7v-2.3c0-1.5-0.7-2.6-2.4-2.6c-0.7,0-1.6,0.2-2.1,0.7c1,0.4,1.8,1.1,1.8,2.3c0,1.2-1,2.1-2.4,2.1
		c-1.3,0-2.1-1-2.1-2.3c0-1.1,0.7-1.9,1.7-2.5c1-0.6,2.5-1,4.5-1C561.5,380.3,563,380.6,563.9,381.6z M560.7,387
		c-0.3,0.5-0.8,0.8-1.8,1.5c-1,0.8-2,1.7-2,3.5c0,1.6,0.8,2.3,1.8,2.3c0.7,0,1.4-0.3,2-1.2L560.7,387L560.7,387z"/>
</g>
<g>
	<path class="st1" d="M606.2,385c5.5,0.4,7.4,2.9,7.4,5.3c0,3.7-3.1,5.7-8.2,5.7c-0.9,0-2.8-0.1-5.3-0.1c-1.8,0-3.5,0-4.5,0.1v-0.6
		c1.9-0.1,2.2-0.4,2.2-2.5v-14.7c0-2.1-0.3-2.5-2.2-2.5V375c1,0.1,2.8,0.1,4.5,0.1c1.9,0,3.9-0.1,4.7-0.1c4.9,0,7.3,1.9,7.3,4.6
		C612,381.8,610.3,384.2,606.2,385L606.2,385L606.2,385z M602.5,378.2v6.7h1.3c2.8,0,3.5-2.3,3.5-4.8c0-2.9-0.8-4.4-2.9-4.4
		C602.8,375.6,602.5,376.1,602.5,378.2z M608.7,390.1c0-3-1.4-4.8-4.9-4.8h-1.2v7.5c0,2.1,0.3,2.5,2,2.5
		C607.5,395.3,608.7,393.4,608.7,390.1z"/>
	<path class="st1" d="M631.4,387.9c0,6.1-3.1,8.5-6.8,8.5c-1.3,0-2.4-0.3-3.3-1c-0.2,0-0.3,0-0.5,0c-1.3,0-2.6,0.5-3.3,1.1l-0.5-0.3
		c0.2-0.5,0.2-1.1,0.2-1.7v-18.1c0-1.8-0.5-2.6-1.9-2.6v-0.6c0.6,0.1,1.2,0.1,1.8,0.1c1.7,0,3.1-0.1,4.3-0.4v10.3
		c0.8-1.9,2.5-2.8,4.5-2.8C629.1,380.3,631.4,382.8,631.4,387.9z M626.9,388.3c0-5-1-6.8-2.6-6.8c-1.2,0-2.4,1-2.8,2.6V395
		c0.7,0.5,1.4,0.8,2.2,0.8C625.9,395.8,626.9,393.4,626.9,388.3z"/>
</g>
<g>
	<path class="st1" d="M675,376.5c0.2,0.2,0.4,0.3,0.6,0.3c0.4,0,0.7-0.5,0.8-1.8h0.7c-0.1,1.5-0.1,3.5-0.1,7.2h-0.7
		c-0.3-2.7-0.7-4.1-2.2-5.4c-1-1-2.3-1.5-3.7-1.5c-4.2,0-5.9,5-5.9,10.2c0,5.3,1.8,10.1,6,10.1c1.3,0,2.7-0.5,3.7-1.4
		c1.5-1.2,1.9-2.8,2.2-5.7h0.7c0,3.8,0,5.9,0.1,7.5h-0.7c-0.1-1.2-0.3-1.8-0.7-1.8c-0.2,0-0.4,0.1-0.6,0.3c-1.4,1-2.9,1.9-5.5,1.9
		c-6.3,0-10.4-3.9-10.4-10.7c0-6.6,4.3-11.1,10.5-11.1C672.2,374.6,673.7,375.5,675,376.5z"/>
	<path class="st1" d="M691.6,381.2c1,0.6,1.6,1.6,1.6,2.8c0,1.4-1,2.4-2.3,2.4c-1.4,0-2.3-0.9-2.3-2.2c0-1.2,0.9-2.1,2-2.4
		c-0.3-0.4-1-0.7-1.8-0.7c-2.5,0-3.7,3-3.7,7c0,4.6,2,6,3.9,6c1.1,0,2.7-0.4,3.9-2.4l0.5,0.2c-0.7,2.2-2.5,4.7-5.9,4.7
		c-3.8,0-6.9-2.4-6.9-8c0-5.3,3.1-8.1,7.3-8.1C689.4,380.3,690.7,380.6,691.6,381.2z"/>
</g>
<g>
	<path class="st1" d="M742.8,385.3c0,6.4-4.3,10.7-11.8,10.7c-0.9,0-3-0.1-4.3-0.1c-1.8,0-3.5,0-4.5,0.1v-0.6
		c1.9-0.1,2.2-0.4,2.2-2.5v-14.7c0-2.1-0.3-2.5-2.2-2.5V375c0.8,0,2.2,0.1,3.6,0.1c0.3,0,0.6,0,0.9,0c1.4,0,3.5-0.1,4.7-0.1
		C739,375,742.8,378.7,742.8,385.3z M729,378.1v14.8c0,2.1,0.4,2.5,2.2,2.5c5,0,6.6-3.6,6.6-10c0-6.6-1.8-9.8-6.6-9.8
		C729.4,375.6,729,376.1,729,378.1z"/>
	<path class="st1" d="M760,392.7c0,1.8,0.5,2.6,1.9,2.6v0.6c-0.6-0.1-1.2-0.1-1.8-0.1c-1.7,0-3.1,0.1-4.3,0.4v-2.5
		c-0.7,1.7-1.9,2.6-3.8,2.6c-3.5,0-6-2.5-6-8.1c0-5.4,2.8-8,6.6-8c1.3,0,2.5,0.3,3.3,1.1v-5c0-1.8-0.5-2.6-1.9-2.6v-0.6
		c0.6,0.1,1.2,0.1,1.8,0.1c1.7,0,3.1-0.1,4.3-0.4L760,392.7L760,392.7z M755.8,392.6v-10.5c-0.5-0.7-1.3-1-2.2-1
		c-2,0-3.3,2.3-3.3,7.2c0,5,1.1,6.8,2.8,6.8C754.4,395.1,755.5,394.2,755.8,392.6z"/>
</g>
<g>
	<path class="st1" d="M548.8,450.6c-2-0.1-4.8-0.1-6.8-0.1c-2,0-6.4,0-9.6,0.1V450c1.9-0.1,2.2-0.4,2.2-2.5v-14.7
		c0-2.1-0.3-2.5-2.2-2.5v-0.6c3.2,0.1,7.7,0.1,9.6,0.1c1.8,0,4.4,0,6.2-0.1c-0.1,1.8-0.2,3.5-0.2,4.4c0,0.8,0,1.5,0.1,2h-0.7
		c-0.6-4.3-2.1-5.7-4.8-5.7h-1.2c-1.7,0-2,0.3-2,2.1v7.3h1c2.4,0,3.2-2.3,3.5-3.9h0.7c-0.1,1.3-0.1,2.1-0.1,2.8c0,0.5,0,1,0,1.4
		c0,1,0,2,0.2,4.2h-0.7c-0.3-2.1-1.2-3.9-3.6-3.9h-1v7.5c0,1.9,0.3,2.1,2,2.1h1.5c2.6,0,4.5-1.5,5.2-6.3h0.7
		c-0.1,0.6-0.1,1.5-0.1,2.5C548.6,447,548.6,448.9,548.8,450.6z"/>
	<path class="st1" d="M564,446.2l0.5,0.2c-0.7,2.2-2.6,4.6-5.9,4.6c-4,0-6.8-2.5-6.8-7.9c0-5.5,3-8.2,7.2-8.2c3.5,0,5.6,1.9,5.6,6.6
		h-8.3c0,0.4-0.1,0.9-0.1,1.4c0,4.1,2,5.7,3.8,5.7C561.3,448.6,562.8,448.2,564,446.2z M556.3,440.9h4.6c0.1-2.9-0.6-5.4-2-5.4
		C557.6,435.6,556.5,437.1,556.3,440.9z"/>
</g>
<g>
	<path class="st1" d="M611.2,434.2c0,0.9,0,1.7,0.1,2.3h-0.7c-0.8-4.6-2.3-6.1-5.1-6.1h-1c-1.7,0-2,0.3-2,2.1v7.5h1
		c2.4,0,3.2-2.3,3.5-3.9h0.7c-0.1,1.3-0.1,2.2-0.1,2.9c0,0.5,0,0.9,0,1.3c0,1,0,2,0.2,4.2h-0.7c-0.3-2.1-1.2-3.9-3.6-3.9h-1v6.8
		c0,2.3,0.5,2.6,3.2,2.7v0.6c-1.2,0-3.3-0.1-5.4-0.1c-1.7,0-3.4,0-4.7,0.1V450c1.9-0.1,2.2-0.4,2.2-2.5v-14.7c0-2.1-0.3-2.5-2.2-2.5
		v-0.6c3.2,0.1,7.7,0.1,9.6,0.1c1.8,0,4.4,0,6.2-0.1C611.3,431.5,611.2,433.3,611.2,434.2z"/>
	<path class="st1" d="M623.8,428.5c0.6,0.5,1,1.2,1,2.2c0,1.1-0.8,2.1-2.1,2.1c-1.3,0-2.3-0.8-2.3-2.1c0-1,0.6-1.9,1.7-2.2
		c-0.1-0.2-0.5-0.4-1.1-0.4c-0.8,0-1.3,0.3-1.6,0.8c-0.4,0.6-0.5,1.6-0.5,3.9v2.7h3.2v0.6H619v11.6c0,1.9,1,2.4,2.8,2.4v0.6
		c-1,0-3-0.1-5.1-0.1c-1.5,0-3.1,0.1-3.8,0.1V450c1.4,0,1.9-0.5,1.9-2.1v-11.9h-2v-0.6h2c0-3.5,0.5-5,1.9-6.4
		c0.9-0.9,2.4-1.5,4.1-1.5C622,427.5,623,427.9,623.8,428.5z"/>
</g>
<g>
	<path class="st1" d="M675.4,431.2c0.2,0.2,0.4,0.3,0.6,0.3c0.4,0,0.6-0.6,0.7-1.8h0.7c-0.1,1.5-0.1,3.5-0.1,7.2h-0.7
		c-0.3-2.4-0.7-4.1-2.2-5.4c-1-0.9-2.5-1.5-3.9-1.5c-4.3,0-6.1,5-6.1,10.2c0,7.1,2,10.3,5.7,10.3c0.9,0,1.7-0.3,2.1-0.6
		c0.5-0.4,0.7-0.8,0.7-1.5v-2.9c0-2.7-0.5-3.1-3-3.2v-0.6c1.2,0.1,3.5,0.1,5,0.1c1.7,0,3.1,0,4-0.1v0.6c-1.1,0.1-1.3,0.4-1.3,2.5
		v5.9H677c0-0.7-0.3-1.7-0.9-1.7c-0.3,0-0.6,0.1-1.6,0.6c-1.4,0.8-3.1,1.5-4.8,1.5c-6.9,0-10.5-4-10.5-10.6
		c0-6.7,4.5-11.1,10.7-11.1C672.5,429.3,674.1,430.2,675.4,431.2z"/>
	<path class="st1" d="M692,446.8c2.2,0,4,0.8,4,3.2c0,2.8-2.7,6.2-8.6,6.2c-4.5,0-6.5-1.1-6.5-2.6c0-1.9,2.9-1.8,4.5-2.8h-0.7
		c-1.1,0-3.3-0.4-3.3-2.7c0-1.7,1-2.8,3.8-4.2c-2-0.6-3.3-2-3.3-4.3c0-3.3,2.7-4.7,6.3-4.7c0.8,0,1.5,0.1,2.2,0.2c0-0.5,0-1,0.1-1.5
		c0.2-1.5,1-2.7,2.8-2.7c1.3,0,2.2,0.7,2.2,1.8c0,1-0.9,1.7-2,1.7c-1.3,0-1.8-0.6-2.2-1.7c-0.2,0.4-0.3,0.9-0.4,1.5
		c0,0.1,0,0.3,0,0.4c0,0.2,0,0.3,0,0.5c2.3,0.6,3.8,2,3.8,4.4c0,3.3-2.7,4.7-6.4,4.7c-0.9,0-1.8-0.1-2.6-0.3c-1,0.6-1.7,1.1-1.7,1.8
		c0,0.7,0.4,1,1.2,1L692,446.8L692,446.8z M692.7,452c0-0.8-0.4-1.2-1.7-1.2h-5.1c-0.7,0.7-1,1.7-1,2.3c0,1.7,1.5,2.6,3.3,2.6
		C690.6,455.7,692.7,454.3,692.7,452z M686.2,439.6c0,3.2,0.8,4.2,2,4.2s2-1,2-4.2s-0.8-4.2-2-4.2S686.2,436.5,686.2,439.6z"/>
</g>
<g>
	<path class="st1" d="M743.8,430.3c-1.9,0.1-2.2,0.4-2.2,2.5v14.7c0,2.1,0.4,2.5,2.2,2.5v0.6c-1-0.1-2.7-0.1-4.5-0.1
		c-1.7,0-3.5,0-4.7,0.1V450c1.9-0.1,2.2-0.4,2.2-2.5v-7.1H729v7.1c0,2.1,0.3,2.5,2.2,2.5v0.6c-1.1-0.1-2.8-0.1-4.5-0.1
		c-1.9,0-3.7,0-4.7,0.1V450c1.9-0.1,2.2-0.4,2.2-2.5v-14.7c0-2.1-0.3-2.5-2.2-2.5v-0.6c1,0.1,2.8,0.1,4.7,0.1c1.7,0,3.4,0,4.5-0.1
		v0.6c-1.9,0.1-2.2,0.4-2.2,2.5v7h7.8v-7c0-2.1-0.3-2.5-2.2-2.5v-0.6c1.1,0.1,2.9,0.1,4.7,0.1c1.8,0,3.5,0,4.5-0.1V430.3z"/>
	<path class="st1" d="M752.2,437.7c1-2,2.8-2.7,4.8-2.7c1.7,0,2.7,0.5,3.3,1.1c0.7,0.8,0.9,1.8,0.9,3.8v8c0,1.6,0.5,2.1,1.9,2.1v0.6
		c-0.8,0-2.5-0.1-3.9-0.1c-1.5,0-3.1,0.1-3.8,0.1V450c1.2,0,1.6-0.5,1.6-2.1v-9.2c0-1.5-0.3-2.5-1.8-2.5c-1.6,0-2.9,1.4-2.9,3.4v8.2
		c0,1.6,0.4,2.1,1.6,2.1v0.6c-0.7,0-2.2-0.1-3.7-0.1c-1.5,0-3.3,0.1-4.1,0.1V450c1.4,0,1.9-0.5,1.9-2.1V431c0-1.8-0.5-2.6-1.9-2.6
		v-0.6c0.6,0.1,1.2,0.1,1.8,0.1c1.7,0,3.1-0.1,4.3-0.4V437.7z"/>
</g>
<g class="st2">
	<g>
		<path class="st1" d="M323.1,456c4,10.4,9.6,13.7,13.7,13.9v4.4c-8.6-0.4-21.1-0.6-33-0.6c-13.5,0-25.9,0.2-33.1,0.6V470
			c10.4-0.4,15.3-2,15.3-8c0-2.5-0.9-6-2.5-10.3L270.3,416H223l-5.8,15.1c-4.1,10.6-5.9,18.4-5.9,24.1c0,11.5,7.4,14.5,19.3,14.8
			v4.4c-9.9-0.4-18.1-0.6-27.1-0.6c-6.4,0-12.3,0.2-16.7,0.6V470c6.4-1.2,12.8-6.8,18.9-22.8l49.5-127.3c2.3,0.2,4.9,0.3,7.5,0.3
			c2.5,0,5.2-0.1,7.5-0.3L323.1,456z M247.1,353.1l-22.5,58.5h44.1L247.1,353.1z"/>
		<path class="st1" d="M429.8,368.5c6.4,6.6,7.8,15.3,7.8,30.5v59.2c0,7,1.2,9.7,4.7,9.7c3.1,0,5.5-1.8,8-3.7l2.2,3.7
			c-6.6,5.3-13.8,8-24.9,8c-15.9,0-20.8-8.3-20.9-17.6c-7.4,12.2-19.9,17.6-32.1,17.6c-16.3,0-27.5-8.9-27.5-24.8
			c0-15.7,10.4-24.5,30.6-32c16-6.1,28.6-10.2,28.6-19.5v-17c0-11.4-4.9-19.4-17.7-19.4c-5.2,0-11.6,1.5-15.5,5.3
			c7.8,2.7,12.9,8.3,12.9,17.1c0,9-7,15.6-17.7,15.6c-9.5,0-15.4-7.2-15.4-16.8c0-8,5.1-14,12.2-18.2c7.8-4.4,18.4-7.4,33-7.4
			C411.9,358.7,422.8,361.3,429.8,368.5z M406.2,408.5c-2,3.3-6.2,6.2-13.5,10.7c-7.6,5.6-14.8,12.8-14.8,25.8
			c0,12,5.8,16.9,13.6,16.9c5.3,0,10.1-2.3,14.7-8.8L406.2,408.5L406.2,408.5z"/>
	</g>
</g>
<g>
	<g>
		<path class="st1" d="M1501.1,957.1h2.2l9.4,20.8h-2.5l-2.4-5.5h-11.3l-2.4,5.5h-2.4L1501.1,957.1z M1506.9,970.3l-4.7-10.5
			l-4.7,10.5H1506.9z"/>
		<path class="st1" d="M1516,973.5L1516,973.5c0-3.3,2.7-5,6.5-5c1.9,0,3.3,0.3,4.7,0.7v-0.5c0-2.8-1.7-4.2-4.6-4.2
			c-1.8,0-3.2,0.5-4.6,1.1l-0.7-1.9c1.7-0.8,3.3-1.3,5.6-1.3c2.2,0,3.8,0.6,4.9,1.7c1,1,1.6,2.5,1.6,4.5v9.3h-2.2v-2.3
			c-1.1,1.4-2.8,2.6-5.5,2.6C1518.9,978.3,1516,976.6,1516,973.5z M1527.3,972.3v-1.5c-1.1-0.3-2.6-0.7-4.5-0.7
			c-2.9,0-4.5,1.2-4.5,3.2v0.1c0,1.9,1.8,3,3.8,3C1525,976.5,1527.3,974.7,1527.3,972.3z"/>
	</g>
	<g>
		<path class="st1" d="M1556.7,957.2h8.8c2.4,0,4.2,0.7,5.4,1.8c0.9,0.9,1.3,2,1.3,3.3v0.1c0,2.7-1.7,4.1-3.3,4.8
			c2.4,0.7,4.4,2.2,4.4,5v0.1c0,3.5-3,5.7-7.5,5.7h-9.2L1556.7,957.2L1556.7,957.2z M1569.9,962.7c0-2-1.6-3.4-4.6-3.4h-6.3v7.1h6.1
			C1567.9,966.5,1569.9,965.2,1569.9,962.7L1569.9,962.7z M1565.5,968.5h-6.5v7.3h6.9c3.1,0,5.1-1.4,5.1-3.7v-0.1
			C1571,969.8,1569.2,968.5,1565.5,968.5z"/>
		<path class="st1" d="M1580.7,975v2.9h-2.3v-21.6h2.3v9.4c1.2-1.8,3-3.4,5.8-3.4c3.7,0,7.3,2.9,7.3,7.9v0.1c0,5-3.6,8-7.3,8
			C1583.7,978.3,1581.9,976.7,1580.7,975z M1591.5,970.3L1591.5,970.3c0-3.7-2.5-6-5.4-6c-2.8,0-5.5,2.4-5.5,5.9v0.1
			c0,3.5,2.7,5.9,5.5,5.9C1589.1,976.2,1591.5,974,1591.5,970.3z"/>
	</g>
	<g>
		<path class="st1" d="M1619,967.6L1619,967.6c0-5.9,4.4-10.8,10.5-10.8c3.8,0,6,1.3,8.1,3.3l-1.6,1.7c-1.7-1.7-3.7-2.8-6.5-2.8
			c-4.6,0-8,3.7-8,8.5v0.1c0,4.8,3.5,8.5,8,8.5c2.8,0,4.7-1.1,6.7-3l1.5,1.5c-2.2,2.2-4.5,3.6-8.3,3.6
			C1623.5,978.3,1619,973.6,1619,967.6z"/>
		<path class="st1" d="M1640.9,970.4L1640.9,970.4c0-4.4,3.4-8,7.8-8c2.9,0,4.7,1.2,6.1,2.7l-1.5,1.6c-1.2-1.3-2.6-2.3-4.6-2.3
			c-3.1,0-5.5,2.6-5.5,5.9v0.1c0,3.3,2.4,5.9,5.6,5.9c1.9,0,3.5-1,4.7-2.3l1.4,1.4c-1.5,1.7-3.4,3-6.2,3
			C1644.3,978.3,1640.9,974.6,1640.9,970.4z"/>
	</g>
	<g>
		<path class="st1" d="M1683.2,957.2h7.2c6.5,0,11,4.5,11,10.3v0.1c0,5.8-4.5,10.3-11,10.3h-7.2V957.2z M1685.6,959.4v16.4h4.8
			c5.2,0,8.6-3.5,8.6-8.1v-0.1c0-4.6-3.3-8.2-8.6-8.2H1685.6z"/>
		<path class="st1" d="M1705.8,970.3L1705.8,970.3c0-5.1,3.6-8,7.3-8c2.8,0,4.7,1.5,5.8,3.3v-9.2h2.3v21.6h-2.3v-3.1
			c-1.2,1.8-3,3.4-5.8,3.4C1709.4,978.3,1705.8,975.3,1705.8,970.3z M1719,970.3L1719,970.3c0-3.6-2.7-5.9-5.5-5.9
			c-3,0-5.4,2.2-5.4,5.9v0.1c0,3.6,2.5,5.9,5.4,5.9C1716.4,976.2,1719,973.8,1719,970.3z"/>
	</g>
	<g>
		<path class="st1" d="M1493.5,1011.9h15v2.1h-12.6v7.1h11.3v2.1h-11.3v7.2h12.8v2.1h-15.1L1493.5,1011.9L1493.5,1011.9z"/>
		<path class="st1" d="M1512.4,1025L1512.4,1025c0-4.5,3.1-8,7.3-8c4.5,0,7.1,3.6,7.1,8.1c0,0.3,0,0.5,0,0.7h-12.1
			c0.3,3.3,2.7,5.2,5.4,5.2c2.1,0,3.6-0.9,4.8-2.2l1.4,1.3c-1.5,1.7-3.4,2.9-6.3,2.9C1515.8,1032.9,1512.4,1029.7,1512.4,1025z
			 M1524.5,1024.1c-0.2-2.8-1.8-5.2-4.9-5.2c-2.7,0-4.7,2.2-5,5.2H1524.5z"/>
	</g>
	<g>
		<path class="st1" d="M1556.7,1011.9h14.9v2.2H1559v7.4h11.2v2.1H1559v9h-2.3L1556.7,1011.9L1556.7,1011.9z"/>
		<path class="st1" d="M1577.3,1019.3h-2.1v-2h2.1v-1.3c0-1.7,0.5-3.1,1.3-3.9c0.8-0.8,1.9-1.2,3.3-1.2c1.1,0,1.8,0.1,2.5,0.4v2
			c-0.8-0.2-1.4-0.4-2.2-0.4c-1.8,0-2.7,1.1-2.7,3.3v1.2h4.8v2h-4.8v13.3h-2.3L1577.3,1019.3L1577.3,1019.3z"/>
	</g>
	<g>
		<path class="st1" d="M1619,1022.3L1619,1022.3c0-5.7,4.2-10.8,10.4-10.8c3.5,0,5.7,1,7.7,2.8l-1.5,1.8c-1.6-1.4-3.4-2.4-6.3-2.4
			c-4.6,0-7.9,3.9-7.9,8.5v0.1c0,4.9,3.2,8.6,8.2,8.6c2.4,0,4.6-0.9,6-2.1v-5.1h-6.3v-2.1h8.5v8.3c-1.9,1.7-4.8,3.2-8.3,3.2
			C1623.1,1032.9,1619,1028.2,1619,1022.3z"/>
		<path class="st1" d="M1643.3,1035.2l1-1.8c1.7,1.3,3.7,1.9,5.9,1.9c3.4,0,5.6-1.9,5.6-5.4v-1.8c-1.3,1.8-3.2,3.2-6,3.2
			c-3.7,0-7.2-2.8-7.2-7.2v-0.1c0-4.5,3.6-7.2,7.2-7.2c2.9,0,4.7,1.4,6,3.1v-2.8h2.3v12.6c0,2.4-0.7,4.2-1.9,5.4
			c-1.4,1.4-3.4,2-5.8,2C1647.7,1037.4,1645.4,1036.7,1643.3,1035.2z M1655.8,1024.2L1655.8,1024.2c0-3.2-2.7-5.2-5.6-5.2
			s-5.3,2-5.3,5.1v0.1c0,3.1,2.4,5.2,5.3,5.2C1653.1,1029.4,1655.8,1027.3,1655.8,1024.2z"/>
	</g>
	<g>
		<path class="st1" d="M1683.2,1011.9h2.3v9.2h11.9v-9.2h2.3v20.7h-2.3v-9.3h-11.9v9.3h-2.3V1011.9z"/>
		<path class="st1" d="M1706,1011h2.3v9c1-1.7,2.6-3,5.2-3c3.7,0,5.8,2.5,5.8,6.1v9.5h-2.3v-8.9c0-2.8-1.5-4.6-4.2-4.6
			c-2.6,0-4.6,1.9-4.6,4.8v8.8h-2.3L1706,1011L1706,1011z"/>
	</g>
</g>
<g>
	<g>
		<path class="st1" d="M1150.2,751.3L1150.2,751.3c0-5.5,4.2-9.9,10-9.9c3.4,0,5.5,0.9,7.5,2.6l-2.6,3.2c-1.5-1.2-2.8-1.9-5-1.9
			c-3.1,0-5.5,2.7-5.5,5.9v0c0,3.5,2.4,6,5.8,6c1.5,0,2.9-0.4,3.9-1.1v-2.7h-4.2v-3.6h8.3v8.3c-2,1.7-4.6,3-8.1,3
			C1154.3,761,1150.2,756.9,1150.2,751.3z"/>
		<path class="st1" d="M1172.3,751.3L1172.3,751.3c0-5.5,4.3-9.9,10.2-9.9s10.1,4.4,10.1,9.8v0c0,5.4-4.3,9.8-10.2,9.8
			C1176.5,761,1172.3,756.7,1172.3,751.3z M1188.1,751.3L1188.1,751.3c0-3.3-2.4-6-5.8-6c-3.4,0-5.7,2.7-5.7,5.9v0
			c0,3.3,2.4,6,5.8,6C1185.8,757.2,1188.1,754.5,1188.1,751.3z"/>
		<path class="st1" d="M1200.5,745.5h-5.8v-3.9h15.8v3.9h-5.8v15.2h-4.2L1200.5,745.5L1200.5,745.5z"/>
		<path class="st1" d="M1214.4,741.7h4.2v7.5h7.7v-7.5h4.2v19h-4.2v-7.6h-7.7v7.6h-4.2V741.7z"/>
		<path class="st1" d="M1242.3,741.5h3.9l8.2,19.2h-4.4l-1.7-4.3h-8.1l-1.7,4.3h-4.3L1242.3,741.5z M1246.7,752.8l-2.5-6.2l-2.5,6.2
			H1246.7z"/>
		<path class="st1" d="M1257.9,741.7h4.5l5,8l5-8h4.5v19h-4.2v-12.4l-5.4,8.1h-0.1l-5.3-8v12.3h-4.1L1257.9,741.7L1257.9,741.7z"/>
	</g>
	<g class="st2">
		<path class="st1" d="M1151.1,705.2h8.8c2.2,0,3.9,0.6,5,1.7c0.9,0.9,1.3,1.9,1.3,3.2v0c0,2.2-1.1,3.3-2.5,4.1
			c2.2,0.8,3.6,2.1,3.6,4.7v0c0,3.5-2.8,5.2-7.1,5.2h-9.1V705.2z M1162.1,710.8c0-1.3-1-2-2.8-2h-4.1v4h3.9
			C1160.9,712.9,1162,712.3,1162.1,710.8L1162.1,710.8L1162.1,710.8z M1160,716.4h-4.8v4.2h5c1.8,0,3-0.7,3-2.1v0
			C1163.1,717.2,1162.2,716.4,1160,716.4z"/>
		<path class="st1" d="M1170.6,714.8L1170.6,714.8c0-5.5,4.3-9.9,10.2-9.9c5.9,0,10.1,4.4,10.1,9.8v0c0,5.4-4.3,9.8-10.2,9.8
			C1174.8,724.6,1170.6,720.2,1170.6,714.8z M1186.4,714.8L1186.4,714.8c0-3.3-2.4-6-5.8-6c-3.4,0-5.7,2.7-5.7,5.9v0
			c0,3.3,2.4,6,5.8,6C1184.1,720.7,1186.4,718,1186.4,714.8z"/>
		<path class="st1" d="M1194.4,714.8L1194.4,714.8c0-5.5,4.3-9.9,10.2-9.9s10.1,4.4,10.1,9.8v0c0,5.4-4.3,9.8-10.1,9.8
			C1198.6,724.6,1194.4,720.2,1194.4,714.8z M1210.2,714.8L1210.2,714.8c0-3.3-2.4-6-5.8-6c-3.4,0-5.7,2.7-5.7,5.9v0
			c0,3.3,2.4,6,5.8,6C1207.9,720.7,1210.2,718,1210.2,714.8z"/>
		<path class="st1" d="M1219,705.2h4.2v8.3l7.7-8.3h5.1l-7.8,8.1l8.1,11h-5l-5.9-8.1l-2.2,2.3v5.8h-4.2L1219,705.2L1219,705.2z"/>
	</g>
</g>
<g>
	<g>
		<path class="st1" d="M192.4,751.3L192.4,751.3c0-5.5,4.2-9.9,10-9.9c3.4,0,5.5,0.9,7.5,2.6l-2.6,3.2c-1.5-1.2-2.8-1.9-5-1.9
			c-3.1,0-5.5,2.7-5.5,5.9v0c0,3.5,2.4,6,5.8,6c1.5,0,2.9-0.4,3.9-1.1v-2.7h-4.2v-3.6h8.3v8.3c-2,1.7-4.6,3-8.1,3
			C196.4,761,192.4,756.9,192.4,751.3z"/>
		<path class="st1" d="M214.4,751.3L214.4,751.3c0-5.5,4.3-9.9,10.1-9.9s10.1,4.4,10.1,9.8v0c0,5.4-4.3,9.8-10.1,9.8
			S214.4,756.7,214.4,751.3z M230.2,751.3L230.2,751.3c0-3.3-2.4-6-5.8-6s-5.7,2.7-5.7,5.9v0c0,3.3,2.4,6,5.8,6
			S230.2,754.5,230.2,751.3z"/>
		<path class="st1" d="M242.6,745.5h-5.8v-3.9h15.8v3.9h-5.8v15.2h-4.2V745.5z"/>
		<path class="st1" d="M256.5,741.7h4.2v7.5h7.7v-7.5h4.2v19h-4.2v-7.6h-7.7v7.6h-4.2V741.7z"/>
		<path class="st1" d="M284.4,741.5h3.9l8.2,19.2H292l-1.7-4.3h-8l-1.7,4.3h-4.3L284.4,741.5z M288.8,752.8l-2.5-6.2l-2.5,6.2H288.8
			z"/>
		<path class="st1" d="M300,741.7h4.5l5,8l5-8h4.5v19h-4.2v-12.4l-5.4,8.1h-0.1l-5.3-8v12.3H300L300,741.7L300,741.7z"/>
	</g>
	<g class="st2">
		<path class="st1" d="M194,705.2h8.8c2.2,0,3.9,0.6,5,1.7c0.9,0.9,1.3,1.9,1.3,3.2v0c0,2.2-1.1,3.3-2.5,4.1
			c2.2,0.8,3.6,2.1,3.6,4.7v0c0,3.5-2.8,5.2-7.1,5.2H194L194,705.2L194,705.2z M205,710.8c0-1.3-1-2-2.8-2h-4.1v4h3.9
			C203.8,712.9,205,712.3,205,710.8L205,710.8L205,710.8z M202.9,716.4h-4.8v4.2h5c1.9,0,3-0.7,3-2.1v0
			C206,717.2,205.1,716.4,202.9,716.4z"/>
		<path class="st1" d="M213.5,714.8L213.5,714.8c0-5.5,4.3-9.9,10.1-9.9s10.1,4.4,10.1,9.8v0c0,5.4-4.3,9.8-10.1,9.8
			C217.7,724.6,213.5,720.2,213.5,714.8z M229.3,714.8L229.3,714.8c0-3.3-2.4-6-5.8-6s-5.7,2.7-5.7,5.9v0c0,3.3,2.4,6,5.8,6
			S229.3,718,229.3,714.8z"/>
		<path class="st1" d="M238.1,705.2h4.2v15.2h9.5v3.8h-13.7V705.2z"/>
		<path class="st1" d="M255.6,705.2h7.4c6,0,10.1,4.1,10.1,9.5v0c0,5.4-4.1,9.5-10.1,9.5h-7.4L255.6,705.2L255.6,705.2z M259.8,709
			v11.5h3.2c3.4,0,5.7-2.3,5.7-5.7v0c0-3.4-2.3-5.7-5.7-5.7H259.8z"/>
	</g>
</g>
<g class="st2">
	<g>
		<path class="st1" d="M1226.4,901.3h16.1l69.4,153.4h-18.5l-17.8-40.3h-82.9l-18.1,40.3H1157L1226.4,901.3z M1268.8,998.8
			l-34.6-77.5l-34.8,77.5H1268.8z"/>
		<path class="st1" d="M1336,1022.1v-0.4c0-23.7,19.6-36.3,48.1-36.3c14.4,0,24.6,2,34.6,4.8v-3.9c0-20.2-12.4-30.7-33.5-30.7
			c-13.3,0-23.7,3.5-34.2,8.3l-5-13.7c12.4-5.7,24.6-9.3,40.9-9.3c15.9,0,28.1,4.1,36.3,12.4c7.6,7.6,11.5,18.5,11.5,32.8v68.7
			h-16.1v-17c-7.8,10.2-20.9,19.4-40.7,19.4C1357.1,1057.1,1336,1045.1,1336,1022.1z M1418.9,1013.4v-10.9
			c-8.3-2.4-19.4-4.8-33.1-4.8c-21.1,0-32.8,9.1-32.8,23.3v0.4c0,14.1,13.1,22.4,28.3,22.4
			C1401.9,1043.8,1418.9,1031.2,1418.9,1013.4z"/>
	</g>
</g>
</svg>
