<?xml version="1.0" encoding="utf-8"?>
<!-- Generator: Adobe Illustrator 23.1.0, SVG Export Plug-In . SVG Version: 6.00 Build 0)  -->
<svg version="1.1" id="Layer_1" xmlns="http://www.w3.org/2000/svg" xmlns:xlink="http://www.w3.org/1999/xlink" x="0px" y="0px"
	 viewBox="0 0 1920 670" style="enable-background:new 0 0 1920 670;" xml:space="preserve">
<style type="text/css">
	.st0{fill:#0046EB;}
	.st1{fill:none;stroke:#0045E2;stroke-width:1.5574;stroke-miterlimit:10;}
	.st2{fill:#FFFFFF;stroke:#0046EB;stroke-width:1.0382;stroke-miterlimit:10;}
	.st3{fill:#F4F8FF;}
	.st4{fill:#282828;}
	.st5{fill:#BEC1C7;}
</style>
<g>
	<g>
		<path class="st0" d="M74.96,259.59c0.24,0.3,0.38,0.7,0.38,1.05c0,0.97-0.84,1.73-1.84,1.73c-0.51,0-1.03-0.22-1.4-0.62
			c-1.03-1.08-2.35-1.73-3.7-1.73c-3.27,0-5.64,2.51-5.64,5.92s2.38,5.91,5.64,5.91c1.35,0,2.7-0.59,3.7-1.7
			c0.38-0.41,0.92-0.62,1.46-0.62c0.97,0,1.75,0.76,1.75,1.67c0,0.38-0.11,0.76-0.38,1.05c-1.35,1.65-3.43,3-6.54,3
			c-5.4,0-9.59-3.78-9.59-9.32s4.19-9.32,9.59-9.32C71.51,256.62,73.59,257.95,74.96,259.59z"/>
		<path class="st0" d="M85.55,275.26c-4.29,0-6.89-3.13-6.89-6.86c0-3.7,2.59-6.83,6.89-6.83c4.32,0,6.91,3.13,6.91,6.83
			C92.46,272.13,89.87,275.26,85.55,275.26z M85.55,264.62c-2.13,0-3.32,1.76-3.32,3.78c0,2.05,1.19,3.81,3.32,3.81
			c2.13,0,3.35-1.76,3.35-3.81C88.9,266.37,87.68,264.62,85.55,264.62z"/>
		<path class="st0" d="M98.05,275.1c-0.95,0-1.7-0.76-1.7-1.7v-14.96c0-0.92,0.76-1.67,1.76-1.67c0.92,0,1.67,0.76,1.67,1.67v14.96
			C99.78,274.34,99.02,275.1,98.05,275.1z"/>
		<path class="st0" d="M110.58,275.26c-4.29,0-6.89-3.13-6.89-6.86c0-3.7,2.59-6.83,6.89-6.83c4.32,0,6.91,3.13,6.91,6.83
			C117.5,272.13,114.9,275.26,110.58,275.26z M110.58,264.62c-2.13,0-3.32,1.76-3.32,3.78c0,2.05,1.19,3.81,3.32,3.81
			s3.35-1.76,3.35-3.81C113.93,266.37,112.71,264.62,110.58,264.62z"/>
		<path class="st0" d="M127.49,264.94c-1.05,0.14-2.05,0.57-2.67,1.38v7.08c0,0.95-0.76,1.7-1.67,1.7h-0.05
			c-0.95,0-1.7-0.76-1.7-1.7v-9.99c0-0.92,0.76-1.67,1.76-1.67c0.92,0,1.67,0.76,1.67,1.67v0.27c0.65-0.86,1.51-1.89,2.81-1.89
			c1,0,1.51,0.62,1.51,1.4C129.13,264.21,128.43,264.81,127.49,264.94z"/>
		<path class="st0" d="M137.15,275.26c-1.7,0-4.43-0.57-5.24-1.73c-0.16-0.22-0.24-0.46-0.24-0.73c0-0.81,0.7-1.43,1.43-1.43
			c0.24,0,0.49,0.05,0.7,0.19c1.03,0.59,2.38,1.05,3.51,1.05c1.49,0,2.19-0.59,2.19-1.4c0-2.16-7.75-0.41-7.75-5.54
			c0-2.19,1.92-4.11,5.35-4.11c1.7,0,4.02,0.54,4.75,1.59c0.13,0.19,0.22,0.43,0.22,0.68c0,0.73-0.65,1.3-1.35,1.3
			c-0.22,0-0.46-0.05-0.65-0.16c-0.84-0.49-1.89-0.78-2.94-0.78c-1.24,0-2.05,0.57-2.05,1.3c0,1.94,7.72,0.32,7.72,5.59
			C142.8,273.45,140.77,275.26,137.15,275.26z"/>
	</g>
	<g>
		<path class="st0" d="M66.94,359.14h-5.79v3.65h5.66c0.45,0,0.8,0.35,0.8,0.84c0,0.43-0.36,0.8-0.8,0.8h-5.66v4.73
			c0,0.5-0.41,0.92-0.93,0.92c-0.5,0-0.92-0.41-0.92-0.92v-10.45c0-0.67,0.54-1.21,1.21-1.21h6.43c0.45,0,0.8,0.36,0.8,0.84
			C67.75,358.77,67.39,359.14,66.94,359.14z"/>
		<path class="st0" d="M74.1,370.19c-2.8,0-4.54-2.15-4.54-4.75s1.74-4.73,4.54-4.73c2.82,0,4.56,2.13,4.56,4.73
			S76.92,370.19,74.1,370.19z M74.1,362.19c-1.79,0-2.82,1.53-2.82,3.25c0,1.74,1.03,3.27,2.82,3.27c1.81,0,2.82-1.53,2.82-3.27
			C76.92,363.72,75.91,362.19,74.1,362.19z"/>
		<path class="st0" d="M85.18,362.43c-0.86,0.07-1.7,0.45-2.24,1.25v5.57c0,0.45-0.37,0.82-0.84,0.82h-0.02
			c-0.45-0.02-0.8-0.37-0.8-0.82v-7.63c0-0.43,0.37-0.8,0.86-0.8c0.43,0,0.8,0.37,0.8,0.8v0.71c0.5-0.69,1.33-1.53,2.34-1.53
			c0.43,0,0.75,0.32,0.75,0.75C86.02,362.04,85.65,362.39,85.18,362.43z"/>
		<path class="st0" d="M94.34,370.08c-0.65,0-1.18-0.52-1.18-1.18v-10.36c0-0.63,0.52-1.16,1.21-1.16c0.64,0,1.16,0.52,1.16,1.16
			v10.36C95.53,369.55,95.01,370.08,94.34,370.08z"/>
		<path class="st0" d="M100.95,358.54c0,0.79-0.63,1.42-1.42,1.42c-0.77,0-1.42-0.64-1.42-1.42s0.65-1.4,1.42-1.4
			C100.32,357.14,100.95,357.76,100.95,358.54z M99.53,370.08c-0.65,0-1.18-0.52-1.18-1.18v-6.92c0-0.64,0.52-1.16,1.21-1.16
			c0.64,0,1.16,0.52,1.16,1.16v6.92C100.73,369.55,100.21,370.08,99.53,370.08z"/>
		<path class="st0" d="M107.25,373.63c-1.1,0-2.95-0.28-3.5-1.12c-0.09-0.15-0.15-0.34-0.15-0.52c0-0.58,0.47-0.99,0.99-0.99
			c0.17,0,0.34,0.04,0.5,0.13c0.63,0.39,1.35,0.56,2.15,0.56c1.14,0,2.49-0.5,2.49-2.28v-0.92c-0.71,0.9-1.68,1.42-2.79,1.42
			c-2.26,0-3.98-1.59-3.98-4.6c0-2.95,1.7-4.6,3.98-4.6c1.08,0,2.06,0.47,2.79,1.38V362c0-0.65,0.52-1.18,1.22-1.18
			c0.65,0,1.18,0.52,1.18,1.18v7.35C112.13,372.79,109.47,373.63,107.25,373.63z M109.74,363.85c-0.39-0.6-1.25-1.03-2.04-1.03
			c-1.35,0-2.28,0.93-2.28,2.49s0.93,2.49,2.28,2.49c0.79,0,1.64-0.45,2.04-1.03V363.85z"/>
		<path class="st0" d="M122.24,370.08c-0.65,0-1.18-0.52-1.18-1.18v-4.43c0-1.25-0.65-1.64-1.68-1.64c-0.92,0-1.64,0.52-2.06,1.06
			v5.01c0,0.65-0.52,1.18-1.2,1.18c-0.65,0-1.18-0.52-1.18-1.18v-10.36c0-0.63,0.52-1.16,1.21-1.16c0.64,0,1.16,0.52,1.16,1.16v3.57
			c0.58-0.69,1.7-1.4,3.18-1.4c1.98,0,2.93,1.08,2.93,2.84v5.35C123.44,369.55,122.91,370.08,122.24,370.08z"/>
		<path class="st0" d="M129.28,370.19c-1.66,0-2.56-0.86-2.56-2.47v-4.71h-0.58c-0.56,0-1.03-0.47-1.03-1.06
			c0-0.54,0.47-1.01,1.03-1.01h0.58v-1.4c0-0.65,0.52-1.18,1.22-1.18c0.65,0,1.18,0.52,1.18,1.18v1.4h0.93
			c0.54,0,1.01,0.47,1.01,1.05c0,0.56-0.47,1.03-1.01,1.03h-0.93v4.08c0,0.71,0.45,0.99,0.82,0.99c0.06,0,0.15,0,0.21,0
			c0.67,0,1.05,0.45,1.05,1.03C131.19,369.7,130.83,370.19,129.28,370.19z"/>
		<path class="st0" d="M141.32,370.19c-1.66,0-2.56-0.86-2.56-2.47v-4.71h-0.58c-0.56,0-1.03-0.47-1.03-1.06
			c0-0.54,0.47-1.01,1.03-1.01h0.58v-1.4c0-0.65,0.52-1.18,1.22-1.18c0.65,0,1.18,0.52,1.18,1.18v1.4h0.93
			c0.54,0,1.01,0.47,1.01,1.05c0,0.56-0.47,1.03-1.01,1.03h-0.93v4.08c0,0.71,0.45,0.99,0.82,0.99c0.06,0,0.15,0,0.21,0
			c0.67,0,1.05,0.45,1.05,1.03C143.23,369.7,142.87,370.19,141.32,370.19z"/>
		<path class="st0" d="M152.36,370.08c-0.65,0-1.18-0.52-1.18-1.18v-4.43c0-1.25-0.65-1.64-1.68-1.64c-0.92,0-1.64,0.52-2.06,1.06
			v5.01c0,0.65-0.52,1.18-1.2,1.18c-0.65,0-1.18-0.52-1.18-1.18v-10.36c0-0.63,0.52-1.16,1.21-1.16c0.64,0,1.16,0.52,1.16,1.16v3.57
			c0.58-0.69,1.7-1.4,3.18-1.4c1.98,0,2.93,1.08,2.93,2.84v5.35C153.56,369.55,153.04,370.08,152.36,370.08z"/>
		<path class="st0" d="M163.86,366.21h-5.57c0.15,1.14,1.07,2.09,2.6,2.09c0.5,0,1.2-0.15,1.76-0.45c0.15-0.07,0.32-0.11,0.47-0.11
			c0.5,0,1.01,0.39,1.01,0.95c0,1.06-2.3,1.49-3.5,1.49c-2.75,0-4.82-1.85-4.82-4.75c0-2.62,1.92-4.73,4.67-4.73
			c2.04,0,3.59,1.18,4.22,3.05c0.13,0.41,0.26,0.92,0.26,1.37C164.96,365.7,164.47,366.21,163.86,366.21z M160.47,362.6
			c-1.48,0-2.11,1.1-2.22,2h4.45C162.64,363.74,162.04,362.6,160.47,362.6z"/>
		<path class="st0" d="M179.56,370.08c-0.65,0-1.18-0.52-1.18-1.18v-4.64c0-0.84-0.37-1.44-1.35-1.44c-0.84,0-1.53,0.56-1.87,1.05
			v5.03c0,0.65-0.52,1.18-1.21,1.18c-0.65,0-1.18-0.52-1.18-1.18v-4.64c0-0.84-0.37-1.44-1.35-1.44c-0.82,0-1.51,0.56-1.87,1.06
			v5.01c0,0.65-0.52,1.18-1.2,1.18c-0.65,0-1.18-0.52-1.18-1.18v-6.92c0-0.64,0.52-1.16,1.21-1.16c0.64,0,1.16,0.52,1.16,1.16v0.13
			c0.37-0.54,1.57-1.4,2.95-1.4c1.33,0,2.17,0.62,2.5,1.65c0.52-0.82,1.72-1.65,3.1-1.65c1.66,0,2.65,0.88,2.65,2.73v5.46
			C180.77,369.55,180.25,370.08,179.56,370.08z"/>
		<path class="st0" d="M191.05,366.21h-5.57c0.15,1.14,1.07,2.09,2.6,2.09c0.5,0,1.2-0.15,1.76-0.45c0.15-0.07,0.32-0.11,0.47-0.11
			c0.5,0,1.01,0.39,1.01,0.95c0,1.06-2.3,1.49-3.5,1.49c-2.75,0-4.82-1.85-4.82-4.75c0-2.62,1.93-4.73,4.67-4.73
			c2.04,0,3.59,1.18,4.22,3.05c0.13,0.41,0.26,0.92,0.26,1.37C192.15,365.7,191.66,366.21,191.05,366.21z M187.66,362.6
			c-1.48,0-2.11,1.1-2.22,2h4.45C189.83,363.74,189.23,362.6,187.66,362.6z"/>
		<path class="st0" d="M195.31,372.19c-0.09,0.08-0.21,0.13-0.32,0.13c-0.22,0-0.52-0.19-0.52-0.49c0-0.13,0.06-0.26,0.15-0.37
			c0.47-0.39,0.84-0.97,0.92-1.46c-0.04,0.02-0.19,0.04-0.28,0.04c-0.58,0-0.99-0.43-0.99-1.07c0-0.62,0.49-1.14,1.1-1.14
			c0.69,0,1.33,0.58,1.33,1.55C196.69,370.43,196.11,371.5,195.31,372.19z"/>
		<path class="st0" d="M209.34,370.19c-1.21,0-2.3-0.62-2.97-1.51v0.58c0,0.45-0.37,0.82-0.84,0.82c-0.45,0-0.82-0.37-0.82-0.82
			v-11.07c0-0.43,0.37-0.8,0.86-0.8c0.43,0,0.8,0.37,0.8,0.8v4.06c0.73-0.97,1.78-1.53,2.97-1.53c2.34,0,4.02,1.85,4.02,4.75
			C213.36,368.41,211.68,370.19,209.34,370.19z M208.87,362.19c-1.01,0-2.06,0.62-2.5,1.35v3.87c0.45,0.73,1.5,1.31,2.5,1.31
			c1.72,0,2.75-1.36,2.75-3.25C211.62,363.57,210.59,362.19,208.87,362.19z"/>
		<path class="st0" d="M216.8,370.08c-0.45,0-0.82-0.37-0.82-0.82v-11.07c0-0.43,0.37-0.8,0.86-0.8c0.43,0,0.8,0.37,0.8,0.8v11.07
			C217.64,369.7,217.26,370.08,216.8,370.08z"/>
		<path class="st0" d="M227.71,370.08c-0.45,0-0.82-0.37-0.82-0.82v-0.52c-0.67,0.77-1.83,1.46-3.21,1.46
			c-1.91,0-2.88-0.95-2.88-2.86v-5.7c0-0.43,0.37-0.8,0.86-0.8c0.43,0,0.8,0.37,0.8,0.8v5.12c0,1.5,0.77,1.96,1.92,1.96
			c1.05,0,2-0.6,2.5-1.29v-5.79c0-0.43,0.37-0.8,0.86-0.8c0.43,0,0.8,0.37,0.8,0.8v7.63C228.55,369.7,228.18,370.08,227.71,370.08z"
			/>
		<path class="st0" d="M239.19,365.98h-6.28c0.13,1.55,1.25,2.86,3.08,2.86c0.77,0,1.59-0.26,2.24-0.75
			c0.11-0.06,0.24-0.09,0.37-0.09c0.3,0,0.67,0.26,0.67,0.67c0,1.01-2.32,1.51-3.46,1.51c-2.69,0-4.65-1.91-4.65-4.75
			c0-2.62,1.89-4.73,4.5-4.73c2.19,0,3.68,1.37,4.21,3.38c0.07,0.3,0.17,0.69,0.17,1.05C240.05,365.59,239.65,365.98,239.19,365.98z
			 M235.65,362.06c-1.79,0-2.67,1.5-2.75,2.75h5.53C238.4,363.59,237.58,362.06,235.65,362.06z"/>
		<path class="st0" d="M254.32,370.08h-0.06c-0.34,0-0.77-0.28-0.77-0.82v-0.3c-0.73,0.8-1.76,1.23-2.97,1.23
			c-1.5,0-3.14-1.01-3.14-2.99c0-2.04,1.65-2.95,3.14-2.95c1.23,0,2.26,0.39,2.97,1.2v-1.51c0-1.14-0.93-1.81-2.21-1.81
			c-0.84,0-1.59,0.26-2.26,0.79c-0.13,0.09-0.28,0.15-0.41,0.15c-0.34,0-0.69-0.26-0.69-0.65c0-0.15,0.06-0.3,0.17-0.43
			c0.86-0.86,2.22-1.25,3.44-1.25c1.94,0,3.63,0.84,3.63,3.14v5.4C255.17,369.7,254.79,370.08,254.32,370.08z M253.5,366.45
			c-0.5-0.69-1.4-1.05-2.34-1.05c-1.22,0-2.09,0.75-2.09,1.83c0,1.05,0.88,1.78,2.09,1.78c0.93,0,1.83-0.34,2.34-1.03V366.45z"/>
		<path class="st0" d="M265.22,370.08c-0.45,0-0.82-0.37-0.82-0.82v-5.08c0-1.5-0.77-1.98-1.93-1.98c-1.07,0-2.02,0.64-2.5,1.33
			v5.74c0,0.45-0.37,0.82-0.84,0.82c-0.45,0-0.82-0.37-0.82-0.82v-7.63c0-0.43,0.37-0.8,0.86-0.8c0.43,0,0.8,0.37,0.8,0.8v0.58
			c0.62-0.73,1.81-1.5,3.2-1.5c1.91,0,2.9,0.99,2.9,2.9v5.65C266.06,369.7,265.69,370.08,265.22,370.08z"/>
		<path class="st0" d="M276.49,370.08c-0.45,0-0.82-0.37-0.82-0.82v-0.58c-0.69,0.9-1.76,1.51-2.97,1.51
			c-2.34,0-4.02-1.78-4.02-4.73c0-2.9,1.66-4.75,4.02-4.75c1.18,0,2.24,0.56,2.97,1.53v-4.06c0-0.43,0.37-0.8,0.86-0.8
			c0.43,0,0.8,0.37,0.8,0.8v11.07C277.33,369.7,276.96,370.08,276.49,370.08z M275.67,363.53c-0.47-0.73-1.5-1.35-2.54-1.35
			c-1.68,0-2.73,1.38-2.73,3.27c0,1.89,1.05,3.25,2.73,3.25c1.05,0,2.07-0.58,2.54-1.33V363.53z"/>
		<path class="st0" d="M289.76,370.19c-2.8,0-4.54-2.15-4.54-4.75s1.74-4.73,4.54-4.73c2.82,0,4.56,2.13,4.56,4.73
			S292.58,370.19,289.76,370.19z M289.76,362.19c-1.79,0-2.82,1.53-2.82,3.25c0,1.74,1.03,3.27,2.82,3.27
			c1.81,0,2.82-1.53,2.82-3.27C292.58,363.72,291.57,362.19,289.76,362.19z"/>
		<path class="st0" d="M301.34,358.88c-0.3,0-0.58-0.22-0.97-0.22c-0.86,0-1.35,0.58-1.35,1.65v0.63h1.23
			c0.39,0,0.71,0.32,0.71,0.75c0,0.39-0.32,0.71-0.71,0.71h-1.23v6.86c0,0.45-0.37,0.82-0.84,0.82c-0.45,0-0.82-0.37-0.82-0.82
			v-6.86h-0.9c-0.39,0-0.71-0.32-0.71-0.75c0-0.39,0.32-0.71,0.71-0.71h0.9v-0.63c0-1.87,1.07-2.99,2.73-2.99
			c0.8,0,1.89,0.28,1.89,0.92C301.98,358.64,301.66,358.88,301.34,358.88z"/>
		<path class="st0" d="M307.32,358.88c-0.3,0-0.58-0.22-0.97-0.22c-0.86,0-1.35,0.58-1.35,1.65v0.63h1.23
			c0.39,0,0.71,0.32,0.71,0.75c0,0.39-0.32,0.71-0.71,0.71H305v6.86c0,0.45-0.37,0.82-0.84,0.82c-0.45,0-0.82-0.37-0.82-0.82v-6.86
			h-0.9c-0.39,0-0.71-0.32-0.71-0.75c0-0.39,0.32-0.71,0.71-0.71h0.9v-0.63c0-1.87,1.07-2.99,2.73-2.99c0.8,0,1.89,0.28,1.89,0.92
			C307.96,358.64,307.64,358.88,307.32,358.88z"/>
		<path class="st0" d="M326.25,361.85l-2.36,7.46c-0.13,0.45-0.56,0.77-1.05,0.77h-0.02c-0.49,0-0.9-0.32-1.05-0.77l-2.02-6.3
			l-2.04,6.3c-0.13,0.45-0.56,0.77-1.05,0.77h-0.04c-0.47,0-0.88-0.32-1.03-0.77l-2.36-7.46c-0.02-0.07-0.04-0.15-0.04-0.22
			c0-0.39,0.34-0.8,0.8-0.8c0.36,0,0.71,0.22,0.82,0.56l1.93,6.45l2.09-6.37c0.13-0.37,0.47-0.64,0.92-0.64
			c0.39,0,0.73,0.26,0.86,0.64l2.11,6.37l1.92-6.45c0.09-0.34,0.43-0.56,0.79-0.56c0.49,0,0.82,0.37,0.82,0.8
			C326.29,361.7,326.27,361.78,326.25,361.85z"/>
		<path class="st0" d="M335.45,370.08c-0.45,0-0.82-0.37-0.82-0.82v-5.12c0-1.5-0.79-1.94-1.94-1.94c-1.05,0-2,0.64-2.5,1.33v5.74
			c0,0.45-0.37,0.82-0.84,0.82c-0.45,0-0.82-0.37-0.82-0.82v-11.07c0-0.43,0.37-0.8,0.86-0.8c0.43,0,0.8,0.37,0.8,0.8v4.02
			c0.62-0.73,1.81-1.5,3.21-1.5c1.91,0,2.9,0.95,2.9,2.86v5.68C336.29,369.7,335.92,370.08,335.45,370.08z"/>
		<path class="st0" d="M341.33,358.67c0,0.58-0.47,1.07-1.07,1.07c-0.58,0-1.07-0.49-1.07-1.07c0-0.6,0.49-1.08,1.07-1.08
			C340.87,357.59,341.33,358.08,341.33,358.67z M340.27,370.08c-0.45,0-0.82-0.37-0.82-0.82v-7.63c0-0.43,0.37-0.8,0.86-0.8
			c0.43,0,0.8,0.37,0.8,0.8v7.63C341.11,369.7,340.74,370.08,340.27,370.08z"/>
		<path class="st0" d="M346.75,370.19c-1.42,0-2.17-0.78-2.17-2.21v-5.59h-0.88c-0.41,0-0.73-0.32-0.73-0.75
			c0-0.39,0.32-0.71,0.73-0.71h0.88v-1.78c0-0.43,0.37-0.8,0.86-0.8c0.45,0,0.82,0.38,0.82,0.8v1.78h1.23
			c0.39,0,0.71,0.32,0.71,0.75c0,0.39-0.32,0.71-0.71,0.71h-1.23v5.2c0,0.69,0.34,1.12,0.88,1.12c0.21,0,0.43-0.09,0.62-0.09
			c0.41,0,0.71,0.3,0.71,0.69C348.47,369.91,347.75,370.19,346.75,370.19z"/>
		<path class="st0" d="M357.93,365.98h-6.28c0.13,1.55,1.25,2.86,3.08,2.86c0.77,0,1.59-0.26,2.24-0.75
			c0.11-0.06,0.24-0.09,0.37-0.09c0.3,0,0.67,0.26,0.67,0.67c0,1.01-2.32,1.51-3.46,1.51c-2.69,0-4.65-1.91-4.65-4.75
			c0-2.62,1.89-4.73,4.5-4.73c2.19,0,3.68,1.37,4.21,3.38c0.07,0.3,0.17,0.69,0.17,1.05C358.79,365.59,358.4,365.98,357.93,365.98z
			 M354.4,362.06c-1.79,0-2.67,1.5-2.75,2.75h5.53C357.15,363.59,356.32,362.06,354.4,362.06z"/>
		<path class="st0" d="M65.65,392.5H65.6c-0.34,0-0.77-0.28-0.77-0.82v-0.3c-0.73,0.8-1.76,1.23-2.97,1.23
			c-1.5,0-3.14-1.01-3.14-2.99c0-2.04,1.65-2.95,3.14-2.95c1.23,0,2.26,0.39,2.97,1.2v-1.51c0-1.14-0.93-1.81-2.21-1.81
			c-0.84,0-1.59,0.26-2.26,0.79c-0.13,0.09-0.28,0.15-0.41,0.15c-0.34,0-0.69-0.26-0.69-0.65c0-0.15,0.06-0.3,0.17-0.43
			c0.86-0.86,2.22-1.25,3.44-1.25c1.94,0,3.63,0.84,3.63,3.14v5.4C66.49,392.13,66.12,392.5,65.65,392.5z M64.83,388.88
			c-0.5-0.69-1.4-1.05-2.34-1.05c-1.22,0-2.09,0.75-2.09,1.83c0,1.05,0.88,1.78,2.09,1.78c0.93,0,1.83-0.34,2.34-1.03V388.88z"/>
		<path class="st0" d="M73.54,384.86c-0.86,0.07-1.7,0.45-2.24,1.25v5.57c0,0.45-0.37,0.82-0.84,0.82h-0.02
			c-0.45-0.02-0.8-0.37-0.8-0.82v-7.63c0-0.43,0.37-0.8,0.86-0.8c0.43,0,0.8,0.37,0.8,0.8v0.71c0.5-0.69,1.33-1.53,2.34-1.53
			c0.43,0,0.75,0.32,0.75,0.75C74.38,384.46,74,384.82,73.54,384.86z"/>
		<path class="st0" d="M83.89,388.41h-6.28c0.13,1.55,1.25,2.86,3.08,2.86c0.77,0,1.59-0.26,2.24-0.75
			c0.11-0.06,0.24-0.09,0.37-0.09c0.3,0,0.67,0.26,0.67,0.67c0,1.01-2.32,1.51-3.46,1.51c-2.69,0-4.65-1.91-4.65-4.75
			c0-2.62,1.89-4.73,4.5-4.73c2.19,0,3.68,1.37,4.21,3.38c0.07,0.3,0.17,0.69,0.17,1.05C84.75,388.02,84.36,388.41,83.89,388.41z
			 M80.36,384.48c-1.79,0-2.67,1.5-2.75,2.75h5.53C83.11,386.02,82.28,384.48,80.36,384.48z"/>
		<path class="st0" d="M95.1,392.61c-1.42,0-2.17-0.78-2.17-2.21v-5.59h-0.88c-0.41,0-0.73-0.32-0.73-0.75
			c0-0.39,0.32-0.71,0.73-0.71h0.88v-1.78c0-0.43,0.37-0.8,0.86-0.8c0.45,0,0.82,0.38,0.82,0.8v1.78h1.23
			c0.39,0,0.71,0.32,0.71,0.75c0,0.39-0.32,0.71-0.71,0.71h-1.23v5.2c0,0.69,0.34,1.12,0.88,1.12c0.21,0,0.43-0.09,0.62-0.09
			c0.41,0,0.71,0.3,0.71,0.69C96.82,392.33,96.09,392.61,95.1,392.61z"/>
		<path class="st0" d="M105.74,392.5c-0.45,0-0.82-0.37-0.82-0.82v-5.12c0-1.5-0.79-1.94-1.94-1.94c-1.05,0-2,0.64-2.5,1.33v5.74
			c0,0.45-0.37,0.82-0.84,0.82c-0.45,0-0.82-0.37-0.82-0.82v-11.07c0-0.43,0.37-0.8,0.86-0.8c0.43,0,0.8,0.37,0.8,0.8v4.02
			c0.62-0.73,1.81-1.5,3.21-1.5c1.91,0,2.9,0.95,2.9,2.86v5.68C106.58,392.13,106.21,392.5,105.74,392.5z"/>
		<path class="st0" d="M117.21,388.41h-6.28c0.13,1.55,1.25,2.86,3.08,2.86c0.77,0,1.59-0.26,2.24-0.75
			c0.11-0.06,0.24-0.09,0.37-0.09c0.3,0,0.67,0.26,0.67,0.67c0,1.01-2.32,1.51-3.46,1.51c-2.69,0-4.65-1.91-4.65-4.75
			c0-2.62,1.89-4.73,4.5-4.73c2.19,0,3.68,1.37,4.21,3.38c0.07,0.3,0.17,0.69,0.17,1.05C118.07,388.02,117.68,388.41,117.21,388.41z
			 M113.68,384.48c-1.79,0-2.67,1.5-2.75,2.75h5.53C116.43,386.02,115.61,384.48,113.68,384.48z"/>
		<path class="st0" d="M133.66,392.39h-7.38c-0.45,0-0.86-0.37-0.86-0.9c0-0.28,0.13-0.54,0.36-0.73c4.45-3.38,6.64-5.37,6.64-7.27
			c0-1.46-1.23-2.11-2.45-2.11c-1.18,0-2.15,0.39-2.9,1.05c-0.15,0.15-0.34,0.21-0.52,0.21c-0.43,0-0.84-0.36-0.84-0.82
			c0-0.17,0.06-0.36,0.19-0.51c0.92-1.01,2.52-1.57,4.06-1.57c2.22,0,4.34,1.27,4.34,3.76c0,2.43-2.36,4.62-5.76,7.25h5.14
			c0.45,0,0.8,0.38,0.8,0.8C134.46,392.04,134.11,392.39,133.66,392.39z"/>
		<path class="st0" d="M147.36,392.61c-1.2,0-2.24-0.54-2.97-1.53v4.06c0,0.43-0.37,0.8-0.84,0.8c-0.45,0-0.82-0.37-0.82-0.8v-11.08
			c0-0.43,0.37-0.8,0.86-0.8c0.43,0,0.8,0.37,0.8,0.8v0.6c0.65-0.9,1.74-1.51,2.97-1.51c2.36,0,4.02,1.78,4.02,4.73
			C151.38,390.8,149.71,392.61,147.36,392.61z M146.89,384.61c-1.01,0-2.06,0.6-2.5,1.33v3.85c0.45,0.73,1.5,1.35,2.5,1.35
			c1.7,0,2.73-1.38,2.73-3.27S148.59,384.61,146.89,384.61z"/>
		<path class="st0" d="M157.84,384.86c-0.86,0.07-1.7,0.45-2.24,1.25v5.57c0,0.45-0.37,0.82-0.84,0.82h-0.02
			c-0.45-0.02-0.8-0.37-0.8-0.82v-7.63c0-0.43,0.37-0.8,0.86-0.8c0.43,0,0.8,0.37,0.8,0.8v0.71c0.5-0.69,1.33-1.53,2.34-1.53
			c0.43,0,0.75,0.32,0.75,0.75C158.68,384.46,158.31,384.82,157.84,384.86z"/>
		<path class="st0" d="M162.61,381.1c0,0.58-0.47,1.07-1.07,1.07c-0.58,0-1.07-0.49-1.07-1.07c0-0.6,0.49-1.08,1.07-1.08
			C162.14,380.02,162.61,380.5,162.61,381.1z M161.54,392.5c-0.45,0-0.82-0.37-0.82-0.82v-7.63c0-0.43,0.37-0.8,0.86-0.8
			c0.43,0,0.8,0.37,0.8,0.8v7.63C162.38,392.13,162.01,392.5,161.54,392.5z"/>
		<path class="st0" d="M177.33,392.5c-0.45,0-0.82-0.37-0.82-0.82v-5.31c0-1.07-0.47-1.76-1.57-1.76c-0.92,0-1.83,0.65-2.26,1.31
			v5.76c0,0.45-0.37,0.82-0.84,0.82c-0.45,0-0.82-0.37-0.82-0.82v-5.31c0-1.07-0.45-1.76-1.59-1.76c-0.88,0-1.78,0.65-2.22,1.33
			v5.74c0,0.45-0.37,0.82-0.84,0.82c-0.45,0-0.82-0.37-0.82-0.82v-7.63c0-0.43,0.37-0.8,0.86-0.8c0.43,0,0.8,0.37,0.8,0.8v0.58
			c0.37-0.56,1.57-1.5,2.92-1.5c1.38,0,2.17,0.71,2.45,1.66c0.52-0.82,1.72-1.66,3.05-1.66c1.66,0,2.56,0.9,2.56,2.73v5.81
			C178.18,392.13,177.8,392.5,177.33,392.5z"/>
		<path class="st0" d="M187.74,392.5h-0.06c-0.34,0-0.77-0.28-0.77-0.82v-0.3c-0.73,0.8-1.76,1.23-2.97,1.23
			c-1.5,0-3.14-1.01-3.14-2.99c0-2.04,1.65-2.95,3.14-2.95c1.23,0,2.26,0.39,2.97,1.2v-1.51c0-1.14-0.93-1.81-2.21-1.81
			c-0.84,0-1.59,0.26-2.26,0.79c-0.13,0.09-0.28,0.15-0.41,0.15c-0.34,0-0.69-0.26-0.69-0.65c0-0.15,0.06-0.3,0.17-0.43
			c0.86-0.86,2.22-1.25,3.44-1.25c1.94,0,3.63,0.84,3.63,3.14v5.4C188.58,392.13,188.21,392.5,187.74,392.5z M186.92,388.88
			c-0.5-0.69-1.4-1.05-2.34-1.05c-1.22,0-2.09,0.75-2.09,1.83c0,1.05,0.88,1.78,2.09,1.78c0.93,0,1.83-0.34,2.34-1.03V388.88z"/>
		<path class="st0" d="M195.63,384.86c-0.86,0.07-1.7,0.45-2.24,1.25v5.57c0,0.45-0.37,0.82-0.84,0.82h-0.02
			c-0.45-0.02-0.8-0.37-0.8-0.82v-7.63c0-0.43,0.37-0.8,0.86-0.8c0.43,0,0.8,0.37,0.8,0.8v0.71c0.5-0.69,1.33-1.53,2.34-1.53
			c0.43,0,0.75,0.32,0.75,0.75C196.47,384.46,196.1,384.82,195.63,384.86z"/>
		<path class="st0" d="M206.02,384.35l-4.04,9.78c-0.58,1.36-1.57,1.92-2.79,1.92c-0.58,0-1.2-0.13-1.2-0.75
			c0-0.43,0.34-0.75,0.75-0.75c0.15,0,0.3,0.02,0.43,0c0.5,0,0.92-0.21,1.21-0.86l0.52-1.2l-3.35-8.15
			c-0.04-0.09-0.06-0.19-0.06-0.28c0-0.41,0.34-0.82,0.84-0.82c0.32,0,0.64,0.19,0.77,0.52l2.67,6.69l2.65-6.69
			c0.13-0.32,0.45-0.52,0.79-0.52c0.49,0,0.84,0.39,0.84,0.82C206.08,384.17,206.06,384.28,206.02,384.35z"/>
		<path class="st0" d="M220.49,391.51c-0.67,0.65-1.59,1.1-2.93,1.1c-2.71,0-4.58-2.04-4.58-4.75c0-2.69,1.87-4.73,4.58-4.73
			c1.38,0,2.39,0.49,3.01,1.2c0.09,0.11,0.13,0.24,0.13,0.39c0,0.41-0.36,0.75-0.77,0.75c-0.19,0-0.37-0.08-0.52-0.21
			c-0.5-0.45-1.1-0.65-1.76-0.65c-1.79,0-2.95,1.37-2.95,3.25s1.16,3.27,2.95,3.27c0.67,0,1.25-0.22,1.76-0.67
			c0.15-0.11,0.34-0.17,0.52-0.17c0.39,0,0.79,0.3,0.79,0.73C220.71,391.19,220.63,391.38,220.49,391.51z"/>
		<path class="st0" d="M227.25,392.61c-2.8,0-4.54-2.15-4.54-4.75s1.74-4.73,4.54-4.73c2.82,0,4.56,2.13,4.56,4.73
			S230.07,392.61,227.25,392.61z M227.25,384.61c-1.79,0-2.82,1.53-2.82,3.25c0,1.74,1.03,3.27,2.82,3.27
			c1.81,0,2.82-1.53,2.82-3.27C230.07,386.15,229.06,384.61,227.25,384.61z"/>
		<path class="st0" d="M235.25,392.5c-0.45,0-0.82-0.37-0.82-0.82v-11.07c0-0.43,0.37-0.8,0.86-0.8c0.43,0,0.8,0.37,0.8,0.8v11.07
			C236.09,392.13,235.71,392.5,235.25,392.5z"/>
		<path class="st0" d="M243.25,392.61c-2.8,0-4.54-2.15-4.54-4.75s1.74-4.73,4.54-4.73c2.82,0,4.56,2.13,4.56,4.73
			S246.07,392.61,243.25,392.61z M243.25,384.61c-1.79,0-2.82,1.53-2.82,3.25c0,1.74,1.03,3.27,2.82,3.27
			c1.81,0,2.82-1.53,2.82-3.27C246.07,386.15,245.06,384.61,243.25,384.61z"/>
		<path class="st0" d="M254.33,384.86c-0.86,0.07-1.7,0.45-2.24,1.25v5.57c0,0.45-0.37,0.82-0.84,0.82h-0.02
			c-0.45-0.02-0.8-0.37-0.8-0.82v-7.63c0-0.43,0.37-0.8,0.86-0.8c0.43,0,0.8,0.37,0.8,0.8v0.71c0.5-0.69,1.33-1.53,2.34-1.53
			c0.43,0,0.75,0.32,0.75,0.75C255.17,384.46,254.79,384.82,254.33,384.86z"/>
		<path class="st0" d="M260.16,392.61c-1.23,0-2.6-0.35-3.42-1.18c-0.13-0.11-0.21-0.26-0.21-0.45c0-0.39,0.34-0.69,0.73-0.69
			c0.17,0,0.3,0.04,0.43,0.13c0.67,0.49,1.61,0.86,2.54,0.86c1.29,0,1.96-0.58,1.96-1.4c0-2-5.51-0.69-5.51-4.09
			c0-1.42,1.23-2.65,3.44-2.65c1.29,0,2.43,0.39,3.14,1.08c0.11,0.11,0.17,0.26,0.17,0.41c0,0.37-0.32,0.65-0.65,0.65
			c-0.15,0-0.28-0.04-0.39-0.13c-0.58-0.41-1.38-0.69-2.24-0.69c-1.14,0-1.85,0.54-1.85,1.27c0,1.81,5.53,0.56,5.53,4.11
			C263.82,391.38,262.55,392.61,260.16,392.61z"/>
		<path class="st0" d="M267.28,392.58c-0.62,0-1.14-0.52-1.14-1.16c0-0.62,0.52-1.16,1.14-1.16c0.63,0,1.16,0.54,1.16,1.16
			C268.44,392.05,267.91,392.58,267.28,392.58z"/>
		<path class="st0" d="M66.94,448.84h-5.79v3.65h5.66c0.45,0,0.8,0.35,0.8,0.84c0,0.43-0.36,0.8-0.8,0.8h-5.66v4.73
			c0,0.5-0.41,0.92-0.93,0.92c-0.5,0-0.92-0.41-0.92-0.92v-10.45c0-0.67,0.54-1.22,1.21-1.22h6.43c0.45,0,0.8,0.36,0.8,0.84
			C67.75,448.47,67.39,448.84,66.94,448.84z"/>
		<path class="st0" d="M74.1,459.89c-2.8,0-4.54-2.15-4.54-4.75c0-2.6,1.74-4.73,4.54-4.73c2.82,0,4.56,2.13,4.56,4.73
			C78.66,457.74,76.92,459.89,74.1,459.89z M74.1,451.89c-1.79,0-2.82,1.53-2.82,3.25c0,1.74,1.03,3.27,2.82,3.27
			c1.81,0,2.82-1.53,2.82-3.27C76.92,453.42,75.91,451.89,74.1,451.89z"/>
		<path class="st0" d="M85.18,452.13c-0.86,0.07-1.7,0.45-2.24,1.25v5.57c0,0.45-0.37,0.82-0.84,0.82h-0.02
			c-0.45-0.02-0.8-0.37-0.8-0.82v-7.63c0-0.43,0.37-0.8,0.86-0.8c0.43,0,0.8,0.37,0.8,0.8v0.71c0.5-0.69,1.33-1.53,2.34-1.53
			c0.43,0,0.75,0.32,0.75,0.75C86.02,451.74,85.65,452.1,85.18,452.13z"/>
		<path class="st0" d="M100.54,459.78c-0.65,0-1.18-0.52-1.18-1.18v-0.09c-0.71,0.9-1.7,1.38-2.79,1.38c-2.28,0-4-1.72-4-4.73
			c0-2.95,1.7-4.75,4-4.75c1.07,0,2.07,0.47,2.79,1.38v-3.53c0-0.65,0.52-1.18,1.21-1.18c0.65,0,1.18,0.52,1.18,1.18v10.34
			C101.76,459.26,101.24,459.78,100.54,459.78z M99.37,453.55c-0.39-0.6-1.25-1.03-2.06-1.03c-1.35,0-2.28,1.07-2.28,2.63
			c0,1.55,0.93,2.62,2.28,2.62c0.8,0,1.66-0.43,2.06-1.03V453.55z"/>
		<path class="st0" d="M111.21,459.78h-0.19c-0.19,0-1.03-0.15-1.03-1.05c-0.62,0.73-1.68,1.16-2.86,1.16
			c-1.44,0-3.14-0.97-3.14-2.99c0-2.11,1.7-2.92,3.14-2.92c1.2,0,2.26,0.39,2.86,1.1v-1.21c0-0.92-0.79-1.51-1.98-1.51
			c-0.71,0-1.4,0.17-2.02,0.58c-0.13,0.08-0.28,0.13-0.43,0.13c-0.43,0-0.9-0.36-0.9-0.92c0-0.17,0.06-0.34,0.13-0.47
			c0.56-0.9,2.58-1.27,3.63-1.27c2.06,0,3.94,0.82,3.94,3.42v4.77C112.37,459.26,111.85,459.78,111.21,459.78z M110,456.38
			c-0.39-0.52-1.14-0.79-1.91-0.79c-0.93,0-1.7,0.49-1.7,1.36c0,0.84,0.77,1.33,1.7,1.33c0.77,0,1.51-0.26,1.91-0.79V456.38z"/>
		<path class="st0" d="M119.42,452.75c-0.73,0.09-1.42,0.39-1.85,0.95v4.9c0,0.65-0.52,1.18-1.16,1.18h-0.04
			c-0.65,0-1.18-0.52-1.18-1.18v-6.92c0-0.63,0.52-1.16,1.21-1.16c0.64,0,1.16,0.52,1.16,1.16v0.19c0.45-0.6,1.05-1.31,1.94-1.31
			c0.69,0,1.05,0.43,1.05,0.97C120.56,452.25,120.07,452.66,119.42,452.75z"/>
		<path class="st0" d="M128.95,459.78c-0.37,0-0.77-0.17-0.99-0.5l-2.11-3.08l-1.08,1.16v1.25c0,0.65-0.52,1.18-1.2,1.18
			c-0.65,0-1.18-0.52-1.18-1.18v-10.36c0-0.63,0.52-1.16,1.21-1.16c0.64,0,1.16,0.52,1.16,1.16v6.41l3.2-3.78
			c0.21-0.24,0.5-0.38,0.8-0.38c0.6,0,1.12,0.52,1.12,1.12c0,0.26-0.09,0.5-0.26,0.71l-2.09,2.39l2.37,3.18
			c0.15,0.21,0.22,0.45,0.22,0.67C130.13,459.16,129.64,459.78,128.95,459.78z"/>
		<path class="st0" d="M141.13,459.89c-1.66,0-2.56-0.86-2.56-2.47v-4.71h-0.58c-0.56,0-1.03-0.47-1.03-1.07
			c0-0.54,0.47-1.01,1.03-1.01h0.58v-1.4c0-0.65,0.52-1.18,1.22-1.18c0.65,0,1.18,0.52,1.18,1.18v1.4h0.93
			c0.54,0,1.01,0.47,1.01,1.05c0,0.56-0.47,1.03-1.01,1.03h-0.93v4.08c0,0.71,0.45,0.99,0.82,0.99c0.06,0,0.15,0,0.21,0
			c0.67,0,1.05,0.45,1.05,1.03C143.04,459.41,142.68,459.89,141.13,459.89z"/>
		<path class="st0" d="M152.18,459.78c-0.65,0-1.18-0.52-1.18-1.18v-4.43c0-1.25-0.65-1.64-1.68-1.64c-0.92,0-1.64,0.52-2.06,1.07
			v5.01c0,0.65-0.52,1.18-1.2,1.18c-0.65,0-1.18-0.52-1.18-1.18v-10.36c0-0.63,0.52-1.16,1.21-1.16c0.64,0,1.16,0.52,1.16,1.16v3.57
			c0.58-0.69,1.7-1.4,3.18-1.4c1.98,0,2.93,1.08,2.93,2.84v5.35C153.38,459.26,152.85,459.78,152.18,459.78z"/>
		<path class="st0" d="M163.67,455.91h-5.57c0.15,1.14,1.07,2.09,2.6,2.09c0.5,0,1.2-0.15,1.76-0.45c0.15-0.07,0.32-0.11,0.47-0.11
			c0.5,0,1.01,0.39,1.01,0.95c0,1.07-2.3,1.5-3.5,1.5c-2.75,0-4.82-1.85-4.82-4.75c0-2.62,1.92-4.73,4.67-4.73
			c2.04,0,3.59,1.18,4.22,3.05c0.13,0.41,0.26,0.92,0.26,1.36C164.77,455.41,164.29,455.91,163.67,455.91z M160.29,452.3
			c-1.48,0-2.11,1.1-2.22,2h4.45C162.46,453.44,161.86,452.3,160.29,452.3z"/>
		<path class="st0" d="M179.37,459.78c-0.65,0-1.18-0.52-1.18-1.18v-4.63c0-0.84-0.37-1.44-1.35-1.44c-0.84,0-1.53,0.56-1.87,1.05
			v5.03c0,0.65-0.52,1.18-1.21,1.18c-0.65,0-1.18-0.52-1.18-1.18v-4.63c0-0.84-0.37-1.44-1.35-1.44c-0.82,0-1.51,0.56-1.87,1.07
			v5.01c0,0.65-0.52,1.18-1.2,1.18c-0.65,0-1.18-0.52-1.18-1.18v-6.92c0-0.63,0.52-1.16,1.21-1.16c0.64,0,1.16,0.52,1.16,1.16v0.13
			c0.37-0.54,1.57-1.4,2.95-1.4c1.33,0,2.17,0.62,2.5,1.65c0.52-0.82,1.72-1.65,3.1-1.65c1.66,0,2.65,0.88,2.65,2.73v5.46
			C180.58,459.26,180.06,459.78,179.37,459.78z"/>
		<path class="st0" d="M190.86,455.91h-5.57c0.15,1.14,1.07,2.09,2.6,2.09c0.5,0,1.2-0.15,1.76-0.45c0.15-0.07,0.32-0.11,0.47-0.11
			c0.5,0,1.01,0.39,1.01,0.95c0,1.07-2.3,1.5-3.5,1.5c-2.75,0-4.82-1.85-4.82-4.75c0-2.62,1.93-4.73,4.67-4.73
			c2.04,0,3.59,1.18,4.22,3.05c0.13,0.41,0.26,0.92,0.26,1.36C191.96,455.41,191.48,455.91,190.86,455.91z M187.48,452.3
			c-1.48,0-2.11,1.1-2.22,2h4.45C189.65,453.44,189.05,452.3,187.48,452.3z"/>
		<path class="st0" d="M195.12,461.89c-0.09,0.08-0.21,0.13-0.32,0.13c-0.22,0-0.52-0.19-0.52-0.49c0-0.13,0.06-0.26,0.15-0.37
			c0.47-0.39,0.84-0.97,0.92-1.46c-0.04,0.02-0.19,0.04-0.28,0.04c-0.58,0-0.99-0.43-0.99-1.07c0-0.62,0.49-1.14,1.1-1.14
			c0.69,0,1.33,0.58,1.33,1.55C196.5,460.13,195.92,461.2,195.12,461.89z"/>
		<path class="st0" d="M208.17,463.33c-1.27,0-2.54-0.26-3.42-1.1c-0.11-0.11-0.19-0.28-0.19-0.47c0-0.39,0.34-0.71,0.71-0.71
			c0.17,0,0.3,0.04,0.43,0.13c0.69,0.58,1.48,0.79,2.47,0.79c1.4,0,2.78-0.67,2.78-2.6v-1.2c-0.67,0.92-1.74,1.57-2.97,1.57
			c-2.32,0-4-1.72-4-4.65c0-2.92,1.66-4.67,4-4.67c1.2,0,2.24,0.56,2.97,1.53v-0.62c0-0.43,0.37-0.8,0.86-0.8
			c0.43,0,0.8,0.37,0.8,0.8v7.98C212.61,462.42,210.37,463.33,208.17,463.33z M210.95,453.24c-0.47-0.73-1.5-1.35-2.52-1.35
			c-1.68,0-2.73,1.31-2.73,3.2c0,1.85,1.05,3.18,2.73,3.18c1.03,0,2.06-0.64,2.52-1.37V453.24z"/>
		<path class="st0" d="M219.68,452.13c-0.86,0.07-1.7,0.45-2.24,1.25v5.57c0,0.45-0.37,0.82-0.84,0.82h-0.02
			c-0.45-0.02-0.8-0.37-0.8-0.82v-7.63c0-0.43,0.37-0.8,0.86-0.8c0.43,0,0.8,0.37,0.8,0.8v0.71c0.5-0.69,1.33-1.53,2.34-1.53
			c0.43,0,0.75,0.32,0.75,0.75C220.52,451.74,220.14,452.1,219.68,452.13z"/>
		<path class="st0" d="M230.03,455.69h-6.28c0.13,1.55,1.25,2.86,3.08,2.86c0.77,0,1.59-0.26,2.24-0.75
			c0.11-0.06,0.24-0.09,0.37-0.09c0.3,0,0.67,0.26,0.67,0.67c0,1.01-2.32,1.51-3.46,1.51c-2.69,0-4.65-1.91-4.65-4.75
			c0-2.62,1.89-4.73,4.5-4.73c2.19,0,3.68,1.36,4.21,3.38c0.07,0.3,0.17,0.69,0.17,1.05C230.89,455.29,230.5,455.69,230.03,455.69z
			 M226.5,451.76c-1.79,0-2.67,1.5-2.75,2.75h5.53C229.25,453.29,228.42,451.76,226.5,451.76z"/>
		<path class="st0" d="M241,451.63l-4.04,9.78c-0.58,1.36-1.57,1.92-2.79,1.92c-0.58,0-1.2-0.13-1.2-0.75
			c0-0.43,0.34-0.75,0.75-0.75c0.15,0,0.3,0.02,0.43,0c0.5,0,0.92-0.21,1.21-0.86l0.52-1.2l-3.35-8.15
			c-0.04-0.09-0.06-0.19-0.06-0.28c0-0.41,0.34-0.82,0.84-0.82c0.32,0,0.64,0.19,0.77,0.52l2.67,6.69l2.65-6.69
			c0.13-0.32,0.45-0.52,0.79-0.52c0.49,0,0.84,0.39,0.84,0.82C241.06,451.44,241.04,451.55,241,451.63z"/>
		<path class="st0" d="M254.9,459.78h-0.06c-0.34,0-0.77-0.28-0.77-0.82v-0.3c-0.73,0.8-1.76,1.23-2.97,1.23
			c-1.5,0-3.14-1.01-3.14-2.99c0-2.04,1.65-2.95,3.14-2.95c1.23,0,2.26,0.39,2.97,1.2v-1.51c0-1.14-0.93-1.81-2.21-1.81
			c-0.84,0-1.59,0.26-2.26,0.79c-0.13,0.09-0.28,0.15-0.41,0.15c-0.34,0-0.69-0.26-0.69-0.65c0-0.15,0.06-0.3,0.17-0.43
			c0.86-0.86,2.22-1.25,3.44-1.25c1.94,0,3.63,0.84,3.63,3.14v5.4C255.75,459.41,255.37,459.78,254.9,459.78z M254.08,456.15
			c-0.5-0.69-1.4-1.05-2.34-1.05c-1.22,0-2.09,0.75-2.09,1.83c0,1.05,0.88,1.78,2.09,1.78c0.93,0,1.83-0.34,2.34-1.03V456.15z"/>
		<path class="st0" d="M265.8,459.78c-0.45,0-0.82-0.37-0.82-0.82v-5.08c0-1.5-0.77-1.98-1.93-1.98c-1.07,0-2.02,0.64-2.5,1.33v5.74
			c0,0.45-0.37,0.82-0.84,0.82c-0.45,0-0.82-0.37-0.82-0.82v-7.63c0-0.43,0.37-0.8,0.86-0.8c0.43,0,0.8,0.37,0.8,0.8v0.58
			c0.62-0.73,1.81-1.5,3.2-1.5c1.91,0,2.9,0.99,2.9,2.9v5.64C266.64,459.41,266.27,459.78,265.8,459.78z"/>
		<path class="st0" d="M277.07,459.78c-0.45,0-0.82-0.37-0.82-0.82v-0.58c-0.69,0.9-1.76,1.51-2.97,1.51
			c-2.34,0-4.02-1.78-4.02-4.73c0-2.9,1.66-4.75,4.02-4.75c1.18,0,2.24,0.56,2.97,1.53v-4.06c0-0.43,0.37-0.8,0.86-0.8
			c0.43,0,0.8,0.37,0.8,0.8v11.07C277.91,459.41,277.54,459.78,277.07,459.78z M276.25,453.24c-0.47-0.73-1.5-1.35-2.54-1.35
			c-1.68,0-2.73,1.38-2.73,3.27c0,1.89,1.05,3.25,2.73,3.25c1.05,0,2.07-0.58,2.54-1.33V453.24z"/>
		<path class="st0" d="M290.97,459.89c-1.21,0-2.3-0.62-2.97-1.51v0.58c0,0.45-0.37,0.82-0.84,0.82c-0.45,0-0.82-0.37-0.82-0.82
			v-11.07c0-0.43,0.37-0.8,0.86-0.8c0.43,0,0.8,0.37,0.8,0.8v4.06c0.73-0.97,1.78-1.53,2.97-1.53c2.34,0,4.02,1.85,4.02,4.75
			C294.99,458.12,293.31,459.89,290.97,459.89z M290.5,451.89c-1.01,0-2.06,0.62-2.5,1.35v3.87c0.45,0.73,1.5,1.31,2.5,1.31
			c1.72,0,2.75-1.36,2.75-3.25C293.25,453.28,292.22,451.89,290.5,451.89z"/>
		<path class="st0" d="M298.43,459.78c-0.45,0-0.82-0.37-0.82-0.82v-11.07c0-0.43,0.37-0.8,0.86-0.8c0.43,0,0.8,0.37,0.8,0.8v11.07
			C299.27,459.41,298.89,459.78,298.43,459.78z"/>
		<path class="st0" d="M309.34,459.78c-0.45,0-0.82-0.37-0.82-0.82v-0.52c-0.67,0.77-1.83,1.46-3.21,1.46
			c-1.91,0-2.88-0.95-2.88-2.86v-5.7c0-0.43,0.37-0.8,0.86-0.8c0.43,0,0.8,0.37,0.8,0.8v5.12c0,1.49,0.77,1.96,1.92,1.96
			c1.05,0,2-0.6,2.5-1.29v-5.79c0-0.43,0.37-0.8,0.86-0.8c0.43,0,0.8,0.37,0.8,0.8v7.63C310.18,459.41,309.81,459.78,309.34,459.78z
			"/>
		<path class="st0" d="M320.82,455.69h-6.28c0.13,1.55,1.25,2.86,3.08,2.86c0.77,0,1.59-0.26,2.24-0.75
			c0.11-0.06,0.24-0.09,0.37-0.09c0.3,0,0.67,0.26,0.67,0.67c0,1.01-2.32,1.51-3.46,1.51c-2.69,0-4.65-1.91-4.65-4.75
			c0-2.62,1.89-4.73,4.5-4.73c2.19,0,3.68,1.36,4.21,3.38c0.07,0.3,0.17,0.69,0.17,1.05C321.68,455.29,321.28,455.69,320.82,455.69z
			 M317.28,451.76c-1.79,0-2.67,1.5-2.75,2.75h5.53C320.03,453.29,319.21,451.76,317.28,451.76z"/>
		<path class="st0" d="M335.95,459.78h-0.06c-0.34,0-0.77-0.28-0.77-0.82v-0.3c-0.73,0.8-1.76,1.23-2.97,1.23
			c-1.5,0-3.14-1.01-3.14-2.99c0-2.04,1.65-2.95,3.14-2.95c1.23,0,2.26,0.39,2.97,1.2v-1.51c0-1.14-0.93-1.81-2.21-1.81
			c-0.84,0-1.59,0.26-2.26,0.79c-0.13,0.09-0.28,0.15-0.41,0.15c-0.34,0-0.69-0.26-0.69-0.65c0-0.15,0.06-0.3,0.17-0.43
			c0.86-0.86,2.22-1.25,3.44-1.25c1.94,0,3.63,0.84,3.63,3.14v5.4C336.8,459.41,336.42,459.78,335.95,459.78z M335.13,456.15
			c-0.5-0.69-1.4-1.05-2.34-1.05c-1.22,0-2.09,0.75-2.09,1.83c0,1.05,0.88,1.78,2.09,1.78c0.93,0,1.83-0.34,2.34-1.03V456.15z"/>
		<path class="st0" d="M343.84,452.13c-0.86,0.07-1.7,0.45-2.24,1.25v5.57c0,0.45-0.37,0.82-0.84,0.82h-0.02
			c-0.45-0.02-0.8-0.37-0.8-0.82v-7.63c0-0.43,0.37-0.8,0.86-0.8c0.43,0,0.8,0.37,0.8,0.8v0.71c0.5-0.69,1.33-1.53,2.34-1.53
			c0.43,0,0.75,0.32,0.75,0.75C344.68,451.74,344.31,452.1,343.84,452.13z"/>
		<path class="st0" d="M354.19,455.69h-6.28c0.13,1.55,1.25,2.86,3.08,2.86c0.77,0,1.59-0.26,2.24-0.75
			c0.11-0.06,0.24-0.09,0.37-0.09c0.3,0,0.67,0.26,0.67,0.67c0,1.01-2.32,1.51-3.46,1.51c-2.69,0-4.65-1.91-4.65-4.75
			c0-2.62,1.89-4.73,4.5-4.73c2.19,0,3.68,1.36,4.21,3.38c0.07,0.3,0.17,0.69,0.17,1.05C355.05,455.29,354.66,455.69,354.19,455.69z
			 M350.66,451.76c-1.79,0-2.67,1.5-2.75,2.75h5.53C353.41,453.29,352.59,451.76,350.66,451.76z"/>
		<path class="st0" d="M61.73,482.32c-1.42,0-2.17-0.78-2.17-2.21v-5.59h-0.88c-0.41,0-0.73-0.32-0.73-0.75
			c0-0.39,0.32-0.71,0.73-0.71h0.88v-1.78c0-0.43,0.37-0.8,0.86-0.8c0.45,0,0.82,0.37,0.82,0.8v1.78h1.23
			c0.39,0,0.71,0.32,0.71,0.75c0,0.39-0.32,0.71-0.71,0.71h-1.23v5.2c0,0.69,0.34,1.12,0.88,1.12c0.21,0,0.43-0.09,0.62-0.09
			c0.41,0,0.71,0.3,0.71,0.69C63.45,482.04,62.72,482.32,61.73,482.32z"/>
		<path class="st0" d="M72.36,482.21c-0.45,0-0.82-0.37-0.82-0.82v-5.12c0-1.5-0.79-1.94-1.94-1.94c-1.05,0-2,0.64-2.5,1.33v5.74
			c0,0.45-0.37,0.82-0.84,0.82c-0.45,0-0.82-0.37-0.82-0.82v-11.07c0-0.43,0.37-0.8,0.86-0.8c0.43,0,0.8,0.37,0.8,0.8v4.02
			c0.62-0.73,1.81-1.5,3.21-1.5c1.91,0,2.9,0.95,2.9,2.86v5.68C73.2,481.83,72.83,482.21,72.36,482.21z"/>
		<path class="st0" d="M83.84,478.11h-6.28c0.13,1.55,1.25,2.86,3.08,2.86c0.77,0,1.59-0.26,2.24-0.75
			c0.11-0.06,0.24-0.09,0.37-0.09c0.3,0,0.67,0.26,0.67,0.67c0,1.01-2.32,1.51-3.46,1.51c-2.69,0-4.65-1.91-4.65-4.75
			c0-2.62,1.89-4.73,4.5-4.73c2.19,0,3.68,1.36,4.21,3.38c0.07,0.3,0.17,0.69,0.17,1.05C84.7,477.72,84.3,478.11,83.84,478.11z
			 M80.3,474.19c-1.79,0-2.67,1.5-2.75,2.75h5.53C83.05,475.72,82.23,474.19,80.3,474.19z"/>
		<path class="st0" d="M100.28,482.09H92.9c-0.45,0-0.86-0.38-0.86-0.9c0-0.28,0.13-0.54,0.36-0.73c4.45-3.38,6.64-5.36,6.64-7.27
			c0-1.46-1.23-2.11-2.45-2.11c-1.18,0-2.15,0.39-2.9,1.05c-0.15,0.15-0.34,0.21-0.52,0.21c-0.43,0-0.84-0.36-0.84-0.82
			c0-0.17,0.06-0.36,0.19-0.5c0.92-1.01,2.52-1.57,4.06-1.57c2.22,0,4.34,1.27,4.34,3.76c0,2.43-2.36,4.62-5.76,7.25h5.14
			c0.45,0,0.8,0.37,0.8,0.8C101.09,481.74,100.73,482.09,100.28,482.09z"/>
		<path class="st0" d="M113.98,482.32c-1.2,0-2.24-0.54-2.97-1.53v4.06c0,0.43-0.37,0.8-0.84,0.8c-0.45,0-0.82-0.37-0.82-0.8v-11.08
			c0-0.43,0.37-0.8,0.86-0.8c0.43,0,0.8,0.37,0.8,0.8v0.6c0.65-0.9,1.74-1.51,2.97-1.51c2.36,0,4.02,1.78,4.02,4.73
			C118,480.5,116.34,482.32,113.98,482.32z M113.51,474.32c-1.01,0-2.06,0.6-2.5,1.33v3.85c0.45,0.73,1.5,1.35,2.5,1.35
			c1.7,0,2.73-1.38,2.73-3.27C116.24,475.68,115.21,474.32,113.51,474.32z"/>
		<path class="st0" d="M124.47,474.56c-0.86,0.07-1.7,0.45-2.24,1.25v5.57c0,0.45-0.37,0.82-0.84,0.82h-0.02
			c-0.45-0.02-0.8-0.37-0.8-0.82v-7.63c0-0.43,0.37-0.8,0.86-0.8c0.43,0,0.8,0.37,0.8,0.8v0.71c0.5-0.69,1.33-1.53,2.34-1.53
			c0.43,0,0.75,0.32,0.75,0.75C125.31,474.17,124.93,474.52,124.47,474.56z"/>
		<path class="st0" d="M129.23,470.8c0,0.58-0.47,1.07-1.07,1.07c-0.58,0-1.07-0.49-1.07-1.07c0-0.6,0.49-1.08,1.07-1.08
			C128.76,469.72,129.23,470.21,129.23,470.8z M128.16,482.21c-0.45,0-0.82-0.37-0.82-0.82v-7.63c0-0.43,0.37-0.8,0.86-0.8
			c0.43,0,0.8,0.37,0.8,0.8v7.63C129.01,481.83,128.63,482.21,128.16,482.21z"/>
		<path class="st0" d="M143.96,482.21c-0.45,0-0.82-0.37-0.82-0.82v-5.31c0-1.07-0.47-1.76-1.57-1.76c-0.92,0-1.83,0.65-2.26,1.31
			v5.76c0,0.45-0.37,0.82-0.84,0.82c-0.45,0-0.82-0.37-0.82-0.82v-5.31c0-1.07-0.45-1.76-1.59-1.76c-0.88,0-1.78,0.65-2.22,1.33
			v5.74c0,0.45-0.37,0.82-0.84,0.82c-0.45,0-0.82-0.37-0.82-0.82v-7.63c0-0.43,0.37-0.8,0.86-0.8c0.43,0,0.8,0.37,0.8,0.8v0.58
			c0.37-0.56,1.57-1.5,2.92-1.5c1.38,0,2.17,0.71,2.45,1.66c0.52-0.82,1.72-1.66,3.05-1.66c1.66,0,2.56,0.9,2.56,2.73v5.81
			C144.8,481.83,144.43,482.21,143.96,482.21z"/>
		<path class="st0" d="M154.37,482.21h-0.06c-0.34,0-0.77-0.28-0.77-0.82v-0.3c-0.73,0.8-1.76,1.23-2.97,1.23
			c-1.5,0-3.14-1.01-3.14-2.99c0-2.04,1.65-2.95,3.14-2.95c1.23,0,2.26,0.39,2.97,1.2v-1.51c0-1.14-0.93-1.81-2.21-1.81
			c-0.84,0-1.59,0.26-2.26,0.79c-0.13,0.09-0.28,0.15-0.41,0.15c-0.34,0-0.69-0.26-0.69-0.65c0-0.15,0.06-0.3,0.17-0.43
			c0.86-0.86,2.22-1.25,3.44-1.25c1.94,0,3.63,0.84,3.63,3.14v5.4C155.21,481.83,154.83,482.21,154.37,482.21z M153.54,478.58
			c-0.5-0.69-1.4-1.05-2.34-1.05c-1.22,0-2.09,0.75-2.09,1.83c0,1.05,0.88,1.78,2.09,1.78c0.93,0,1.83-0.34,2.34-1.03V478.58z"/>
		<path class="st0" d="M162.25,474.56c-0.86,0.07-1.7,0.45-2.24,1.25v5.57c0,0.45-0.37,0.82-0.84,0.82h-0.02
			c-0.45-0.02-0.8-0.37-0.8-0.82v-7.63c0-0.43,0.37-0.8,0.86-0.8c0.43,0,0.8,0.37,0.8,0.8v0.71c0.5-0.69,1.33-1.53,2.34-1.53
			c0.43,0,0.75,0.32,0.75,0.75C163.09,474.17,162.72,474.52,162.25,474.56z"/>
		<path class="st0" d="M172.64,474.06l-4.04,9.78c-0.58,1.36-1.57,1.92-2.79,1.92c-0.58,0-1.2-0.13-1.2-0.75
			c0-0.43,0.34-0.75,0.75-0.75c0.15,0,0.3,0.02,0.43,0c0.5,0,0.92-0.21,1.21-0.86l0.52-1.2l-3.35-8.15
			c-0.04-0.09-0.06-0.19-0.06-0.28c0-0.41,0.34-0.82,0.84-0.82c0.32,0,0.64,0.19,0.77,0.52l2.67,6.69l2.65-6.69
			c0.13-0.32,0.45-0.52,0.79-0.52c0.49,0,0.84,0.39,0.84,0.82C172.7,473.87,172.68,473.98,172.64,474.06z"/>
		<path class="st0" d="M187.11,481.21c-0.67,0.65-1.59,1.1-2.93,1.1c-2.71,0-4.58-2.04-4.58-4.75c0-2.69,1.87-4.73,4.58-4.73
			c1.38,0,2.39,0.49,3.01,1.2c0.09,0.11,0.13,0.24,0.13,0.39c0,0.41-0.36,0.75-0.77,0.75c-0.19,0-0.37-0.08-0.52-0.21
			c-0.5-0.45-1.1-0.65-1.76-0.65c-1.79,0-2.95,1.36-2.95,3.25c0,1.89,1.16,3.27,2.95,3.27c0.67,0,1.25-0.22,1.76-0.67
			c0.15-0.11,0.34-0.17,0.52-0.17c0.39,0,0.79,0.3,0.79,0.73C187.33,480.9,187.26,481.08,187.11,481.21z"/>
		<path class="st0" d="M193.87,482.32c-2.8,0-4.54-2.15-4.54-4.75c0-2.6,1.74-4.73,4.54-4.73c2.82,0,4.56,2.13,4.56,4.73
			C198.43,480.17,196.69,482.32,193.87,482.32z M193.87,474.32c-1.79,0-2.82,1.53-2.82,3.25c0,1.74,1.03,3.27,2.82,3.27
			c1.81,0,2.82-1.53,2.82-3.27C196.69,475.85,195.69,474.32,193.87,474.32z"/>
		<path class="st0" d="M201.87,482.21c-0.45,0-0.82-0.37-0.82-0.82v-11.07c0-0.43,0.37-0.8,0.86-0.8c0.43,0,0.8,0.37,0.8,0.8v11.07
			C202.71,481.83,202.34,482.21,201.87,482.21z"/>
		<path class="st0" d="M209.87,482.32c-2.8,0-4.54-2.15-4.54-4.75c0-2.6,1.74-4.73,4.54-4.73c2.82,0,4.56,2.13,4.56,4.73
			C214.43,480.17,212.69,482.32,209.87,482.32z M209.87,474.32c-1.79,0-2.82,1.53-2.82,3.25c0,1.74,1.03,3.27,2.82,3.27
			c1.81,0,2.82-1.53,2.82-3.27C212.69,475.85,211.68,474.32,209.87,474.32z"/>
		<path class="st0" d="M220.95,474.56c-0.86,0.07-1.7,0.45-2.24,1.25v5.57c0,0.45-0.37,0.82-0.84,0.82h-0.02
			c-0.45-0.02-0.8-0.37-0.8-0.82v-7.63c0-0.43,0.37-0.8,0.86-0.8c0.43,0,0.8,0.37,0.8,0.8v0.71c0.5-0.69,1.33-1.53,2.34-1.53
			c0.43,0,0.75,0.32,0.75,0.75C221.79,474.17,221.42,474.52,220.95,474.56z"/>
		<path class="st0" d="M226.78,482.32c-1.23,0-2.6-0.35-3.42-1.18c-0.13-0.11-0.21-0.26-0.21-0.45c0-0.39,0.34-0.69,0.73-0.69
			c0.17,0,0.3,0.04,0.43,0.13c0.67,0.49,1.61,0.86,2.54,0.86c1.29,0,1.96-0.58,1.96-1.4c0-2-5.51-0.69-5.51-4.09
			c0-1.42,1.23-2.65,3.44-2.65c1.29,0,2.43,0.39,3.14,1.08c0.11,0.11,0.17,0.26,0.17,0.41c0,0.37-0.32,0.65-0.65,0.65
			c-0.15,0-0.28-0.04-0.39-0.13c-0.58-0.41-1.38-0.69-2.24-0.69c-1.14,0-1.85,0.54-1.85,1.27c0,1.81,5.53,0.56,5.53,4.11
			C230.45,481.08,229.17,482.32,226.78,482.32z"/>
		<path class="st0" d="M233.9,482.28c-0.62,0-1.14-0.52-1.14-1.16c0-0.62,0.52-1.16,1.14-1.16c0.63,0,1.16,0.54,1.16,1.16
			C235.06,481.76,234.54,482.28,233.9,482.28z"/>
	</g>
	<g>
		<path class="st0" d="M67.23,79.19h-6.15c-0.96,0-1.74-0.79-1.74-1.74V66.39c0-0.96,0.78-1.74,1.74-1.74h5.91
			c2.77,0,4.19,1.77,4.19,3.71c0,1.83-1.13,3.05-2.51,3.34c1.55,0.24,2.79,1.74,2.79,3.58C71.46,77.44,70,79.19,67.23,79.19z
			 M66.31,67.3h-3.88v3.16h3.88c1.05,0,1.7-0.65,1.7-1.57C68.01,67.98,67.36,67.3,66.31,67.3z M66.42,73.13h-3.99v3.38h3.99
			c1.18,0,1.88-0.63,1.88-1.68C68.3,73.91,67.64,73.13,66.42,73.13z"/>
		<path class="st0" d="M83.38,73.65l2.01,3.4c0.13,0.24,0.2,0.5,0.2,0.74c0,0.74-0.61,1.53-1.53,1.53c-0.54,0-1.05-0.28-1.33-0.79
			l-2.49-4.51h-2.27v3.77c0,0.83-0.7,1.53-1.57,1.53c-0.83,0-1.53-0.7-1.53-1.53v-11.4c0-0.96,0.78-1.74,1.74-1.74h5.06
			c3.03,0,4.88,1.98,4.88,4.69C86.57,71.9,84.95,73.28,83.38,73.65z M77.98,67.37v3.92h3.25c1.24,0,2.18-0.74,2.18-1.96
			c0-1.22-0.94-1.96-2.18-1.96H77.98z"/>
		<path class="st0" d="M101.2,79.32c-0.65,0-1.26-0.39-1.5-1.02l-0.57-1.57h-6.24l-0.59,1.57c-0.24,0.63-0.85,1.02-1.53,1.02
			c-0.98,0-1.63-0.83-1.63-1.66c0-0.2,0.02-0.39,0.11-0.59l4.25-10.92c0.37-0.98,1.35-1.64,2.38-1.64c1.11-0.09,2.22,0.57,2.64,1.64
			l4.23,10.92c0.07,0.2,0.11,0.39,0.11,0.59C102.85,78.47,102.2,79.32,101.2,79.32z M96.01,67.74L93.74,74h4.54L96.01,67.74z"/>
		<path class="st0" d="M117.09,79.32c-0.59,0-1.18-0.28-1.55-0.79l-6.45-8.83v8.09c0,0.83-0.7,1.53-1.57,1.53
			c-0.83,0-1.53-0.7-1.53-1.53V66.5c0-1.02,0.87-1.98,2.03-1.98c0.65,0,1.31,0.31,1.7,0.85l6.19,8.42v-7.74
			c0-0.83,0.7-1.53,1.57-1.53c0.83,0,1.53,0.7,1.53,1.53v11.4C119.01,78.42,118.2,79.32,117.09,79.32z"/>
		<path class="st0" d="M128.71,79.19h-3.99c-0.96,0-1.74-0.79-1.74-1.74V66.39c0-0.96,0.78-1.74,1.74-1.74h3.99
			c4.56,0,7.72,2.9,7.72,7.28C136.43,76.31,133.27,79.19,128.71,79.19z M128.71,67.37h-2.64v9.09h2.64c2.88,0,4.56-2.07,4.56-4.54
			C133.27,69.35,131.7,67.37,128.71,67.37z"/>
		<path class="st0" d="M153.44,79.47c-4.25,0-7.74-2.97-7.74-7.54c0-4.6,3.49-7.52,7.74-7.52c2.35,0,4.03,0.92,5.17,2.14
			c0.24,0.26,0.37,0.61,0.37,0.94c0,0.76-0.7,1.4-1.46,1.4c-0.37,0-0.76-0.15-1.05-0.44c-0.83-0.81-1.92-1.29-3.03-1.29
			c-2.64,0-4.56,2.03-4.56,4.77c0,2.75,1.92,4.78,4.56,4.78c1.29,0,2.51-0.57,3.1-1.11v-1.74h-2.64c-0.74,0-1.33-0.59-1.33-1.37
			c0-0.74,0.59-1.33,1.33-1.33h3.99c0.96,0,1.74,0.78,1.74,1.74v2.46C159.63,77.99,156.38,79.47,153.44,79.47z"/>
		<path class="st0" d="M169.74,79.45c-4.43,0-6.56-2.49-6.56-6.06v-7.33c0-0.85,0.7-1.55,1.59-1.55c0.85,0,1.55,0.7,1.55,1.55v7.22
			c0,2.03,1.18,3.42,3.42,3.42c2.25,0,3.4-1.4,3.4-3.42v-7.22c0-0.85,0.7-1.55,1.61-1.55c0.85,0,1.55,0.7,1.55,1.55v7.3
			C176.31,76.98,174.17,79.45,169.74,79.45z"/>
		<path class="st0" d="M181.78,79.32c-0.83,0-1.53-0.7-1.53-1.53V66.04c0-0.83,0.7-1.53,1.57-1.53c0.83,0,1.53,0.7,1.53,1.53v11.75
			C183.35,78.62,182.65,79.32,181.78,79.32z"/>
		<path class="st0" d="M193.05,79.19h-3.99c-0.96,0-1.74-0.79-1.74-1.74V66.39c0-0.96,0.78-1.74,1.74-1.74h3.99
			c4.56,0,7.72,2.9,7.72,7.28C200.77,76.31,197.61,79.19,193.05,79.19z M193.05,67.37h-2.64v9.09h2.64c2.88,0,4.56-2.07,4.56-4.54
			C197.61,69.35,196.04,67.37,193.05,67.37z"/>
		<path class="st0" d="M213.15,79.19h-7.35c-0.96,0-1.74-0.79-1.74-1.74V66.39c0-0.96,0.78-1.74,1.74-1.74h7.35
			c0.72,0,1.33,0.61,1.33,1.37c0,0.74-0.61,1.35-1.33,1.35h-6v3.07H213c0.72,0,1.33,0.61,1.33,1.37c0,0.74-0.61,1.35-1.33,1.35
			h-5.84v3.29h6c0.72,0,1.33,0.61,1.33,1.33C214.48,78.58,213.87,79.19,213.15,79.19z"/>
		<path class="st0" d="M225.91,79.19h-6.3c-0.96,0-1.74-0.79-1.74-1.74v-11.4c0-0.83,0.7-1.53,1.57-1.53c0.83,0,1.53,0.7,1.53,1.53
			v10.42h4.95c0.72,0,1.33,0.61,1.33,1.33C227.24,78.58,226.63,79.19,225.91,79.19z"/>
		<path class="st0" d="M231.88,79.32c-0.83,0-1.53-0.7-1.53-1.53V66.04c0-0.83,0.7-1.53,1.57-1.53c0.83,0,1.53,0.7,1.53,1.53v11.75
			C233.45,78.62,232.75,79.32,231.88,79.32z"/>
		<path class="st0" d="M248.52,79.32c-0.59,0-1.18-0.28-1.55-0.79l-6.45-8.83v8.09c0,0.83-0.7,1.53-1.57,1.53
			c-0.83,0-1.53-0.7-1.53-1.53V66.5c0-1.02,0.87-1.98,2.03-1.98c0.65,0,1.31,0.31,1.7,0.85l6.19,8.42v-7.74
			c0-0.83,0.7-1.53,1.57-1.53c0.83,0,1.53,0.7,1.53,1.53v11.4C250.44,78.42,249.63,79.32,248.52,79.32z"/>
		<path class="st0" d="M263.49,79.19h-7.35c-0.96,0-1.74-0.79-1.74-1.74V66.39c0-0.96,0.78-1.74,1.74-1.74h7.35
			c0.72,0,1.33,0.61,1.33,1.37c0,0.74-0.61,1.35-1.33,1.35h-6v3.07h5.84c0.72,0,1.33,0.61,1.33,1.37c0,0.74-0.61,1.35-1.33,1.35
			h-5.84v3.29h6c0.72,0,1.33,0.61,1.33,1.33C264.82,78.58,264.21,79.19,263.49,79.19z"/>
		<path class="st0" d="M273.37,79.45c-2.11,0-4.73-0.7-5.54-1.9c-0.15-0.22-0.24-0.48-0.24-0.74c0-0.83,0.72-1.44,1.46-1.44
			c0.28,0,0.59,0.07,0.83,0.24c0.98,0.68,2.22,1.13,3.64,1.13c1.7,0,2.53-0.79,2.53-1.61c0-2.57-8.37-0.81-8.37-6.28
			c0-2.42,2.09-4.43,5.52-4.43c1.66,0,4.19,0.54,4.99,1.61c0.17,0.22,0.26,0.48,0.26,0.74c0,0.83-0.81,1.4-1.55,1.4
			c-0.26,0-0.52-0.07-0.79-0.22c-1-0.57-2.14-0.83-3.21-0.83c-1.33,0-2.07,0.59-2.07,1.46c0,2.31,8.35,0.76,8.35,6.19
			C279.19,77.44,277.3,79.45,273.37,79.45z"/>
	</g>
	<g>
		<path class="st0" d="M1640.98,66.55h-3.03v10.4c0,0.85-0.7,1.55-1.57,1.55c-0.85,0-1.55-0.7-1.55-1.55v-10.4h-3.03
			c-0.74,0-1.35-0.61-1.35-1.4c0-0.72,0.61-1.33,1.35-1.33h9.18c0.72,0,1.33,0.61,1.33,1.37
			C1642.31,65.94,1641.7,66.55,1640.98,66.55z"/>
		<path class="st0" d="M1653.75,72.83l2.01,3.4c0.13,0.24,0.2,0.5,0.2,0.74c0,0.74-0.61,1.53-1.53,1.53c-0.54,0-1.05-0.28-1.33-0.79
			l-2.49-4.51h-2.27v3.77c0,0.83-0.7,1.53-1.57,1.53c-0.83,0-1.53-0.7-1.53-1.53v-11.4c0-0.96,0.78-1.74,1.74-1.74h5.06
			c3.03,0,4.88,1.98,4.88,4.69C1656.94,71.08,1655.32,72.46,1653.75,72.83z M1648.35,66.55v3.92h3.25c1.24,0,2.18-0.74,2.18-1.96
			c0-1.22-0.94-1.96-2.18-1.96H1648.35z"/>
		<path class="st0" d="M1671.57,78.5c-0.65,0-1.26-0.39-1.5-1.02l-0.57-1.57h-6.24l-0.59,1.57c-0.24,0.63-0.85,1.02-1.53,1.02
			c-0.98,0-1.63-0.83-1.63-1.66c0-0.2,0.02-0.39,0.11-0.59l4.25-10.92c0.37-0.98,1.35-1.64,2.38-1.64c1.11-0.09,2.22,0.57,2.64,1.64
			l4.23,10.92c0.07,0.2,0.11,0.39,0.11,0.59C1673.22,77.65,1672.57,78.5,1671.57,78.5z M1666.38,66.92l-2.27,6.26h4.54
			L1666.38,66.92z"/>
		<path class="st0" d="M1688.12,65.87l-4.23,10.99c-0.37,0.98-1.35,1.64-2.38,1.64h-0.31c-1.03,0-2.01-0.65-2.38-1.64l-4.25-10.99
			c-0.09-0.17-0.11-0.37-0.11-0.57c0-0.79,0.65-1.61,1.63-1.61c0.68,0,1.31,0.41,1.55,1.07l3.71,10.25l3.69-10.25
			c0.22-0.63,0.85-1.07,1.53-1.07c0.98,0,1.66,0.79,1.66,1.61C1688.22,65.5,1688.18,65.7,1688.12,65.87z"/>
		<path class="st0" d="M1700.43,78.37h-7.35c-0.96,0-1.74-0.79-1.74-1.74V65.57c0-0.96,0.78-1.74,1.74-1.74h7.35
			c0.72,0,1.33,0.61,1.33,1.37c0,0.74-0.61,1.35-1.33,1.35h-6v3.07h5.84c0.72,0,1.33,0.61,1.33,1.37c0,0.74-0.61,1.35-1.33,1.35
			h-5.84v3.29h6c0.72,0,1.33,0.61,1.33,1.33C1701.76,77.76,1701.15,78.37,1700.43,78.37z"/>
		<path class="st0" d="M1713.19,78.37h-6.3c-0.96,0-1.74-0.79-1.74-1.74v-11.4c0-0.83,0.7-1.53,1.57-1.53c0.83,0,1.53,0.7,1.53,1.53
			v10.42h4.95c0.72,0,1.33,0.61,1.33,1.33C1714.52,77.76,1713.91,78.37,1713.19,78.37z"/>
		<path class="st0" d="M1732.2,78.37h-6.15c-0.96,0-1.74-0.79-1.74-1.74V65.57c0-0.96,0.78-1.74,1.74-1.74h5.91
			c2.77,0,4.19,1.77,4.19,3.71c0,1.83-1.13,3.05-2.51,3.34c1.55,0.24,2.79,1.74,2.79,3.58C1736.43,76.62,1734.97,78.37,1732.2,78.37
			z M1731.28,66.48h-3.88v3.16h3.88c1.05,0,1.7-0.65,1.7-1.57C1732.98,67.16,1732.33,66.48,1731.28,66.48z M1731.39,72.3h-3.99v3.38
			h3.99c1.18,0,1.88-0.63,1.88-1.68C1733.27,73.09,1732.61,72.3,1731.39,72.3z"/>
		<path class="st0" d="M1746.41,78.63c-4.43,0-6.56-2.49-6.56-6.06v-7.33c0-0.85,0.7-1.55,1.59-1.55c0.85,0,1.55,0.7,1.55,1.55v7.22
			c0,2.03,1.18,3.42,3.42,3.42c2.25,0,3.4-1.4,3.4-3.42v-7.22c0-0.85,0.7-1.55,1.61-1.55c0.85,0,1.55,0.7,1.55,1.55v7.3
			C1752.98,76.16,1750.84,78.63,1746.41,78.63z"/>
		<path class="st0" d="M1762.66,78.37h-3.99c-0.96,0-1.74-0.79-1.74-1.74V65.57c0-0.96,0.78-1.74,1.74-1.74h3.99
			c4.56,0,7.72,2.9,7.72,7.28C1770.38,75.49,1767.21,78.37,1762.66,78.37z M1762.66,66.55h-2.64v9.09h2.64
			c2.88,0,4.56-2.07,4.56-4.54C1767.21,68.53,1765.64,66.55,1762.66,66.55z"/>
		<path class="st0" d="M1779.4,78.37h-3.99c-0.96,0-1.74-0.79-1.74-1.74V65.57c0-0.96,0.78-1.74,1.74-1.74h3.99
			c4.56,0,7.72,2.9,7.72,7.28C1787.12,75.49,1783.96,78.37,1779.4,78.37z M1779.4,66.55h-2.64v9.09h2.64c2.88,0,4.56-2.07,4.56-4.54
			C1783.96,68.53,1782.39,66.55,1779.4,66.55z"/>
		<path class="st0" d="M1800.9,65.89l-4.21,6.52v4.56c0,0.83-0.7,1.53-1.57,1.53c-0.83,0-1.53-0.7-1.53-1.53v-4.56l-4.25-6.54
			c-0.15-0.22-0.22-0.48-0.22-0.74c0-0.7,0.61-1.42,1.48-1.42c0.48,0,0.98,0.24,1.26,0.7l3.27,5.25l3.21-5.23
			c0.28-0.46,0.76-0.72,1.29-0.72c0.89,0,1.48,0.7,1.48,1.42C1801.12,65.39,1801.05,65.65,1800.9,65.89z"/>
	</g>
	<line class="st1" x1="57.9" y1="90.07" x2="1863" y2="90.07"/>
	<rect x="546.64" y="249.24" class="st0" width="197.15" height="197.15"/>
	<rect x="546.64" y="446.39" class="st2" width="197.15" height="65.59"/>
	<rect x="812.8" y="249.24" class="st3" width="197.15" height="197.15"/>
	<rect x="812.8" y="446.39" class="st2" width="197.15" height="65.59"/>
	<rect x="1078.95" y="249.24" class="st4" width="197.15" height="197.15"/>
	<rect x="1078.95" y="446.39" class="st2" width="197.15" height="65.59"/>
	<rect x="1345.1" y="249.24" class="st5" width="197.15" height="197.15"/>
	<rect x="1345.1" y="446.39" class="st2" width="197.15" height="65.59"/>
	<rect x="1611.26" y="249.24" class="st2" width="197.15" height="197.15"/>
	<rect x="1611.26" y="446.39" class="st2" width="197.15" height="65.59"/>
	<g>
		<path class="st0" d="M615.1,484.52h-1.36l-1.03,3.1h0.93c0.39,0,0.73,0.34,0.73,0.77c0,0.41-0.34,0.75-0.73,0.75h-1.44l-0.9,2.71
			c-0.11,0.36-0.45,0.56-0.8,0.56c-0.5,0-0.84-0.36-0.84-0.8c0-0.08,0-0.17,0.04-0.26l0.77-2.21h-1.78l-0.92,2.73
			c-0.11,0.34-0.45,0.56-0.8,0.56c-0.49,0.02-0.82-0.39-0.82-0.8c0-0.09,0-0.17,0.04-0.26l0.75-2.22h-0.8
			c-0.41,0-0.75-0.34-0.75-0.78c0-0.39,0.34-0.73,0.75-0.73h1.33l1.01-3.1h-0.86c-0.39,0-0.73-0.34-0.73-0.77
			c0-0.39,0.34-0.73,0.73-0.73h1.38l0.9-2.75c0.11-0.32,0.43-0.54,0.79-0.54c0.5,0,0.84,0.39,0.84,0.8c0,0.09-0.02,0.17-0.04,0.24
			l-0.73,2.24h1.76l0.9-2.73c0.11-0.34,0.45-0.56,0.8-0.56c0.5,0,0.84,0.37,0.84,0.8c0,0.09-0.02,0.19-0.04,0.26l-0.77,2.22h0.86
			c0.39,0,0.73,0.34,0.73,0.77C615.83,484.18,615.5,484.52,615.1,484.52z M610.23,484.52l-1.01,3.1h1.74l1.03-3.1H610.23z"/>
		<path class="st0" d="M623.1,492.52c-3.57,0-5.16-3.23-5.16-6.45s1.59-6.43,5.16-6.43c3.55,0,5.16,3.21,5.16,6.43
			S626.65,492.52,623.1,492.52z M623.1,482c-1.79,0-2.47,1.78-2.47,4.07s0.67,4.09,2.47,4.09c1.78,0,2.45-1.79,2.45-4.09
			S624.88,482,623.1,482z"/>
		<path class="st0" d="M635.62,492.52c-3.57,0-5.16-3.23-5.16-6.45s1.59-6.43,5.16-6.43c3.55,0,5.16,3.21,5.16,6.43
			S639.17,492.52,635.62,492.52z M635.62,482c-1.79,0-2.47,1.78-2.47,4.07s0.67,4.09,2.47,4.09c1.78,0,2.45-1.79,2.45-4.09
			S637.4,482,635.62,482z"/>
		<path class="st0" d="M652.01,489.71h-0.58v1.38c0,0.71-0.6,1.31-1.35,1.31c-0.71,0-1.31-0.6-1.31-1.31v-1.38h-4.69
			c-0.75,0-1.36-0.62-1.36-1.46c0-0.3,0.07-0.6,0.24-0.86l4.17-6.58c0.43-0.67,1.23-1.1,2.04-1.1c1.14-0.19,2.26,0.34,2.26,1.5v6.17
			h0.58c0.62,0,1.14,0.52,1.14,1.18C653.15,489.19,652.63,489.71,652.01,489.71z M648.78,482.18l-3.36,5.2h3.36V482.18z"/>
		<path class="st0" d="M660.46,492.52c-3.79,0-5.38-2.92-5.38-6.43c0-3.78,2.13-6.45,5.81-6.45c1.21,0,2.78,0.36,3.25,1.18
			c0.08,0.15,0.13,0.32,0.13,0.5c0,0.71-0.64,1.16-1.21,1.16c-0.19,0-0.37-0.04-0.54-0.13c-0.47-0.24-0.99-0.35-1.63-0.35
			c-1.83,0-3.12,1.55-3.12,3.53c0,0.09,0,0.17,0.02,0.26c0.58-0.84,1.83-1.61,3.2-1.61c2.24,0,4.24,1.4,4.24,4.06
			C665.23,490.67,663.3,492.52,660.46,492.52z M660.22,486.46c-0.93,0-1.83,0.43-2.43,1.18c0.11,1.2,0.79,2.52,2.52,2.52
			c1.44,0,2.22-0.95,2.22-1.83C662.54,487.02,661.41,486.46,660.22,486.46z"/>
		<path class="st0" d="M675.77,492.29h-6.3c-0.82,0-1.5-0.67-1.5-1.5v-9.48c0-0.82,0.67-1.5,1.5-1.5h6.3c0.62,0,1.14,0.52,1.14,1.18
			c0,0.64-0.52,1.16-1.14,1.16h-5.14v2.63h5.01c0.62,0,1.14,0.52,1.14,1.18c0,0.64-0.52,1.16-1.14,1.16h-5.01v2.82h5.14
			c0.62,0,1.14,0.52,1.14,1.14C676.91,491.77,676.38,492.29,675.77,492.29z"/>
		<path class="st0" d="M686.57,492.29h-5.27c-0.82,0-1.5-0.67-1.5-1.5v-9.48c0-0.82,0.67-1.5,1.5-1.5h5.07
			c2.37,0,3.59,1.51,3.59,3.18c0,1.57-0.97,2.62-2.15,2.86c1.33,0.21,2.39,1.5,2.39,3.06C690.19,490.8,688.94,492.29,686.57,492.29z
			 M685.78,482.11h-3.33v2.71h3.33c0.9,0,1.46-0.56,1.46-1.35S686.68,482.11,685.78,482.11z M685.88,487.1h-3.42v2.9h3.42
			c1.01,0,1.61-0.54,1.61-1.44C687.48,487.77,686.92,487.1,685.88,487.1z"/>
	</g>
	<g>
		<path class="st0" d="M881.26,484.52h-1.36l-1.03,3.1h0.93c0.39,0,0.73,0.34,0.73,0.77c0,0.41-0.34,0.75-0.73,0.75h-1.44l-0.9,2.71
			c-0.11,0.36-0.45,0.56-0.8,0.56c-0.5,0-0.84-0.36-0.84-0.8c0-0.08,0-0.17,0.04-0.26l0.77-2.21h-1.78l-0.92,2.73
			c-0.11,0.34-0.45,0.56-0.8,0.56c-0.49,0.02-0.82-0.39-0.82-0.8c0-0.09,0-0.17,0.04-0.26l0.75-2.22h-0.8
			c-0.41,0-0.75-0.34-0.75-0.78c0-0.39,0.34-0.73,0.75-0.73h1.33l1.01-3.1h-0.86c-0.39,0-0.73-0.34-0.73-0.77
			c0-0.39,0.34-0.73,0.73-0.73h1.38l0.9-2.75c0.11-0.32,0.43-0.54,0.79-0.54c0.5,0,0.84,0.39,0.84,0.8c0,0.09-0.02,0.17-0.04,0.24
			l-0.73,2.24h1.76l0.9-2.73c0.11-0.34,0.45-0.56,0.8-0.56c0.5,0,0.84,0.37,0.84,0.8c0,0.09-0.02,0.19-0.04,0.26l-0.77,2.22h0.86
			c0.39,0,0.73,0.34,0.73,0.77C881.99,484.18,881.65,484.52,881.26,484.52z M876.38,484.52l-1.01,3.1h1.74l1.03-3.1H876.38z"/>
		<path class="st0" d="M892.49,482.16h-5.14v2.63h5.01c0.62,0,1.14,0.52,1.14,1.18c0,0.64-0.52,1.16-1.14,1.16h-5.01v3.96
			c0,0.71-0.6,1.31-1.35,1.31c-0.71,0-1.31-0.6-1.31-1.31v-9.78c0-0.82,0.67-1.5,1.5-1.5h6.3c0.62,0,1.14,0.52,1.14,1.18
			C893.63,481.64,893.11,482.16,892.49,482.16z"/>
		<path class="st0" d="M904.73,489.71h-0.58v1.38c0,0.71-0.6,1.31-1.35,1.31c-0.71,0-1.31-0.6-1.31-1.31v-1.38h-4.69
			c-0.75,0-1.36-0.62-1.36-1.46c0-0.3,0.07-0.6,0.24-0.86l4.17-6.58c0.43-0.67,1.23-1.1,2.04-1.1c1.14-0.19,2.26,0.34,2.26,1.5v6.17
			h0.58c0.62,0,1.14,0.52,1.14,1.18C905.87,489.19,905.35,489.71,904.73,489.71z M901.5,482.18l-3.36,5.2h3.36V482.18z"/>
		<path class="st0" d="M916.19,482.16h-5.14v2.63h5.01c0.62,0,1.14,0.52,1.14,1.18c0,0.64-0.52,1.16-1.14,1.16h-5.01v3.96
			c0,0.71-0.6,1.31-1.35,1.31c-0.71,0-1.31-0.6-1.31-1.31v-9.78c0-0.82,0.67-1.5,1.5-1.5h6.3c0.62,0,1.14,0.52,1.14,1.18
			C917.33,481.64,916.8,482.16,916.19,482.16z"/>
		<path class="st0" d="M924.43,492.52c-2.62,0-5.01-1.12-5.01-3.46c0-1.51,1.18-2.67,2.67-3.2c-1.38-0.49-2.47-1.38-2.47-2.94
			c0-2.34,2.49-3.29,4.8-3.29c2.3,0,4.8,0.95,4.8,3.29c0,1.55-1.1,2.45-2.49,2.94c1.5,0.52,2.69,1.68,2.69,3.2
			C929.44,491.38,927.04,492.52,924.43,492.52z M924.43,487.06c-0.79,0.11-2.32,0.62-2.32,1.66c0,0.92,1.01,1.51,2.32,1.51
			c1.27,0,2.32-0.6,2.32-1.51C926.74,487.68,925.19,487.17,924.43,487.06z M924.43,481.92c-1.23,0-2.11,0.52-2.11,1.42
			c0,0.93,1.35,1.36,2.11,1.48c0.77-0.11,2.09-0.54,2.09-1.48C926.52,482.44,925.64,481.92,924.43,481.92z"/>
		<path class="st0" d="M940.05,482.16h-5.14v2.63h5.01c0.62,0,1.14,0.52,1.14,1.18c0,0.64-0.52,1.16-1.14,1.16h-5.01v3.96
			c0,0.71-0.6,1.31-1.35,1.31c-0.71,0-1.31-0.6-1.31-1.31v-9.78c0-0.82,0.67-1.5,1.5-1.5h6.3c0.62,0,1.14,0.52,1.14,1.18
			C941.19,481.64,940.67,482.16,940.05,482.16z"/>
		<path class="st0" d="M951.66,482.16h-5.14v2.63h5.01c0.62,0,1.14,0.52,1.14,1.18c0,0.64-0.52,1.16-1.14,1.16h-5.01v3.96
			c0,0.71-0.6,1.31-1.35,1.31c-0.71,0-1.31-0.6-1.31-1.31v-9.78c0-0.82,0.67-1.5,1.5-1.5h6.3c0.62,0,1.14,0.52,1.14,1.18
			C952.8,481.64,952.27,482.16,951.66,482.16z"/>
	</g>
	<g>
		<path class="st0" d="M1147.41,484.52h-1.36l-1.03,3.1h0.93c0.39,0,0.73,0.34,0.73,0.77c0,0.41-0.34,0.75-0.73,0.75h-1.44
			l-0.9,2.71c-0.11,0.36-0.45,0.56-0.8,0.56c-0.5,0-0.84-0.36-0.84-0.8c0-0.08,0-0.17,0.04-0.26l0.77-2.21H1141l-0.92,2.73
			c-0.11,0.34-0.45,0.56-0.8,0.56c-0.49,0.02-0.82-0.39-0.82-0.8c0-0.09,0-0.17,0.04-0.26l0.75-2.22h-0.8
			c-0.41,0-0.75-0.34-0.75-0.78c0-0.39,0.34-0.73,0.75-0.73h1.33l1.01-3.1h-0.86c-0.39,0-0.73-0.34-0.73-0.77
			c0-0.39,0.34-0.73,0.73-0.73h1.38l0.9-2.75c0.11-0.32,0.43-0.54,0.79-0.54c0.5,0,0.84,0.39,0.84,0.8c0,0.09-0.02,0.17-0.04,0.24
			l-0.73,2.24h1.76l0.9-2.73c0.11-0.34,0.45-0.56,0.8-0.56c0.5,0,0.84,0.37,0.84,0.8c0,0.09-0.02,0.19-0.04,0.26l-0.77,2.22h0.86
			c0.39,0,0.73,0.34,0.73,0.77C1148.14,484.18,1147.8,484.52,1147.41,484.52z M1142.53,484.52l-1.01,3.1h1.74l1.03-3.1H1142.53z"/>
		<path class="st0" d="M1158.85,492.29h-7.21c-0.65,0-1.25-0.54-1.25-1.29c0-0.43,0.21-0.86,0.56-1.12c4.65-3.44,6.15-4.8,6.15-6.26
			c0-1.08-0.99-1.63-2.02-1.63c-0.99,0-1.85,0.28-2.56,0.77c-0.24,0.17-0.49,0.24-0.77,0.24c-0.62,0-1.16-0.52-1.16-1.2
			c0-0.19,0.06-0.37,0.17-0.54c0.6-0.95,2.69-1.63,4.26-1.63c2.65,0,4.77,1.5,4.77,3.98c0,2.13-1.76,3.98-4.99,6.34h4.06
			c0.62,0,1.14,0.52,1.14,1.14C1159.99,491.77,1159.46,492.29,1158.85,492.29z"/>
		<path class="st0" d="M1167.43,492.52c-2.62,0-5.01-1.12-5.01-3.46c0-1.51,1.18-2.67,2.67-3.2c-1.38-0.49-2.47-1.38-2.47-2.94
			c0-2.34,2.49-3.29,4.8-3.29c2.3,0,4.8,0.95,4.8,3.29c0,1.55-1.1,2.45-2.49,2.94c1.5,0.52,2.69,1.68,2.69,3.2
			C1172.43,491.38,1170.04,492.52,1167.43,492.52z M1167.43,487.06c-0.79,0.11-2.32,0.62-2.32,1.66c0,0.92,1.01,1.51,2.32,1.51
			c1.27,0,2.32-0.6,2.32-1.51C1169.74,487.68,1168.19,487.17,1167.43,487.06z M1167.43,481.92c-1.23,0-2.11,0.52-2.11,1.42
			c0,0.93,1.35,1.36,2.11,1.48c0.77-0.11,2.09-0.54,2.09-1.48C1169.52,482.44,1168.64,481.92,1167.43,481.92z"/>
		<path class="st0" d="M1183.25,492.29h-7.21c-0.65,0-1.25-0.54-1.25-1.29c0-0.43,0.21-0.86,0.56-1.12c4.65-3.44,6.15-4.8,6.15-6.26
			c0-1.08-0.99-1.63-2.02-1.63c-0.99,0-1.85,0.28-2.56,0.77c-0.24,0.17-0.49,0.24-0.77,0.24c-0.62,0-1.16-0.52-1.16-1.2
			c0-0.19,0.06-0.37,0.17-0.54c0.6-0.95,2.69-1.63,4.26-1.63c2.65,0,4.77,1.5,4.77,3.98c0,2.13-1.76,3.98-4.99,6.34h4.06
			c0.62,0,1.14,0.52,1.14,1.14C1184.39,491.77,1183.87,492.29,1183.25,492.29z"/>
		<path class="st0" d="M1191.83,492.52c-2.62,0-5.01-1.12-5.01-3.46c0-1.51,1.18-2.67,2.67-3.2c-1.38-0.49-2.47-1.38-2.47-2.94
			c0-2.34,2.49-3.29,4.8-3.29c2.3,0,4.8,0.95,4.8,3.29c0,1.55-1.1,2.45-2.49,2.94c1.5,0.52,2.69,1.68,2.69,3.2
			C1196.84,491.38,1194.45,492.52,1191.83,492.52z M1191.83,487.06c-0.79,0.11-2.32,0.62-2.32,1.66c0,0.92,1.01,1.51,2.32,1.51
			c1.27,0,2.32-0.6,2.32-1.51C1194.15,487.68,1192.6,487.17,1191.83,487.06z M1191.83,481.92c-1.23,0-2.11,0.52-2.11,1.42
			c0,0.93,1.35,1.36,2.11,1.48c0.77-0.11,2.09-0.54,2.09-1.48C1193.92,482.44,1193.05,481.92,1191.83,481.92z"/>
		<path class="st0" d="M1207.66,492.29h-7.21c-0.65,0-1.25-0.54-1.25-1.29c0-0.43,0.21-0.86,0.56-1.12c4.65-3.44,6.15-4.8,6.15-6.26
			c0-1.08-0.99-1.63-2.02-1.63c-0.99,0-1.85,0.28-2.56,0.77c-0.24,0.17-0.49,0.24-0.77,0.24c-0.62,0-1.16-0.52-1.16-1.2
			c0-0.19,0.06-0.37,0.17-0.54c0.6-0.95,2.69-1.63,4.26-1.63c2.65,0,4.77,1.5,4.77,3.98c0,2.13-1.76,3.98-4.99,6.34h4.06
			c0.62,0,1.14,0.52,1.14,1.14C1208.8,491.77,1208.28,492.29,1207.66,492.29z"/>
		<path class="st0" d="M1216.24,492.52c-2.62,0-5.01-1.12-5.01-3.46c0-1.51,1.18-2.67,2.67-3.2c-1.38-0.49-2.47-1.38-2.47-2.94
			c0-2.34,2.49-3.29,4.8-3.29c2.3,0,4.8,0.95,4.8,3.29c0,1.55-1.1,2.45-2.49,2.94c1.5,0.52,2.69,1.68,2.69,3.2
			C1221.25,491.38,1218.85,492.52,1216.24,492.52z M1216.24,487.06c-0.79,0.11-2.32,0.62-2.32,1.66c0,0.92,1.01,1.51,2.32,1.51
			c1.27,0,2.32-0.6,2.32-1.51C1218.56,487.68,1217,487.17,1216.24,487.06z M1216.24,481.92c-1.23,0-2.11,0.52-2.11,1.42
			c0,0.93,1.35,1.36,2.11,1.48c0.77-0.11,2.09-0.54,2.09-1.48C1218.33,482.44,1217.45,481.92,1216.24,481.92z"/>
	</g>
	<g>
		<path class="st0" d="M1413.57,484.52h-1.36l-1.03,3.1h0.93c0.39,0,0.73,0.34,0.73,0.77c0,0.41-0.34,0.75-0.73,0.75h-1.44
			l-0.9,2.71c-0.11,0.36-0.45,0.56-0.8,0.56c-0.5,0-0.84-0.36-0.84-0.8c0-0.08,0-0.17,0.04-0.26l0.77-2.21h-1.78l-0.92,2.73
			c-0.11,0.34-0.45,0.56-0.8,0.56c-0.49,0.02-0.82-0.39-0.82-0.8c0-0.09,0-0.17,0.04-0.26l0.75-2.22h-0.8
			c-0.41,0-0.75-0.34-0.75-0.78c0-0.39,0.34-0.73,0.75-0.73h1.33l1.01-3.1h-0.86c-0.39,0-0.73-0.34-0.73-0.77
			c0-0.39,0.34-0.73,0.73-0.73h1.38l0.9-2.75c0.11-0.32,0.43-0.54,0.79-0.54c0.5,0,0.84,0.39,0.84,0.8c0,0.09-0.02,0.17-0.04,0.24
			l-0.73,2.24h1.76l0.9-2.73c0.11-0.34,0.45-0.56,0.8-0.56c0.5,0,0.84,0.37,0.84,0.8c0,0.09-0.02,0.19-0.04,0.26l-0.77,2.22h0.86
			c0.39,0,0.73,0.34,0.73,0.77C1414.29,484.18,1413.96,484.52,1413.57,484.52z M1408.69,484.52l-1.01,3.1h1.74l1.03-3.1H1408.69z"/>
		<path class="st0" d="M1423.77,492.29h-5.27c-0.82,0-1.5-0.67-1.5-1.5v-9.48c0-0.82,0.67-1.5,1.5-1.5h5.07
			c2.37,0,3.59,1.51,3.59,3.18c0,1.57-0.97,2.62-2.15,2.86c1.33,0.21,2.39,1.5,2.39,3.06
			C1427.39,490.8,1426.14,492.29,1423.77,492.29z M1422.98,482.11h-3.33v2.71h3.33c0.9,0,1.46-0.56,1.46-1.35
			S1423.88,482.11,1422.98,482.11z M1423.08,487.1h-3.42v2.9h3.42c1.01,0,1.61-0.54,1.61-1.44
			C1424.68,487.77,1424.12,487.1,1423.08,487.1z"/>
		<path class="st0" d="M1438.12,492.29h-6.3c-0.82,0-1.5-0.67-1.5-1.5v-9.48c0-0.82,0.67-1.5,1.5-1.5h6.3
			c0.62,0,1.14,0.52,1.14,1.18c0,0.64-0.52,1.16-1.14,1.16h-5.14v2.63h5.01c0.62,0,1.14,0.52,1.14,1.18c0,0.64-0.52,1.16-1.14,1.16
			h-5.01v2.82h5.14c0.62,0,1.14,0.52,1.14,1.14C1439.26,491.77,1438.74,492.29,1438.12,492.29z"/>
		<path class="st0" d="M1452.74,481.68c0.17,0.21,0.26,0.49,0.26,0.73c0,0.67-0.58,1.2-1.27,1.2c-0.35,0-0.71-0.15-0.97-0.43
			c-0.71-0.75-1.63-1.2-2.56-1.2c-2.26,0-3.91,1.74-3.91,4.09s1.65,4.09,3.91,4.09c0.93,0,1.87-0.41,2.56-1.18
			c0.26-0.28,0.64-0.43,1.01-0.43c0.67,0,1.21,0.52,1.21,1.16c0,0.26-0.08,0.52-0.26,0.73c-0.93,1.14-2.37,2.08-4.52,2.08
			c-3.74,0-6.64-2.62-6.64-6.45s2.9-6.45,6.64-6.45C1450.34,479.62,1451.78,480.54,1452.74,481.68z"/>
		<path class="st0" d="M1459.8,492.41c-0.71,0-1.31-0.6-1.31-1.31v-7.85l-1.4,1.44c-0.21,0.21-0.47,0.3-0.73,0.3
			c-0.58,0-1.1-0.49-1.1-1.1c0-0.28,0.11-0.56,0.34-0.78l2.88-2.92c0.28-0.28,0.69-0.45,1.12-0.45c0.84,0,1.55,0.67,1.55,1.51v9.85
			C1461.15,491.81,1460.55,492.41,1459.8,492.41z"/>
		<path class="st0" d="M1475.13,481.68c0.17,0.21,0.26,0.49,0.26,0.73c0,0.67-0.58,1.2-1.27,1.2c-0.35,0-0.71-0.15-0.97-0.43
			c-0.71-0.75-1.63-1.2-2.56-1.2c-2.26,0-3.91,1.74-3.91,4.09s1.65,4.09,3.91,4.09c0.93,0,1.87-0.41,2.56-1.18
			c0.26-0.28,0.64-0.43,1.01-0.43c0.67,0,1.21,0.52,1.21,1.16c0,0.26-0.08,0.52-0.26,0.73c-0.93,1.14-2.37,2.08-4.52,2.08
			c-3.74,0-6.64-2.62-6.64-6.45s2.9-6.45,6.64-6.45C1472.73,479.62,1474.17,480.54,1475.13,481.68z"/>
		<path class="st0" d="M1486.9,481.7l-4.34,9.91c-0.21,0.49-0.71,0.8-1.25,0.8c-0.79,0-1.33-0.64-1.33-1.31
			c0-0.17,0.04-0.34,0.11-0.5l3.72-8.43h-5.23c-0.64,0-1.16-0.52-1.16-1.2c0-0.62,0.52-1.14,1.16-1.14h7.14
			c0.65,0,1.29,0.56,1.29,1.35C1487.01,481.36,1486.97,481.55,1486.9,481.7z"/>
	</g>
	<g>
		<path class="st0" d="M1679.72,484.52h-1.36l-1.03,3.1h0.93c0.39,0,0.73,0.34,0.73,0.77c0,0.41-0.34,0.75-0.73,0.75h-1.44
			l-0.9,2.71c-0.11,0.36-0.45,0.56-0.8,0.56c-0.5,0-0.84-0.36-0.84-0.8c0-0.08,0-0.17,0.04-0.26l0.77-2.21h-1.78l-0.92,2.73
			c-0.11,0.34-0.45,0.56-0.8,0.56c-0.49,0.02-0.82-0.39-0.82-0.8c0-0.09,0-0.17,0.04-0.26l0.75-2.22h-0.8
			c-0.41,0-0.75-0.34-0.75-0.78c0-0.39,0.34-0.73,0.75-0.73h1.33l1.01-3.1h-0.86c-0.39,0-0.73-0.34-0.73-0.77
			c0-0.39,0.34-0.73,0.73-0.73h1.38l0.9-2.75c0.11-0.32,0.43-0.54,0.79-0.54c0.5,0,0.84,0.39,0.84,0.8c0,0.09-0.02,0.17-0.04,0.24
			l-0.73,2.24h1.76l0.9-2.73c0.11-0.34,0.45-0.56,0.8-0.56c0.5,0,0.84,0.37,0.84,0.8c0,0.09-0.02,0.19-0.04,0.26l-0.77,2.22h0.86
			c0.39,0,0.73,0.34,0.73,0.77C1680.45,484.18,1680.11,484.52,1679.72,484.52z M1674.84,484.52l-1.01,3.1h1.74l1.03-3.1H1674.84z"/>
		<path class="st0" d="M1690.95,482.16h-5.14v2.63h5.01c0.62,0,1.14,0.52,1.14,1.18c0,0.64-0.52,1.16-1.14,1.16h-5.01v3.96
			c0,0.71-0.6,1.31-1.35,1.31c-0.71,0-1.31-0.6-1.31-1.31v-9.78c0-0.82,0.67-1.5,1.5-1.5h6.3c0.62,0,1.14,0.52,1.14,1.18
			C1692.09,481.64,1691.57,482.16,1690.95,482.16z"/>
		<path class="st0" d="M1702.56,482.16h-5.14v2.63h5.01c0.62,0,1.14,0.52,1.14,1.18c0,0.64-0.52,1.16-1.14,1.16h-5.01v3.96
			c0,0.71-0.6,1.31-1.35,1.31c-0.71,0-1.31-0.6-1.31-1.31v-9.78c0-0.82,0.67-1.5,1.5-1.5h6.3c0.62,0,1.14,0.52,1.14,1.18
			C1703.7,481.64,1703.17,482.16,1702.56,482.16z"/>
		<path class="st0" d="M1714.16,482.16h-5.14v2.63h5.01c0.62,0,1.14,0.52,1.14,1.18c0,0.64-0.52,1.16-1.14,1.16h-5.01v3.96
			c0,0.71-0.6,1.31-1.35,1.31c-0.71,0-1.31-0.6-1.31-1.31v-9.78c0-0.82,0.67-1.5,1.5-1.5h6.3c0.62,0,1.14,0.52,1.14,1.18
			C1715.3,481.64,1714.78,482.16,1714.16,482.16z"/>
		<path class="st0" d="M1725.77,482.16h-5.14v2.63h5.01c0.62,0,1.14,0.52,1.14,1.18c0,0.64-0.52,1.16-1.14,1.16h-5.01v3.96
			c0,0.71-0.6,1.31-1.35,1.31c-0.71,0-1.31-0.6-1.31-1.31v-9.78c0-0.82,0.67-1.5,1.5-1.5h6.3c0.62,0,1.14,0.52,1.14,1.18
			C1726.91,481.64,1726.38,482.16,1725.77,482.16z"/>
		<path class="st0" d="M1737.37,482.16h-5.14v2.63h5.01c0.62,0,1.14,0.52,1.14,1.18c0,0.64-0.52,1.16-1.14,1.16h-5.01v3.96
			c0,0.71-0.6,1.31-1.35,1.31c-0.71,0-1.31-0.6-1.31-1.31v-9.78c0-0.82,0.67-1.5,1.5-1.5h6.3c0.62,0,1.14,0.52,1.14,1.18
			C1738.51,481.64,1737.99,482.16,1737.37,482.16z"/>
		<path class="st0" d="M1748.98,482.16h-5.14v2.63h5.01c0.62,0,1.14,0.52,1.14,1.18c0,0.64-0.52,1.16-1.14,1.16h-5.01v3.96
			c0,0.71-0.6,1.31-1.35,1.31c-0.71,0-1.31-0.6-1.31-1.31v-9.78c0-0.82,0.67-1.5,1.5-1.5h6.3c0.62,0,1.14,0.52,1.14,1.18
			C1750.12,481.64,1749.59,482.16,1748.98,482.16z"/>
	</g>
</g>
</svg>
