<svg id="Layer_1" data-name="Layer 1" xmlns="http://www.w3.org/2000/svg" xmlns:xlink="http://www.w3.org/1999/xlink" viewBox="0 0 1920.03 815"><defs><style>.cls-1{fill:#fff;}.cls-10,.cls-12,.cls-2,.cls-3,.cls-4,.cls-5,.cls-6,.cls-7,.cls-8,.cls-9{fill:none;stroke-miterlimit:10;}.cls-2,.cls-3,.cls-4,.cls-8{stroke:#6da0fc;}.cls-2,.cls-3,.cls-4,.cls-5,.cls-6,.cls-7,.cls-8{stroke-width:1.12px;}.cls-3{stroke-dasharray:13.8 13.8;}.cls-4,.cls-7{stroke-dasharray:7.81 7.81;}.cls-5,.cls-6,.cls-7{stroke:#8bb9fc;}.cls-6,.cls-8{stroke-dasharray:13.97 13.97;}.cls-10,.cls-9{stroke:#0046eb;}.cls-9{stroke-width:1.04px;}.cls-10{stroke-width:1.04px;}.cls-11{fill:#0046eb;}.cls-12{stroke:#0045e2;stroke-width:1.56px;}</style></defs><title>logo</title><rect class="cls-1" width="1920" height="815"/><image width="1920" height="734" transform="translate(97.9 83) scale(0.9)" xlink:href="../Travel%20Buddy/Persona.png.jpg"/><rect class="cls-1" x="164.5" y="126" width="500" height="563"/><rect class="cls-1" x="1261.5" y="126" width="500" height="563"/><rect class="cls-1" x="678" y="107" width="465" height="594"/><rect class="cls-1" x="0.03" width="1920" height="814"/><polyline class="cls-2" points="1825.64 289.36 1825.64 296.23 1818.77 296.23"/><line class="cls-3" x1="1804.97" y1="296.23" x2="1370.38" y2="296.23"/><polyline class="cls-2" points="1363.48 296.23 1356.61 296.23 1356.61 289.36"/><line class="cls-4" x1="1356.61" y1="281.55" x2="1356.61" y2="269.83"/><polyline class="cls-2" points="1356.61 265.93 1356.61 259.06 1363.48 259.06"/><line class="cls-3" x1="1377.28" y1="259.06" x2="1811.87" y2="259.06"/><polyline class="cls-2" points="1818.77 259.06 1825.64 259.06 1825.64 265.93"/><line class="cls-4" x1="1825.64" y1="273.74" x2="1825.64" y2="285.45"/><polyline class="cls-2" points="1825.64 363.69 1825.64 370.56 1818.77 370.56"/><line class="cls-3" x1="1804.97" y1="370.56" x2="1370.38" y2="370.56"/><polyline class="cls-2" points="1363.48 370.56 1356.61 370.56 1356.61 363.69"/><line class="cls-4" x1="1356.61" y1="355.88" x2="1356.61" y2="344.17"/><polyline class="cls-2" points="1356.61 340.26 1356.61 333.39 1363.48 333.39"/><line class="cls-3" x1="1377.28" y1="333.39" x2="1811.87" y2="333.39"/><polyline class="cls-2" points="1818.77 333.39 1825.64 333.39 1825.64 340.26"/><line class="cls-4" x1="1825.64" y1="348.07" x2="1825.64" y2="359.79"/><polyline class="cls-5" points="1855.93 259.06 1862.81 259.06 1862.81 265.93"/><line class="cls-6" x1="1862.81" y1="279.89" x2="1862.81" y2="356.71"/><polyline class="cls-5" points="1862.81 363.69 1862.81 370.56 1855.93 370.56"/><line class="cls-7" x1="1848.13" y1="370.56" x2="1836.41" y2="370.56"/><polyline class="cls-5" points="1832.51 370.56 1825.64 370.56 1825.64 363.69"/><line class="cls-6" x1="1825.64" y1="349.73" x2="1825.64" y2="272.91"/><polyline class="cls-5" points="1825.64 265.93 1825.64 259.06 1832.51 259.06"/><line class="cls-7" x1="1840.32" y1="259.06" x2="1852.03" y2="259.06"/><polyline class="cls-2" points="1349.74 259.06 1356.61 259.06 1356.61 265.93"/><line class="cls-8" x1="1356.61" y1="279.89" x2="1356.61" y2="356.71"/><polyline class="cls-2" points="1356.61 363.69 1356.61 370.56 1349.74 370.56"/><line class="cls-4" x1="1341.93" y1="370.56" x2="1330.22" y2="370.56"/><polyline class="cls-2" points="1326.31 370.56 1319.44 370.56 1319.44 363.69"/><line class="cls-8" x1="1319.44" y1="349.73" x2="1319.44" y2="272.91"/><polyline class="cls-2" points="1319.44 265.93 1319.44 259.06 1326.31 259.06"/><line class="cls-4" x1="1334.12" y1="259.06" x2="1345.84" y2="259.06"/><rect class="cls-9" x="1356.61" y="296.23" width="469.03" height="37.17"/><rect class="cls-10" x="1319.44" y="259.06" width="37.17" height="37.17"/><rect class="cls-10" x="1825.64" y="259.06" width="37.17" height="37.17"/><rect class="cls-10" x="1825.64" y="333.39" width="37.17" height="37.17"/><rect class="cls-10" x="1319.44" y="333.39" width="37.17" height="37.17"/><path class="cls-11" d="M68.94,277.28h-7.8A2.17,2.17,0,0,1,59,275.12V261a1.92,1.92,0,0,1,3.83,0V273.9h6.13a1.68,1.68,0,0,1,1.65,1.65A1.7,1.7,0,0,1,68.94,277.28Z"/><path class="cls-11" d="M80.13,277.6A6.85,6.85,0,1,1,87,270.74,6.61,6.61,0,0,1,80.13,277.6Zm0-10.64c-2.14,0-3.32,1.76-3.32,3.78s1.18,3.81,3.32,3.81,3.35-1.76,3.35-3.81S82.26,267,80.13,267Z"/><path class="cls-11" d="M96.28,282.57c-1.59,0-4.27-.4-5-1.62a1.43,1.43,0,0,1,1.21-2.19,1.5,1.5,0,0,1,.73.19,5.74,5.74,0,0,0,3.11.81c1.65,0,3.59-.73,3.59-3.29v-1.33a5.06,5.06,0,0,1-4,2.06c-3.27,0-5.75-2.3-5.75-6.65s2.45-6.64,5.75-6.64a5,5,0,0,1,4,2v-.14a1.73,1.73,0,0,1,3.46,0v10.62C103.33,281.36,99.49,282.57,96.28,282.57Zm3.59-14.12A3.69,3.69,0,0,0,96.93,267c-2,0-3.3,1.35-3.3,3.59s1.35,3.59,3.3,3.59a3.77,3.77,0,0,0,2.94-1.48Z"/><path class="cls-11" d="M114.13,277.6a6.85,6.85,0,1,1,6.92-6.86A6.61,6.61,0,0,1,114.13,277.6Zm0-10.64c-2.13,0-3.32,1.76-3.32,3.78s1.19,3.81,3.32,3.81,3.35-1.76,3.35-3.81S116.27,267,114.13,267Z"/><path class="cls-11" d="M146.74,275.87a1.61,1.61,0,0,1-1.54,1.6c-.92,0-1.79-1.08-2.19-1.54a8,8,0,0,1-4.92,1.67c-3.29,0-5.94-1.73-5.94-5.21,0-2.73,1.81-4.16,3.87-5.19a8.59,8.59,0,0,1-1.19-3.89c0-2.43,2.16-4.32,5.15-4.32,2.54,0,4.73,1.41,4.73,3.81,0,2.76-2.21,3.92-4.43,4.94,1.19,1.62,2.14,2.65,3.08,3.78a14.16,14.16,0,0,0,1.19-2.24,1.46,1.46,0,0,1,1.32-.86,1.49,1.49,0,0,1,1.49,1.46,2.24,2.24,0,0,1-.22.81,17.25,17.25,0,0,1-1.89,3C145.85,274.31,146.74,274.93,146.74,275.87Zm-8.16-1a4.42,4.42,0,0,0,2.59-.92,39.23,39.23,0,0,1-3.81-4.67,3.25,3.25,0,0,0-1.56,2.75A2.73,2.73,0,0,0,138.58,274.9Zm-.32-11.51a5.57,5.57,0,0,0,.78,2.44c1.51-.73,2.7-1.52,2.7-2.84a1.48,1.48,0,0,0-1.59-1.51A1.86,1.86,0,0,0,138.26,263.39Z"/><path class="cls-11" d="M182.72,261.48l-4,14.07a2.62,2.62,0,0,1-2.48,1.89h-.06a2.48,2.48,0,0,1-2.45-1.89L171,264.91l-2.7,10.64a2.54,2.54,0,0,1-2.43,1.89h-.06a2.63,2.63,0,0,1-2.51-1.89l-4.05-14.1a1.51,1.51,0,0,1-.08-.51,2,2,0,0,1,2.05-2,2.07,2.07,0,0,1,2,1.56l2.86,11.78,3.08-11.78a1.94,1.94,0,0,1,1.89-1.4,1.87,1.87,0,0,1,1.78,1.4l3.08,11.78,2.81-11.75a2.09,2.09,0,0,1,2.05-1.59,2,2,0,0,1,2.06,2A1.85,1.85,0,0,1,182.72,261.48Z"/><path class="cls-11" d="M191.39,277.6a6.85,6.85,0,1,1,6.91-6.86A6.62,6.62,0,0,1,191.39,277.6Zm0-10.64c-2.13,0-3.32,1.76-3.32,3.78s1.19,3.81,3.32,3.81,3.35-1.76,3.35-3.81S193.52,267,191.39,267Z"/><path class="cls-11" d="M208.3,267.28a4,4,0,0,0-2.67,1.38v7.08a1.69,1.69,0,0,1-1.68,1.7h0a1.7,1.7,0,0,1-1.71-1.7v-10a1.71,1.71,0,0,1,1.76-1.68,1.69,1.69,0,0,1,1.68,1.68V266a3.74,3.74,0,0,1,2.8-1.89,1.38,1.38,0,0,1,1.52,1.41A1.73,1.73,0,0,1,208.3,267.28Z"/><path class="cls-11" d="M223.94,277.44a1.69,1.69,0,0,1-1.7-1.7v-.14a5.07,5.07,0,0,1-4,2c-3.29,0-5.78-2.48-5.78-6.83s2.46-6.86,5.78-6.86a5,5,0,0,1,4,2V260.8a1.73,1.73,0,0,1,3.45,0v14.94A1.7,1.7,0,0,1,223.94,277.44Zm-1.7-9a3.72,3.72,0,0,0-3-1.49c-2,0-3.3,1.54-3.3,3.81s1.35,3.78,3.3,3.78a3.72,3.72,0,0,0,3-1.49Z"/><path class="cls-11" d="M248.33,277.44a1.69,1.69,0,0,1-1.7-1.7V269c0-1.22-.54-2.08-1.95-2.08a3.48,3.48,0,0,0-2.7,1.51v7.27a1.73,1.73,0,0,1-3.46,0V269c0-1.22-.54-2.08-1.94-2.08a3.49,3.49,0,0,0-2.7,1.54v7.24a1.72,1.72,0,0,1-3.43,0v-10a1.72,1.72,0,0,1,3.43,0v.18a5.72,5.72,0,0,1,4.27-2,3.46,3.46,0,0,1,3.62,2.38,5.52,5.52,0,0,1,4.48-2.38c2.4,0,3.83,1.27,3.83,3.94v7.89A1.7,1.7,0,0,1,248.33,277.44Z"/><path class="cls-11" d="M264.4,277.44h-.27a1.5,1.5,0,0,1-1.48-1.51,5.43,5.43,0,0,1-4.14,1.67,4.34,4.34,0,0,1-4.53-4.32c0-3,2.45-4.21,4.53-4.21a5.38,5.38,0,0,1,4.14,1.59V268.9c0-1.32-1.14-2.18-2.87-2.18a5.17,5.17,0,0,0-2.91.83,1.29,1.29,0,0,1-.63.19,1.31,1.31,0,0,1-1.29-1.32,1.34,1.34,0,0,1,.19-.67c.81-1.3,3.72-1.84,5.24-1.84,3,0,5.7,1.19,5.7,4.94v6.89A1.69,1.69,0,0,1,264.4,277.44Zm-1.75-4.92a3.46,3.46,0,0,0-2.76-1.13c-1.35,0-2.46.7-2.46,2s1.11,1.92,2.46,1.92a3.43,3.43,0,0,0,2.76-1.14Z"/><path class="cls-11" d="M276.94,267.28a4,4,0,0,0-2.68,1.38v7.08a1.69,1.69,0,0,1-1.67,1.7h-.06a1.7,1.7,0,0,1-1.7-1.7v-10a1.71,1.71,0,0,1,1.76-1.68,1.68,1.68,0,0,1,1.67,1.68V266a3.75,3.75,0,0,1,2.81-1.89,1.37,1.37,0,0,1,1.51,1.41A1.72,1.72,0,0,1,276.94,267.28Z"/><path class="cls-11" d="M291.39,277.44a1.73,1.73,0,0,1-1.44-.73l-3.05-4.46-1.56,1.68v1.81a1.72,1.72,0,0,1-3.43,0v-15a1.72,1.72,0,0,1,3.43,0V270l4.61-5.46a1.54,1.54,0,0,1,1.17-.54,1.67,1.67,0,0,1,1.62,1.62,1.64,1.64,0,0,1-.38,1l-3,3.46,3.43,4.59a1.67,1.67,0,0,1,.33,1A1.75,1.75,0,0,1,291.39,277.44Z"/><path class="cls-11" d="M66.53,81.71H60.38A1.75,1.75,0,0,1,58.63,80v-11a1.76,1.76,0,0,1,1.75-1.75h5.91c2.77,0,4.18,1.77,4.18,3.71A3.22,3.22,0,0,1,68,74.21a3.54,3.54,0,0,1,2.79,3.58C70.76,80,69.3,81.71,66.53,81.71Zm-.92-11.88H61.73V73h3.88a1.54,1.54,0,0,0,1.7-1.57A1.56,1.56,0,0,0,65.61,69.83Zm.11,5.82h-4V79h4c1.18,0,1.88-.63,1.88-1.68A1.71,1.71,0,0,0,65.72,75.65Z"/><path class="cls-11" d="M82.69,76.18l2,3.4a1.58,1.58,0,0,1,.2.74,1.52,1.52,0,0,1-2.86.74l-2.48-4.51H77.28v3.77a1.55,1.55,0,0,1-3.1,0V68.92a1.76,1.76,0,0,1,1.75-1.75H81a4.53,4.53,0,0,1,4.88,4.69A4.18,4.18,0,0,1,82.69,76.18ZM77.28,69.9v3.92h3.25a2,2,0,1,0,0-3.92Z"/><path class="cls-11" d="M100.5,81.85a1.61,1.61,0,0,1-1.5-1l-.57-1.57H92.2l-.59,1.57a1.62,1.62,0,0,1-1.53,1,1.65,1.65,0,0,1-1.63-1.66,1.37,1.37,0,0,1,.11-.59l4.25-10.92A2.56,2.56,0,0,1,95.18,67a2.62,2.62,0,0,1,2.64,1.64l4.23,10.92a1.76,1.76,0,0,1,.11.59A1.67,1.67,0,0,1,100.5,81.85ZM95.31,70.27l-2.26,6.26h4.53Z"/><path class="cls-11" d="M116.4,81.85a2,2,0,0,1-1.55-.79l-6.45-8.83v8.09a1.56,1.56,0,0,1-1.57,1.53,1.54,1.54,0,0,1-1.52-1.53V69a2,2,0,0,1,2-2,2.11,2.11,0,0,1,1.7.85l6.2,8.42V68.57a1.55,1.55,0,0,1,3.09,0V80A1.9,1.9,0,0,1,116.4,81.85Z"/><path class="cls-11" d="M128,81.71h-4A1.75,1.75,0,0,1,122.29,80v-11A1.76,1.76,0,0,1,124,67.17h4c4.56,0,7.72,2.9,7.72,7.28S132.59,81.71,128,81.71Zm0-11.81h-2.64V79H128a4.36,4.36,0,0,0,4.56-4.54A4.25,4.25,0,0,0,128,69.9Z"/><path class="cls-11" d="M152.76,82A7.41,7.41,0,0,1,145,74.45c0-4.6,3.49-7.52,7.74-7.52a6.82,6.82,0,0,1,5.17,2.14,1.41,1.41,0,0,1,.37.94,1.46,1.46,0,0,1-1.46,1.39,1.49,1.49,0,0,1-1.05-.44,4.42,4.42,0,0,0-3-1.28,4.78,4.78,0,0,0,0,9.55,4.89,4.89,0,0,0,3.09-1.11V76.37h-2.63a1.35,1.35,0,0,1,0-2.7h4A1.74,1.74,0,0,1,159,75.41v2.47C159,80.52,155.7,82,152.76,82Z"/><path class="cls-11" d="M169.07,82c-4.42,0-6.56-2.49-6.56-6.06V68.59a1.57,1.57,0,0,1,3.14,0v7.22a3.41,3.41,0,1,0,6.82,0V68.59A1.57,1.57,0,0,1,174.09,67a1.56,1.56,0,0,1,1.55,1.55v7.3C175.64,79.51,173.5,82,169.07,82Z"/><path class="cls-11" d="M181.11,81.85a1.54,1.54,0,0,1-1.52-1.53V68.57a1.55,1.55,0,0,1,3.09,0V80.32A1.56,1.56,0,0,1,181.11,81.85Z"/><path class="cls-11" d="M192.39,81.71h-4A1.75,1.75,0,0,1,186.65,80v-11a1.76,1.76,0,0,1,1.75-1.75h4c4.55,0,7.71,2.9,7.71,7.28S196.94,81.71,192.39,81.71Zm0-11.81h-2.64V79h2.64a4.35,4.35,0,0,0,4.55-4.54A4.25,4.25,0,0,0,192.39,69.9Z"/><path class="cls-11" d="M212.49,81.71h-7.34A1.75,1.75,0,0,1,203.4,80v-11a1.76,1.76,0,0,1,1.75-1.75h7.34a1.37,1.37,0,0,1,0,2.73h-6V73h5.84a1.37,1.37,0,0,1,0,2.73H206.5V79h6a1.36,1.36,0,0,1,0,2.72Z"/><path class="cls-11" d="M225.25,81.71H219A1.74,1.74,0,0,1,217.21,80V68.57a1.55,1.55,0,0,1,3.09,0V79h4.95a1.36,1.36,0,0,1,0,2.72Z"/><path class="cls-11" d="M231.23,81.85a1.55,1.55,0,0,1-1.53-1.53V68.57a1.55,1.55,0,0,1,3.1,0V80.32A1.56,1.56,0,0,1,231.23,81.85Z"/><path class="cls-11" d="M247.87,81.85a2,2,0,0,1-1.55-.79l-6.46-8.83v8.09a1.55,1.55,0,0,1-3.09,0V69a2,2,0,0,1,2-2,2.14,2.14,0,0,1,1.7.85l6.19,8.42V68.57a1.55,1.55,0,0,1,3.1,0V80A1.91,1.91,0,0,1,247.87,81.85Z"/><path class="cls-11" d="M262.85,81.71H255.5A1.74,1.74,0,0,1,253.76,80v-11a1.75,1.75,0,0,1,1.74-1.75h7.35a1.37,1.37,0,0,1,0,2.73h-6V73h5.85a1.37,1.37,0,0,1,0,2.73h-5.85V79h6a1.36,1.36,0,0,1,0,2.72Z"/><path class="cls-11" d="M272.73,82c-2.12,0-4.73-.7-5.54-1.9a1.33,1.33,0,0,1-.24-.74,1.47,1.47,0,0,1,1.46-1.44,1.37,1.37,0,0,1,.83.24,6.34,6.34,0,0,0,3.64,1.13c1.7,0,2.53-.78,2.53-1.61,0-2.57-8.37-.81-8.37-6.28C267,69,269.13,67,272.56,67c1.65,0,4.18.55,5,1.62a1.21,1.21,0,0,1,.26.74,1.51,1.51,0,0,1-1.55,1.39,1.53,1.53,0,0,1-.78-.21,6.57,6.57,0,0,0-3.21-.83c-1.33,0-2.07.59-2.07,1.46,0,2.31,8.35.76,8.35,6.19C278.55,80,276.65,82,272.73,82Z"/><path class="cls-11" d="M1640.72,69.08h-3v10.4a1.56,1.56,0,0,1-3.12,0V69.08h-3a1.38,1.38,0,0,1-1.36-1.4,1.36,1.36,0,0,1,1.36-1.33h9.18a1.37,1.37,0,0,1,0,2.73Z"/><path class="cls-11" d="M1653.5,75.35l2,3.41a1.58,1.58,0,0,1,.2.74,1.53,1.53,0,0,1-2.86.74l-2.48-4.51h-2.27V79.5a1.55,1.55,0,0,1-3.1,0V68.09a1.75,1.75,0,0,1,1.75-1.74h5a4.53,4.53,0,0,1,4.89,4.69A4.16,4.16,0,0,1,1653.5,75.35Zm-5.41-6.27V73h3.25a2,2,0,1,0,0-3.92Z"/><path class="cls-11" d="M1671.31,81a1.6,1.6,0,0,1-1.5-1l-.57-1.57H1663l-.59,1.57a1.61,1.61,0,0,1-1.53,1,1.64,1.64,0,0,1-1.63-1.65,1.5,1.5,0,0,1,.1-.59l4.26-10.93a2.57,2.57,0,0,1,2.37-1.63,2.63,2.63,0,0,1,2.64,1.63l4.23,10.93a1.71,1.71,0,0,1,.11.59A1.66,1.66,0,0,1,1671.31,81Zm-5.19-11.57-2.26,6.25h4.53Z"/><path class="cls-11" d="M1687.87,68.4l-4.24,11a2.56,2.56,0,0,1-2.37,1.63H1681a2.57,2.57,0,0,1-2.37-1.63l-4.26-11a1.37,1.37,0,0,1-.1-.57,1.64,1.64,0,0,1,3.18-.54l3.71,10.25,3.68-10.25a1.64,1.64,0,0,1,3.18.54A1.8,1.8,0,0,1,1687.87,68.4Z"/><path class="cls-11" d="M1700.19,80.89h-7.35a1.74,1.74,0,0,1-1.74-1.74V68.09a1.74,1.74,0,0,1,1.74-1.74h7.35a1.37,1.37,0,0,1,0,2.73h-6v3.07H1700a1.37,1.37,0,0,1,0,2.73h-5.85v3.29h6a1.36,1.36,0,0,1,0,2.72Z"/><path class="cls-11" d="M1713,80.89h-6.31a1.75,1.75,0,0,1-1.74-1.74V67.75a1.55,1.55,0,0,1,3.1,0V78.17h5a1.36,1.36,0,0,1,0,2.72Z"/><path class="cls-11" d="M1732,80.89h-6.15a1.75,1.75,0,0,1-1.74-1.74V68.09a1.75,1.75,0,0,1,1.74-1.74h5.91c2.77,0,4.19,1.77,4.19,3.71a3.22,3.22,0,0,1-2.51,3.33,3.53,3.53,0,0,1,2.79,3.58C1736.19,79.15,1734.73,80.89,1732,80.89ZM1731.05,69h-3.88v3.16h3.88a1.55,1.55,0,0,0,1.7-1.57A1.57,1.57,0,0,0,1731.05,69Zm.11,5.82h-4v3.38h4a1.64,1.64,0,0,0,1.87-1.68A1.7,1.7,0,0,0,1731.16,74.83Z"/><path class="cls-11" d="M1746.18,81.16c-4.42,0-6.56-2.49-6.56-6.07V67.77a1.57,1.57,0,0,1,3.14,0V75a3.42,3.42,0,1,0,6.83,0V67.77a1.58,1.58,0,0,1,3.16,0v7.3C1752.75,78.69,1750.61,81.16,1746.18,81.16Z"/><path class="cls-11" d="M1762.43,80.89h-4a1.74,1.74,0,0,1-1.74-1.74V68.09a1.74,1.74,0,0,1,1.74-1.74h4c4.56,0,7.72,2.9,7.72,7.28S1767,80.89,1762.43,80.89Zm0-11.81h-2.64v9.09h2.64a4.36,4.36,0,0,0,4.56-4.54A4.25,4.25,0,0,0,1762.43,69.08Z"/><path class="cls-11" d="M1779.18,80.89h-4a1.74,1.74,0,0,1-1.74-1.74V68.09a1.74,1.74,0,0,1,1.74-1.74h4c4.56,0,7.72,2.9,7.72,7.28S1783.74,80.89,1779.18,80.89Zm0-11.81h-2.64v9.09h2.64a4.36,4.36,0,0,0,4.56-4.54A4.25,4.25,0,0,0,1779.18,69.08Z"/><path class="cls-11" d="M1800.68,68.42l-4.21,6.52V79.5a1.55,1.55,0,0,1-3.09,0V74.94l-4.25-6.54a1.24,1.24,0,0,1-.22-.74,1.47,1.47,0,0,1,1.48-1.42,1.51,1.51,0,0,1,1.27.7l3.27,5.25,3.2-5.23a1.49,1.49,0,0,1,1.29-.72,1.45,1.45,0,0,1,1.48,1.42A1.34,1.34,0,0,1,1800.68,68.42Z"/><path class="cls-11" d="M1367.89,303.89h-11.26v-7.51h30.66v7.51H1376v29.5h-8.14Z"/><path class="cls-11" d="M1397.5,296.38h16.92c4.7,0,8.35,1.33,10.78,3.76a11.63,11.63,0,0,1,3.18,8.46v.1a11.5,11.5,0,0,1-7.94,11.48l9,13.21H1420L1412,321.55h-6.4v11.84h-8.14Zm16.39,18c4,0,6.24-2.11,6.24-5.23V309c0-3.49-2.43-5.29-6.4-5.29h-8.09v10.63Z"/><path class="cls-11" d="M1452.38,296.12h7.5l15.87,37.27h-8.52l-3.38-8.3H1448.2l-3.39,8.3h-8.3Zm8.56,21.78-4.92-12-4.91,12Z"/><path class="cls-11" d="M1477,296.38h9l9.67,26.07,9.68-26.07h8.77l-15,37.28h-7.19Z"/><path class="cls-11" d="M1523.75,296.38h27.91v7.25h-19.82v7.5h17.45v7.25h-17.45v7.77h20.09v7.24h-28.18Z"/><path class="cls-11" d="M1563.13,296.38h8.15V326h18.45v7.4h-26.6Z"/><path class="cls-11" d="M1658.72,317.53V296.38h8.14v20.94c0,6,3,9.15,8,9.15s8-3,8-8.89v-21.2H1691v20.89c0,11.21-6.29,16.71-16.23,16.71S1658.72,328.42,1658.72,317.53Z"/><path class="cls-11" d="M1703.23,296.38h14.44c11.63,0,19.67,8,19.67,18.4v.11c0,10.41-8,18.5-19.67,18.5h-14.44Zm8.15,7.35V326h6.29c6.66,0,11.15-4.49,11.15-11.05v-.1c0-6.56-4.49-11.16-11.15-11.16Z"/><path class="cls-11" d="M1748.54,296.38H1763c11.63,0,19.67,8,19.67,18.4v.11c0,10.41-8,18.5-19.67,18.5h-14.44Zm8.15,7.35V326H1763c6.66,0,11.15-4.49,11.15-11.05v-.1c0-6.56-4.49-11.16-11.15-11.16Z"/><path class="cls-11" d="M1800.83,318.8l-14.22-22.42h9.52l8.83,14.86,9-14.86h9.26L1809,318.64v14.75h-8.14Z"/><path class="cls-11" d="M68.11,372.44a1,1,0,0,1-.9-.59l-.82-2.12h-6l-.82,2.12a1,1,0,0,1-.9.59,1,1,0,0,1-1-1,1.55,1.55,0,0,1,.05-.35l4.13-10.36a1.58,1.58,0,0,1,1.48-1,1.6,1.6,0,0,1,1.52,1L69,371.1a1,1,0,0,1,.07.35A1,1,0,0,1,68.11,372.44ZM63.4,361.75,61,368.11h4.92Z"/><path class="cls-11" d="M79.66,372.56a5,5,0,0,1-3.42-1.18.56.56,0,0,1-.2-.45.71.71,0,0,1,.73-.69.75.75,0,0,1,.43.13,4.45,4.45,0,0,0,2.54.86c1.29,0,2-.58,2-1.4,0-2-5.51-.69-5.51-4.1,0-1.42,1.23-2.65,3.44-2.65a4.51,4.51,0,0,1,3.14,1.08.59.59,0,0,1,.16.41.66.66,0,0,1-.65.66.59.59,0,0,1-.39-.13,4,4,0,0,0-2.25-.69c-1.14,0-1.85.54-1.85,1.27,0,1.81,5.54.56,5.54,4.11C83.33,371.32,82.06,372.56,79.66,372.56Z"/><path class="cls-11" d="M87.81,361a1.06,1.06,0,0,1-1.06,1.07,1.08,1.08,0,0,1,0-2.15A1.06,1.06,0,0,1,87.81,361Zm-1.06,11.4a.82.82,0,0,1-.82-.82V364a.84.84,0,0,1,.86-.81.82.82,0,0,1,.8.81v7.62A.83.83,0,0,1,86.75,372.44Z"/><path class="cls-11" d="M102.54,372.44a.82.82,0,0,1-.82-.82v-5.31c0-1.06-.47-1.75-1.57-1.75a3,3,0,0,0-2.26,1.3v5.76a.84.84,0,0,1-1.67,0v-5.31c0-1.06-.44-1.75-1.58-1.75a3,3,0,0,0-2.23,1.32v5.74a.83.83,0,0,1-1.66,0V364a.84.84,0,0,1,.86-.81.82.82,0,0,1,.8.81v.57a3.9,3.9,0,0,1,2.92-1.49,2.33,2.33,0,0,1,2.45,1.66,3.82,3.82,0,0,1,3-1.66c1.67,0,2.56.9,2.56,2.73v5.81A.83.83,0,0,1,102.54,372.44Z"/><path class="cls-11" d="M111.18,372.56a3.61,3.61,0,0,1-3-1.54v4.06a.84.84,0,0,1-1.67,0V364a.84.84,0,0,1,.86-.81.83.83,0,0,1,.81.81v.59a3.7,3.7,0,0,1,3-1.51c2.35,0,4,1.77,4,4.73S113.53,372.56,111.18,372.56Zm-.47-8a3.1,3.1,0,0,0-2.5,1.32v3.85a3.13,3.13,0,0,0,2.5,1.35c1.7,0,2.73-1.38,2.73-3.27S112.41,364.56,110.71,364.56Z"/><path class="cls-11" d="M118.58,372.44a.82.82,0,0,1-.82-.82V360.56a.84.84,0,0,1,.86-.81.82.82,0,0,1,.8.81v11.06A.83.83,0,0,1,118.58,372.44Z"/><path class="cls-11" d="M130.06,368.35h-6.28a3,3,0,0,0,3.08,2.86,3.85,3.85,0,0,0,2.25-.75.92.92,0,0,1,.37-.09.69.69,0,0,1,.67.67c0,1-2.31,1.52-3.46,1.52a4.74,4.74,0,0,1-.14-9.48,4.2,4.2,0,0,1,4.2,3.38,4.27,4.27,0,0,1,.17,1.05A.86.86,0,0,1,130.06,368.35Zm-3.53-3.93a2.78,2.78,0,0,0-2.75,2.75h5.53A2.73,2.73,0,0,0,126.53,364.42Z"/><path class="cls-11" d="M139.61,372.44a.82.82,0,0,1-.82-.82V360.56a.84.84,0,0,1,.86-.81.82.82,0,0,1,.8.81v11.06A.83.83,0,0,1,139.61,372.44Z"/><path class="cls-11" d="M147.61,372.56a4.74,4.74,0,1,1,4.56-4.75A4.48,4.48,0,0,1,147.61,372.56Zm0-8c-1.79,0-2.82,1.53-2.82,3.25s1,3.27,2.82,3.27,2.83-1.53,2.83-3.27S149.43,364.56,147.61,364.56Z"/><path class="cls-11" d="M158.44,376a4.83,4.83,0,0,1-3.42-1.11.63.63,0,0,1-.19-.47.72.72,0,0,1,.71-.71.65.65,0,0,1,.43.14,3.63,3.63,0,0,0,2.47.78,2.48,2.48,0,0,0,2.78-2.6v-1.19a3.73,3.73,0,0,1-3,1.57c-2.32,0-4-1.72-4-4.66s1.66-4.67,4-4.67a3.67,3.67,0,0,1,3,1.53V364a.84.84,0,0,1,.86-.81.82.82,0,0,1,.8.81v8C162.88,375.08,160.64,376,158.44,376Zm2.78-10.1a3.16,3.16,0,0,0-2.52-1.34c-1.68,0-2.73,1.3-2.73,3.19s1.05,3.18,2.73,3.18a3.2,3.2,0,0,0,2.52-1.36Z"/><path class="cls-11" d="M170,372.56a4.74,4.74,0,1,1,4.57-4.75A4.48,4.48,0,0,1,170,372.56Zm0-8c-1.79,0-2.82,1.53-2.82,3.25s1,3.27,2.82,3.27,2.83-1.53,2.83-3.27S171.86,364.56,170,364.56Z"/><path class="cls-11" d="M191.71,371.66a.79.79,0,0,1-.79.78c-.52,0-1.29-.91-1.68-1.32a5,5,0,0,1-3.53,1.44c-2.19,0-3.94-1.18-3.94-3.52,0-1.92,1.28-2.91,2.72-3.66a6,6,0,0,1-.91-2.79,3,3,0,0,1,3.25-2.91c1.66,0,2.94.89,2.94,2.5,0,1.87-1.58,2.69-3.15,3.48a30.43,30.43,0,0,0,2.72,3.23,10.43,10.43,0,0,0,1.06-2.15.73.73,0,0,1,.69-.45.77.77,0,0,1,.75.73.91.91,0,0,1-.09.36,15.89,15.89,0,0,1-1.44,2.56C190.89,370.59,191.71,371.14,191.71,371.66Zm-5.81-.45a3.51,3.51,0,0,0,2.39-1.08,27.75,27.75,0,0,1-3.1-3.69,2.85,2.85,0,0,0-1.65,2.47A2.25,2.25,0,0,0,185.9,371.21Zm-.62-8.58a4.21,4.21,0,0,0,.69,2c1.25-.62,2.3-1.25,2.3-2.39A1.26,1.26,0,0,0,186.9,361,1.62,1.62,0,0,0,185.28,362.63Z"/><path class="cls-11" d="M212.33,364.22,210,371.68a1.08,1.08,0,0,1-1,.76h0a1.1,1.1,0,0,1-1-.76l-2-6.3-2,6.3a1.08,1.08,0,0,1-1,.76h0a1.09,1.09,0,0,1-1-.76l-2.35-7.46a.93.93,0,0,1,0-.22.82.82,0,0,1,.8-.81.87.87,0,0,1,.82.56l1.93,6.45,2.09-6.37a.94.94,0,0,1,.92-.64.92.92,0,0,1,.86.64l2.11,6.37,1.93-6.45a.81.81,0,0,1,.78-.56.8.8,0,0,1,.82.81A.89.89,0,0,1,212.33,364.22Z"/><path class="cls-11" d="M218.59,372.56a4.74,4.74,0,1,1,4.56-4.75A4.48,4.48,0,0,1,218.59,372.56Zm0-8c-1.79,0-2.82,1.53-2.82,3.25s1,3.27,2.82,3.27,2.82-1.53,2.82-3.27S220.4,364.56,218.59,364.56Z"/><path class="cls-11" d="M229.68,364.8a2.91,2.91,0,0,0-2.25,1.25v5.57a.83.83,0,0,1-.84.82h0a.82.82,0,0,1-.8-.82V364a.84.84,0,0,1,.86-.81.82.82,0,0,1,.8.81v.71a3.2,3.2,0,0,1,2.34-1.54.73.73,0,0,1,.75.75A.89.89,0,0,1,229.68,364.8Z"/><path class="cls-11" d="M239.83,372.44a.83.83,0,0,1-.83-.82V371a3.75,3.75,0,0,1-3,1.52c-2.34,0-4-1.78-4-4.73s1.67-4.75,4-4.75a3.68,3.68,0,0,1,3,1.53v-4.05a.84.84,0,0,1,.86-.81.83.83,0,0,1,.81.81v11.06A.83.83,0,0,1,239.83,372.44ZM239,365.9a3.15,3.15,0,0,0-2.54-1.34c-1.68,0-2.73,1.38-2.73,3.27s1.05,3.25,2.73,3.25a3.09,3.09,0,0,0,2.54-1.33Z"/><path class="cls-11" d="M260.89,372.44a.82.82,0,0,1-.82-.82v-5.31c0-1.06-.47-1.75-1.57-1.75a3,3,0,0,0-2.26,1.3v5.76a.84.84,0,0,1-1.67,0v-5.31c0-1.06-.44-1.75-1.59-1.75a3,3,0,0,0-2.22,1.32v5.74a.83.83,0,0,1-1.66,0V364a.84.84,0,0,1,.86-.81.82.82,0,0,1,.8.81v.57a3.9,3.9,0,0,1,2.92-1.49,2.33,2.33,0,0,1,2.45,1.66,3.82,3.82,0,0,1,3-1.66c1.67,0,2.56.9,2.56,2.73v5.81A.83.83,0,0,1,260.89,372.44Z"/><path class="cls-11" d="M271.3,372.44h-.05a.79.79,0,0,1-.77-.82v-.3a3.87,3.87,0,0,1-3,1.24,3,3,0,0,1-3.14-3,2.94,2.94,0,0,1,3.14-3,3.79,3.79,0,0,1,3,1.2v-1.52c0-1.14-.93-1.81-2.2-1.81a3.57,3.57,0,0,0-2.27.79.77.77,0,0,1-.41.15.69.69,0,0,1-.69-.66.67.67,0,0,1,.17-.43,5,5,0,0,1,3.44-1.25c1.94,0,3.63.84,3.63,3.14v5.4A.84.84,0,0,1,271.3,372.44Zm-.82-3.62a2.85,2.85,0,0,0-2.33-1.05,1.83,1.83,0,1,0,0,3.61,2.84,2.84,0,0,0,2.33-1Z"/><path class="cls-11" d="M279.19,364.8a2.91,2.91,0,0,0-2.24,1.25v5.57a.83.83,0,0,1-.84.82h0a.82.82,0,0,1-.8-.82V364a.84.84,0,0,1,.86-.81.82.82,0,0,1,.8.81v.71a3.19,3.19,0,0,1,2.34-1.54.72.72,0,0,1,.74.75A.88.88,0,0,1,279.19,364.8Z"/><path class="cls-11" d="M288.63,372.46a.79.79,0,0,1-.65-.33l-2.86-3.71-1.39,1.41v1.79a.83.83,0,0,1-1.66,0V360.56a.84.84,0,0,1,.86-.81.82.82,0,0,1,.8.81v7.34l4.27-4.48a.8.8,0,0,1,.54-.25.82.82,0,0,1,.78.79.76.76,0,0,1-.2.5l-2.81,2.94,3,3.74a.75.75,0,0,1,.16.48A.84.84,0,0,1,288.63,372.46Z"/><path class="cls-11" d="M293,374.56a.59.59,0,0,1-.32.13.52.52,0,0,1-.52-.49.59.59,0,0,1,.14-.37,2.63,2.63,0,0,0,.92-1.46,1,1,0,0,1-1.27-1,1.13,1.13,0,0,1,1.1-1.14,1.41,1.41,0,0,1,1.33,1.55A3.91,3.91,0,0,1,293,374.56Z"/><path class="cls-11" d="M314.52,364.22l-2.35,7.46a1.08,1.08,0,0,1-1.05.76h0a1.09,1.09,0,0,1-1-.76l-2-6.3-2,6.3a1.08,1.08,0,0,1-1.05.76h0a1.09,1.09,0,0,1-1-.76l-2.36-7.46a.93.93,0,0,1,0-.22.83.83,0,0,1,.81-.81.88.88,0,0,1,.82.56l1.93,6.45,2.09-6.37a.93.93,0,0,1,.91-.64.91.91,0,0,1,.86.64L311,370.2l1.92-6.45a.82.82,0,0,1,.79-.56.81.81,0,0,1,.82.81A.93.93,0,0,1,314.52,364.22Z"/><path class="cls-11" d="M323.72,372.44a.82.82,0,0,1-.82-.82V366.5c0-1.5-.79-1.94-1.95-1.94a3.25,3.25,0,0,0-2.5,1.32v5.74a.84.84,0,0,1-1.67,0V360.56a.85.85,0,0,1,.87-.81.83.83,0,0,1,.8.81v4a4.39,4.39,0,0,1,3.21-1.49c1.91,0,2.9.95,2.9,2.86v5.68A.83.83,0,0,1,323.72,372.44Z"/><path class="cls-11" d="M329.61,361a1.07,1.07,0,1,1-1.07-1.08A1.07,1.07,0,0,1,329.61,361Zm-1.07,11.4a.83.83,0,0,1-.82-.82V364a.84.84,0,0,1,.86-.81.83.83,0,0,1,.81.81v7.62A.84.84,0,0,1,328.54,372.44Z"/><path class="cls-11" d="M339.52,371.45a4,4,0,0,1-2.94,1.11,4.74,4.74,0,0,1,0-9.48,3.83,3.83,0,0,1,3,1.2.54.54,0,0,1,.13.39.76.76,0,0,1-.76.75.82.82,0,0,1-.53-.21,2.54,2.54,0,0,0-1.75-.65,3.28,3.28,0,0,0,0,6.52,2.52,2.52,0,0,0,1.75-.67.84.84,0,0,1,.53-.17.76.76,0,0,1,.78.73A.64.64,0,0,1,339.52,371.45Z"/><path class="cls-11" d="M349.22,372.44a.82.82,0,0,1-.82-.82V366.5c0-1.5-.79-1.94-1.95-1.94a3.23,3.23,0,0,0-2.5,1.32v5.74a.84.84,0,0,1-1.67,0V360.56a.84.84,0,0,1,.86-.81.83.83,0,0,1,.81.81v4a4.39,4.39,0,0,1,3.21-1.49c1.91,0,2.9.95,2.9,2.86v5.68A.83.83,0,0,1,349.22,372.44Z"/><path class="cls-11" d="M65.81,394.88a.83.83,0,0,1-.82-.83v-.58A3.77,3.77,0,0,1,62,395c-2.34,0-4-1.78-4-4.73s1.66-4.75,4-4.75A3.7,3.7,0,0,1,65,387V383a.84.84,0,0,1,.86-.81.82.82,0,0,1,.8.81v11.06A.84.84,0,0,1,65.81,394.88ZM65,388.33A3.18,3.18,0,0,0,62.45,387c-1.68,0-2.73,1.38-2.73,3.27s1.05,3.25,2.73,3.25A3.12,3.12,0,0,0,65,392.18Z"/><path class="cls-11" d="M73.72,387.23a2.94,2.94,0,0,0-2.24,1.25v5.57a.84.84,0,0,1-.84.83h0a.84.84,0,0,1-.81-.83v-7.62a.84.84,0,0,1,.86-.81.83.83,0,0,1,.81.81v.71a3.19,3.19,0,0,1,2.33-1.54.73.73,0,0,1,.75.75A.88.88,0,0,1,73.72,387.23Z"/><path class="cls-11" d="M83,394.88H83a.79.79,0,0,1-.76-.83v-.3a3.87,3.87,0,0,1-3,1.24,3,3,0,0,1-3.15-3,2.94,2.94,0,0,1,3.15-3,3.82,3.82,0,0,1,3,1.2v-1.51c0-1.14-.94-1.82-2.21-1.82a3.54,3.54,0,0,0-2.26.79.77.77,0,0,1-.41.15.68.68,0,0,1-.69-.66.62.62,0,0,1,.17-.43,5,5,0,0,1,3.43-1.25c2,0,3.63.84,3.63,3.14v5.4A.84.84,0,0,1,83,394.88Zm-.82-3.63a2.87,2.87,0,0,0-2.34-1.05A1.9,1.9,0,0,0,77.76,392a1.88,1.88,0,0,0,2.09,1.77,2.86,2.86,0,0,0,2.34-1Z"/><path class="cls-11" d="M99.09,386.65l-2.36,7.46a1.09,1.09,0,0,1-1,.77h0a1.1,1.1,0,0,1-1-.77l-2-6.3-2,6.3a1.09,1.09,0,0,1-1,.77h0a1.1,1.1,0,0,1-1-.77l-2.36-7.46a1.66,1.66,0,0,1,0-.22.82.82,0,0,1,.8-.81.87.87,0,0,1,.82.56l1.93,6.45,2.09-6.37a.94.94,0,0,1,.92-.64.92.92,0,0,1,.86.64l2.11,6.37,1.93-6.45a.81.81,0,0,1,.78-.56.8.8,0,0,1,.82.81A1.66,1.66,0,0,1,99.09,386.65Z"/><path class="cls-11" d="M104.3,395a5,5,0,0,1-3.42-1.18.56.56,0,0,1-.2-.45.73.73,0,0,1,1.15-.56,4.51,4.51,0,0,0,2.55.86c1.29,0,2-.58,2-1.4,0-2-5.52-.69-5.52-4.09,0-1.42,1.24-2.66,3.44-2.66a4.46,4.46,0,0,1,3.14,1.09.54.54,0,0,1,.17.41.66.66,0,0,1-.65.65.59.59,0,0,1-.39-.13,4,4,0,0,0-2.25-.69c-1.14,0-1.85.54-1.85,1.27,0,1.81,5.54.56,5.54,4.11C108,393.75,106.69,395,104.3,395Z"/><path class="cls-11" d="M117.72,383.47a1.06,1.06,0,0,1-1.06,1.07,1.08,1.08,0,0,1,0-2.15A1.06,1.06,0,0,1,117.72,383.47Zm-1.06,11.41a.84.84,0,0,1-.83-.83v-7.62a.84.84,0,0,1,.86-.81.83.83,0,0,1,.81.81v7.62A.84.84,0,0,1,116.66,394.88Z"/><path class="cls-11" d="M127.57,394.88a.84.84,0,0,1-.82-.83V389c0-1.5-.77-2-1.92-2a3.18,3.18,0,0,0-2.51,1.33v5.73a.83.83,0,1,1-1.66,0v-7.62a.84.84,0,0,1,.86-.81.82.82,0,0,1,.8.81V387a4.37,4.37,0,0,1,3.2-1.5,2.58,2.58,0,0,1,2.89,2.9v5.64A.84.84,0,0,1,127.57,394.88Z"/><path class="cls-11" d="M134.53,395a5,5,0,0,1-3.42-1.18.57.57,0,0,1-.21-.45.74.74,0,0,1,1.16-.56,4.48,4.48,0,0,0,2.54.86c1.29,0,2-.58,2-1.4,0-2-5.51-.69-5.51-4.09,0-1.42,1.23-2.66,3.44-2.66a4.46,4.46,0,0,1,3.14,1.09.58.58,0,0,1,.17.41.66.66,0,0,1-.66.65.59.59,0,0,1-.39-.13,3.94,3.94,0,0,0-2.24-.69c-1.14,0-1.85.54-1.85,1.27,0,1.81,5.53.56,5.53,4.11C138.19,393.75,136.92,395,134.53,395Z"/><path class="cls-11" d="M145.43,395a3.62,3.62,0,0,1-3-1.53v4.05a.83.83,0,0,1-1.66,0V386.43a.84.84,0,0,1,.86-.81.82.82,0,0,1,.8.81v.6a3.7,3.7,0,0,1,3-1.52c2.35,0,4,1.78,4,4.73S147.78,395,145.43,395Zm-.47-8a3.13,3.13,0,0,0-2.51,1.33v3.85a3.17,3.17,0,0,0,2.51,1.34c1.7,0,2.73-1.38,2.73-3.27S146.66,387,145,387Z"/><path class="cls-11" d="M153.89,383.47a1.06,1.06,0,0,1-1.06,1.07,1.08,1.08,0,0,1,0-2.15A1.06,1.06,0,0,1,153.89,383.47Zm-1.06,11.41a.83.83,0,0,1-.82-.83v-7.62a.84.84,0,0,1,.86-.81.82.82,0,0,1,.8.81v7.62A.84.84,0,0,1,152.83,394.88Z"/><path class="cls-11" d="M160.74,387.23a3,3,0,0,0-2.25,1.25v5.57a.84.84,0,0,1-.84.83h0a.83.83,0,0,1-.8-.83v-7.62a.84.84,0,0,1,.86-.81.82.82,0,0,1,.8.81v.71a3.23,3.23,0,0,1,2.34-1.54.73.73,0,0,1,.75.75A.89.89,0,0,1,160.74,387.23Z"/><path class="cls-11" d="M170,394.88H170a.8.8,0,0,1-.77-.83v-.3a3.85,3.85,0,0,1-3,1.24,3,3,0,0,1-3.14-3,2.94,2.94,0,0,1,3.14-3,3.81,3.81,0,0,1,3,1.2v-1.51c0-1.14-.93-1.82-2.2-1.82a3.54,3.54,0,0,0-2.26.79.77.77,0,0,1-.42.15.68.68,0,0,1-.69-.66.67.67,0,0,1,.17-.43,5,5,0,0,1,3.44-1.25c1.95,0,3.63.84,3.63,3.14v5.4A.84.84,0,0,1,170,394.88Zm-.83-3.63a2.85,2.85,0,0,0-2.33-1.05,1.9,1.9,0,0,0-2.1,1.84,1.88,1.88,0,0,0,2.1,1.77,2.84,2.84,0,0,0,2.33-1Z"/><path class="cls-11" d="M176.49,395a2,2,0,0,1-2.16-2.21v-5.59h-.88a.73.73,0,1,1,0-1.45h.88V384a.84.84,0,0,1,1.68,0v1.78h1.23a.71.71,0,0,1,.71.74.71.71,0,0,1-.71.71H176v5.2c0,.69.33,1.12.88,1.12.2,0,.43-.09.61-.09a.68.68,0,0,1,.71.69C178.21,394.71,177.48,395,176.49,395Z"/><path class="cls-11" d="M182.08,383.47a1.06,1.06,0,0,1-1.06,1.07,1.08,1.08,0,0,1,0-2.15A1.06,1.06,0,0,1,182.08,383.47ZM181,394.88a.84.84,0,0,1-.83-.83v-7.62a.85.85,0,0,1,.87-.81.83.83,0,0,1,.8.81v7.62A.84.84,0,0,1,181,394.88Z"/><path class="cls-11" d="M189,395a4.74,4.74,0,1,1,4.56-4.75A4.48,4.48,0,0,1,189,395Zm0-8c-1.8,0-2.83,1.53-2.83,3.25s1,3.27,2.83,3.27,2.82-1.53,2.82-3.27S190.83,387,189,387Z"/><path class="cls-11" d="M203.11,394.88a.83.83,0,0,1-.82-.83V389c0-1.5-.77-2-1.93-2a3.18,3.18,0,0,0-2.5,1.33v5.73a.83.83,0,1,1-1.66,0v-7.62a.84.84,0,0,1,.86-.81.82.82,0,0,1,.8.81V387a4.37,4.37,0,0,1,3.2-1.5,2.58,2.58,0,0,1,2.89,2.9v5.64A.84.84,0,0,1,203.11,394.88Z"/><path class="cls-11" d="M216.79,383.68c-.29,0-.57-.22-1-.22-.86,0-1.34.58-1.34,1.64v.64h1.23a.71.71,0,0,1,.71.74.71.71,0,0,1-.71.71h-1.23v6.86a.84.84,0,0,1-1.67,0v-6.86h-.89a.71.71,0,0,1-.71-.74.7.7,0,0,1,.71-.71h.89v-.64c0-1.87,1.07-3,2.73-3,.81,0,1.89.28,1.89.92A.63.63,0,0,1,216.79,383.68Z"/><path class="cls-11" d="M222.27,387.23a2.94,2.94,0,0,0-2.24,1.25v5.57a.84.84,0,0,1-.84.83h0a.83.83,0,0,1-.8-.83v-7.62a.84.84,0,0,1,.86-.81.82.82,0,0,1,.8.81v.71a3.21,3.21,0,0,1,2.34-1.54.72.72,0,0,1,.74.75A.88.88,0,0,1,222.27,387.23Z"/><path class="cls-11" d="M229.15,395a4.74,4.74,0,1,1,4.56-4.75A4.48,4.48,0,0,1,229.15,395Zm0-8c-1.79,0-2.82,1.53-2.82,3.25s1,3.27,2.82,3.27S232,392,232,390.24,231,387,229.15,387Z"/><path class="cls-11" d="M248.12,394.88a.84.84,0,0,1-.82-.83v-5.3c0-1.07-.47-1.76-1.57-1.76a3,3,0,0,0-2.26,1.31v5.75a.83.83,0,1,1-1.66,0v-5.3c0-1.07-.45-1.76-1.59-1.76a2.94,2.94,0,0,0-2.23,1.33v5.73a.83.83,0,1,1-1.66,0v-7.62a.84.84,0,0,1,.86-.81.82.82,0,0,1,.8.81V387a3.93,3.93,0,0,1,2.92-1.5,2.33,2.33,0,0,1,2.45,1.66,3.82,3.82,0,0,1,3-1.66c1.67,0,2.57.9,2.57,2.73v5.81A.85.85,0,0,1,248.12,394.88Z"/><path class="cls-11" d="M263.81,394.88h-.06a.8.8,0,0,1-.77-.83v-.3a3.85,3.85,0,0,1-3,1.24,3,3,0,0,1-3.14-3,2.94,2.94,0,0,1,3.14-3,3.81,3.81,0,0,1,3,1.2v-1.51c0-1.14-.93-1.82-2.2-1.82a3.54,3.54,0,0,0-2.26.79.77.77,0,0,1-.41.15.69.69,0,0,1-.7-.66.67.67,0,0,1,.17-.43,5,5,0,0,1,3.44-1.25c2,0,3.63.84,3.63,3.14v5.4A.84.84,0,0,1,263.81,394.88Zm-.83-3.63a2.85,2.85,0,0,0-2.33-1.05,1.89,1.89,0,0,0-2.09,1.84,1.87,1.87,0,0,0,2.09,1.77,2.84,2.84,0,0,0,2.33-1Z"/><path class="cls-11" d="M274.7,394.88a.84.84,0,0,1-.82-.83V389c0-1.5-.76-2-1.92-2a3.18,3.18,0,0,0-2.51,1.33v5.73a.83.83,0,1,1-1.66,0v-7.62a.84.84,0,0,1,.86-.81.82.82,0,0,1,.8.81V387a4.39,4.39,0,0,1,3.2-1.5,2.58,2.58,0,0,1,2.9,2.9v5.64A.85.85,0,0,1,274.7,394.88Z"/><path class="cls-11" d="M290.39,394.88h-.06a.8.8,0,0,1-.77-.83v-.3a3.85,3.85,0,0,1-3,1.24,3,3,0,0,1-3.14-3,2.94,2.94,0,0,1,3.14-3,3.81,3.81,0,0,1,3,1.2v-1.51c0-1.14-.93-1.82-2.2-1.82a3.54,3.54,0,0,0-2.26.79.77.77,0,0,1-.41.15.69.69,0,0,1-.7-.66.67.67,0,0,1,.17-.43,5,5,0,0,1,3.44-1.25c1.95,0,3.63.84,3.63,3.14v5.4A.84.84,0,0,1,290.39,394.88Zm-.83-3.63a2.85,2.85,0,0,0-2.33-1.05,1.89,1.89,0,0,0-2.09,1.84,1.87,1.87,0,0,0,2.09,1.77,2.84,2.84,0,0,0,2.33-1Z"/><path class="cls-11" d="M296.26,383.47a1.07,1.07,0,1,1-1.07-1.08A1.07,1.07,0,0,1,296.26,383.47Zm-1.07,11.41a.83.83,0,0,1-.82-.83v-7.62a.84.84,0,0,1,.86-.81.82.82,0,0,1,.8.81v7.62A.84.84,0,0,1,295.19,394.88Z"/><path class="cls-11" d="M303.1,387.23a2.94,2.94,0,0,0-2.24,1.25v5.57a.85.85,0,0,1-.85.83h0a.84.84,0,0,1-.81-.83v-7.62a.84.84,0,0,1,.86-.81.83.83,0,0,1,.81.81v.71a3.19,3.19,0,0,1,2.33-1.54.73.73,0,0,1,.75.75A.88.88,0,0,1,303.1,387.23Z"/><path class="cls-11" d="M313,393.89A4,4,0,0,1,310,395a4.74,4.74,0,0,1,0-9.48,3.82,3.82,0,0,1,3,1.2.55.55,0,0,1,.14.39.77.77,0,0,1-.77.75.8.8,0,0,1-.52-.21,2.58,2.58,0,0,0-1.76-.65,3.28,3.28,0,0,0,0,6.52,2.57,2.57,0,0,0,1.76-.67.87.87,0,0,1,.52-.17.76.76,0,0,1,.78.73A.67.67,0,0,1,313,393.89Z"/><path class="cls-11" d="M319.62,387.23a2.94,2.94,0,0,0-2.24,1.25v5.57a.84.84,0,0,1-.84.83h0a.83.83,0,0,1-.8-.83v-7.62a.84.84,0,0,1,.86-.81.82.82,0,0,1,.8.81v.71a3.23,3.23,0,0,1,2.34-1.54.73.73,0,0,1,.75.75A.89.89,0,0,1,319.62,387.23Z"/><path class="cls-11" d="M328.91,394.88h-.05a.8.8,0,0,1-.77-.83v-.3a3.87,3.87,0,0,1-3,1.24,3,3,0,0,1-3.14-3,2.94,2.94,0,0,1,3.14-3,3.82,3.82,0,0,1,3,1.2v-1.51c0-1.14-.93-1.82-2.2-1.82a3.57,3.57,0,0,0-2.27.79.77.77,0,0,1-.41.15.68.68,0,0,1-.69-.66.67.67,0,0,1,.17-.43,5,5,0,0,1,3.44-1.25c1.94,0,3.63.84,3.63,3.14v5.4A.85.85,0,0,1,328.91,394.88Zm-.82-3.63a2.85,2.85,0,0,0-2.33-1.05,1.9,1.9,0,0,0-2.1,1.84,1.88,1.88,0,0,0,2.1,1.77,2.84,2.84,0,0,0,2.33-1Z"/><path class="cls-11" d="M337.31,383.68c-.3,0-.58-.22-1-.22-.86,0-1.35.58-1.35,1.64v.64h1.23a.71.71,0,0,1,.71.74.7.7,0,0,1-.71.71H335v6.86a.83.83,0,1,1-1.66,0v-6.86h-.9a.71.71,0,0,1-.71-.74.71.71,0,0,1,.71-.71h.9v-.64c0-1.87,1.06-3,2.73-3,.8,0,1.88.28,1.88.92A.63.63,0,0,1,337.31,383.68Z"/><path class="cls-11" d="M341.36,395a2,2,0,0,1-2.16-2.21v-5.59h-.88a.73.73,0,1,1,0-1.45h.88V384a.84.84,0,0,1,1.68,0v1.78h1.23a.71.71,0,0,1,.71.74.71.71,0,0,1-.71.71h-1.23v5.2c0,.69.33,1.12.88,1.12.2,0,.43-.09.61-.09a.68.68,0,0,1,.71.69C343.08,394.71,342.35,395,341.36,395Z"/><path class="cls-11" d="M348,395a5,5,0,0,1-3.42-1.18.57.57,0,0,1-.21-.45.74.74,0,0,1,1.16-.56,4.48,4.48,0,0,0,2.54.86c1.29,0,2-.58,2-1.4,0-2-5.52-.69-5.52-4.09,0-1.42,1.23-2.66,3.44-2.66a4.46,4.46,0,0,1,3.14,1.09.58.58,0,0,1,.17.41.66.66,0,0,1-.65.65.62.62,0,0,1-.4-.13,3.94,3.94,0,0,0-2.24-.69c-1.14,0-1.85.54-1.85,1.27,0,1.81,5.53.56,5.53,4.11C351.68,393.75,350.41,395,348,395Z"/><path class="cls-11" d="M62.45,409.66a3,3,0,0,0-2.25,1.26v5.57a.83.83,0,0,1-.84.82h0a.83.83,0,0,1-.8-.82v-7.63a.83.83,0,0,1,.86-.8.82.82,0,0,1,.8.8v.71A3.22,3.22,0,0,1,62.54,408a.72.72,0,0,1,.75.74A.88.88,0,0,1,62.45,409.66Z"/><path class="cls-11" d="M69.33,417.42a4.74,4.74,0,1,1,4.56-4.75A4.49,4.49,0,0,1,69.33,417.42Zm0-8c-1.8,0-2.83,1.53-2.83,3.25s1,3.27,2.83,3.27,2.82-1.53,2.82-3.27S71.14,409.42,69.33,409.42Z"/><path class="cls-11" d="M83.42,417.31a.83.83,0,0,1-.82-.82V416a4.34,4.34,0,0,1-3.22,1.46,2.54,2.54,0,0,1-2.88-2.86v-5.7a.84.84,0,0,1,.86-.8.82.82,0,0,1,.81.8V414c0,1.5.76,2,1.92,2a3.21,3.21,0,0,0,2.51-1.29v-5.79a.83.83,0,0,1,.86-.8.82.82,0,0,1,.8.8v7.63A.83.83,0,0,1,83.42,417.31Z"/><path class="cls-11" d="M94.34,417.31a.83.83,0,0,1-.82-.82V411.4c0-1.49-.77-2-1.93-2a3.17,3.17,0,0,0-2.5,1.33v5.74a.84.84,0,0,1-1.67,0v-7.63a.84.84,0,0,1,.86-.8.82.82,0,0,1,.81.8v.58a4.35,4.35,0,0,1,3.19-1.5,2.58,2.58,0,0,1,2.9,2.9v5.65A.83.83,0,0,1,94.34,417.31Z"/><path class="cls-11" d="M105.61,417.31a.83.83,0,0,1-.82-.82v-.58a3.81,3.81,0,0,1-3,1.51c-2.33,0-4-1.78-4-4.73s1.66-4.75,4-4.75a3.68,3.68,0,0,1,3,1.54v-4.06a.83.83,0,0,1,.86-.8.82.82,0,0,1,.8.8v11.07A.83.83,0,0,1,105.61,417.31Zm-.82-6.54a3.19,3.19,0,0,0-2.55-1.35c-1.68,0-2.72,1.38-2.72,3.27s1,3.25,2.72,3.25a3.14,3.14,0,0,0,2.55-1.32Z"/><path class="cls-11" d="M117.09,413.21h-6.28a3,3,0,0,0,3.08,2.86,3.85,3.85,0,0,0,2.24-.74.86.86,0,0,1,.38-.1.7.7,0,0,1,.67.68c0,1-2.32,1.51-3.46,1.51a4.74,4.74,0,0,1-.15-9.48,4.21,4.21,0,0,1,4.21,3.39,4.81,4.81,0,0,1,.17,1A.87.87,0,0,1,117.09,413.21Zm-3.54-3.92a2.78,2.78,0,0,0-2.74,2.75h5.53A2.73,2.73,0,0,0,113.55,409.29Z"/><path class="cls-11" d="M127.82,417.31a.84.84,0,0,1-.83-.82v-.58a3.77,3.77,0,0,1-3,1.51c-2.33,0-4-1.78-4-4.73s1.67-4.75,4-4.75a3.65,3.65,0,0,1,3,1.54v-4.06a.84.84,0,0,1,.86-.8.82.82,0,0,1,.81.8v11.07A.84.84,0,0,1,127.82,417.31Zm-.83-6.54a3.16,3.16,0,0,0-2.54-1.35c-1.68,0-2.73,1.38-2.73,3.27s1,3.25,2.73,3.25a3.11,3.11,0,0,0,2.54-1.32Z"/><path class="cls-11" d="M141.72,417.42a3.77,3.77,0,0,1-3-1.51v.58a.83.83,0,0,1-1.66,0V405.42a.83.83,0,0,1,.86-.8.82.82,0,0,1,.8.8v4.06a3.65,3.65,0,0,1,3-1.54c2.34,0,4,1.85,4,4.75S144.06,417.42,141.72,417.42Zm-.46-8a3.15,3.15,0,0,0-2.51,1.35v3.86a3.11,3.11,0,0,0,2.51,1.31c1.72,0,2.74-1.36,2.74-3.25S143,409.42,141.26,409.42Z"/><path class="cls-11" d="M152.36,417.42a4.74,4.74,0,1,1,4.56-4.75A4.48,4.48,0,0,1,152.36,417.42Zm0-8c-1.79,0-2.82,1.53-2.82,3.25s1,3.27,2.82,3.27,2.82-1.53,2.82-3.27S154.17,409.42,152.36,409.42Z"/><path class="cls-11" d="M166.81,417.31a.83.83,0,0,1-.82-.82v-.58a3.79,3.79,0,0,1-3,1.51c-2.34,0-4-1.78-4-4.73s1.66-4.75,4-4.75a3.68,3.68,0,0,1,3,1.54v-4.06a.83.83,0,0,1,.86-.8.82.82,0,0,1,.8.8v11.07A.83.83,0,0,1,166.81,417.31Zm-.82-6.54a3.19,3.19,0,0,0-2.54-1.35c-1.69,0-2.73,1.38-2.73,3.27s1,3.25,2.73,3.25a3.14,3.14,0,0,0,2.54-1.32Z"/><path class="cls-11" d="M178.33,409.16l-4,9.77a2.85,2.85,0,0,1-2.79,1.93c-.58,0-1.19-.13-1.19-.75a.73.73,0,0,1,.74-.75,3.08,3.08,0,0,0,.43,0,1.24,1.24,0,0,0,1.22-.86l.52-1.19-3.34-8.15a.71.71,0,0,1-.06-.28.83.83,0,0,1,.84-.82.81.81,0,0,1,.77.52l2.67,6.69,2.66-6.69a.84.84,0,0,1,.78-.52.83.83,0,0,1,.84.82A.87.87,0,0,1,178.33,409.16Z"/><path class="cls-11" d="M180.23,419.42a.48.48,0,0,1-.32.13.53.53,0,0,1-.52-.48.61.61,0,0,1,.15-.38,2.65,2.65,0,0,0,.92-1.46,1,1,0,0,1-1.27-1,1.12,1.12,0,0,1,1.1-1.14,1.4,1.4,0,0,1,1.33,1.55A3.86,3.86,0,0,1,180.23,419.42Z"/><path class="cls-11" d="M196.05,417.31H196a.79.79,0,0,1-.77-.82v-.3a3.87,3.87,0,0,1-3,1.23,3,3,0,0,1-3.14-3,2.93,2.93,0,0,1,3.14-2.95,3.8,3.8,0,0,1,3,1.19v-1.51c0-1.14-.93-1.81-2.2-1.81a3.59,3.59,0,0,0-2.26.78.77.77,0,0,1-.41.15.69.69,0,0,1-.7-.65.67.67,0,0,1,.17-.43,5,5,0,0,1,3.44-1.26c2,0,3.63.84,3.63,3.14v5.41A.84.84,0,0,1,196.05,417.31Zm-.83-3.63a2.85,2.85,0,0,0-2.33-1.05,1.9,1.9,0,0,0-2.1,1.84,1.88,1.88,0,0,0,2.1,1.77,2.81,2.81,0,0,0,2.33-1Z"/><path class="cls-11" d="M206.94,417.31a.84.84,0,0,1-.82-.82V411.4c0-1.49-.77-2-1.92-2a3.21,3.21,0,0,0-2.51,1.33v5.74a.83.83,0,0,1-1.66,0v-7.63a.83.83,0,0,1,.86-.8.82.82,0,0,1,.8.8v.58a4.37,4.37,0,0,1,3.2-1.5,2.58,2.58,0,0,1,2.89,2.9v5.65A.83.83,0,0,1,206.94,417.31Z"/><path class="cls-11" d="M218.22,417.31a.84.84,0,0,1-.83-.82v-.58a3.77,3.77,0,0,1-3,1.51c-2.33,0-4-1.78-4-4.73s1.67-4.75,4-4.75a3.67,3.67,0,0,1,3,1.54v-4.06a.84.84,0,0,1,.86-.8.82.82,0,0,1,.81.8v11.07A.84.84,0,0,1,218.22,417.31Zm-.83-6.54a3.16,3.16,0,0,0-2.54-1.35c-1.68,0-2.73,1.38-2.73,3.27s1,3.25,2.73,3.25a3.11,3.11,0,0,0,2.54-1.32Z"/><path class="cls-11" d="M230.44,417.42a4.92,4.92,0,0,1-3.42-1.18.57.57,0,0,1-.21-.45.74.74,0,0,1,1.16-.56,4.51,4.51,0,0,0,2.55.86c1.29,0,2-.58,2-1.4,0-2-5.52-.69-5.52-4.09,0-1.42,1.24-2.66,3.44-2.66a4.51,4.51,0,0,1,3.14,1.09.54.54,0,0,1,.17.41.66.66,0,0,1-.65.65.54.54,0,0,1-.39-.13,4,4,0,0,0-2.25-.69c-1.14,0-1.85.54-1.85,1.27,0,1.81,5.53.56,5.53,4.11C234.1,416.19,232.83,417.42,230.44,417.42Z"/><path class="cls-11" d="M243.64,417.31a.83.83,0,0,1-.82-.82v-5.13c0-1.49-.79-1.94-1.95-1.94a3.26,3.26,0,0,0-2.5,1.33v5.74a.84.84,0,0,1-1.67,0V405.42a.84.84,0,0,1,.86-.8.82.82,0,0,1,.81.8v4a4.36,4.36,0,0,1,3.21-1.5,2.56,2.56,0,0,1,2.9,2.86v5.69A.83.83,0,0,1,243.64,417.31Z"/><path class="cls-11" d="M254.05,417.31H254a.79.79,0,0,1-.76-.82v-.3a3.9,3.9,0,0,1-3,1.23,3,3,0,0,1-3.14-3,2.93,2.93,0,0,1,3.14-2.95,3.81,3.81,0,0,1,3,1.19v-1.51c0-1.14-.94-1.81-2.21-1.81a3.59,3.59,0,0,0-2.26.78.77.77,0,0,1-.41.15.68.68,0,0,1-.69-.65.62.62,0,0,1,.17-.43,5,5,0,0,1,3.44-1.26c1.94,0,3.62.84,3.62,3.14v5.41A.83.83,0,0,1,254.05,417.31Zm-.82-3.63a2.87,2.87,0,0,0-2.34-1.05,1.9,1.9,0,0,0-2.09,1.84,1.88,1.88,0,0,0,2.09,1.77,2.83,2.83,0,0,0,2.34-1Z"/><path class="cls-11" d="M261.94,409.66a2.92,2.92,0,0,0-2.24,1.26v5.57a.84.84,0,0,1-.85.82h0a.84.84,0,0,1-.81-.82v-7.63a.84.84,0,0,1,.86-.8.82.82,0,0,1,.81.8v.71A3.18,3.18,0,0,1,262,408a.72.72,0,0,1,.75.74A.87.87,0,0,1,261.94,409.66Z"/><path class="cls-11" d="M269.45,417.42a3.62,3.62,0,0,1-3-1.53v4.05a.83.83,0,0,1-1.66,0V408.86a.83.83,0,0,1,.86-.8.82.82,0,0,1,.8.8v.6a3.69,3.69,0,0,1,3-1.52c2.36,0,4,1.78,4,4.73S271.81,417.42,269.45,417.42Zm-.46-8a3.13,3.13,0,0,0-2.51,1.33v3.85a3.14,3.14,0,0,0,2.51,1.34c1.7,0,2.73-1.38,2.73-3.27S270.69,409.42,269,409.42Z"/><path class="cls-11" d="M293.4,409.08,291,416.54a1.09,1.09,0,0,1-1,.77h0a1.11,1.11,0,0,1-1.05-.77l-2-6.3-2,6.3a1.11,1.11,0,0,1-1.05.77h0a1.1,1.1,0,0,1-1-.77l-2.35-7.46a.85.85,0,0,1,0-.22.82.82,0,0,1,.8-.8.88.88,0,0,1,.83.56l1.92,6.45,2.1-6.38a.94.94,0,0,1,1.77,0l2.11,6.38,1.93-6.45a.83.83,0,0,1,1.61.24A.85.85,0,0,1,293.4,409.08Z"/><path class="cls-11" d="M297.55,405.91a1.06,1.06,0,0,1-1.07,1.06,1.07,1.07,0,0,1-1.06-1.06,1.09,1.09,0,0,1,1.06-1.09A1.08,1.08,0,0,1,297.55,405.91Zm-1.07,11.4a.84.84,0,0,1-.82-.82v-7.63a.84.84,0,0,1,.86-.8.82.82,0,0,1,.81.8v7.63A.84.84,0,0,1,296.48,417.31Z"/><path class="cls-11" d="M307.4,417.31a.83.83,0,0,1-.82-.82V411.4c0-1.49-.77-2-1.93-2a3.19,3.19,0,0,0-2.5,1.33v5.74a.84.84,0,0,1-1.67,0v-7.63a.84.84,0,0,1,.87-.8.82.82,0,0,1,.8.8v.58a4.37,4.37,0,0,1,3.2-1.5,2.58,2.58,0,0,1,2.89,2.9v5.65A.83.83,0,0,1,307.4,417.31Z"/><path class="cls-11" d="M315.05,420.86a4.84,4.84,0,0,1-3.42-1.1.65.65,0,0,1-.19-.47.73.73,0,0,1,.71-.71.71.71,0,0,1,.43.13,3.6,3.6,0,0,0,2.47.79,2.49,2.49,0,0,0,2.78-2.6v-1.2a3.7,3.7,0,0,1-3,1.57c-2.32,0-4-1.72-4-4.65s1.66-4.68,4-4.68a3.64,3.64,0,0,1,3,1.54v-.62a.84.84,0,0,1,.86-.8.82.82,0,0,1,.81.8v8C319.5,419.94,317.25,420.86,315.05,420.86Zm2.78-10.09a3.17,3.17,0,0,0-2.52-1.35c-1.68,0-2.73,1.31-2.73,3.2s1.05,3.17,2.73,3.17a3.18,3.18,0,0,0,2.52-1.36Z"/><path class="cls-11" d="M325.61,417.42a4.9,4.9,0,0,1-3.42-1.18.57.57,0,0,1-.21-.45.74.74,0,0,1,1.16-.56,4.48,4.48,0,0,0,2.54.86c1.29,0,2-.58,2-1.4,0-2-5.52-.69-5.52-4.09,0-1.42,1.23-2.66,3.44-2.66a4.51,4.51,0,0,1,3.14,1.09.58.58,0,0,1,.17.41.66.66,0,0,1-.65.65.57.57,0,0,1-.4-.13,3.94,3.94,0,0,0-2.24-.69c-1.14,0-1.85.54-1.85,1.27,0,1.81,5.53.56,5.53,4.11C329.27,416.19,328,417.42,325.61,417.42Z"/><path class="cls-11" d="M332.73,417.38a1.16,1.16,0,0,1,0-2.31,1.16,1.16,0,1,1,0,2.31Z"/><path class="cls-11" d="M66.65,451.24H63.48v10a.93.93,0,0,1-1.86,0v-10H58.45a.83.83,0,0,1-.81-.84.81.81,0,0,1,.81-.81h8.2a.83.83,0,0,1,0,1.65Z"/><path class="cls-11" d="M76.65,462.17a.83.83,0,0,1-.82-.82v-5.12c0-1.5-.78-2-1.94-2a3.28,3.28,0,0,0-2.51,1.33v5.74a.83.83,0,0,1-1.66,0V450.28a.83.83,0,0,1,.86-.8.82.82,0,0,1,.8.8v4a4.4,4.4,0,0,1,3.22-1.49,2.56,2.56,0,0,1,2.9,2.86v5.68A.84.84,0,0,1,76.65,462.17Z"/><path class="cls-11" d="M88.13,458.08H81.85a3,3,0,0,0,3.09,2.86,3.84,3.84,0,0,0,2.24-.75.78.78,0,0,1,.37-.09.7.7,0,0,1,.68.67c0,1-2.32,1.51-3.46,1.51a4.74,4.74,0,0,1-.15-9.47,4.2,4.2,0,0,1,4.2,3.38,4.27,4.27,0,0,1,.17,1.05A.86.86,0,0,1,88.13,458.08Zm-3.53-3.93a2.79,2.79,0,0,0-2.75,2.75h5.53A2.72,2.72,0,0,0,84.6,454.15Z"/><path class="cls-11" d="M97.68,462.17a.83.83,0,0,1-.82-.82V450.28a.84.84,0,0,1,.86-.8.82.82,0,0,1,.81.8v11.07A.84.84,0,0,1,97.68,462.17Z"/><path class="cls-11" d="M109.16,458.08h-6.28a3,3,0,0,0,3.09,2.86,3.84,3.84,0,0,0,2.24-.75.78.78,0,0,1,.37-.09.7.7,0,0,1,.68.67c0,1-2.32,1.51-3.46,1.51a4.74,4.74,0,0,1-.15-9.47,4.2,4.2,0,0,1,4.2,3.38,4.27,4.27,0,0,1,.17,1.05A.86.86,0,0,1,109.16,458.08Zm-3.53-3.93a2.79,2.79,0,0,0-2.75,2.75h5.53A2.72,2.72,0,0,0,105.63,454.15Z"/><path class="cls-11" d="M115.11,462.28a2,2,0,0,1-2.17-2.2v-5.59h-.88a.73.73,0,0,1-.73-.75.72.72,0,0,1,.73-.71h.88v-1.77a.84.84,0,0,1,.86-.81.83.83,0,0,1,.82.81V453h1.23a.72.72,0,0,1,.71.75.71.71,0,0,1-.71.71h-1.23v5.2c0,.69.34,1.12.88,1.12.2,0,.43-.1.62-.1a.69.69,0,0,1,.71.7C116.83,462,116.1,462.28,115.11,462.28Z"/><path class="cls-11" d="M121.29,462.28a2,2,0,0,1-2.16-2.2v-5.59h-.88a.73.73,0,0,1-.73-.75.72.72,0,0,1,.73-.71h.88v-1.77a.84.84,0,0,1,1.68,0V453H122a.72.72,0,0,1,.71.75.71.71,0,0,1-.71.71h-1.23v5.2c0,.69.34,1.12.88,1.12.2,0,.43-.1.61-.1a.68.68,0,0,1,.71.7C123,462,122.28,462.28,121.29,462.28Z"/><path class="cls-11" d="M132.47,458.08h-6.28a3,3,0,0,0,3.08,2.86,3.85,3.85,0,0,0,2.25-.75.78.78,0,0,1,.37-.09.69.69,0,0,1,.67.67c0,1-2.31,1.51-3.45,1.51a4.74,4.74,0,0,1-.15-9.47,4.2,4.2,0,0,1,4.2,3.38,4.27,4.27,0,0,1,.17,1.05A.86.86,0,0,1,132.47,458.08Zm-3.53-3.93a2.79,2.79,0,0,0-2.75,2.75h5.53A2.72,2.72,0,0,0,128.94,454.15Z"/><path class="cls-11" d="M139.84,454.53a2.91,2.91,0,0,0-2.24,1.25v5.57a.84.84,0,0,1-.85.82h0a.83.83,0,0,1-.8-.82v-7.63a.84.84,0,0,1,.86-.8.82.82,0,0,1,.81.8v.71a3.18,3.18,0,0,1,2.33-1.53.73.73,0,0,1,.75.75A.89.89,0,0,1,139.84,454.53Z"/><path class="cls-11" d="M154,462.06h-4.75a1.22,1.22,0,0,1-1.22-1.21v-10a1.22,1.22,0,0,1,1.22-1.22h4.6c2.22,0,3.53,1.37,3.53,3.18a2.81,2.81,0,0,1-2.19,2.86,3.1,3.1,0,0,1,2.43,3.07C157.63,460.66,156.32,462.06,154,462.06Zm-.49-10.84h-3.63v3.66h3.63a1.83,1.83,0,1,0,0-3.66Zm.08,5.29h-3.71v3.92h3.71a1.88,1.88,0,0,0,2.13-2A1.94,1.94,0,0,0,153.6,456.51Z"/><path class="cls-11" d="M172.57,462.17a.82.82,0,0,1-.82-.82v-.52a4.41,4.41,0,0,1-3.22,1.45,2.54,2.54,0,0,1-2.88-2.86v-5.7a.84.84,0,0,1,.86-.8.82.82,0,0,1,.81.8v5.13c0,1.49.76,2,1.92,2a3.24,3.24,0,0,0,2.51-1.29v-5.8a.83.83,0,0,1,.85-.8.82.82,0,0,1,.81.8v7.63A.83.83,0,0,1,172.57,462.17Z"/><path class="cls-11" d="M179.52,462.28a5,5,0,0,1-3.42-1.17.56.56,0,0,1-.2-.45.71.71,0,0,1,.73-.69.68.68,0,0,1,.43.13,4.53,4.53,0,0,0,2.54.86c1.29,0,2-.58,2-1.4,0-2-5.51-.7-5.51-4.1,0-1.42,1.23-2.65,3.43-2.65a4.55,4.55,0,0,1,3.15,1.08.57.57,0,0,1,.16.41.66.66,0,0,1-.65.66.59.59,0,0,1-.39-.13,4,4,0,0,0-2.25-.7c-1.14,0-1.85.55-1.85,1.28,0,1.81,5.54.56,5.54,4.11C183.19,461.05,181.91,462.28,179.52,462.28Z"/><path class="cls-11" d="M193.26,458.08H187a3,3,0,0,0,3.08,2.86,3.85,3.85,0,0,0,2.25-.75.78.78,0,0,1,.37-.09.69.69,0,0,1,.67.67c0,1-2.31,1.51-3.45,1.51a4.74,4.74,0,0,1-.15-9.47,4.2,4.2,0,0,1,4.2,3.38,4.27,4.27,0,0,1,.17,1.05A.86.86,0,0,1,193.26,458.08Zm-3.53-3.93A2.79,2.79,0,0,0,187,456.9h5.53A2.72,2.72,0,0,0,189.73,454.15Z"/><path class="cls-11" d="M199.67,462.28a5,5,0,0,1-3.42-1.17.56.56,0,0,1-.2-.45.71.71,0,0,1,.73-.69.66.66,0,0,1,.43.13,4.53,4.53,0,0,0,2.54.86c1.29,0,2-.58,2-1.4,0-2-5.51-.7-5.51-4.1,0-1.42,1.23-2.65,3.44-2.65a4.51,4.51,0,0,1,3.14,1.08.57.57,0,0,1,.16.41.66.66,0,0,1-.65.66.59.59,0,0,1-.39-.13,4,4,0,0,0-2.25-.7c-1.13,0-1.85.55-1.85,1.28,0,1.81,5.54.56,5.54,4.11C203.34,461.05,202.07,462.28,199.67,462.28Z"/><path class="cls-11" d="M213.69,462.28a2,2,0,0,1-2.17-2.2v-5.59h-.87a.72.72,0,0,1-.73-.75.71.71,0,0,1,.73-.71h.87v-1.77a.85.85,0,0,1,1.69,0V453h1.23a.72.72,0,0,1,.71.75.71.71,0,0,1-.71.71h-1.23v5.2c0,.69.33,1.12.88,1.12.2,0,.43-.1.61-.1a.69.69,0,0,1,.71.7C215.41,462,214.68,462.28,213.69,462.28Z"/><path class="cls-11" d="M224.33,462.17a.82.82,0,0,1-.82-.82v-5.12c0-1.5-.79-2-1.95-2a3.26,3.26,0,0,0-2.5,1.33v5.74a.84.84,0,0,1-1.67,0V450.28a.84.84,0,0,1,.86-.8.82.82,0,0,1,.81.8v4a4.35,4.35,0,0,1,3.21-1.49c1.91,0,2.9.95,2.9,2.86v5.68A.83.83,0,0,1,224.33,462.17Z"/><path class="cls-11" d="M235.81,458.08h-6.28a3,3,0,0,0,3.08,2.86,3.79,3.79,0,0,0,2.24-.75.85.85,0,0,1,.38-.09.69.69,0,0,1,.67.67c0,1-2.32,1.51-3.46,1.51a4.74,4.74,0,0,1-.15-9.47,4.2,4.2,0,0,1,4.21,3.38,4.8,4.8,0,0,1,.17,1.05A.87.87,0,0,1,235.81,458.08Zm-3.54-3.93a2.78,2.78,0,0,0-2.74,2.75h5.53A2.73,2.73,0,0,0,232.27,454.15Z"/><path class="cls-11" d="M242.22,462.28a5,5,0,0,1-3.42-1.17.57.57,0,0,1-.21-.45.71.71,0,0,1,.73-.69.65.65,0,0,1,.43.13,4.58,4.58,0,0,0,2.54.86c1.29,0,2-.58,2-1.4,0-2-5.52-.7-5.52-4.1,0-1.42,1.24-2.65,3.44-2.65a4.51,4.51,0,0,1,3.14,1.08.54.54,0,0,1,.17.41.66.66,0,0,1-.65.66.64.64,0,0,1-.4-.13,4,4,0,0,0-2.24-.7c-1.14,0-1.85.55-1.85,1.28,0,1.81,5.53.56,5.53,4.11C245.88,461.05,244.61,462.28,242.22,462.28Z"/><path class="cls-11" d="M256,458.08h-6.28a3,3,0,0,0,3.08,2.86,3.79,3.79,0,0,0,2.24-.75.85.85,0,0,1,.38-.09.69.69,0,0,1,.67.67c0,1-2.32,1.51-3.46,1.51a4.74,4.74,0,0,1-.15-9.47,4.2,4.2,0,0,1,4.21,3.38,4.8,4.8,0,0,1,.17,1.05A.86.86,0,0,1,256,458.08Zm-3.53-3.93a2.78,2.78,0,0,0-2.75,2.75h5.53A2.73,2.73,0,0,0,252.43,454.15Z"/><path class="cls-11" d="M65.51,483.61a4,4,0,0,1-2.93,1.11,4.74,4.74,0,0,1,0-9.48,3.86,3.86,0,0,1,3,1.2.59.59,0,0,1,.13.39.77.77,0,0,1-.77.75.82.82,0,0,1-.52-.21,2.56,2.56,0,0,0-1.76-.65,3.28,3.28,0,0,0,0,6.52,2.57,2.57,0,0,0,1.76-.67.9.9,0,0,1,.52-.17.77.77,0,0,1,.79.73A.65.65,0,0,1,65.51,483.61Z"/><path class="cls-11" d="M75.21,484.6a.83.83,0,0,1-.82-.82v-5.12c0-1.49-.78-1.94-1.94-1.94A3.27,3.27,0,0,0,69.94,478v5.74a.83.83,0,0,1-1.66,0V472.72a.84.84,0,0,1,.86-.81.82.82,0,0,1,.8.81v4a4.4,4.4,0,0,1,3.22-1.5,2.56,2.56,0,0,1,2.9,2.86v5.68A.84.84,0,0,1,75.21,484.6Z"/><path class="cls-11" d="M85.63,484.6h-.06a.79.79,0,0,1-.77-.82v-.3a3.85,3.85,0,0,1-3,1.24,3,3,0,0,1-3.14-3,2.94,2.94,0,0,1,3.14-3,3.81,3.81,0,0,1,3,1.2v-1.51c0-1.15-.93-1.82-2.2-1.82a3.54,3.54,0,0,0-2.26.79.77.77,0,0,1-.41.15.69.69,0,0,1-.7-.66.67.67,0,0,1,.17-.43,5,5,0,0,1,3.44-1.25c2,0,3.63.84,3.63,3.14v5.4A.83.83,0,0,1,85.63,484.6ZM84.8,481a2.85,2.85,0,0,0-2.33-1.05,1.83,1.83,0,1,0,0,3.61,2.84,2.84,0,0,0,2.33-1Z"/><path class="cls-11" d="M93.52,477a2.93,2.93,0,0,0-2.25,1.25v5.57a.83.83,0,0,1-.84.82h0a.81.81,0,0,1-.8-.82v-7.62a.84.84,0,0,1,.86-.81.82.82,0,0,1,.8.81v.71a3.2,3.2,0,0,1,2.34-1.54.73.73,0,0,1,.75.75A.89.89,0,0,1,93.52,477Z"/><path class="cls-11" d="M102.81,484.6h-.06a.79.79,0,0,1-.77-.82v-.3a3.86,3.86,0,0,1-3,1.24,3,3,0,0,1-3.14-3,2.94,2.94,0,0,1,3.14-3,3.82,3.82,0,0,1,3,1.2v-1.51c0-1.15-.93-1.82-2.2-1.82a3.54,3.54,0,0,0-2.26.79.8.8,0,0,1-.42.15.69.69,0,0,1-.69-.66.67.67,0,0,1,.17-.43,5,5,0,0,1,3.44-1.25c1.94,0,3.63.84,3.63,3.14v5.4A.83.83,0,0,1,102.81,484.6ZM102,481a2.85,2.85,0,0,0-2.33-1.05,1.83,1.83,0,1,0,0,3.61,2.84,2.84,0,0,0,2.33-1Z"/><path class="cls-11" d="M113.76,483.61a4,4,0,0,1-2.94,1.11,4.74,4.74,0,0,1,0-9.48,3.83,3.83,0,0,1,3,1.2.55.55,0,0,1,.14.39.77.77,0,0,1-.77.75.8.8,0,0,1-.52-.21,2.58,2.58,0,0,0-1.76-.65,3.28,3.28,0,0,0,0,6.52,2.57,2.57,0,0,0,1.76-.67.87.87,0,0,1,.52-.17.76.76,0,0,1,.78.73A.64.64,0,0,1,113.76,483.61Z"/><path class="cls-11" d="M119,484.72a2,2,0,0,1-2.17-2.21v-5.59H116a.72.72,0,0,1-.73-.75.71.71,0,0,1,.73-.71h.87v-1.77a.85.85,0,0,1,1.69,0v1.77h1.23a.72.72,0,0,1,.71.75.71.71,0,0,1-.71.71h-1.23v5.2c0,.69.33,1.12.87,1.12.21,0,.43-.09.62-.09a.68.68,0,0,1,.71.69C120.73,484.44,120,484.72,119,484.72Z"/><path class="cls-11" d="M130.19,480.51h-6.28a3,3,0,0,0,3.08,2.86,3.85,3.85,0,0,0,2.25-.75.92.92,0,0,1,.37-.09.69.69,0,0,1,.67.67c0,1-2.31,1.52-3.45,1.52a4.74,4.74,0,0,1-.15-9.48,4.2,4.2,0,0,1,4.2,3.38,4.27,4.27,0,0,1,.17,1.05A.86.86,0,0,1,130.19,480.51Zm-3.53-3.92a2.77,2.77,0,0,0-2.75,2.74h5.53A2.72,2.72,0,0,0,126.66,476.59Z"/><path class="cls-11" d="M137.56,477a2.93,2.93,0,0,0-2.25,1.25v5.57a.83.83,0,0,1-.84.82h0a.81.81,0,0,1-.8-.82v-7.62a.84.84,0,0,1,.86-.81.82.82,0,0,1,.8.81v.71a3.2,3.2,0,0,1,2.34-1.54.73.73,0,0,1,.75.75A.89.89,0,0,1,137.56,477Z"/><path class="cls-11" d="M142.32,473.2a1.06,1.06,0,0,1-1.06,1.07,1.08,1.08,0,0,1,0-2.15A1.06,1.06,0,0,1,142.32,473.2Zm-1.06,11.4a.82.82,0,0,1-.82-.82v-7.62a.84.84,0,0,1,.86-.81.82.82,0,0,1,.8.81v7.62A.83.83,0,0,1,141.26,484.6Z"/><path class="cls-11" d="M148.21,484.72a5,5,0,0,1-3.42-1.18.56.56,0,0,1-.2-.45.73.73,0,0,1,1.15-.56,4.51,4.51,0,0,0,2.55.86c1.29,0,2-.58,2-1.4,0-2-5.52-.69-5.52-4.1,0-1.42,1.24-2.65,3.44-2.65a4.51,4.51,0,0,1,3.14,1.08.58.58,0,0,1,.17.42.66.66,0,0,1-.65.65.59.59,0,0,1-.39-.13,4,4,0,0,0-2.25-.69c-1.14,0-1.85.54-1.85,1.27,0,1.81,5.54.56,5.54,4.11C151.88,483.48,150.6,484.72,148.21,484.72Z"/><path class="cls-11" d="M157,484.72a2,2,0,0,1-2.17-2.21v-5.59h-.88a.73.73,0,0,1-.73-.75.72.72,0,0,1,.73-.71h.88v-1.77a.84.84,0,0,1,.86-.81.83.83,0,0,1,.82.81v1.77h1.24a.72.72,0,0,1,.71.75.71.71,0,0,1-.71.71h-1.24v5.2c0,.69.34,1.12.88,1.12.21,0,.43-.09.62-.09a.68.68,0,0,1,.71.69C158.68,484.44,158,484.72,157,484.72Z"/><path class="cls-11" d="M162.55,473.2a1.07,1.07,0,1,1-1.07-1.08A1.07,1.07,0,0,1,162.55,473.2Zm-1.07,11.4a.82.82,0,0,1-.82-.82v-7.62a.84.84,0,0,1,.86-.81.82.82,0,0,1,.8.81v7.62A.83.83,0,0,1,161.48,484.6Z"/><path class="cls-11" d="M172.46,483.61a4,4,0,0,1-2.94,1.11,4.74,4.74,0,0,1,0-9.48,3.86,3.86,0,0,1,3,1.2.59.59,0,0,1,.13.39.77.77,0,0,1-.77.75.82.82,0,0,1-.52-.21,2.55,2.55,0,0,0-1.76-.65,3.28,3.28,0,0,0,0,6.52,2.53,2.53,0,0,0,1.76-.67.9.9,0,0,1,.52-.17.77.77,0,0,1,.79.73A.67.67,0,0,1,172.46,483.61Z"/><path class="cls-11" d="M178.18,484.72a5,5,0,0,1-3.42-1.18.54.54,0,0,1-.21-.45.74.74,0,0,1,1.16-.56,4.48,4.48,0,0,0,2.54.86c1.29,0,2-.58,2-1.4,0-2-5.51-.69-5.51-4.1,0-1.42,1.23-2.65,3.44-2.65a4.51,4.51,0,0,1,3.14,1.08.63.63,0,0,1,.17.42.66.66,0,0,1-.66.65.59.59,0,0,1-.39-.13,3.94,3.94,0,0,0-2.24-.69c-1.14,0-1.85.54-1.85,1.27,0,1.81,5.53.56,5.53,4.11C181.84,483.48,180.57,484.72,178.18,484.72Z"/><path class="cls-11" d="M201.8,476.38l-2.35,7.46a1.08,1.08,0,0,1-1,.76h0a1.11,1.11,0,0,1-1-.76l-2-6.3-2,6.3a1.08,1.08,0,0,1-1.05.76h0a1.09,1.09,0,0,1-1-.76l-2.36-7.46a.85.85,0,0,1,0-.22.83.83,0,0,1,.81-.81.88.88,0,0,1,.82.56l1.93,6.45,2.09-6.37a.93.93,0,0,1,.91-.64.91.91,0,0,1,.86.64l2.12,6.37,1.92-6.45a.82.82,0,0,1,.79-.56.81.81,0,0,1,.82.81A.85.85,0,0,1,201.8,476.38Z"/><path class="cls-11" d="M206,473.2a1.06,1.06,0,0,1-1.06,1.07,1.08,1.08,0,0,1,0-2.15A1.06,1.06,0,0,1,206,473.2Zm-1.06,11.4a.83.83,0,0,1-.83-.82v-7.62a.85.85,0,0,1,.87-.81.83.83,0,0,1,.8.81v7.62A.83.83,0,0,1,204.89,484.6Z"/><path class="cls-11" d="M211.37,484.72a2,2,0,0,1-2.16-2.21v-5.59h-.88a.73.73,0,0,1-.73-.75.72.72,0,0,1,.73-.71h.88v-1.77a.84.84,0,0,1,1.68,0v1.77h1.23a.72.72,0,0,1,.71.75.71.71,0,0,1-.71.71h-1.23v5.2c0,.69.34,1.12.88,1.12.2,0,.43-.09.61-.09a.68.68,0,0,1,.71.69C213.09,484.44,212.36,484.72,211.37,484.72Z"/><path class="cls-11" d="M222,484.6a.82.82,0,0,1-.82-.82v-5.12c0-1.49-.79-1.94-1.95-1.94a3.25,3.25,0,0,0-2.5,1.32v5.74a.83.83,0,0,1-1.66,0V472.72a.84.84,0,0,1,.86-.81.82.82,0,0,1,.8.81v4a4.38,4.38,0,0,1,3.21-1.5c1.91,0,2.9.95,2.9,2.86v5.68A.83.83,0,0,1,222,484.6Z"/><path class="cls-11" d="M227.9,473.2a1.07,1.07,0,1,1-1.07-1.08A1.07,1.07,0,0,1,227.9,473.2Zm-1.07,11.4a.83.83,0,0,1-.82-.82v-7.62a.84.84,0,0,1,.86-.81.83.83,0,0,1,.81.81v7.62A.84.84,0,0,1,226.83,484.6Z"/><path class="cls-11" d="M237.75,484.6a.82.82,0,0,1-.82-.82V478.7c0-1.5-.77-2-1.93-2a3.18,3.18,0,0,0-2.5,1.32v5.74a.84.84,0,0,1-1.67,0v-7.62a.84.84,0,0,1,.86-.81.83.83,0,0,1,.81.81v.58a4.35,4.35,0,0,1,3.19-1.5,2.58,2.58,0,0,1,2.9,2.9v5.64A.83.83,0,0,1,237.75,484.6Z"/><path class="cls-11" d="M248.91,473.2a1.07,1.07,0,0,1-1.07,1.07,1.08,1.08,0,0,1,0-2.15A1.07,1.07,0,0,1,248.91,473.2Zm-1.07,11.4a.83.83,0,0,1-.82-.82v-7.62a.84.84,0,0,1,.86-.81.83.83,0,0,1,.81.81v7.62A.84.84,0,0,1,247.84,484.6Z"/><path class="cls-11" d="M254.33,484.72a2,2,0,0,1-2.17-2.21v-5.59h-.88a.73.73,0,0,1-.73-.75.72.72,0,0,1,.73-.71h.88v-1.77a.84.84,0,0,1,.86-.81.83.83,0,0,1,.82.81v1.77h1.24a.72.72,0,0,1,.71.75.71.71,0,0,1-.71.71h-1.24v5.2c0,.69.34,1.12.88,1.12.21,0,.43-.09.62-.09a.68.68,0,0,1,.71.69C256.05,484.44,255.32,484.72,254.33,484.72Z"/><path class="cls-11" d="M261,484.72a5,5,0,0,1-3.42-1.18.56.56,0,0,1-.2-.45.74.74,0,0,1,1.16-.56,4.48,4.48,0,0,0,2.54.86c1.29,0,2-.58,2-1.4,0-2-5.51-.69-5.51-4.1,0-1.42,1.23-2.65,3.44-2.65a4.51,4.51,0,0,1,3.14,1.08.63.63,0,0,1,.17.42.66.66,0,0,1-.66.65.59.59,0,0,1-.39-.13,3.94,3.94,0,0,0-2.24-.69c-1.14,0-1.85.54-1.85,1.27,0,1.81,5.53.56,5.53,4.11C264.65,483.48,263.38,484.72,261,484.72Z"/><path class="cls-11" d="M279.79,484.6a.82.82,0,0,1-.82-.82v-.58a3.79,3.79,0,0,1-3,1.52c-2.33,0-4-1.78-4-4.73s1.66-4.75,4-4.75a3.7,3.7,0,0,1,3,1.53v-4a.84.84,0,0,1,.86-.81.82.82,0,0,1,.8.81v11.06A.83.83,0,0,1,279.79,484.6Zm-.82-6.54a3.18,3.18,0,0,0-2.54-1.34c-1.69,0-2.73,1.38-2.73,3.27s1,3.25,2.73,3.25a3.12,3.12,0,0,0,2.54-1.33Z"/><path class="cls-11" d="M291.27,480.51H285a3,3,0,0,0,3.08,2.86,3.79,3.79,0,0,0,2.24-.75,1,1,0,0,1,.38-.09.69.69,0,0,1,.67.67c0,1-2.32,1.52-3.46,1.52a4.74,4.74,0,0,1-.15-9.48,4.2,4.2,0,0,1,4.21,3.38,4.8,4.8,0,0,1,.17,1.05A.87.87,0,0,1,291.27,480.51Zm-3.54-3.92a2.77,2.77,0,0,0-2.74,2.74h5.53A2.73,2.73,0,0,0,287.73,476.59Z"/><path class="cls-11" d="M297.68,484.72a5,5,0,0,1-3.42-1.18.57.57,0,0,1-.21-.45.74.74,0,0,1,1.16-.56,4.5,4.5,0,0,0,2.54.86c1.29,0,2-.58,2-1.4,0-2-5.52-.69-5.52-4.1,0-1.42,1.24-2.65,3.44-2.65a4.51,4.51,0,0,1,3.14,1.08.58.58,0,0,1,.17.42.66.66,0,0,1-.65.65.64.64,0,0,1-.4-.13,3.94,3.94,0,0,0-2.24-.69c-1.14,0-1.85.54-1.85,1.27,0,1.81,5.53.56,5.53,4.11C301.34,483.48,300.07,484.72,297.68,484.72Z"/><path class="cls-11" d="M305.83,473.2a1.07,1.07,0,0,1-1.07,1.07,1.08,1.08,0,0,1,0-2.15A1.07,1.07,0,0,1,305.83,473.2Zm-1.07,11.4a.83.83,0,0,1-.82-.82v-7.62a.84.84,0,0,1,.86-.81.83.83,0,0,1,.81.81v7.62A.84.84,0,0,1,304.76,484.6Z"/><path class="cls-11" d="M312.41,488.16a4.86,4.86,0,0,1-3.42-1.11.67.67,0,0,1-.19-.46.72.72,0,0,1,.71-.71.65.65,0,0,1,.43.13,3.59,3.59,0,0,0,2.47.78,2.48,2.48,0,0,0,2.78-2.6V483a3.71,3.71,0,0,1-3,1.57c-2.32,0-4-1.72-4-4.66s1.67-4.67,4-4.67a3.64,3.64,0,0,1,3,1.53v-.61a.84.84,0,0,1,.86-.81.83.83,0,0,1,.81.81v8C316.86,487.24,314.61,488.16,312.41,488.16Zm2.78-10.1a3.14,3.14,0,0,0-2.52-1.34c-1.68,0-2.73,1.31-2.73,3.19s1.05,3.18,2.73,3.18a3.16,3.16,0,0,0,2.52-1.36Z"/><path class="cls-11" d="M320.78,486.72a.5.5,0,0,1-.84-.36.6.6,0,0,1,.15-.37,2.65,2.65,0,0,0,.92-1.46,1,1,0,0,1-1.27-1,1.12,1.12,0,0,1,1.1-1.14,1.41,1.41,0,0,1,1.33,1.55A3.86,3.86,0,0,1,320.78,486.72Z"/><path class="cls-11" d="M1143.94,298a.89.89,0,0,1,.22.6.87.87,0,0,1-.88.86.78.78,0,0,1-.63-.3,4.08,4.08,0,0,0-3-1.36,4.81,4.81,0,0,0,0,9.61,4,4,0,0,0,3-1.35.85.85,0,0,1,.65-.3.87.87,0,0,1,.86.86.79.79,0,0,1-.22.58,5.57,5.57,0,0,1-4.26,1.85,6.45,6.45,0,1,1,0-12.9A5.5,5.5,0,0,1,1143.94,298Z"/><path class="cls-11" d="M1153.25,308.92h-.06a.79.79,0,0,1-.77-.82v-.3a3.87,3.87,0,0,1-3,1.23,3,3,0,0,1-3.14-3,2.93,2.93,0,0,1,3.14-3,3.8,3.8,0,0,1,3,1.19v-1.51c0-1.14-.93-1.81-2.2-1.81a3.59,3.59,0,0,0-2.26.78.77.77,0,0,1-.42.15.68.68,0,0,1-.69-.65.67.67,0,0,1,.17-.43,5,5,0,0,1,3.44-1.26c2,0,3.63.84,3.63,3.14v5.41A.84.84,0,0,1,1153.25,308.92Zm-.83-3.63a2.84,2.84,0,0,0-2.33-1,1.82,1.82,0,1,0,0,3.6,2.83,2.83,0,0,0,2.33-1Z"/><path class="cls-11" d="M1161.86,309a3.62,3.62,0,0,1-3-1.53v4.05a.83.83,0,0,1-1.66,0V300.47a.83.83,0,0,1,.86-.8.82.82,0,0,1,.8.8v.6a3.69,3.69,0,0,1,3-1.52c2.36,0,4,1.78,4,4.73S1164.22,309,1161.86,309Zm-.46-8a3.13,3.13,0,0,0-2.51,1.33v3.85a3.14,3.14,0,0,0,2.51,1.34c1.7,0,2.73-1.38,2.73-3.27S1163.1,301,1161.4,301Z"/><path class="cls-11" d="M1180.65,308.92a.83.83,0,0,1-.82-.82V303c0-1.49-.79-1.94-1.95-1.94a3.26,3.26,0,0,0-2.5,1.33v5.74a.84.84,0,0,1-1.67,0V297a.84.84,0,0,1,.87-.8.82.82,0,0,1,.8.8v4a4.38,4.38,0,0,1,3.21-1.5,2.56,2.56,0,0,1,2.9,2.86v5.69A.83.83,0,0,1,1180.65,308.92Z"/><path class="cls-11" d="M1192.13,304.83h-6.28a3,3,0,0,0,3.08,2.85,3.9,3.9,0,0,0,2.25-.74.79.79,0,0,1,.37-.1.7.7,0,0,1,.67.68c0,1-2.32,1.51-3.46,1.51a4.74,4.74,0,0,1-.14-9.48,4.2,4.2,0,0,1,4.2,3.39,4.81,4.81,0,0,1,.17,1A.87.87,0,0,1,1192.13,304.83Zm-3.53-3.93a2.78,2.78,0,0,0-2.75,2.75h5.53A2.72,2.72,0,0,0,1188.6,300.9Z"/><path class="cls-11" d="M1197.47,297.52a1.05,1.05,0,0,1-1.06,1.06,1.08,1.08,0,0,1-1.07-1.06,1.09,1.09,0,0,1,1.07-1.09A1.07,1.07,0,0,1,1197.47,297.52Zm-1.06,11.4a.83.83,0,0,1-.82-.82v-7.63a.83.83,0,0,1,.86-.8.82.82,0,0,1,.8.8v7.63A.83.83,0,0,1,1196.41,308.92Z"/><path class="cls-11" d="M1204.06,312.47a4.88,4.88,0,0,1-3.43-1.1.68.68,0,0,1-.18-.47.73.73,0,0,1,.71-.71.71.71,0,0,1,.43.13,3.58,3.58,0,0,0,2.47.79,2.49,2.49,0,0,0,2.78-2.6v-1.2a3.7,3.7,0,0,1-3,1.57c-2.32,0-4-1.72-4-4.65s1.66-4.68,4-4.68a3.65,3.65,0,0,1,3,1.54v-.62a.83.83,0,0,1,.86-.8.82.82,0,0,1,.8.8v8C1208.5,311.55,1206.26,312.47,1204.06,312.47Zm2.78-10.09a3.17,3.17,0,0,0-2.52-1.35c-1.69,0-2.73,1.31-2.73,3.2s1,3.17,2.73,3.17a3.18,3.18,0,0,0,2.52-1.36Z"/><path class="cls-11" d="M1218.6,308.92a.83.83,0,0,1-.82-.82V303c0-1.49-.79-1.94-2-1.94a3.26,3.26,0,0,0-2.5,1.33v5.74a.84.84,0,0,1-1.67,0V297a.84.84,0,0,1,.86-.8.82.82,0,0,1,.81.8v4a4.36,4.36,0,0,1,3.21-1.5,2.56,2.56,0,0,1,2.9,2.86v5.69A.83.83,0,0,1,1218.6,308.92Z"/><path class="cls-11" d="M1225.09,309a2,2,0,0,1-2.17-2.2v-5.59H1222a.73.73,0,0,1-.73-.75.72.72,0,0,1,.73-.71h.88V298a.83.83,0,0,1,.86-.8.82.82,0,0,1,.82.8v1.78h1.23a.72.72,0,0,1,.71.75.71.71,0,0,1-.71.71h-1.23v5.19c0,.69.34,1.12.88,1.12.2,0,.43-.09.62-.09a.68.68,0,0,1,.71.69C1226.81,308.75,1226.08,309,1225.09,309Z"/><path class="cls-11" d="M1238.06,309a4.74,4.74,0,1,1,4.56-4.75A4.48,4.48,0,0,1,1238.06,309Zm0-8c-1.8,0-2.82,1.53-2.82,3.25s1,3.27,2.82,3.27,2.82-1.53,2.82-3.27S1239.87,301,1238.06,301Z"/><path class="cls-11" d="M1249.65,297.72c-.3,0-.58-.22-1-.22-.86,0-1.35.58-1.35,1.64v.64h1.23a.72.72,0,0,1,.71.75.71.71,0,0,1-.71.71h-1.23v6.86a.83.83,0,0,1-1.66,0v-6.86h-.9a.72.72,0,0,1-.71-.75.71.71,0,0,1,.71-.71h.9v-.64c0-1.87,1.06-3,2.73-3,.8,0,1.88.28,1.88.92A.63.63,0,0,1,1249.65,297.72Z"/><path class="cls-11" d="M1148.5,319.84l-3,10.59a1.25,1.25,0,0,1-1.21.92h0a1.22,1.22,0,0,1-1.18-.92l-2.37-8.84-2.4,8.84a1.22,1.22,0,0,1-1.19.92h0a1.19,1.19,0,0,1-1.18-.9l-3-10.61a2.48,2.48,0,0,1,0-.27,1,1,0,0,1,1-.95,1,1,0,0,1,1,.75l2.45,9.42,2.58-9.44a.91.91,0,0,1,.92-.69.93.93,0,0,1,.89.69l2.56,9.44,2.45-9.42a1,1,0,0,1,1-.73,1,1,0,0,1,1,.93A1.1,1.1,0,0,1,1148.5,319.84Z"/><path class="cls-11" d="M1154.07,331.46a4.74,4.74,0,1,1,4.56-4.75A4.48,4.48,0,0,1,1154.07,331.46Zm0-8c-1.79,0-2.82,1.54-2.82,3.25s1,3.28,2.82,3.28,2.82-1.54,2.82-3.28S1155.88,323.46,1154.07,323.46Z"/><path class="cls-11" d="M1165.15,323.71a2.88,2.88,0,0,0-2.24,1.25v5.57a.83.83,0,0,1-.84.82h0a.82.82,0,0,1-.8-.82V322.9a.83.83,0,0,1,.86-.8.82.82,0,0,1,.8.8v.71a3.22,3.22,0,0,1,2.34-1.53.73.73,0,0,1,.75.75A.9.9,0,0,1,1165.15,323.71Z"/><path class="cls-11" d="M1175.3,331.35a.83.83,0,0,1-.82-.82V330a3.76,3.76,0,0,1-3,1.51c-2.34,0-4-1.77-4-4.73s1.67-4.74,4-4.74a3.68,3.68,0,0,1,3,1.53v-4.06a.84.84,0,0,1,.86-.8.82.82,0,0,1,.81.8v11.07A.84.84,0,0,1,1175.3,331.35Zm-.82-6.54a3.16,3.16,0,0,0-2.54-1.35c-1.68,0-2.73,1.39-2.73,3.27s1,3.26,2.73,3.26a3.09,3.09,0,0,0,2.54-1.33Z"/><path class="cls-11" d="M1196.37,331.35a.82.82,0,0,1-.82-.82v-5.31c0-1.07-.47-1.76-1.57-1.76a3,3,0,0,0-2.26,1.31v5.76a.84.84,0,0,1-1.67,0v-5.31c0-1.07-.44-1.76-1.59-1.76a3,3,0,0,0-2.22,1.33v5.74a.83.83,0,0,1-1.66,0V322.9a.83.83,0,0,1,.86-.8.82.82,0,0,1,.8.8v.58a3.9,3.9,0,0,1,2.92-1.49,2.34,2.34,0,0,1,2.45,1.66,3.8,3.8,0,0,1,3-1.66c1.66,0,2.56.89,2.56,2.72v5.82A.83.83,0,0,1,1196.37,331.35Z"/><path class="cls-11" d="M1206.78,331.35h0a.79.79,0,0,1-.77-.82v-.3a3.9,3.9,0,0,1-3,1.23,3,3,0,0,1-3.14-3,2.93,2.93,0,0,1,3.14-3,3.81,3.81,0,0,1,3,1.19V325.2c0-1.14-.93-1.81-2.2-1.81a3.61,3.61,0,0,0-2.27.78.69.69,0,0,1-.41.15.68.68,0,0,1-.69-.65.67.67,0,0,1,.17-.43A5,5,0,0,1,1204,322c1.94,0,3.63.84,3.63,3.14v5.4A.84.84,0,0,1,1206.78,331.35Zm-.82-3.63a2.84,2.84,0,0,0-2.33-1,1.83,1.83,0,1,0,0,3.61,2.84,2.84,0,0,0,2.33-1Z"/><path class="cls-11" d="M1214.67,323.71a2.88,2.88,0,0,0-2.24,1.25v5.57a.83.83,0,0,1-.84.82h0a.82.82,0,0,1-.8-.82V322.9a.83.83,0,0,1,1.66,0v.71a3.2,3.2,0,0,1,2.34-1.53.72.72,0,0,1,.74.75A.89.89,0,0,1,1214.67,323.71Z"/><path class="cls-11" d="M1224.11,331.37a.78.78,0,0,1-.65-.34l-2.86-3.7-1.39,1.4v1.8a.83.83,0,0,1-1.66,0V319.46a.83.83,0,0,1,.86-.8.82.82,0,0,1,.8.8v7.35l4.27-4.49a.79.79,0,0,1,.54-.24.81.81,0,0,1,.78.78.76.76,0,0,1-.2.51l-2.81,2.93,3,3.74a.78.78,0,0,1,.16.49A.84.84,0,0,1,1224.11,331.37Z"/><path class="cls-11" d="M1146.33,551.79a6.46,6.46,0,1,1,0-12.91,5.86,5.86,0,0,1,4.32,1.74.79.79,0,0,1,.23.59.86.86,0,0,1-.85.86.81.81,0,0,1-.61-.28,4.44,4.44,0,0,0-3.09-1.27,4.82,4.82,0,0,0,0,9.63,4.74,4.74,0,0,0,3.16-1.25v-2.27h-3.33a.81.81,0,0,1,0-1.62h3.95a1.22,1.22,0,0,1,1.23,1.21v2.38C1151.34,550.62,1148.61,551.79,1146.33,551.79Z"/><path class="cls-11" d="M1158.17,551.77a4.74,4.74,0,1,1,4.56-4.74A4.47,4.47,0,0,1,1158.17,551.77Zm0-8c-1.8,0-2.83,1.54-2.83,3.26s1,3.27,2.83,3.27,2.82-1.53,2.82-3.27S1160,543.77,1158.17,543.77Z"/><path class="cls-11" d="M1167.83,551.77a2,2,0,0,1-2.17-2.2V544h-.88a.73.73,0,0,1-.73-.75.72.72,0,0,1,.73-.71h.88v-1.77a.84.84,0,0,1,.86-.81.83.83,0,0,1,.82.81v1.77h1.24a.72.72,0,0,1,.71.75.71.71,0,0,1-.71.71h-1.24v5.2c0,.69.34,1.12.88,1.12.21,0,.43-.09.62-.09a.68.68,0,0,1,.71.69C1169.55,551.49,1168.82,551.77,1167.83,551.77Z"/><path class="cls-11" d="M1178.47,551.66a.83.83,0,0,1-.83-.82v-5.12c0-1.5-.78-2-1.94-2a3.24,3.24,0,0,0-2.5,1.33v5.74a.84.84,0,0,1-1.67,0V539.77a.84.84,0,0,1,.86-.8.82.82,0,0,1,.81.8v4a4.35,4.35,0,0,1,3.21-1.49c1.91,0,2.9,1,2.9,2.86v5.68A.83.83,0,0,1,1178.47,551.66Z"/><path class="cls-11" d="M1188.88,551.66h-.06a.79.79,0,0,1-.76-.82v-.3a3.91,3.91,0,0,1-3,1.23,3,3,0,0,1-3.14-3,2.94,2.94,0,0,1,3.14-2.95,3.8,3.8,0,0,1,3,1.2v-1.52c0-1.14-.94-1.81-2.21-1.81a3.54,3.54,0,0,0-2.26.79.75.75,0,0,1-.41.14.68.68,0,0,1-.69-.65.66.66,0,0,1,.16-.43,5,5,0,0,1,3.44-1.25c2,0,3.63.84,3.63,3.14v5.4A.83.83,0,0,1,1188.88,551.66Zm-.82-3.62a2.86,2.86,0,0,0-2.34-1,1.82,1.82,0,1,0,0,3.61,2.87,2.87,0,0,0,2.34-1Z"/><path class="cls-11" d="M1204.66,551.66a.83.83,0,0,1-.83-.82v-5.31c0-1.06-.46-1.76-1.57-1.76a3,3,0,0,0-2.26,1.31v5.76a.83.83,0,0,1-1.66,0v-5.31c0-1.06-.45-1.76-1.59-1.76a2.94,2.94,0,0,0-2.22,1.33v5.74a.84.84,0,0,1-.85.82.82.82,0,0,1-.82-.82v-7.63a.84.84,0,0,1,1.67,0v.58a3.88,3.88,0,0,1,2.91-1.49,2.33,2.33,0,0,1,2.45,1.66,3.82,3.82,0,0,1,3-1.66c1.66,0,2.56.9,2.56,2.73v5.81A.83.83,0,0,1,1204.66,551.66Z"/><path class="cls-11" d="M1220,551.55h-4.75a1.22,1.22,0,0,1-1.22-1.21v-10a1.22,1.22,0,0,1,1.22-1.22h4.6c2.22,0,3.53,1.37,3.53,3.18a2.81,2.81,0,0,1-2.19,2.86,3.1,3.1,0,0,1,2.43,3.07C1223.57,550.15,1222.26,551.55,1220,551.55Zm-.49-10.84h-3.63v3.66h3.63a1.83,1.83,0,1,0,0-3.66Zm.08,5.29h-3.71v3.92h3.71a1.88,1.88,0,0,0,2.13-2A1.94,1.94,0,0,0,1219.54,546Z"/><path class="cls-11" d="M1230.32,551.77a4.74,4.74,0,1,1,4.56-4.74A4.47,4.47,0,0,1,1230.32,551.77Zm0-8c-1.79,0-2.82,1.54-2.82,3.26s1,3.27,2.82,3.27,2.82-1.53,2.82-3.27S1232.13,543.77,1230.32,543.77Z"/><path class="cls-11" d="M1238.32,551.66a.82.82,0,0,1-.82-.82V539.77a.83.83,0,0,1,.86-.8.82.82,0,0,1,.8.8v11.07A.83.83,0,0,1,1238.32,551.66Z"/><path class="cls-11" d="M1249.59,551.66a.82.82,0,0,1-.82-.82v-.58a3.76,3.76,0,0,1-3,1.51c-2.34,0-4-1.77-4-4.72s1.66-4.75,4-4.75a3.68,3.68,0,0,1,3,1.53v-4.06a.83.83,0,0,1,.86-.8.82.82,0,0,1,.8.8v11.07A.83.83,0,0,1,1249.59,551.66Zm-.82-6.54a3.17,3.17,0,0,0-2.54-1.35c-1.68,0-2.73,1.39-2.73,3.28s1,3.25,2.73,3.25a3.11,3.11,0,0,0,2.54-1.33Z"/><path class="cls-11" d="M1268.08,550.88a.79.79,0,0,1-.79.78c-.52,0-1.28-.91-1.68-1.32a5,5,0,0,1-3.53,1.43c-2.19,0-3.94-1.17-3.94-3.51,0-1.92,1.29-2.92,2.73-3.66a5.86,5.86,0,0,1-.92-2.79,3,3,0,0,1,3.25-2.91c1.67,0,2.94.89,2.94,2.5,0,1.87-1.57,2.69-3.14,3.48a30.32,30.32,0,0,0,2.71,3.23,10.43,10.43,0,0,0,1.06-2.15.73.73,0,0,1,.69-.45.77.77,0,0,1,.75.73,1,1,0,0,1-.09.36,15.89,15.89,0,0,1-1.44,2.56C1267.26,549.81,1268.08,550.35,1268.08,550.88Zm-5.81-.45a3.46,3.46,0,0,0,2.39-1.09,27.15,27.15,0,0,1-3.1-3.68,2.85,2.85,0,0,0-1.65,2.47A2.25,2.25,0,0,0,1262.27,550.43Zm-.62-8.58a4.21,4.21,0,0,0,.69,2c1.25-.62,2.3-1.25,2.3-2.39a1.26,1.26,0,0,0-1.36-1.31A1.62,1.62,0,0,0,1261.65,541.85Z"/><path class="cls-11" d="M1146.35,574h-4.75a1.21,1.21,0,0,1-1.21-1.21v-10a1.22,1.22,0,0,1,1.21-1.22h4.6c2.23,0,3.53,1.37,3.53,3.18a2.81,2.81,0,0,1-2.18,2.86,3.1,3.1,0,0,1,2.43,3.07C1150,572.58,1148.67,574,1146.35,574Zm-.48-10.84h-3.63v3.66h3.63a1.83,1.83,0,1,0,0-3.66Zm.07,5.29h-3.7v3.93h3.7a1.89,1.89,0,0,0,2.13-2A1.94,1.94,0,0,0,1145.94,568.43Z"/><path class="cls-11" d="M1164.86,574h-5.59a1.22,1.22,0,0,1-1.22-1.21V562.3a.92.92,0,0,1,1-.9.91.91,0,0,1,.89.9v10h5a.82.82,0,0,1,0,1.64Z"/><path class="cls-11" d="M1171.72,574.21a4.74,4.74,0,1,1,4.56-4.75A4.48,4.48,0,0,1,1171.72,574.21Zm0-8c-1.8,0-2.82,1.53-2.82,3.25s1,3.27,2.82,3.27,2.82-1.53,2.82-3.27S1173.53,566.21,1171.72,566.21Z"/><path class="cls-11" d="M1182.54,577.65a4.86,4.86,0,0,1-3.42-1.11.67.67,0,0,1-.19-.46.72.72,0,0,1,.71-.71.65.65,0,0,1,.43.13,3.61,3.61,0,0,0,2.47.78,2.49,2.49,0,0,0,2.79-2.6v-1.19a3.75,3.75,0,0,1-3,1.57c-2.31,0-4-1.72-4-4.66s1.67-4.67,4-4.67a3.67,3.67,0,0,1,3,1.53v-.61a.84.84,0,0,1,.86-.81.82.82,0,0,1,.8.81v8C1187,576.73,1184.75,577.65,1182.54,577.65Zm2.79-10.1a3.18,3.18,0,0,0-2.53-1.34c-1.68,0-2.73,1.31-2.73,3.19s1,3.18,2.73,3.18a3.19,3.19,0,0,0,2.53-1.36Z"/><path class="cls-11" d="M1194.15,574.21a4.74,4.74,0,1,1,4.56-4.75A4.48,4.48,0,0,1,1194.15,574.21Zm0-8c-1.79,0-2.82,1.53-2.82,3.25s1,3.27,2.82,3.27,2.82-1.53,2.82-3.27S1196,566.21,1194.15,566.21Z"/><path class="cls-11" d="M1210.79,574.21a6.52,6.52,0,0,1-4.47-1.57.89.89,0,0,1-.23-.58.9.9,0,0,1,.87-.92,1,1,0,0,1,.52.17,5.21,5.21,0,0,0,3.38,1.27c2,0,2.73-1.06,2.73-1.94,0-3-7.33-1.26-7.33-5.76,0-2.06,1.83-3.55,4.41-3.55a6.27,6.27,0,0,1,4.08,1.34.78.78,0,0,1,.24.58.88.88,0,0,1-.88.86.87.87,0,0,1-.5-.16,5.15,5.15,0,0,0-3.08-1c-1.41,0-2.36.73-2.36,1.8,0,2.58,7.33,1,7.33,5.7C1215.5,572.39,1214.15,574.21,1210.79,574.21Z"/><path class="cls-11" d="M1225.46,566l-4,9.77a2.84,2.84,0,0,1-2.78,1.93c-.58,0-1.2-.13-1.2-.75a.74.74,0,0,1,.75-.75,3.08,3.08,0,0,0,.43,0,1.23,1.23,0,0,0,1.21-.86l.53-1.2L1217,566a.72.72,0,0,1,0-.28.83.83,0,0,1,.84-.83.82.82,0,0,1,.76.53l2.68,6.69,2.65-6.69a.86.86,0,0,1,.79-.53.84.84,0,0,1,.84.83A.67.67,0,0,1,1225.46,566Z"/><path class="cls-11" d="M1239.48,574.09a.82.82,0,0,1-.82-.82V568c0-1.06-.47-1.75-1.57-1.75a2.94,2.94,0,0,0-2.26,1.31v5.75a.84.84,0,0,1-1.67,0V568c0-1.06-.45-1.75-1.59-1.75a3,3,0,0,0-2.22,1.32v5.74a.83.83,0,0,1-.84.82.82.82,0,0,1-.82-.82v-7.62a.83.83,0,0,1,1.66,0v.58a3.91,3.91,0,0,1,2.92-1.5,2.32,2.32,0,0,1,2.44,1.66,3.84,3.84,0,0,1,3-1.66c1.66,0,2.56.9,2.56,2.73v5.81A.83.83,0,0,1,1239.48,574.09Z"/><path class="cls-11" d="M1248.12,574.21a3.76,3.76,0,0,1-3-1.52v.58a.83.83,0,0,1-1.66,0V562.21a.84.84,0,0,1,.86-.81.82.82,0,0,1,.8.81v4a3.67,3.67,0,0,1,3-1.53c2.33,0,4,1.85,4,4.75S1250.45,574.21,1248.12,574.21Zm-.47-8a3.14,3.14,0,0,0-2.51,1.34v3.87a3.11,3.11,0,0,0,2.51,1.31c1.72,0,2.75-1.36,2.75-3.25S1249.37,566.21,1247.65,566.21Z"/><path class="cls-11" d="M1258.75,574.21a4.74,4.74,0,1,1,4.56-4.75A4.48,4.48,0,0,1,1258.75,574.21Zm0-8c-1.79,0-2.82,1.53-2.82,3.25s1,3.27,2.82,3.27,2.82-1.53,2.82-3.27S1260.57,566.21,1258.75,566.21Z"/><path class="cls-11" d="M1266.75,574.09a.82.82,0,0,1-.82-.82V562.21a.84.84,0,0,1,1.67,0v11.06A.84.84,0,0,1,1266.75,574.09Z"/><path class="cls-11" d="M1152,711.73a.92.92,0,0,1-.94-.92v-9l-4,9.66a.51.51,0,0,1-.49.3.53.53,0,0,1-.45-.3l-3.94-9.66v9a.93.93,0,0,1-1.85,0V700.4a1.35,1.35,0,0,1,1.34-1.33,1.6,1.6,0,0,1,1.63.92l3.29,8,3.31-8a1.48,1.48,0,0,1,1.38-.92,1.44,1.44,0,0,1,1.61,1.33v10.41A.92.92,0,0,1,1152,711.73Z"/><path class="cls-11" d="M1158,700.33a1.06,1.06,0,0,1-1.07,1.06,1.08,1.08,0,0,1-1.07-1.06,1.09,1.09,0,0,1,1.07-1.09A1.08,1.08,0,0,1,1158,700.33Zm-1.07,11.4a.82.82,0,0,1-.82-.82v-7.63a.83.83,0,0,1,.86-.8.82.82,0,0,1,.8.8v7.63A.83.83,0,0,1,1157,711.73Z"/><path class="cls-11" d="M1167.89,711.73a.83.83,0,0,1-.83-.82v-5.09c0-1.49-.76-2-1.92-2a3.21,3.21,0,0,0-2.51,1.33v5.74a.83.83,0,0,1-1.66,0v-7.63a.83.83,0,0,1,.86-.8.82.82,0,0,1,.8.8v.58a4.39,4.39,0,0,1,3.2-1.5,2.59,2.59,0,0,1,2.9,2.9v5.65A.83.83,0,0,1,1167.89,711.73Z"/><path class="cls-11" d="M1180.11,711.84a4.92,4.92,0,0,1-3.42-1.18.57.57,0,0,1-.21-.45.74.74,0,0,1,1.16-.56,4.51,4.51,0,0,0,2.55.86c1.29,0,2-.58,2-1.4,0-2-5.52-.69-5.52-4.09,0-1.42,1.24-2.66,3.44-2.66a4.51,4.51,0,0,1,3.14,1.09.54.54,0,0,1,.17.41.66.66,0,0,1-.65.65.54.54,0,0,1-.39-.13,4,4,0,0,0-2.25-.69c-1.14,0-1.85.54-1.85,1.27,0,1.82,5.54.56,5.54,4.12C1183.78,710.61,1182.5,711.84,1180.11,711.84Z"/><path class="cls-11" d="M1188.26,700.33a1.06,1.06,0,0,1-1.06,1.06,1.08,1.08,0,0,1-1.07-1.06,1.09,1.09,0,0,1,1.07-1.09A1.07,1.07,0,0,1,1188.26,700.33Zm-1.06,11.4a.83.83,0,0,1-.83-.82v-7.63a.84.84,0,0,1,.86-.8.82.82,0,0,1,.81.8v7.63A.83.83,0,0,1,1187.2,711.73Z"/><path class="cls-11" d="M1197.2,711.62h-5.74a.81.81,0,0,1-.79-.84.94.94,0,0,1,.19-.55l4.63-6.18h-4.13a.72.72,0,0,1-.71-.75.71.71,0,0,1,.71-.71h5.69a.78.78,0,0,1,.74.82.85.85,0,0,1-.16.52l-4.7,6.25h4.27a.7.7,0,0,1,.69.69A.72.72,0,0,1,1197.2,711.62Z"/><path class="cls-11" d="M1208,707.64h-6.28a3,3,0,0,0,3.08,2.86,3.92,3.92,0,0,0,2.25-.75.79.79,0,0,1,.37-.1.7.7,0,0,1,.67.68c0,1-2.31,1.51-3.45,1.51a4.74,4.74,0,0,1-.15-9.48,4.2,4.2,0,0,1,4.2,3.39,4.27,4.27,0,0,1,.17,1A.87.87,0,0,1,1208,707.64Zm-3.53-3.93a2.78,2.78,0,0,0-2.75,2.75h5.53A2.72,2.72,0,0,0,1204.47,703.71Z"/><path class="cls-11" d="M1212.32,704.78a1.16,1.16,0,1,1,1.16-1.16A1.16,1.16,0,0,1,1212.32,704.78Zm0,7a1.16,1.16,0,0,1,0-2.31,1.16,1.16,0,1,1,0,2.31Z"/><path class="cls-11" d="M1224.64,711.73a.92.92,0,0,1-.92-.92v-9.23l-1.59,1.64a.7.7,0,0,1-.52.23.81.81,0,0,1-.79-.79.84.84,0,0,1,.23-.56l2.71-2.75a1,1,0,0,1,.75-.29,1,1,0,0,1,1.06,1v10.73A.92.92,0,0,1,1224.64,711.73Z"/><path class="cls-11" d="M1236.81,708.61h-1v2.2a.92.92,0,0,1-1,.92.9.9,0,0,1-.9-.92v-2.2h-5.12a1,1,0,0,1-.94-1,1.28,1.28,0,0,1,.19-.6l4.77-7.23a1.65,1.65,0,0,1,1.36-.73,1.44,1.44,0,0,1,1.59,1.36V707h1a.81.81,0,0,1,.78.82A.79.79,0,0,1,1236.81,708.61Zm-2.88-7.78-4.11,6.15h4.11Z"/><path class="cls-11" d="M1244.49,711.84a3.6,3.6,0,0,1-3-1.53v4.05a.84.84,0,0,1-.84.81.83.83,0,0,1-.82-.81V703.28a.83.83,0,0,1,1.66,0v.6a3.68,3.68,0,0,1,3-1.52c2.36,0,4,1.78,4,4.73S1246.85,711.84,1244.49,711.84Zm-.47-8a3.11,3.11,0,0,0-2.5,1.33V709a3.12,3.12,0,0,0,2.5,1.34c1.7,0,2.73-1.38,2.73-3.27S1245.72,703.84,1244,703.84Z"/><path class="cls-11" d="M1256.64,711.75a.72.72,0,0,1-.6-.32l-2.41-3.35-2.41,3.35a.71.71,0,0,1-.6.32.8.8,0,0,1-.76-.77.62.62,0,0,1,.15-.45l2.59-3.55-2.41-3.31a.71.71,0,0,1-.15-.41.79.79,0,0,1,1.41-.47l2.18,3.07,2.19-3.05a.75.75,0,0,1,.62-.33.79.79,0,0,1,.78.76.7.7,0,0,1-.15.45l-2.41,3.29,2.63,3.55a.85.85,0,0,1,.14.45A.79.79,0,0,1,1256.64,711.75Z"/><path class="cls-11" d="M617.61,681.37c7-6.92,14.12-13.79,21.11-20.76q22.24-22.17,44.37-44.44a8.58,8.58,0,0,1,6.68-2.76q60.69.12,121.37,0c25.2-.05,45.61-14.11,53.69-36.72,12.3-34.4-12.27-71.29-49-73.21-11-.57-22.06-.07-33.09-.07-30.56,0-61.11.08-91.67-.1-4,0-5.24.84-5.21,5,.21,25.89.07,51.78.18,77.68a7.64,7.64,0,0,1-3.19,6.8c-13.18,10.26-27.5,12.27-42.59,5.34-14.45-6.63-22.67-18.34-23.17-34.27-.62-19.51-.19-39-.29-58.57A5.77,5.77,0,0,1,618.9,501q32.4-32.37,64.71-64.84c2-2,4.06-2.16,6.51-2.16,30.56,0,61.12-.08,91.67.06,17.06.07,31.58-5.61,43.12-18.25,28.12-30.81,12-81.55-28.7-90.46a66.6,66.6,0,0,0-14.33-1.41c-30.55,0-61.11.09-91.66-.06-3.6,0-4.37,1-4.35,4.47.16,26,0,52.07.18,78.1a8,8,0,0,1-3.44,7.14c-13.1,9.92-27.23,12-42.24,5.14-14.51-6.66-22.16-18.3-23.42-34.18-.11-1.41-.11-2.83-.11-4.24q0-60.48-.07-121c0-3.26.46-4.66,4.28-4.65,54,.14,108.07,0,162.11.12,56.91.14,105.66,36.89,120.45,91.69,10.35,38.31,3.52,74-20,106.18-1.89,2.59-1.75,3.67.84,5.54,26.15,18.9,44.06,43.72,49.85,75.63,9.24,50.8-7.1,92.64-47.88,124.29-21.45,16.64-46.4,24.35-73.54,24.39q-96.12.13-192.25,0c-.81,0-1.62-.08-2.43-.12Z"/><path class="cls-11" d="M1623,333.86c.62-.61,1.24-1.21,1.86-1.83,1.31-1.3,2.61-2.6,3.91-3.92a.77.77,0,0,1,.59-.24H1640a4.85,4.85,0,0,0,.41-9.69c-1-.05-1.94,0-2.92,0-2.69,0-5.39,0-8.08,0-.36,0-.47.07-.46.45,0,2.28,0,4.56,0,6.85a.67.67,0,0,1-.28.6,3.43,3.43,0,0,1-3.76.47,3.29,3.29,0,0,1-2-3c-.05-1.72,0-3.44,0-5.16a.48.48,0,0,1,.18-.39c1.91-1.9,3.81-3.8,5.71-5.72a.72.72,0,0,1,.57-.19h8.09a4.86,4.86,0,0,0,1.27-9.59,5.92,5.92,0,0,0-1.26-.13h-8.09c-.32,0-.38.09-.38.39,0,2.3,0,4.6,0,6.89a.67.67,0,0,1-.3.63,3.44,3.44,0,0,1-3.73.46,3.4,3.4,0,0,1-2.06-3c0-.12,0-.25,0-.37q0-5.34,0-10.67c0-.29,0-.41.38-.41h14.3a10.91,10.91,0,0,1,10.63,8.08,10.57,10.57,0,0,1-1.76,9.37c-.17.23-.16.32.07.49a10.39,10.39,0,0,1,4.4,6.67,10.63,10.63,0,0,1-4.23,11,10.37,10.37,0,0,1-6.48,2.16H1623Z"/><path class="cls-11" d="M1367.89,547.4h-11.26v-7.51h30.66v7.51H1376v29.5h-8.14Z"/><path class="cls-11" d="M1397.5,539.89h16.92c4.7,0,8.35,1.32,10.78,3.75a11.66,11.66,0,0,1,3.18,8.46v.11a11.49,11.49,0,0,1-7.94,11.47l9,13.22H1420L1412,565.06h-6.4V576.9h-8.14Zm16.39,18c4,0,6.24-2.12,6.24-5.24v-.1c0-3.49-2.43-5.29-6.4-5.29h-8.09v10.63Z"/><path class="cls-11" d="M1452.38,539.63h7.5l15.87,37.27h-8.52l-3.38-8.3H1448.2l-3.39,8.3h-8.3Zm8.56,21.78-4.92-12-4.91,12Z"/><path class="cls-11" d="M1477,539.89h9l9.67,26.07,9.68-26.07h8.77l-15,37.28h-7.19Z"/><path class="cls-11" d="M1523.75,539.89h27.91v7.24h-19.82v7.51h17.45v7.25h-17.45v7.77h20.09v7.24h-28.18Z"/><path class="cls-11" d="M1563.13,539.89h8.15V569.5h18.45v7.4h-26.6Z"/><path class="cls-11" d="M1658.72,561V539.89h8.14v20.94c0,6,3,9.14,8,9.14s8-3,8-8.88v-21.2H1691v20.89c0,11.2-6.29,16.7-16.23,16.7S1658.72,571.93,1658.72,561Z"/><path class="cls-11" d="M1703.23,539.89h14.44c11.63,0,19.67,8,19.67,18.4v.11c0,10.41-8,18.5-19.67,18.5h-14.44Zm8.15,7.35v22.31h6.29c6.66,0,11.15-4.49,11.15-11v-.1c0-6.56-4.49-11.16-11.15-11.16Z"/><path class="cls-11" d="M1748.54,539.89H1763c11.63,0,19.67,8,19.67,18.4v.11c0,10.41-8,18.5-19.67,18.5h-14.44Zm8.15,7.35v22.31H1763c6.66,0,11.15-4.49,11.15-11v-.1c0-6.56-4.49-11.16-11.15-11.16Z"/><path class="cls-11" d="M1800.83,562.31l-14.22-22.42h9.52l8.83,14.86,9-14.86h9.26L1809,562.15V576.9h-8.14Z"/><path class="cls-11" d="M1623,576.8l1.86-1.84c1.31-1.3,2.61-2.6,3.91-3.92a.77.77,0,0,1,.59-.24H1640a4.85,4.85,0,0,0,.41-9.69c-1-.05-1.94,0-2.92,0-2.69,0-5.39,0-8.08,0-.36,0-.47.08-.46.45,0,2.28,0,4.56,0,6.85a.67.67,0,0,1-.28.6,3.43,3.43,0,0,1-3.76.47,3.28,3.28,0,0,1-2-3c-.05-1.73,0-3.45,0-5.17a.48.48,0,0,1,.18-.39c1.91-1.9,3.81-3.8,5.71-5.72a.72.72,0,0,1,.57-.19h8.09a4.86,4.86,0,0,0,1.27-9.59,5.33,5.33,0,0,0-1.26-.12h-8.09c-.32,0-.38.09-.38.39,0,2.3,0,4.6,0,6.89a.67.67,0,0,1-.3.63,3.44,3.44,0,0,1-3.73.46,3.4,3.4,0,0,1-2.06-3c0-.12,0-.25,0-.37q0-5.34,0-10.67c0-.29,0-.41.38-.41h14.3a10.91,10.91,0,0,1,10.63,8.08,10.57,10.57,0,0,1-1.76,9.37c-.17.23-.16.33.07.49a10.39,10.39,0,0,1,4.4,6.67,10.65,10.65,0,0,1-4.23,11,10.42,10.42,0,0,1-6.48,2.15H1623Z"/><path class="cls-11" d="M1679.59,701.69H1676v-2.42h9.88v2.42h-3.63v9.51h-2.62Z"/><path class="cls-11" d="M1689.13,699.27h5.45a4.78,4.78,0,0,1,3.48,1.21,3.75,3.75,0,0,1,1,2.73v0a3.7,3.7,0,0,1-2.56,3.7l2.92,4.26h-3.07l-2.56-3.82h-2.06v3.82h-2.62Zm5.28,5.79c1.28,0,2-.68,2-1.68v0c0-1.12-.78-1.7-2.06-1.7h-2.61v3.42Z"/><path class="cls-11" d="M1706.81,699.18h2.42l5.12,12h-2.75l-1.09-2.68h-5l-1.08,2.68h-2.68Zm2.76,7-1.58-3.87-1.59,3.87Z"/><path class="cls-11" d="M1714.73,699.27h2.9l3.12,8.4,3.12-8.4h2.83l-4.82,12h-2.32Z"/><path class="cls-11" d="M1729.81,699.27h9v2.33h-6.39V704H1738v2.34h-5.62v2.51h6.48v2.33h-9.09Z"/><path class="cls-11" d="M1742.5,699.27h2.63v9.54h5.95v2.39h-8.58Z"/><path class="cls-11" d="M1773.31,706.09v-6.82h2.62V706c0,1.94,1,3,2.58,3s2.57-1,2.57-2.87v-6.83h2.63V706c0,3.62-2,5.39-5.24,5.39S1773.31,709.6,1773.31,706.09Z"/><path class="cls-11" d="M1787.65,699.27h4.66c3.75,0,6.34,2.57,6.34,5.93v0c0,3.35-2.59,6-6.34,6h-4.66Zm2.63,2.37v7.19h2a3.39,3.39,0,0,0,3.59-3.56v0a3.42,3.42,0,0,0-3.59-3.6Z"/><path class="cls-11" d="M1802.26,699.27h4.65c3.75,0,6.34,2.57,6.34,5.93v0c0,3.35-2.59,6-6.34,6h-4.65Zm2.62,2.37v7.19h2a3.39,3.39,0,0,0,3.59-3.56v0a3.42,3.42,0,0,0-3.59-3.6Z"/><path class="cls-11" d="M1819.11,706.5l-4.59-7.23h3.07l2.85,4.79,2.89-4.79h3l-4.59,7.18v4.75h-2.62Z"/><path class="cls-11" d="M1761.78,711.17l.6-.59,1.26-1.27a.27.27,0,0,1,.19-.08h3.45a1.59,1.59,0,0,0,1.53-1,1.56,1.56,0,0,0-1.4-2.08c-.31,0-.62,0-.94,0h-2.6c-.12,0-.15,0-.15.14v2.21a.21.21,0,0,1-.09.19,1.1,1.1,0,0,1-1.21.15,1.07,1.07,0,0,1-.66-1c0-.56,0-1.11,0-1.67a.14.14,0,0,1,.06-.12l1.83-1.84a.24.24,0,0,1,.19-.07h2.61a1.57,1.57,0,0,0,.41-3.1,2.85,2.85,0,0,0-.41,0h-2.61c-.1,0-.12,0-.12.13v2.22a.21.21,0,0,1-.09.2,1.15,1.15,0,0,1-1.87-.82v-.12c0-1.15,0-2.3,0-3.44,0-.09,0-.13.13-.13h4.61a3.51,3.51,0,0,1,3.42,2.61,3.39,3.39,0,0,1-.57,3c0,.08,0,.11,0,.16a3.36,3.36,0,0,1,1.41,2.15,3.42,3.42,0,0,1-1.36,3.54,3.35,3.35,0,0,1-2.09.69h-5.53Z"/><line class="cls-12" x1="57.2" y1="92.61" x2="1862.81" y2="92.61"/><path class="cls-12" d="M1139,454.77h723.82"/><path class="cls-12" d="M1139,682.57h723.82"/></svg>