<?xml version="1.0" encoding="utf-8"?>
<!-- Generator: Adobe Illustrator 23.1.0, SVG Export Plug-In . SVG Version: 6.00 Build 0)  -->
<svg version="1.1" id="Layer_1" xmlns="http://www.w3.org/2000/svg" xmlns:xlink="http://www.w3.org/1999/xlink" x="0px" y="0px"
	 viewBox="0 0 500 500" style="enable-background:new 0 0 500 500;" xml:space="preserve">
<style type="text/css">
	.st0{fill:#464F7A;}
	.st1{fill:#E3E3E3;}
	.st2{fill:#F7F7F9;}
	.st3{fill:#4B547D;}
	.st4{fill:#48517B;}
	.st5{opacity:0.29;}
	.st6{fill:none;stroke:#7B8EC8;stroke-width:0.7607;stroke-miterlimit:10;}
</style>
<path class="st0" d="M328.05,213.83c-0.33,1.79-1.46,3.18-2.34,4.68c-11.58,19.79-23.36,39.46-35.56,58.88
	c-6.54,10.41-13.13,20.78-20.02,30.96c-1.11,1.64-2.26,3.24-3.44,4.82c-1.31,1.77-3.06,3.04-5.17,3.62
	c-6.84,1.89-13.76,3.27-20.91,3.16c-9.51-0.15-18.57-2.26-27.21-6.24c-6.03-2.78-11.56-6.3-16.29-10.97
	c-1.43-1.42-2.74-3.01-3.86-4.69c-1.88-2.82-3.64-5.74-5.32-8.69c-1.02-1.8-1.35-3.74-0.89-5.87c3.9-18.01,7.72-36.03,11.61-54.04
	c3.14-14.53,6.32-29.04,9.53-43.55c1.92-8.67,3.94-17.33,5.86-26c0.31-1.39,0.82-1.82,2.07-0.97c-1.28,2.58-2.18,5.23-2.1,8.18
	c0.13,5.37,2.23,10.02,5.18,14.33c5.1,7.45,11.77,13.32,19.27,18.2c16.91,11,35.34,17.94,55.5,19.91
	C305.81,220.72,317.45,220.24,328.05,213.83z M227.9,275.34c0,0,0.01,0,0.01,0c0,1.54,0.14,3.09-0.03,4.61
	c-0.26,2.33,0.75,3.87,2.22,5.63c2.75,3.28,5.87,4.65,10.13,4.15c2.87-0.34,5.83-0.28,8.71,0.03c1.44,0.16,2.19-0.27,3.05-1.17
	c1.7-1.79,3.31-3.71,5.23-5.24c3.11-2.49,4.74-5.44,3.99-9.48c-0.04-0.21,0-0.44,0-0.66c0.01-0.29,0.12-0.59,0.42-0.62
	c1.84-0.14,1.33-1.5,1.18-2.46c-0.62-3.8-1.41-7.58-2.04-11.39c-0.24-1.48-0.95-2.45-2.21-3.21c-1.49-0.9-2.93-1.91-4.31-2.97
	c-1.1-0.85-2.28-0.93-3.55-0.71c-1.93,0.33-3.87,0.61-5.78,1.02c-0.67,0.15-0.77,0.07-0.88-0.6c-0.37-2.36-0.88-4.69-1.27-7.05
	c-0.18-1.08-0.57-1.91-1.54-2.53c-1.89-1.2-3.72-2.5-5.56-3.77c-0.5-0.35-1.03-0.73-1.64-0.62c-4.54,0.84-9.07,1.73-13.61,2.57
	c-0.95,0.18-1.09,0.61-0.91,1.49c0.55,2.77,1.21,5.53,1.47,8.34c0.38,4.07,1.86,7.26,5.78,9.02c0.74,0.33,1.38,0.88,2.03,1.38
	c0.81,0.64,1.72,0.67,2.65,0.5c1.92-0.37,3.83-0.78,5.74-1.19c0.85-0.18,1.25-0.02,1.35,1.01c0.14,1.51,0.55,2.99,0.88,4.47
	c0.25,1.11-0.03,1.58-1.28,1.54c-2.91-0.08-5.82,0-8.73-0.04c-1.1-0.01-1.55,0.36-1.5,1.52C227.96,271.06,227.9,273.2,227.9,275.34z
	"/>
<path class="st1" d="M328.05,213.83c-10.6,6.41-22.24,6.89-34.08,5.73c-20.15-1.98-38.58-8.92-55.5-19.91
	c-7.5-4.88-14.17-10.74-19.27-18.2c-2.95-4.31-5.05-8.96-5.18-14.33c-0.07-2.95,0.82-5.61,2.1-8.18
	c4.99-7.13,12.32-10.28,20.49-11.86c10.89-2.12,21.63-0.81,32.27,1.75c9.35,2.25,18.36,5.47,26.86,10.02
	c0.98,0.53,1.51,0.59,2.41-0.37c3.01-3.23,6.96-3.43,10.98-2.72c4.52,0.8,7.65,3.37,9.09,7.82c0.52,1.61,0.96,3.27,1.61,4.82
	c1.06,2.5,2.93,2.85,4.91,1.02c1.01-0.93,2-1.88,2.99-2.82c1.83-1.74,4.02-2.52,6.49-2.07c5.4,0.99,9.59,3.73,11.68,8.98
	c1.47,3.7-0.28,7.9-4.15,10.65c-2.78,1.97-6.05,2.77-9.15,4c-0.66,0.26-1.34,0.47-2.07,0.72c0.93,1.91,1.87,3.73,2.71,5.6
	c1,2.22,1.54,4.58,1.64,7c0.17,4.14-1.36,7.6-4.45,10.35C329.66,212.52,328.85,213.17,328.05,213.83z"/>
<path class="st1" d="M371.05,161.38c-2.55,0.05-4.59,0.32-6.56,1.08c-0.38,0.15-0.85,0.38-1.22-0.04c-0.36-0.41-0.07-0.84,0.08-1.23
	c1.23-3.09,6.34-5.85,9.65-5.23c1.61,0.3,2.65,1.71,2.48,3.34c-0.16,1.48-1.11,2.19-2.92,2.17
	C371.9,161.46,371.25,161.39,371.05,161.38z"/>
<path class="st1" d="M350.16,153.29c1.37-0.01,2.55,1,2.59,2.23c0.04,1.27-1.22,2.41-2.63,2.38c-1.33-0.03-2.53-1.15-2.51-2.34
	C347.63,154.33,348.78,153.3,350.16,153.29z"/>
<path class="st2" d="M227.9,275.34c0-2.14,0.06-4.28-0.02-6.42c-0.04-1.16,0.4-1.54,1.5-1.52c2.91,0.04,5.82-0.04,8.73,0.04
	c1.25,0.03,1.53-0.44,1.28-1.54c-0.33-1.48-0.74-2.97-0.88-4.47c-0.1-1.03-0.49-1.19-1.35-1.01c-1.91,0.41-3.82,0.82-5.74,1.19
	c-0.93,0.18-1.84,0.14-2.65-0.5c-0.64-0.5-1.29-1.05-2.03-1.38c-3.91-1.76-5.39-4.95-5.78-9.02c-0.26-2.8-0.92-5.57-1.47-8.34
	c-0.18-0.88-0.04-1.32,0.91-1.49c4.54-0.84,9.07-1.73,13.61-2.57c0.62-0.11,1.14,0.27,1.64,0.62c1.84,1.27,3.67,2.57,5.56,3.77
	c0.97,0.62,1.36,1.45,1.54,2.53c0.39,2.36,0.9,4.69,1.27,7.05c0.11,0.66,0.2,0.74,0.88,0.6c1.91-0.41,3.85-0.69,5.78-1.02
	c1.27-0.22,2.45-0.14,3.55,0.71c1.38,1.07,2.82,2.07,4.31,2.97c1.26,0.76,1.97,1.74,2.21,3.21c0.63,3.8,1.42,7.58,2.04,11.39
	c0.16,0.96,0.66,2.33-1.18,2.46c-0.31,0.02-0.41,0.33-0.42,0.62c-0.01,0.22-0.04,0.45,0,0.66c0.75,4.04-0.87,6.99-3.99,9.48
	c-1.91,1.53-3.53,3.45-5.23,5.24c-0.85,0.9-1.6,1.33-3.05,1.17c-2.87-0.31-5.84-0.37-8.71-0.03c-4.26,0.5-7.38-0.87-10.13-4.15
	c-1.47-1.76-2.48-3.3-2.22-5.63c0.17-1.52,0.03-3.07,0.03-4.61C227.91,275.34,227.9,275.34,227.9,275.34z M227.89,247.84
	c0.23,1.17,0.48,2.34,0.68,3.52c0.47,2.68,0.89,5.36,1.41,8.03c0.12,0.61,0.18,1.48,1.32,1.23c1.75-0.39,3.52-0.68,5.28-1.03
	c0.97-0.19,1.93-0.32,1.25-1.78c-0.31-0.66-0.27-1.49-0.37-2.24c-0.11-0.87,0.04-1.46,1.15-1.53c1.13-0.08,2.24-0.5,3.37-0.59
	c1.01-0.08,1.2-0.56,1.03-1.41c-0.41-2.08-0.98-4.14-1.18-6.24c-0.14-1.51-1.01-1.38-1.91-1.23c-3.64,0.62-7.27,1.3-10.91,1.98
	C228.37,246.68,227.68,246.89,227.89,247.84z M248.39,288.66c-2.22-2.24-4.14-4.33-6.23-6.23c-2.01-1.83-3.74-3.68-3.07-6.7
	c0.17-0.77-0.24-1.1-1.02-1.05c-0.66,0.04-1.32,0.01-1.97,0.04c-0.64,0.03-0.94,0.3-0.94,1.03c0.03,4,0.02,8.01,0.01,12.01
	c0,0.59,0.13,0.91,0.81,0.91C240.01,288.65,244.05,288.66,248.39,288.66z M250.13,288.57c3.24-3.1,6.35-6.08,9.46-9.07
	c0.48-0.46,0.25-0.89-0.14-1.27c-1.36-1.35-2.71-2.71-4.1-4.03c-0.48-0.46-4.77,0.06-5.1,0.57c-0.11,0.17-0.12,0.42-0.12,0.63
	C250.13,279.77,250.13,284.14,250.13,288.57z M240.62,243.5c-1.7-1.26-3.1-2.37-4.58-3.36c-0.91-0.61-2.02-0.99-3.1-0.78
	c-3.82,0.74-7.62,1.59-11.59,2.43c1.21,0.85,2.34,1.53,3.32,2.38c1.63,1.42,3.33,1.93,5.52,1.39
	C233.53,244.74,236.93,244.21,240.62,243.5z M248.6,287.76c0.16-0.09,0.31-0.18,0.47-0.27c0-3.37-0.01-6.75,0-10.12
	c0.01-2.34,0.04-2.38-2.26-2.62c-0.99-0.1-2.07-0.37-2.92,0.57c-0.95,1.06-1.93,2.09-2.95,3.09c-0.54,0.53-0.57,0.88,0.01,1.46
	C243.53,282.47,246.05,285.12,248.6,287.76z M228.91,269.7c0,4.02,0,7.79,0,11.56c0,0.44-0.02,0.9,0.31,1.24
	c1.5,1.51,2.69,3.34,4.68,4.56c0.43-4.04,0.21-7.92,0.27-11.8c0.01-0.34-0.07-0.68-0.35-0.88
	C232.06,273.09,230.73,271.36,228.91,269.7z M228.95,259.61c-0.72-4.18-1.38-8.02-2.04-11.87c-0.08-0.46-0.3-0.91-0.68-1.07
	c-1.94-0.84-3.52-2.23-5.41-3.54c0.6,3.33,1.18,6.46,1.71,9.59c0.22,1.33,0.16,2.75,1.49,3.62
	C225.56,257.35,227.09,258.37,228.95,259.61z M261.26,271.58c0.64-0.23,0.61-0.55,0.57-0.78c-0.73-4.12-1.5-8.23-2.23-12.35
	c-0.16-0.92-0.69-0.74-1.33-0.61c-2.08,0.42-4.16,0.8-6.25,1.18c-0.42,0.08-1.03-0.11-1.18,0.35c-0.18,0.54,0.47,0.78,0.8,1.1
	c2.61,2.59,5.25,5.16,7.89,7.72C260.47,269.11,261.46,269.98,261.26,271.58z M258.54,256.87c-1.57-1.18-2.83-2.11-4.08-3.05
	c-1.14-0.86-2.43-1.28-3.83-1.03c-1.86,0.33-3.7,0.78-5.54,1.17c-0.61,0.13-0.75,0.42-0.6,1.05c0.26,1.05,0.54,2.13,0.51,3.19
	c-0.03,0.95,0.15,1.06,1.04,0.9C250.06,258.34,254.11,257.65,258.54,256.87z M250.56,260.81c0,1.35,0.12,2.3-0.02,3.2
	c-0.52,3.27,0.81,5.61,3.31,7.61c0.9,0.72,1.67,1.09,2.76,0.9c0.75-0.13,1.5-0.23,2.25-0.38c1.49-0.29,1.69-0.71,0.99-2.08
	c-0.2-0.38-0.41-0.8-0.73-1.07C256.23,266.49,253.57,263.76,250.56,260.81z M230.06,268.26c-0.09,0.22-0.17,0.43-0.26,0.65
	c1.04,0.96,2.24,1.8,3.09,2.9c1.35,1.74,3.05,2.07,5.06,1.9c0.81-0.07,1.2-0.23,1.11-1.13c-0.12-1.13-0.17-2.25,0.59-3.29
	c0.36-0.49,0.25-1.04-0.61-1.04C236.04,268.27,233.05,268.26,230.06,268.26z M245.09,263.06c-0.19-1.33-0.01-2.79-1.77-3.37
	c-1.12-0.37-2.07,0.16-3.09,0.27c-0.79,0.08-0.81,0.44-0.68,1.1c0.34,1.75,0.61,3.52,0.89,5.29c0.06,0.37-0.03,0.81,0.42,0.97
	c0.47,0.17,0.85-0.07,1.17-0.4c0.91-0.95,1.81-1.9,2.73-2.84C245.06,263.79,245.22,263.48,245.09,263.06z M247.47,270.25
	c0.76-0.88,1.79-1.25,1.83-2.28c0.08-2.19,0.02-4.39,0.02-7.05c-0.88,0.96-1.32,1.59-1.9,2.04c-0.84,0.64-1.16,1.21-0.82,2.35
	C247.06,266.8,247.17,268.4,247.47,270.25z M253.76,272.77c-0.88-1.23-2.01-2.2-3.16-3.08c-1.25-0.96-1.53,0.67-2.26,1.1
	c-0.7,0.4-0.56,0.84-0.03,1.41C249.8,273.76,251.06,273.94,253.76,272.77z M244.77,273.05c-1.25-0.85-2.4-1.66-3.57-2.43
	c-0.22-0.14-0.47-0.48-0.84-0.13c-0.48,0.45-0.2,3.08,0.4,3.1C242.06,273.63,243.46,274.13,244.77,273.05z M256.74,273.46
	c1.1,1.29,2.2,2.58,3.54,4.15c0-1.54-0.01-2.73,0-3.91c0-0.47,0.02-0.95-0.67-0.72C258.56,273.34,257.36,273.08,256.74,273.46z
	 M239.38,255.2c0.89,0.63,1.61,1.2,2.38,1.69c0.66,0.42,1.33,1.47,2.03,1.05c0.75-0.47-0.18-1.46-0.17-2.25
	c0-0.37,0.15-1.39-0.84-1.26C241.69,254.57,240.56,254.63,239.38,255.2z M245.45,264.75c-0.81,0.92-1.37,1.54-1.91,2.19
	c-0.12,0.15-0.53,0.4-0.13,0.6c1.12,0.55,1.71,1.77,2.95,2.43c-0.12-0.89-0.21-1.63-0.33-2.36
	C245.9,266.87,245.73,266.13,245.45,264.75z M246.1,271.41c-0.07-1.02-3.23-3.23-4.11-2.89c-0.46,0.18-0.78,0.53-0.2,0.95
	c1.1,0.79,2.22,1.56,3.36,2.29C245.55,272.01,246,272,246.1,271.41z M248.9,259.73c-3.09-0.09-3.34,0.17-2.75,2.64
	C246.99,261.56,247.88,260.71,248.9,259.73z M242.9,274.85c-2.89-0.36-2.89-0.36-2.24,2.13
	C241.35,276.32,242.05,275.66,242.9,274.85z M238.85,256.5c0.58,3.37-0.02,2.71,3.52,1.8C240.67,258.3,240.06,257.07,238.85,256.5z"
	/>
<path class="st0" d="M227.89,247.84c-0.21-0.95,0.47-1.15,1.13-1.28c3.63-0.68,7.26-1.36,10.91-1.98c0.9-0.15,1.76-0.28,1.91,1.23
	c0.2,2.1,0.77,4.16,1.18,6.24c0.17,0.84-0.02,1.32-1.03,1.41c-1.13,0.09-2.24,0.51-3.37,0.59c-1.11,0.08-1.26,0.66-1.15,1.53
	c0.1,0.75,0.06,1.58,0.37,2.24c0.67,1.46-0.28,1.59-1.25,1.78c-1.76,0.34-3.53,0.63-5.28,1.03c-1.13,0.26-1.2-0.62-1.32-1.23
	c-0.52-2.67-0.94-5.35-1.41-8.03C228.37,250.18,228.12,249.01,227.89,247.84z"/>
<path class="st0" d="M248.39,288.66c-4.34,0-8.38-0.01-12.41,0.01c-0.68,0-0.82-0.32-0.81-0.91c0.01-4.01,0.02-8.01-0.01-12.01
	c-0.01-0.73,0.3-1,0.94-1.03c0.66-0.03,1.32,0,1.97-0.04c0.78-0.05,1.19,0.28,1.02,1.05c-0.67,3.02,1.06,4.87,3.07,6.7
	C244.25,284.33,246.16,286.42,248.39,288.66z"/>
<path class="st3" d="M250.13,288.57c0-4.43,0-8.79,0-13.16c0-0.21,0.01-0.46,0.12-0.63c0.33-0.52,4.61-1.03,5.1-0.57
	c1.39,1.32,2.74,2.68,4.1,4.03c0.38,0.38,0.62,0.81,0.14,1.27C256.48,282.48,253.37,285.46,250.13,288.57z"/>
<path class="st4" d="M240.62,243.5c-3.69,0.71-7.09,1.24-10.43,2.06c-2.19,0.54-3.89,0.03-5.52-1.39c-0.98-0.85-2.11-1.52-3.32-2.38
	c3.96-0.84,7.77-1.69,11.59-2.43c1.08-0.21,2.19,0.17,3.1,0.78C237.52,241.13,238.92,242.24,240.62,243.5z"/>
<path class="st0" d="M248.6,287.76c-2.54-2.64-5.06-5.29-7.64-7.89c-0.57-0.58-0.55-0.93-0.01-1.46c1.01-1,2-2.03,2.95-3.09
	c0.85-0.94,1.93-0.67,2.92-0.57c2.29,0.23,2.27,0.28,2.26,2.62c-0.02,3.37,0,6.75,0,10.12C248.91,287.58,248.75,287.67,248.6,287.76
	z"/>
<path class="st4" d="M228.91,269.7c1.82,1.65,3.15,3.39,4.91,4.68c0.28,0.2,0.36,0.54,0.35,0.88c-0.06,3.88,0.16,7.76-0.27,11.8
	c-1.99-1.22-3.18-3.05-4.68-4.56c-0.33-0.33-0.31-0.8-0.31-1.24C228.91,277.49,228.91,273.72,228.91,269.7z"/>
<path class="st4" d="M228.95,259.61c-1.86-1.24-3.4-2.26-4.94-3.27c-1.33-0.87-1.27-2.29-1.49-3.62c-0.53-3.13-1.11-6.26-1.71-9.59
	c1.89,1.32,3.47,2.7,5.41,3.54c0.38,0.17,0.6,0.61,0.68,1.07C227.57,251.59,228.23,255.43,228.95,259.61z"/>
<path class="st4" d="M261.26,271.58c0.2-1.6-0.79-2.47-1.74-3.39c-2.64-2.56-5.27-5.13-7.89-7.72c-0.32-0.32-0.98-0.56-0.8-1.1
	c0.15-0.46,0.76-0.27,1.18-0.35c2.09-0.38,4.17-0.76,6.25-1.18c0.64-0.13,1.17-0.31,1.33,0.61c0.73,4.12,1.49,8.23,2.23,12.35
	C261.88,271.03,261.9,271.35,261.26,271.58z"/>
<path class="st4" d="M258.54,256.87c-4.44,0.78-8.48,1.47-12.5,2.22c-0.88,0.17-1.06,0.05-1.04-0.9c0.03-1.06-0.25-2.14-0.51-3.19
	c-0.15-0.63-0.01-0.92,0.6-1.05c1.85-0.39,3.68-0.84,5.54-1.17c1.4-0.25,2.69,0.17,3.83,1.03
	C255.71,254.76,256.97,255.7,258.54,256.87z"/>
<path class="st4" d="M250.56,260.81c3.02,2.95,5.68,5.69,8.55,8.19c0.32,0.28,0.53,0.69,0.73,1.07c0.7,1.36,0.49,1.78-0.99,2.08
	c-0.74,0.15-1.5,0.25-2.25,0.38c-1.09,0.19-1.86-0.18-2.76-0.9c-2.49-2-3.82-4.34-3.31-7.61
	C250.68,263.11,250.56,262.16,250.56,260.81z"/>
<path class="st3" d="M230.06,268.26c2.99,0,5.98,0.01,8.97-0.01c0.87,0,0.97,0.55,0.61,1.04c-0.76,1.03-0.7,2.15-0.59,3.29
	c0.09,0.9-0.3,1.06-1.11,1.13c-2.01,0.16-3.71-0.17-5.06-1.9c-0.86-1.1-2.05-1.94-3.09-2.9
	C229.89,268.69,229.97,268.47,230.06,268.26z"/>
<path class="st4" d="M245.09,263.06c0.13,0.42-0.03,0.72-0.32,1.02c-0.92,0.93-1.82,1.89-2.73,2.84c-0.32,0.33-0.7,0.57-1.17,0.4
	c-0.46-0.16-0.37-0.6-0.42-0.97c-0.28-1.77-0.54-3.54-0.89-5.29c-0.13-0.66-0.12-1.01,0.68-1.1c1.03-0.11,1.97-0.64,3.09-0.27
	C245.08,260.27,244.9,261.73,245.09,263.06z"/>
<path class="st3" d="M247.47,270.25c-0.31-1.85-0.41-3.45-0.87-4.94c-0.35-1.13-0.02-1.71,0.82-2.35c0.58-0.44,1.02-1.08,1.9-2.04
	c0,2.65,0.06,4.85-0.02,7.05C249.26,268.99,248.23,269.37,247.47,270.25z"/>
<path class="st3" d="M253.76,272.77c-2.7,1.17-3.96,0.99-5.44-0.58c-0.54-0.56-0.67-1,0.03-1.41c0.73-0.42,1.01-2.06,2.26-1.1
	C251.75,270.57,252.88,271.54,253.76,272.77z"/>
<path class="st3" d="M244.77,273.05c-1.31,1.08-2.72,0.58-4.02,0.54c-0.6-0.02-0.88-2.65-0.4-3.1c0.37-0.34,0.62-0.01,0.84,0.13
	C242.38,271.39,243.53,272.2,244.77,273.05z"/>
<path class="st4" d="M256.74,273.46c0.62-0.38,1.81-0.12,2.87-0.48c0.69-0.24,0.67,0.24,0.67,0.72c-0.01,1.19,0,2.37,0,3.91
	C258.95,276.04,257.84,274.75,256.74,273.46z"/>
<path class="st3" d="M239.38,255.2c1.18-0.57,2.31-0.64,3.4-0.78c1-0.13,0.85,0.9,0.84,1.26c-0.01,0.8,0.92,1.79,0.17,2.25
	c-0.69,0.43-1.36-0.62-2.03-1.05C240.99,256.4,240.26,255.84,239.38,255.2z"/>
<path class="st3" d="M245.45,264.75c0.28,1.39,0.45,2.12,0.58,2.86c0.12,0.73,0.21,1.47,0.33,2.36c-1.24-0.66-1.82-1.87-2.95-2.43
	c-0.4-0.2,0-0.45,0.13-0.6C244.07,266.29,244.64,265.66,245.45,264.75z"/>
<path class="st3" d="M246.1,271.41c-0.1,0.59-0.55,0.6-0.95,0.35c-1.14-0.73-2.26-1.5-3.36-2.29c-0.58-0.41-0.26-0.77,0.2-0.95
	C242.87,268.19,246.04,270.4,246.1,271.41z"/>
<path class="st3" d="M248.9,259.73c-1.02,0.98-1.9,1.83-2.75,2.64C245.56,259.9,245.81,259.64,248.9,259.73z"/>
<path class="st3" d="M242.9,274.85c-0.86,0.81-1.55,1.47-2.24,2.13C240.01,274.49,240.01,274.49,242.9,274.85z"/>
<path class="st3" d="M238.85,256.5c1.21,0.56,1.82,1.79,3.52,1.8C238.82,259.21,239.43,259.88,238.85,256.5z"/>
<g class="st5">
	<path class="st6" d="M472.55,250.48c0,19.14-24.32,34.13-29.04,51.78c-4.88,18.26,13.71,46.36,4.46,62.35
		c-9.38,16.22-34.48,22.71-47.65,35.88c-13.16,13.16-25.31,28.49-41.53,37.88c-15.99,9.25-33.23,19.87-51.5,24.75
		c-17.65,4.72-37.84,15.11-56.97,15.11c-19.14,0-33.42-32.46-51.08-37.17c-18.26-4.88-31.37-10.79-47.36-20.04
		c-16.22-9.38-41.8-3.97-54.97-17.13c-13.16-13.16-32.36-24.51-41.74-40.73c-9.25-15.99,8.47-43.07,3.59-61.33
		c-4.72-17.65-23.01-32.2-23.01-51.34c0-19.14,11.22-35.58,15.93-53.23c4.88-18.26-6.35-43.79,2.9-59.78
		c9.38-16.22,35.62-20.77,48.79-33.93c13.16-13.16,19.57-36.19,35.79-45.57c15.99-9.25,33.59-23.94,51.85-28.82
		c17.65-4.72,40.16,14.19,59.3,14.19c19.14,0,39.18-9.66,56.83-4.95c18.26,4.88,27.98,28.23,43.97,37.48
		c16.22,9.38,35.71,11.78,48.88,24.94c13.16,13.16,33.26,22.42,42.64,38.64c9.25,15.99-1.28,40.27,3.6,58.53
		C450.96,215.63,472.55,231.34,472.55,250.48z"/>
</g>
<g class="st5">
	<path class="st6" d="M445.37,250.48c0,19.14,5.93,34.94,1.21,52.59c-4.88,18.26,10.41,45.4,1.16,61.39
		c-9.38,16.22-29.86,27.24-43.02,40.41c-13.16,13.16-29.06,25.21-45.28,34.6c-15.99,9.25-37.18,6.39-55.45,11.27
		c-17.65,4.72-34.53,25.41-53.67,25.41c-19.14,0-34.87-24.96-52.52-29.68c-18.26-4.88-34.04-9.09-50.03-18.34
		c-16.22-9.38-27.94-20.83-41.1-33.99c-13.16-13.16-32.48-20.33-41.87-36.55c-9.25-15.99-10.04-35.13-14.92-53.39
		c-4.72-17.65-23.38-34.58-23.38-53.71c0-19.14,6.56-39.3,11.28-56.95c4.88-18.26,16.5-34.9,25.75-50.89
		c9.38-16.22,33.41-19.22,46.57-32.38C123.27,97.1,125,70.88,141.22,61.5c15.99-9.25,33.1-21.67,51.36-26.55
		c17.65-4.72,38.61-13.33,57.75-13.33c19.14,0,39.71,10.06,57.36,14.78c18.26,4.88,38.13,11.75,54.12,21
		c16.22,9.38,32.79,22.49,45.95,35.65c13.16,13.16,9.96,39.17,19.34,55.39c9.25,15.99,41.77,23.92,46.66,42.19
		C478.48,208.27,445.37,231.34,445.37,250.48z"/>
</g>
</svg>
