<?xml version="1.0" encoding="utf-8"?>
<!-- Generator: Adobe Illustrator 23.1.0, SVG Export Plug-In . SVG Version: 6.00 Build 0)  -->
<svg version="1.1" id="Layer_1" xmlns="http://www.w3.org/2000/svg" xmlns:xlink="http://www.w3.org/1999/xlink" x="0px" y="0px"
	 viewBox="0 0 25 25" style="enable-background:new 0 0 25 25;" xml:space="preserve">
<style type="text/css">
	.st0{fill:#040404;}
</style>
<path class="st0" d="M20.53,20.5c-0.72-0.02-1.32-0.5-1.87-1.08c-0.23-0.25-0.45-0.51-0.7-0.73c-0.64-0.56-1.34-0.58-2.04-0.09
	c-0.39,0.27-0.63,0.67-0.96,1c-0.63,0.63-1.36,1-2.28,0.88c-0.56-0.08-1.01-0.38-1.4-0.76c-0.24-0.24-0.47-0.49-0.7-0.74
	c-0.94-1-1.98-0.96-2.85,0.11c-0.4,0.49-0.82,0.94-1.4,1.2c-0.84,0.37-1.63,0.27-2.36-0.27c-0.28-0.21-0.54-0.45-0.76-0.72
	C3.03,19.11,2.96,18.9,3,18.66c0.03-0.19,0.13-0.34,0.31-0.41c0.19-0.07,0.35,0.01,0.48,0.16c0.13,0.15,0.27,0.31,0.42,0.44
	c0.72,0.65,1.6,0.65,2.31-0.02c0.33-0.31,0.61-0.67,0.93-0.98c1.07-1.02,2.45-1.01,3.51,0.02c0.29,0.28,0.55,0.6,0.83,0.89
	c0.75,0.76,1.7,0.77,2.46,0.02c0.31-0.3,0.58-0.64,0.89-0.93c1.13-1.07,2.56-1.01,3.63,0.14c0.24,0.26,0.47,0.52,0.72,0.77
	c0.74,0.75,1.63,0.77,2.4,0.06c0.11-0.1,0.22-0.2,0.32-0.31c0.18-0.21,0.36-0.41,0.66-0.22c0.24,0.15,0.32,0.58,0.14,0.85
	c-0.1,0.16-0.24,0.3-0.37,0.44C22.09,20.14,21.46,20.5,20.53,20.5z"/>
<path class="st0" d="M23.09,7.24c0.01,0.1-0.01,0.22-0.07,0.31c-0.59,0.82-1.73,1.68-3.01,1.24c-0.56-0.19-1-0.56-1.38-1
	c-0.24-0.27-0.48-0.55-0.76-0.77C17.24,6.54,16.56,6.54,15.92,7c-0.28,0.2-0.49,0.46-0.72,0.72c-0.48,0.56-1.03,1.01-1.79,1.15
	c-0.83,0.15-1.51-0.16-2.1-0.7c-0.27-0.24-0.5-0.52-0.75-0.78C9.6,6.37,8.56,6.42,7.67,7.54c-0.4,0.51-0.86,0.93-1.45,1.18
	C5.39,9.08,4.63,8.9,3.92,8.41C3.63,8.2,3.39,7.94,3.17,7.67c-0.16-0.19-0.21-0.4-0.16-0.63c0.04-0.19,0.15-0.33,0.33-0.4
	C3.53,6.58,3.67,6.68,3.79,6.8C3.96,6.97,4.1,7.17,4.28,7.32c0.67,0.57,1.48,0.57,2.16,0c0.24-0.2,0.44-0.45,0.65-0.69
	c0.63-0.72,1.37-1.22,2.38-1.11c0.72,0.08,1.27,0.49,1.76,1.01c0.19,0.2,0.36,0.41,0.54,0.61c0.72,0.78,1.7,0.81,2.48,0.07
	c0.34-0.32,0.59-0.71,0.95-1.01c1.17-0.98,2.52-0.91,3.57,0.19c0.23,0.25,0.46,0.5,0.69,0.75c0.73,0.78,1.69,0.81,2.45,0.08
	c0.12-0.12,0.24-0.24,0.36-0.36c0.15-0.14,0.29-0.3,0.53-0.19C22.99,6.76,23.1,6.95,23.09,7.24z"/>
<path class="st0" d="M20.52,14.7c-0.68-0.03-1.31-0.48-1.85-1.07c-0.25-0.27-0.49-0.57-0.78-0.8c-0.62-0.49-1.28-0.5-1.94-0.05
	c-0.44,0.3-0.72,0.74-1.1,1.1c-1.07,1.02-2.3,1.09-3.44,0.15c-0.21-0.17-0.38-0.38-0.57-0.58c-0.24-0.25-0.47-0.52-0.76-0.72
	c-0.57-0.39-1.14-0.37-1.71-0.02c-0.32,0.2-0.58,0.46-0.82,0.76c-0.23,0.3-0.5,0.55-0.81,0.76c-1.25,0.83-2.94,0.4-3.66-0.91
	c-0.1-0.18-0.1-0.37-0.05-0.56c0.12-0.36,0.46-0.45,0.74-0.19C3.89,12.7,4,12.83,4.11,12.95c0.73,0.77,1.71,0.79,2.46,0.05
	c0.21-0.21,0.39-0.44,0.59-0.65c0.44-0.49,0.96-0.84,1.62-0.99c0.79-0.18,1.44,0.1,2.04,0.58c0.3,0.24,0.54,0.54,0.8,0.83
	c1.05,1.19,2.12,0.93,3.01-0.18c0.27-0.34,0.58-0.64,0.94-0.87c1.03-0.65,2.11-0.54,3.01,0.3c0.3,0.28,0.56,0.59,0.84,0.88
	c0.83,0.85,1.7,0.87,2.55,0.04c0.12-0.12,0.24-0.24,0.36-0.36c0.25-0.24,0.62-0.17,0.73,0.16c0.06,0.18,0.08,0.39-0.03,0.56
	C22.59,13.98,21.68,14.71,20.52,14.7z"/>
</svg>
