<?xml version="1.0" encoding="utf-8"?>
<!-- Generator: Adobe Illustrator 23.1.0, SVG Export Plug-In . SVG Version: 6.00 Build 0)  -->
<svg version="1.1" id="Layer_1" xmlns="http://www.w3.org/2000/svg" xmlns:xlink="http://www.w3.org/1999/xlink" x="0px" y="0px"
	 viewBox="0 0 1920 184" style="enable-background:new 0 0 1920 184;" xml:space="preserve">
<style type="text/css">
	.st0{fill:none;stroke:#7B8EC8;stroke-width:2;stroke-linecap:round;stroke-linejoin:round;}
	.st1{fill:none;stroke:#7B8EC8;stroke-width:2;stroke-linecap:round;stroke-linejoin:round;stroke-dasharray:13.4858,13.4858;}
	.st2{fill:#2F3856;stroke:#7B8EC8;stroke-width:3;stroke-miterlimit:10;}
	.st3{fill:#7B8EC8;}
</style>
<g>
	<g>
		<line class="st0" x1="72.2" y1="98.82" x2="78.92" y2="98.82"/>
		<line class="st1" x1="92.41" y1="98.82" x2="1838.82" y2="98.82"/>
		<line class="st0" x1="1845.56" y1="98.82" x2="1852.29" y2="98.82"/>
	</g>
</g>
<g>
	<rect x="67.09" y="37.15" class="st2" width="295.6" height="118.7"/>
	<g>
		<g>
			<path class="st3" d="M164.73,84.14h-4.22v4.68c0,0.77-0.65,1.42-1.46,1.42c-0.77,0-1.39-0.65-1.39-1.42V75.81
				c0-0.94,0.77-1.73,1.73-1.73h5.35c3.36,0,5.23,2.3,5.23,5.04C169.96,81.84,168.07,84.14,164.73,84.14z M164.35,76.6h-3.84v5.02
				h3.84c1.56,0,2.69-1.01,2.69-2.5C167.03,77.59,165.91,76.6,164.35,76.6z"/>
			<path class="st3" d="M182.06,83.83l2.67,4.32c0.12,0.22,0.19,0.46,0.19,0.7c0,0.67-0.58,1.39-1.42,1.39
				c-0.48,0-0.94-0.24-1.2-0.7l-3.19-5.4h-2.76v4.68c0,0.77-0.65,1.42-1.46,1.42c-0.77,0-1.39-0.65-1.39-1.42V75.81
				c0-0.94,0.77-1.73,1.73-1.73h5.35c3.17,0,5.23,2.06,5.23,5.04C185.8,81.96,183.95,83.52,182.06,83.83z M176.35,76.6v5.02h3.82
				c1.56,0,2.71-0.98,2.71-2.5c0-1.54-1.15-2.52-2.71-2.52H176.35z"/>
			<path class="st3" d="M197.27,90.38c-4.8,0-8.18-3.5-8.18-8.28c0-4.78,3.38-8.28,8.18-8.28c4.8,0,8.21,3.5,8.21,8.28
				C205.48,86.88,202.07,90.38,197.27,90.38z M197.27,76.36c-3.19,0-5.26,2.45-5.26,5.74c0,3.26,2.06,5.74,5.26,5.74
				s5.26-2.47,5.26-5.74C202.53,78.81,200.47,76.36,197.27,76.36z"/>
			<path class="st3" d="M211.62,90.38c-1.27,0-2.98-0.34-3.77-1.37c-0.14-0.19-0.24-0.41-0.24-0.67c0-0.72,0.62-1.3,1.3-1.3
				c0.17,0,0.31,0.05,0.46,0.12c0.58,0.31,1.25,0.67,2.04,0.67c1.7,0,2.78-1.15,2.78-2.88v-9.63c0-0.74,0.62-1.39,1.46-1.39
				c0.77,0,1.39,0.65,1.39,1.39V85C217.05,88.68,214.74,90.38,211.62,90.38z"/>
			<path class="st3" d="M231.57,90.09h-8.18c-0.96,0-1.73-0.79-1.73-1.73V75.81c0-0.94,0.77-1.73,1.73-1.73h8.18
				c0.67,0,1.22,0.55,1.22,1.27c0,0.7-0.55,1.25-1.22,1.25h-7.06v4.08h6.89c0.67,0,1.22,0.55,1.22,1.27c0,0.7-0.55,1.25-1.22,1.25
				h-6.89v4.37h7.06c0.67,0,1.22,0.55,1.22,1.22C232.79,89.54,232.24,90.09,231.57,90.09z"/>
			<path class="st3" d="M250.05,76.31c0.19,0.24,0.31,0.55,0.31,0.84c0,0.74-0.62,1.32-1.37,1.32c-0.36,0-0.74-0.14-1.03-0.46
				c-0.91-1.03-2.23-1.66-3.55-1.66c-3.14,0-5.47,2.4-5.47,5.74c0,3.31,2.33,5.74,5.47,5.74c1.32,0,2.64-0.58,3.55-1.63
				c0.29-0.29,0.67-0.46,1.06-0.46c0.74,0,1.32,0.6,1.32,1.3c0,0.29-0.1,0.6-0.29,0.84c-1.22,1.39-3.02,2.5-5.64,2.5
				c-4.73,0-8.4-3.36-8.4-8.28c0-4.92,3.67-8.28,8.4-8.28C247.03,73.82,248.82,74.92,250.05,76.31z"/>
			<path class="st3" d="M264.71,76.6h-3.72v12.22c0,0.77-0.65,1.42-1.46,1.42c-0.79,0-1.42-0.65-1.42-1.42V76.6h-3.72
				c-0.7,0-1.25-0.55-1.25-1.3c0-0.67,0.55-1.22,1.25-1.22h10.32c0.67,0,1.25,0.55,1.25,1.27C265.96,76.05,265.39,76.6,264.71,76.6z
				"/>
			<path class="st3" d="M152.14,118.89h-4.25c-0.96,0-1.73-0.79-1.73-1.73v-12.55c0-0.94,0.77-1.73,1.73-1.73h4.25
				c4.99,0,8.4,3.31,8.4,8.02C160.54,115.63,157.13,118.89,152.14,118.89z M152.14,105.4h-3.12v10.97h3.12
				c3.46,0,5.45-2.47,5.45-5.47C157.59,107.83,155.69,105.4,152.14,105.4z"/>
			<path class="st3" d="M174.34,118.89h-8.18c-0.96,0-1.73-0.79-1.73-1.73v-12.55c0-0.94,0.77-1.73,1.73-1.73h8.18
				c0.67,0,1.22,0.55,1.22,1.27c0,0.7-0.55,1.25-1.22,1.25h-7.06v4.08h6.89c0.67,0,1.22,0.55,1.22,1.27c0,0.7-0.55,1.25-1.22,1.25
				h-6.89v4.37h7.06c0.67,0,1.22,0.55,1.22,1.22C175.57,118.34,175.01,118.89,174.34,118.89z"/>
			<path class="st3" d="M189.41,105.4h-7.06v4.08h6.89c0.67,0,1.22,0.55,1.22,1.27c0,0.7-0.55,1.25-1.22,1.25h-6.89v5.62
				c0,0.77-0.65,1.42-1.46,1.42c-0.77,0-1.39-0.65-1.39-1.42v-13.01c0-0.94,0.77-1.73,1.73-1.73h8.18c0.67,0,1.22,0.55,1.22,1.27
				C190.64,104.85,190.09,105.4,189.41,105.4z"/>
			<path class="st3" d="M195.61,119.04c-0.77,0-1.39-0.65-1.39-1.42v-13.49c0-0.74,0.62-1.39,1.44-1.39c0.77,0,1.42,0.65,1.42,1.39
				v13.49C197.07,118.39,196.42,119.04,195.61,119.04z"/>
			<path class="st3" d="M213.82,119.04c-0.55,0-1.1-0.26-1.44-0.72l-7.85-10.75v10.06c0,0.77-0.65,1.42-1.46,1.42
				c-0.77,0-1.39-0.65-1.39-1.42v-13.08c0-0.94,0.79-1.8,1.85-1.8c0.6,0,1.2,0.29,1.56,0.77l7.63,10.37v-9.75
				c0-0.74,0.65-1.39,1.46-1.39c0.77,0,1.39,0.65,1.39,1.39v13.2C215.57,118.22,214.85,119.04,213.82,119.04z"/>
			<path class="st3" d="M221.57,119.04c-0.77,0-1.39-0.65-1.39-1.42v-13.49c0-0.74,0.62-1.39,1.44-1.39c0.77,0,1.42,0.65,1.42,1.39
				v13.49C223.04,118.39,222.39,119.04,221.57,119.04z"/>
			<path class="st3" d="M238.04,105.4h-3.72v12.22c0,0.77-0.65,1.42-1.46,1.42c-0.79,0-1.42-0.65-1.42-1.42V105.4h-3.72
				c-0.7,0-1.25-0.55-1.25-1.3c0-0.67,0.55-1.22,1.25-1.22h10.32c0.67,0,1.25,0.55,1.25,1.27
				C239.28,104.85,238.71,105.4,238.04,105.4z"/>
			<path class="st3" d="M244.08,119.04c-0.77,0-1.39-0.65-1.39-1.42v-13.49c0-0.74,0.62-1.39,1.44-1.39c0.77,0,1.42,0.65,1.42,1.39
				v13.49C245.55,118.39,244.9,119.04,244.08,119.04z"/>
			<path class="st3" d="M257.62,119.18c-4.8,0-8.18-3.5-8.18-8.28c0-4.78,3.38-8.28,8.18-8.28c4.8,0,8.21,3.5,8.21,8.28
				C265.83,115.68,262.42,119.18,257.62,119.18z M257.62,105.16c-3.19,0-5.26,2.45-5.26,5.74c0,3.26,2.06,5.74,5.26,5.74
				c3.19,0,5.26-2.47,5.26-5.74C262.88,107.61,260.81,105.16,257.62,105.16z"/>
			<path class="st3" d="M281.86,119.04c-0.55,0-1.1-0.26-1.44-0.72l-7.85-10.75v10.06c0,0.77-0.65,1.42-1.46,1.42
				c-0.77,0-1.39-0.65-1.39-1.42v-13.08c0-0.94,0.79-1.8,1.85-1.8c0.6,0,1.2,0.29,1.56,0.77l7.63,10.37v-9.75
				c0-0.74,0.65-1.39,1.46-1.39c0.77,0,1.39,0.65,1.39,1.39v13.2C283.61,118.22,282.89,119.04,281.86,119.04z"/>
		</g>
	</g>
</g>
<g>
	<rect x="439.77" y="37.77" class="st2" width="295.6" height="118.7"/>
	<g>
		<g>
			<path class="st3" d="M532.53,98.85l2.67,4.32c0.12,0.21,0.19,0.46,0.19,0.7c0,0.67-0.58,1.39-1.42,1.39
				c-0.48,0-0.94-0.24-1.2-0.7l-3.19-5.4h-2.76v4.68c0,0.77-0.65,1.42-1.46,1.42c-0.77,0-1.39-0.65-1.39-1.42V90.83
				c0-0.94,0.77-1.73,1.73-1.73h5.35c3.17,0,5.23,2.06,5.23,5.04C536.27,96.97,534.43,98.53,532.53,98.85z M526.82,91.62v5.02h3.82
				c1.56,0,2.71-0.98,2.71-2.5c0-1.54-1.15-2.52-2.71-2.52H526.82z"/>
			<path class="st3" d="M550.19,105.11h-8.18c-0.96,0-1.73-0.79-1.73-1.73V90.83c0-0.94,0.77-1.73,1.73-1.73h8.18
				c0.67,0,1.22,0.55,1.22,1.27c0,0.7-0.55,1.25-1.22,1.25h-7.06v4.08h6.89c0.67,0,1.22,0.55,1.22,1.27c0,0.7-0.55,1.25-1.22,1.25
				h-6.89v4.37h7.06c0.67,0,1.22,0.55,1.22,1.22C551.42,104.56,550.87,105.11,550.19,105.11z"/>
			<path class="st3" d="M560.85,105.4c-2.35,0-4.85-0.77-5.93-2.04c-0.19-0.24-0.29-0.5-0.29-0.79c0-0.74,0.65-1.37,1.37-1.37
				c0.26,0,0.55,0.07,0.77,0.24c1.1,0.84,2.52,1.44,4.2,1.44c2.26,0,3.17-1.13,3.17-2.16c0-3.31-9.31-1.25-9.31-7.15
				c0-2.66,2.3-4.7,5.83-4.7c1.92,0,4.32,0.6,5.38,1.75c0.19,0.21,0.29,0.5,0.29,0.77c0,0.74-0.7,1.32-1.39,1.32
				c-0.26,0-0.53-0.07-0.77-0.24c-1.13-0.74-2.45-1.08-3.74-1.08c-1.63,0-2.66,0.79-2.66,1.97c0,2.95,9.29,1.1,9.29,7.08
				C567.04,103.12,565.17,105.4,560.85,105.4z"/>
			<path class="st3" d="M580.75,105.11h-8.18c-0.96,0-1.73-0.79-1.73-1.73V90.83c0-0.94,0.77-1.73,1.73-1.73h8.18
				c0.67,0,1.22,0.55,1.22,1.27c0,0.7-0.55,1.25-1.22,1.25h-7.06v4.08h6.89c0.67,0,1.22,0.55,1.22,1.27c0,0.7-0.55,1.25-1.22,1.25
				h-6.89v4.37h7.06c0.67,0,1.22,0.55,1.22,1.22C581.97,104.56,581.42,105.11,580.75,105.11z"/>
			<path class="st3" d="M598.17,105.25c-0.6,0-1.15-0.36-1.39-0.94l-0.84-2.23h-7.3l-0.86,2.23c-0.22,0.58-0.79,0.94-1.39,0.94
				c-0.91,0-1.54-0.74-1.54-1.54c0-0.17,0.02-0.36,0.12-0.53l4.99-12.72c0.36-0.91,1.25-1.51,2.23-1.51
				c1.03-0.05,2.02,0.55,2.4,1.51l5.02,12.72c0.05,0.17,0.1,0.36,0.1,0.53C599.7,104.46,599.1,105.25,598.17,105.25z M592.29,91.98
				l-2.86,7.56h5.69L592.29,91.98z"/>
			<path class="st3" d="M611.85,98.85l2.67,4.32c0.12,0.21,0.19,0.46,0.19,0.7c0,0.67-0.58,1.39-1.42,1.39
				c-0.48,0-0.94-0.24-1.2-0.7l-3.19-5.4h-2.76v4.68c0,0.77-0.65,1.42-1.46,1.42c-0.77,0-1.39-0.65-1.39-1.42V90.83
				c0-0.94,0.77-1.73,1.73-1.73h5.35c3.17,0,5.23,2.06,5.23,5.04C615.59,96.97,613.74,98.53,611.85,98.85z M606.14,91.62v5.02h3.82
				c1.56,0,2.71-0.98,2.71-2.5c0-1.54-1.15-2.52-2.71-2.52H606.14z"/>
			<path class="st3" d="M632.92,91.33c0.19,0.24,0.31,0.55,0.31,0.84c0,0.74-0.62,1.32-1.37,1.32c-0.36,0-0.74-0.14-1.03-0.46
				c-0.91-1.03-2.23-1.66-3.55-1.66c-3.14,0-5.47,2.4-5.47,5.74c0,3.31,2.33,5.74,5.47,5.74c1.32,0,2.64-0.58,3.55-1.63
				c0.29-0.29,0.67-0.46,1.06-0.46c0.74,0,1.32,0.6,1.32,1.3c0,0.29-0.1,0.6-0.29,0.84c-1.22,1.39-3.02,2.5-5.64,2.5
				c-4.73,0-8.4-3.36-8.4-8.28s3.67-8.28,8.4-8.28C629.9,88.84,631.7,89.94,632.92,91.33z"/>
			<path class="st3" d="M649.72,105.25c-0.79,0-1.42-0.65-1.42-1.42v-5.69h-8.26v5.69c0,0.77-0.65,1.42-1.46,1.42
				c-0.77,0-1.39-0.65-1.39-1.42V90.35c0-0.74,0.62-1.39,1.44-1.39c0.77,0,1.42,0.65,1.42,1.39v5.28h8.26v-5.28
				c0-0.74,0.62-1.39,1.46-1.39c0.77,0,1.42,0.65,1.42,1.39v13.49C651.18,104.61,650.54,105.25,649.72,105.25z"/>
		</g>
	</g>
</g>
<g>
	<rect x="812.46" y="32.65" class="st2" width="295.6" height="118.7"/>
	<g>
		<g>
			<path class="st3" d="M895.81,94.04h-4.22v4.68c0,0.77-0.65,1.42-1.46,1.42c-0.77,0-1.39-0.65-1.39-1.42V85.71
				c0-0.94,0.77-1.73,1.73-1.73h5.35c3.36,0,5.23,2.3,5.23,5.04C901.04,91.74,899.14,94.04,895.81,94.04z M895.42,86.5h-3.84v5.02
				h3.84c1.56,0,2.69-1.01,2.69-2.5C898.11,87.49,896.98,86.5,895.42,86.5z"/>
			<path class="st3" d="M913.13,93.73l2.67,4.32c0.12,0.22,0.19,0.46,0.19,0.7c0,0.67-0.58,1.39-1.42,1.39
				c-0.48,0-0.94-0.24-1.2-0.7l-3.19-5.4h-2.76v4.68c0,0.77-0.65,1.42-1.46,1.42c-0.77,0-1.39-0.65-1.39-1.42V85.71
				c0-0.94,0.77-1.73,1.73-1.73h5.35c3.17,0,5.23,2.06,5.23,5.04C916.88,91.86,915.03,93.42,913.13,93.73z M907.42,86.5v5.02h3.82
				c1.56,0,2.71-0.98,2.71-2.5c0-1.54-1.15-2.52-2.71-2.52H907.42z"/>
			<path class="st3" d="M928.35,100.28c-4.8,0-8.19-3.5-8.19-8.28c0-4.78,3.38-8.28,8.19-8.28c4.8,0,8.21,3.5,8.21,8.28
				C936.56,96.78,933.15,100.28,928.35,100.28z M928.35,86.26c-3.19,0-5.26,2.45-5.26,5.74c0,3.26,2.06,5.74,5.26,5.74
				c3.19,0,5.26-2.47,5.26-5.74C933.61,88.71,931.54,86.26,928.35,86.26z"/>
			<path class="st3" d="M950.24,86.5h-3.72v12.22c0,0.77-0.65,1.42-1.46,1.42c-0.79,0-1.42-0.65-1.42-1.42V86.5h-3.72
				c-0.7,0-1.25-0.55-1.25-1.3c0-0.67,0.55-1.22,1.25-1.22h10.32c0.67,0,1.25,0.55,1.25,1.27C951.48,85.95,950.91,86.5,950.24,86.5z
				"/>
			<path class="st3" d="M961.76,100.28c-4.8,0-8.19-3.5-8.19-8.28c0-4.78,3.38-8.28,8.19-8.28c4.8,0,8.21,3.5,8.21,8.28
				C969.97,96.78,966.56,100.28,961.76,100.28z M961.76,86.26c-3.19,0-5.26,2.45-5.26,5.74c0,3.26,2.06,5.74,5.26,5.74
				c3.19,0,5.26-2.47,5.26-5.74C967.01,88.71,964.95,86.26,961.76,86.26z"/>
			<path class="st3" d="M983.64,86.5h-3.72v12.22c0,0.77-0.65,1.42-1.46,1.42c-0.79,0-1.42-0.65-1.42-1.42V86.5h-3.72
				c-0.7,0-1.25-0.55-1.25-1.3c0-0.67,0.55-1.22,1.25-1.22h10.32c0.67,0,1.25,0.55,1.25,1.27C984.89,85.95,984.32,86.5,983.64,86.5z
				"/>
			<path class="st3" d="M1000.61,85.9l-4.92,7.46v5.35c0,0.77-0.65,1.42-1.44,1.42c-0.79,0-1.42-0.65-1.42-1.42v-5.35l-4.97-7.49
				c-0.14-0.19-0.22-0.46-0.22-0.7c0-0.65,0.55-1.32,1.39-1.32c0.43,0,0.89,0.22,1.15,0.63l4.05,6.31l4.01-6.31
				c0.26-0.38,0.7-0.63,1.18-0.63c0.79,0,1.37,0.65,1.37,1.32C1000.8,85.42,1000.76,85.69,1000.61,85.9z"/>
			<path class="st3" d="M1011.89,94.04h-4.22v4.68c0,0.77-0.65,1.42-1.46,1.42c-0.77,0-1.39-0.65-1.39-1.42V85.71
				c0-0.94,0.77-1.73,1.73-1.73h5.35c3.36,0,5.23,2.3,5.23,5.04C1017.13,91.74,1015.23,94.04,1011.89,94.04z M1011.51,86.5h-3.84
				v5.02h3.84c1.56,0,2.69-1.01,2.69-2.5C1014.2,87.49,1013.07,86.5,1011.51,86.5z"/>
			<path class="st3" d="M1030.56,99.99h-8.18c-0.96,0-1.73-0.79-1.73-1.73V85.71c0-0.94,0.77-1.73,1.73-1.73h8.18
				c0.67,0,1.22,0.55,1.22,1.27c0,0.7-0.55,1.25-1.22,1.25h-7.06v4.08h6.89c0.67,0,1.22,0.55,1.22,1.27c0,0.7-0.55,1.25-1.22,1.25
				h-6.89v4.37h7.06c0.67,0,1.22,0.55,1.22,1.22C1031.79,99.44,1031.24,99.99,1030.56,99.99z"/>
		</g>
	</g>
</g>
<g>
	<rect x="1185.14" y="37.65" class="st2" width="295.6" height="118.7"/>
	<g>
		<g>
			<path class="st3" d="M1293.59,91.49h-3.72v12.22c0,0.77-0.65,1.42-1.46,1.42c-0.79,0-1.42-0.65-1.42-1.42V91.49h-3.72
				c-0.7,0-1.25-0.55-1.25-1.3c0-0.67,0.55-1.22,1.25-1.22h10.32c0.67,0,1.25,0.55,1.25,1.27
				C1294.84,90.94,1294.27,91.49,1293.59,91.49z"/>
			<path class="st3" d="M1308.16,104.98h-8.18c-0.96,0-1.73-0.79-1.73-1.73V90.7c0-0.94,0.77-1.73,1.73-1.73h8.18
				c0.67,0,1.22,0.55,1.22,1.27c0,0.7-0.55,1.25-1.22,1.25h-7.06v4.08h6.89c0.67,0,1.22,0.55,1.22,1.27c0,0.7-0.55,1.25-1.22,1.25
				h-6.89v4.37h7.06c0.67,0,1.22,0.55,1.22,1.22C1309.39,104.43,1308.83,104.98,1308.16,104.98z"/>
			<path class="st3" d="M1318.82,105.27c-2.35,0-4.85-0.77-5.93-2.04c-0.19-0.24-0.29-0.5-0.29-0.79c0-0.74,0.65-1.37,1.37-1.37
				c0.26,0,0.55,0.07,0.77,0.24c1.1,0.84,2.52,1.44,4.2,1.44c2.26,0,3.17-1.13,3.17-2.16c0-3.31-9.31-1.25-9.31-7.15
				c0-2.66,2.3-4.7,5.83-4.7c1.92,0,4.32,0.6,5.38,1.75c0.19,0.22,0.29,0.5,0.29,0.77c0,0.74-0.7,1.32-1.39,1.32
				c-0.26,0-0.53-0.07-0.77-0.24c-1.13-0.74-2.45-1.08-3.74-1.08c-1.63,0-2.66,0.79-2.66,1.97c0,2.95,9.29,1.1,9.29,7.08
				C1325.01,102.99,1323.14,105.27,1318.82,105.27z"/>
			<path class="st3" d="M1338.95,91.49h-3.72v12.22c0,0.77-0.65,1.42-1.46,1.42c-0.79,0-1.42-0.65-1.42-1.42V91.49h-3.72
				c-0.7,0-1.25-0.55-1.25-1.3c0-0.67,0.55-1.22,1.25-1.22h10.32c0.67,0,1.25,0.55,1.25,1.27
				C1340.2,90.94,1339.63,91.49,1338.95,91.49z"/>
			<path class="st3" d="M1345,105.12c-0.77,0-1.39-0.65-1.39-1.42V90.22c0-0.74,0.62-1.39,1.44-1.39c0.77,0,1.42,0.65,1.42,1.39
				v13.49C1346.46,104.48,1345.82,105.12,1345,105.12z"/>
			<path class="st3" d="M1363.22,105.12c-0.55,0-1.1-0.26-1.44-0.72l-7.85-10.75v10.06c0,0.77-0.65,1.42-1.46,1.42
				c-0.77,0-1.39-0.65-1.39-1.42V90.63c0-0.94,0.79-1.8,1.85-1.8c0.6,0,1.2,0.29,1.56,0.77l7.63,10.37v-9.75
				c0-0.74,0.65-1.39,1.46-1.39c0.77,0,1.39,0.65,1.39,1.39v13.2C1364.97,104.31,1364.25,105.12,1363.22,105.12z"/>
			<path class="st3" d="M1377.26,105.29c-4.63,0-8.4-3.29-8.4-8.31c0-5.02,3.77-8.28,8.4-8.28c2.52,0,4.34,0.96,5.62,2.28
				c0.24,0.24,0.36,0.58,0.36,0.91c0,0.72-0.62,1.3-1.34,1.3c-0.36,0-0.7-0.14-0.96-0.41c-0.96-0.96-2.3-1.54-3.67-1.54
				c-3.14,0-5.47,2.4-5.47,5.74c0,3.31,2.33,5.74,5.47,5.74c1.61,0,3.05-0.74,3.74-1.42v-2.42h-3.62c-0.67,0-1.22-0.55-1.22-1.3
				c0-0.67,0.55-1.22,1.22-1.22h4.75c0.96,0,1.73,0.79,1.73,1.73v2.9C1383.86,103.73,1380.33,105.29,1377.26,105.29z"/>
		</g>
	</g>
</g>
<g>
	<rect x="1557.83" y="37.65" class="st2" width="295.6" height="118.7"/>
	<g>
		<g>
			<path class="st3" d="M1637.37,98.74l2.67,4.32c0.12,0.22,0.19,0.46,0.19,0.7c0,0.67-0.58,1.39-1.42,1.39
				c-0.48,0-0.94-0.24-1.2-0.7l-3.19-5.4h-2.76v4.68c0,0.77-0.65,1.42-1.46,1.42c-0.77,0-1.39-0.65-1.39-1.42V90.72
				c0-0.94,0.77-1.73,1.73-1.73h5.35c3.17,0,5.23,2.06,5.23,5.04C1641.12,96.87,1639.27,98.43,1637.37,98.74z M1631.66,91.51v5.02
				h3.82c1.56,0,2.71-0.98,2.71-2.5c0-1.54-1.15-2.52-2.71-2.52H1631.66z"/>
			<path class="st3" d="M1655.03,105h-8.18c-0.96,0-1.73-0.79-1.73-1.73V90.72c0-0.94,0.77-1.73,1.73-1.73h8.18
				c0.67,0,1.22,0.55,1.22,1.27c0,0.7-0.55,1.25-1.22,1.25h-7.06v4.08h6.89c0.67,0,1.22,0.55,1.22,1.27c0,0.7-0.55,1.25-1.22,1.25
				h-6.89v4.37h7.06c0.67,0,1.22,0.55,1.22,1.22C1656.26,104.45,1655.71,105,1655.03,105z"/>
			<path class="st3" d="M1670.11,91.51h-7.06v4.08h6.89c0.67,0,1.22,0.55,1.22,1.27c0,0.7-0.55,1.25-1.22,1.25h-6.89v5.62
				c0,0.77-0.65,1.42-1.46,1.42c-0.77,0-1.39-0.65-1.39-1.42V90.72c0-0.94,0.77-1.73,1.73-1.73h8.18c0.67,0,1.22,0.55,1.22,1.27
				C1671.33,90.96,1670.78,91.51,1670.11,91.51z"/>
			<path class="st3" d="M1676.3,105.15c-0.77,0-1.39-0.65-1.39-1.42V90.24c0-0.74,0.62-1.39,1.44-1.39c0.77,0,1.42,0.65,1.42,1.39
				v13.49C1677.76,104.5,1677.11,105.15,1676.3,105.15z"/>
			<path class="st3" d="M1694.51,105.15c-0.55,0-1.1-0.26-1.44-0.72l-7.85-10.75v10.06c0,0.77-0.65,1.42-1.46,1.42
				c-0.77,0-1.39-0.65-1.39-1.42V90.65c0-0.94,0.79-1.8,1.85-1.8c0.6,0,1.2,0.29,1.56,0.77l7.63,10.37v-9.75
				c0-0.74,0.65-1.39,1.46-1.39c0.77,0,1.39,0.65,1.39,1.39v13.2C1696.27,104.33,1695.55,105.15,1694.51,105.15z"/>
			<path class="st3" d="M1710.79,105h-8.18c-0.96,0-1.73-0.79-1.73-1.73V90.72c0-0.94,0.77-1.73,1.73-1.73h8.18
				c0.67,0,1.22,0.55,1.22,1.27c0,0.7-0.55,1.25-1.22,1.25h-7.06v4.08h6.89c0.67,0,1.22,0.55,1.22,1.27c0,0.7-0.55,1.25-1.22,1.25
				h-6.89v4.37h7.06c0.67,0,1.22,0.55,1.22,1.22C1712.01,104.45,1711.46,105,1710.79,105z"/>
			<path class="st3" d="M1731.19,105.15c-0.79,0-1.42-0.65-1.42-1.42v-10.7l-4.73,11.62c-0.12,0.29-0.41,0.5-0.79,0.5
				c-0.31,0-0.62-0.22-0.74-0.5l-4.7-11.62v10.7c0,0.77-0.65,1.42-1.46,1.42c-0.77,0-1.39-0.65-1.39-1.42V90.75
				c0-0.98,0.82-1.8,1.8-1.8c1.22-0.1,2.3,0.26,2.76,1.34l3.77,9.29l3.79-9.29c0.34-0.82,1.13-1.34,2.04-1.34
				c1.3-0.14,2.54,0.5,2.54,1.8v12.98C1732.65,104.5,1732,105.15,1731.19,105.15z"/>
			<path class="st3" d="M1747.15,105h-8.18c-0.96,0-1.73-0.79-1.73-1.73V90.72c0-0.94,0.77-1.73,1.73-1.73h8.18
				c0.67,0,1.22,0.55,1.22,1.27c0,0.7-0.55,1.25-1.22,1.25h-7.06v4.08h6.89c0.67,0,1.22,0.55,1.22,1.27c0,0.7-0.55,1.25-1.22,1.25
				h-6.89v4.37h7.06c0.67,0,1.22,0.55,1.22,1.22C1748.37,104.45,1747.82,105,1747.15,105z"/>
			<path class="st3" d="M1764.45,105.15c-0.55,0-1.1-0.26-1.44-0.72l-7.85-10.75v10.06c0,0.77-0.65,1.42-1.46,1.42
				c-0.77,0-1.39-0.65-1.39-1.42V90.65c0-0.94,0.79-1.8,1.85-1.8c0.6,0,1.2,0.29,1.56,0.77l7.63,10.37v-9.75
				c0-0.74,0.65-1.39,1.46-1.39c0.77,0,1.39,0.65,1.39,1.39v13.2C1766.2,104.33,1765.48,105.15,1764.45,105.15z"/>
			<path class="st3" d="M1781.2,91.51h-3.72v12.22c0,0.77-0.65,1.42-1.46,1.42c-0.79,0-1.42-0.65-1.42-1.42V91.51h-3.72
				c-0.7,0-1.25-0.55-1.25-1.3c0-0.67,0.55-1.22,1.25-1.22h10.32c0.67,0,1.25,0.55,1.25,1.27
				C1782.45,90.96,1781.87,91.51,1781.2,91.51z"/>
		</g>
	</g>
</g>
</svg>
