<?xml version="1.0" encoding="utf-8"?>
<!-- Generator: Adobe Illustrator 23.1.0, SVG Export Plug-In . SVG Version: 6.00 Build 0)  -->
<svg version="1.1" id="Layer_1" xmlns="http://www.w3.org/2000/svg" xmlns:xlink="http://www.w3.org/1999/xlink" x="0px" y="0px"
	 viewBox="0 0 1920 686" style="enable-background:new 0 0 1920 686;" xml:space="preserve">
<style type="text/css">
	.st0{fill:#0046EB;}
	.st1{fill:none;stroke:#0045E2;stroke-width:1.5578;stroke-miterlimit:10;}
</style>
<g>
	<path class="st0" d="M1146.35,467.27h-4.75c-0.67,0-1.21-0.54-1.21-1.21v-10.04c0-0.67,0.54-1.22,1.21-1.22h4.6
		c2.22,0,3.53,1.36,3.53,3.18c0,1.57-1.03,2.62-2.19,2.86c1.33,0.21,2.43,1.55,2.43,3.07
		C1149.98,465.87,1148.67,467.27,1146.35,467.27z M1145.87,456.43h-3.63v3.66h3.63c1.25,0,1.96-0.79,1.96-1.83
		C1147.83,457.24,1147.12,456.43,1145.87,456.43z M1145.94,461.72h-3.7v3.93h3.7c1.35,0,2.13-0.75,2.13-1.96
		C1148.07,462.64,1147.34,461.72,1145.94,461.72z"/>
	<path class="st0" d="M1156.73,467.5c-2.8,0-4.54-2.15-4.54-4.75s1.74-4.73,4.54-4.73c2.82,0,4.56,2.13,4.56,4.73
		S1159.55,467.5,1156.73,467.5z M1156.73,459.5c-1.79,0-2.82,1.53-2.82,3.25c0,1.74,1.03,3.27,2.82,3.27c1.81,0,2.82-1.53,2.82-3.27
		C1159.55,461.03,1158.54,459.5,1156.73,459.5z"/>
	<path class="st0" d="M1164.73,467.39c-0.45,0-0.82-0.37-0.82-0.82V455.5c0-0.43,0.37-0.8,0.86-0.8c0.43,0,0.8,0.37,0.8,0.8v11.07
		C1165.57,467.01,1165.19,467.39,1164.73,467.39z"/>
	<path class="st0" d="M1176,467.39c-0.45,0-0.82-0.37-0.82-0.82v-0.58c-0.69,0.9-1.76,1.51-2.97,1.51c-2.34,0-4.02-1.78-4.02-4.73
		c0-2.9,1.66-4.75,4.02-4.75c1.18,0,2.24,0.56,2.97,1.53v-4.06c0-0.43,0.37-0.8,0.86-0.8c0.43,0,0.8,0.37,0.8,0.8v11.07
		C1176.84,467.01,1176.47,467.39,1176,467.39z M1175.18,460.84c-0.47-0.73-1.5-1.35-2.54-1.35c-1.68,0-2.73,1.38-2.73,3.27
		c0,1.89,1.05,3.25,2.73,3.25c1.05,0,2.07-0.58,2.54-1.33V460.84z"/>
</g>
<g>
	<path class="st0" d="M1150.07,316.77c-0.52,0-0.93-0.41-0.93-0.92v-4.79h-6.9v4.79c0,0.5-0.41,0.92-0.93,0.92
		c-0.5,0-0.92-0.41-0.92-0.92v-10.88c0-0.49,0.41-0.9,0.95-0.9c0.49,0,0.9,0.41,0.9,0.9v4.45h6.9v-4.45c0-0.49,0.41-0.9,0.97-0.9
		c0.49,0,0.9,0.41,0.9,0.9v10.88C1151.01,316.35,1150.59,316.77,1150.07,316.77z"/>
	<path class="st0" d="M1157.23,316.77c-0.5,0-0.92-0.41-0.92-0.92v-9.23l-1.59,1.65c-0.15,0.15-0.32,0.22-0.52,0.22
		c-0.39,0-0.79-0.34-0.79-0.79c0-0.21,0.08-0.39,0.22-0.56l2.71-2.75c0.19-0.21,0.45-0.3,0.75-0.3c0.56,0,1.07,0.45,1.07,1.03v10.73
		C1158.17,316.35,1157.76,316.77,1157.23,316.77z"/>
</g>
<g>
	<path class="st0" d="M1394.33,435.66l5.94,26.62h-3.81l-1.12-5.72h-5.2l-1.12,5.72h-3.81l5.94-26.62H1394.33z M1392.69,443.32
		l-1.87,9.65h3.81l-1.87-9.65H1392.69z"/>
	<path class="st0" d="M1410.52,435.66c1.22,0,2.26,0.19,3.12,0.56c0.86,0.37,1.56,0.87,2.11,1.5c0.55,0.62,0.94,1.34,1.18,2.15
		c0.24,0.81,0.35,1.65,0.35,2.52v0.97c0,0.72-0.06,1.33-0.17,1.83s-0.28,0.93-0.5,1.31c-0.22,0.37-0.5,0.7-0.82,0.99
		c-0.32,0.29-0.7,0.55-1.12,0.8c0.9,0.42,1.56,1.05,1.98,1.89c0.42,0.83,0.63,1.95,0.63,3.35v1.5c0,2.34-0.57,4.14-1.7,5.38
		c-1.13,1.25-2.95,1.87-5.44,1.87h-5.2v-26.62H1410.52z M1410.48,446.57c1.27,0,2.13-0.32,2.56-0.95c0.44-0.64,0.65-1.56,0.65-2.78
		c0-1.2-0.24-2.09-0.73-2.69c-0.49-0.6-1.36-0.9-2.64-0.9h-1.57v7.33H1410.48z M1410.41,458.46c0.77,0,1.38-0.11,1.81-0.34
		c0.44-0.22,0.77-0.54,0.99-0.93c0.22-0.4,0.36-0.87,0.41-1.42s0.07-1.15,0.07-1.79c0-0.67-0.04-1.26-0.11-1.76
		c-0.07-0.5-0.23-0.92-0.47-1.25c-0.24-0.34-0.57-0.59-0.99-0.77c-0.42-0.17-0.98-0.26-1.68-0.26h-1.68v8.52H1410.41z"/>
	<path class="st0" d="M1435.33,458.68c-0.31,0.75-0.74,1.4-1.29,1.96c-0.55,0.56-1.19,1.01-1.92,1.35s-1.53,0.5-2.37,0.5
		c-0.72,0-1.46-0.1-2.21-0.3c-0.75-0.2-1.42-0.54-2.02-1.03c-0.6-0.49-1.09-1.13-1.48-1.93c-0.39-0.8-0.58-1.81-0.58-3.03v-14.65
		c0-0.87,0.15-1.68,0.45-2.43s0.72-1.4,1.27-1.94c0.55-0.55,1.2-0.98,1.96-1.29c0.76-0.31,1.6-0.47,2.52-0.47
		c0.87,0,1.68,0.16,2.43,0.47c0.75,0.31,1.4,0.75,1.94,1.31c0.55,0.56,0.98,1.23,1.29,2.02s0.47,1.64,0.47,2.56v1.5h-3.81v-1.27
		c0-0.75-0.21-1.4-0.64-1.94s-1-0.82-1.72-0.82c-0.95,0-1.58,0.29-1.89,0.88c-0.31,0.59-0.47,1.33-0.47,2.22v13.61
		c0,0.77,0.17,1.42,0.5,1.94c0.34,0.52,0.94,0.79,1.81,0.79c0.25,0,0.52-0.04,0.8-0.13c0.29-0.09,0.55-0.23,0.79-0.43
		c0.24-0.2,0.43-0.47,0.58-0.82c0.15-0.35,0.22-0.79,0.22-1.31v-1.31h3.81v1.65C1435.79,457.15,1435.64,457.94,1435.33,458.68z"/>
	<path class="st0" d="M1447.35,435.66c2.17,0,3.83,0.6,4.97,1.81c1.15,1.21,1.72,2.9,1.72,5.07v12.45c0,2.49-0.6,4.33-1.81,5.51
		c-1.21,1.18-2.95,1.78-5.22,1.78h-5.31v-26.62H1447.35z M1447.27,458.68c1.07,0,1.83-0.27,2.28-0.8c0.45-0.54,0.67-1.38,0.67-2.52
		v-12.82c0-1.05-0.21-1.86-0.64-2.43s-1.2-0.86-2.32-0.86h-1.76v19.44H1447.27z"/>
	<path class="st0" d="M1471.8,435.66v3.59h-7.55v7.81h6.58v3.59h-6.58v7.81h7.55v3.81h-11.36v-26.62H1471.8z"/>
	<path class="st0" d="M1488.44,435.66v3.59h-7.55v8.07h6.58v3.59h-6.58v11.36h-3.81v-26.62H1488.44z"/>
	<path class="st0" d="M1497.52,435.66v11.4h4.71v-11.4h3.81v26.62h-3.81v-11.85h-4.71v11.85h-3.81v-26.62H1497.52z"/>
	<path class="st0" d="M1516.36,435.66v26.62h-3.81v-26.62H1516.36z"/>
	<path class="st0" d="M1531.28,458.48c-0.3,0.79-0.73,1.48-1.29,2.07s-1.24,1.07-2.04,1.42c-0.8,0.35-1.71,0.52-2.73,0.52
		c-1.22,0-2.24-0.27-3.05-0.8c-0.81-0.54-1.45-1.07-1.92-1.59l2.99-2.39c0.27,0.27,0.59,0.5,0.95,0.69
		c0.36,0.19,0.74,0.28,1.14,0.28c0.22,0,0.49-0.04,0.79-0.13s0.58-0.25,0.84-0.49s0.49-0.56,0.67-0.97
		c0.19-0.41,0.28-0.95,0.28-1.63v-19.81h3.81v20.34C1531.73,456.87,1531.58,457.69,1531.28,458.48z"/>
	<path class="st0" d="M1541.94,435.66v12.15h0.08l5.57-12.15h3.81l-5.2,10.65l6.17,15.96h-4.04l-4.34-11.81l-2.06,3.85v7.96h-3.81
		v-26.62H1541.94z"/>
	<path class="st0" d="M1560.67,435.66v22.8h7.55v3.81h-11.36v-26.62H1560.67z"/>
	<path class="st0" d="M1577.15,435.66l4.9,14.09h0.07l4.86-14.09h3.7v26.62h-3.81v-16.19h-0.07l-3.78,11.44h-1.91l-3.74-11.44h-0.08
		v16.19h-3.81v-26.62H1577.15z"/>
	<path class="st0" d="M1600.6,435.66l5.76,16.04h0.08v-16.04h3.81v26.62h-3.59l-5.83-16h-0.08v16h-3.81v-26.62H1600.6z"/>
	<path class="st0" d="M1616.82,439.1c0.37-0.82,0.87-1.5,1.48-2.04c0.61-0.54,1.3-0.94,2.06-1.22c0.76-0.27,1.53-0.41,2.3-0.41
		s1.54,0.14,2.3,0.41c0.76,0.27,1.45,0.68,2.06,1.22c0.61,0.54,1.1,1.21,1.48,2.04c0.37,0.82,0.56,1.77,0.56,2.84v14.06
		c0,1.1-0.19,2.05-0.56,2.86c-0.37,0.81-0.87,1.48-1.48,2.02c-0.61,0.54-1.3,0.94-2.06,1.21c-0.76,0.27-1.53,0.41-2.3,0.41
		s-1.54-0.14-2.3-0.41c-0.76-0.27-1.45-0.68-2.06-1.21s-1.1-1.21-1.48-2.02c-0.37-0.81-0.56-1.76-0.56-2.86v-14.06
		C1616.26,440.86,1616.45,439.92,1616.82,439.1z M1620.84,458.03c0.51,0.44,1.12,0.65,1.81,0.65c0.7,0,1.3-0.22,1.81-0.65
		c0.51-0.44,0.77-1.12,0.77-2.04v-14.06c0-0.92-0.25-1.6-0.77-2.04c-0.51-0.44-1.12-0.65-1.81-0.65c-0.7,0-1.3,0.22-1.81,0.65
		c-0.51,0.44-0.77,1.12-0.77,2.04v14.06C1620.07,456.92,1620.33,457.59,1620.84,458.03z"/>
	<path class="st0" d="M1640.94,435.66c1.05,0,1.97,0.14,2.77,0.41c0.8,0.27,1.52,0.76,2.17,1.46c0.65,0.7,1.1,1.51,1.35,2.45
		c0.25,0.94,0.37,2.2,0.37,3.79c0,1.17-0.07,2.17-0.21,3.01s-0.43,1.61-0.88,2.34c-0.52,0.87-1.22,1.55-2.09,2.04
		c-0.87,0.49-2.02,0.73-3.44,0.73h-1.94v10.39h-3.81v-26.62H1640.94z M1640.86,448.29c0.77,0,1.37-0.11,1.79-0.34
		c0.42-0.22,0.74-0.53,0.94-0.92c0.2-0.39,0.32-0.85,0.35-1.4s0.06-1.16,0.06-1.83c0-0.62-0.02-1.21-0.06-1.78
		c-0.04-0.56-0.15-1.05-0.34-1.46c-0.19-0.41-0.48-0.73-0.88-0.97s-0.97-0.35-1.72-0.35h-1.98v9.05H1640.86z"/>
	<path class="st0" d="M1653.57,439.1c0.37-0.82,0.87-1.5,1.48-2.04c0.61-0.54,1.3-0.94,2.06-1.22c0.76-0.27,1.53-0.41,2.3-0.41
		s1.54,0.14,2.3,0.41c0.76,0.27,1.45,0.68,2.06,1.22c0.61,0.54,1.1,1.21,1.48,2.04c0.37,0.82,0.56,1.77,0.56,2.84v14.06
		c0,1.05-0.19,1.96-0.56,2.73l2.36,1.91l-1.94,2.32l-2.24-1.83c-0.57,0.47-1.2,0.82-1.89,1.05c-0.69,0.22-1.39,0.34-2.11,0.34
		c-0.77,0-1.54-0.14-2.3-0.41c-0.76-0.27-1.45-0.68-2.06-1.21s-1.1-1.21-1.48-2.02c-0.37-0.81-0.56-1.76-0.56-2.86v-14.06
		C1653.01,440.86,1653.2,439.92,1653.57,439.1z M1657.59,458.03c0.51,0.44,1.12,0.65,1.81,0.65c0.32,0,0.6-0.05,0.82-0.15
		l-1.72-1.38l1.94-2.32l1.53,1.23v-0.07v-14.06c0-0.92-0.25-1.6-0.77-2.04c-0.51-0.44-1.12-0.65-1.81-0.65
		c-0.7,0-1.3,0.22-1.81,0.65c-0.51,0.44-0.77,1.12-0.77,2.04v14.06C1656.82,456.92,1657.08,457.59,1657.59,458.03z"/>
	<path class="st0" d="M1678.1,435.66c4.49,0,6.73,2.6,6.73,7.81c0,1.55-0.24,2.87-0.73,3.98c-0.49,1.11-1.34,2-2.56,2.67l4.11,12.15
		h-4.04l-3.55-11.36h-2.28v11.36h-3.81v-26.62H1678.1z M1677.95,447.54c0.67,0,1.21-0.09,1.61-0.28c0.4-0.19,0.7-0.45,0.92-0.8
		c0.21-0.35,0.36-0.78,0.43-1.29c0.07-0.51,0.11-1.1,0.11-1.78s-0.04-1.26-0.11-1.78c-0.08-0.51-0.23-0.95-0.47-1.31
		c-0.24-0.36-0.57-0.63-0.99-0.8c-0.42-0.17-0.98-0.26-1.68-0.26h-1.98v8.3H1677.95z"/>
	<path class="st0" d="M1699.22,443.32v-0.86c0-0.87-0.21-1.63-0.62-2.26c-0.41-0.64-1.1-0.95-2.08-0.95c-0.52,0-0.95,0.1-1.29,0.3
		c-0.34,0.2-0.6,0.46-0.79,0.77c-0.19,0.31-0.32,0.67-0.39,1.08c-0.08,0.41-0.11,0.84-0.11,1.29c0,0.52,0.02,0.97,0.06,1.33
		c0.04,0.36,0.13,0.67,0.28,0.93c0.15,0.26,0.37,0.49,0.65,0.69c0.29,0.2,0.68,0.4,1.18,0.6l2.92,1.16c0.85,0.32,1.53,0.7,2.06,1.14
		s0.93,0.95,1.21,1.53c0.29,0.59,0.48,1.26,0.58,2.02s0.15,1.63,0.15,2.6c0,1.12-0.11,2.16-0.34,3.12c-0.22,0.96-0.59,1.78-1.1,2.47
		c-0.51,0.69-1.19,1.23-2.04,1.63c-0.85,0.4-1.88,0.6-3.1,0.6c-0.92,0-1.78-0.16-2.58-0.49c-0.8-0.32-1.48-0.77-2.06-1.33
		c-0.57-0.56-1.03-1.23-1.36-2c-0.34-0.77-0.5-1.61-0.5-2.5v-1.42h3.81v1.2c0,0.7,0.21,1.33,0.62,1.89c0.41,0.56,1.1,0.84,2.08,0.84
		c0.65,0,1.15-0.09,1.51-0.28s0.64-0.45,0.82-0.79c0.19-0.34,0.31-0.75,0.36-1.25s0.08-1.05,0.08-1.65c0-0.7-0.03-1.27-0.08-1.72
		c-0.05-0.45-0.16-0.81-0.32-1.08c-0.16-0.27-0.39-0.5-0.67-0.67c-0.29-0.17-0.67-0.36-1.14-0.56l-2.73-1.12
		c-1.64-0.67-2.75-1.56-3.31-2.67c-0.56-1.11-0.84-2.5-0.84-4.17c0-1,0.14-1.94,0.41-2.84c0.27-0.9,0.68-1.67,1.22-2.32
		c0.54-0.65,1.21-1.17,2.04-1.55s1.78-0.58,2.88-0.58c0.95,0,1.81,0.17,2.6,0.52s1.46,0.81,2.02,1.38s0.99,1.21,1.29,1.93
		c0.3,0.71,0.45,1.44,0.45,2.19v1.87H1699.22z"/>
	<path class="st0" d="M1706.77,439.25v-3.59h12.64v3.59H1715v23.03h-3.81v-23.03H1706.77z"/>
	<path class="st0" d="M1735.75,458.72c-0.32,0.75-0.77,1.4-1.33,1.96c-0.56,0.56-1.21,1-1.96,1.33c-0.75,0.32-1.54,0.49-2.39,0.49
		s-1.64-0.16-2.39-0.49c-0.75-0.32-1.4-0.77-1.96-1.33c-0.56-0.56-1-1.21-1.33-1.96c-0.32-0.75-0.49-1.56-0.49-2.43v-20.64h3.81
		v20.26c0,0.95,0.22,1.65,0.67,2.09c0.45,0.45,1.01,0.67,1.68,0.67s1.23-0.22,1.68-0.67c0.45-0.45,0.67-1.15,0.67-2.09v-20.26h3.81
		v20.64C1736.23,457.16,1736.07,457.97,1735.75,458.72z"/>
	<path class="st0" d="M1746.74,462.27l-5.42-26.62h4.04l3.03,18.58h0.07l3.07-18.58h4.04l-5.46,26.62H1746.74z"/>
	<path class="st0" d="M1772.87,462.27l-2.92-17.27h-0.08l-2.88,17.27h-3.59l-3.96-26.62h4.04l1.91,16.9h0.08l2.99-16.9h2.92
		l3.1,17.31h0.07l1.83-17.31h4.04l-3.96,26.62H1772.87z"/>
	<path class="st0" d="M1784.16,435.66h4.04l2.88,7.89l2.92-7.89h4.04l-5.08,12.67l5.5,13.94h-4.04l-3.33-8.97l-3.29,8.97h-4.04
		l5.38-13.94L1784.16,435.66z"/>
	<path class="st0" d="M1801.29,435.66h4.04l3.07,10.58h0.08l3.07-10.58h4.04l-5.23,15.36v11.25h-3.81v-11.25L1801.29,435.66z"/>
	<path class="st0" d="M1826.22,439.25h-6.8v-3.59h10.95v3.03l-7.33,20h7.33v3.59h-11.33v-3.36L1826.22,439.25z"/>
</g>
<g>
	<path class="st0" d="M1447.65,506c-0.5,0.7-1,1.23-1.51,1.61s-1.23,0.56-2.15,0.56c-0.45,0-0.91-0.07-1.38-0.21
		c-0.47-0.14-0.92-0.39-1.33-0.75c-0.41-0.36-0.75-0.87-1.01-1.53s-0.39-1.51-0.39-2.56c0-1.07,0.09-2.01,0.26-2.82
		s0.49-1.48,0.95-2.02c0.46-0.54,1.08-0.93,1.85-1.2s1.76-0.39,2.95-0.39c0.27,0,0.55,0.01,0.82,0.04c0.27,0.02,0.61,0.05,1.01,0.07
		v-1.98c0-0.65-0.14-1.18-0.41-1.61c-0.27-0.42-0.77-0.64-1.5-0.64c-0.5,0-0.95,0.16-1.37,0.49c-0.41,0.32-0.68,0.8-0.8,1.42h-3.7
		c0.12-1.72,0.7-3.09,1.72-4.11c0.5-0.5,1.1-0.89,1.79-1.18s1.48-0.43,2.36-0.43c0.8,0,1.54,0.13,2.24,0.37
		c0.7,0.25,1.3,0.62,1.81,1.12s0.92,1.12,1.21,1.87c0.3,0.75,0.45,1.62,0.45,2.62v13.2h-3.81V506H1447.65z M1446.68,499.68
		c-0.82,0-1.53,0.19-2.11,0.58c-0.58,0.39-0.88,1.09-0.88,2.11c0,0.72,0.17,1.31,0.52,1.76c0.35,0.45,0.83,0.67,1.46,0.67
		c0.65,0,1.15-0.21,1.51-0.64s0.54-1.02,0.54-1.79v-2.58C1447.3,499.72,1446.95,499.68,1446.68,499.68z"/>
	<path class="st0" d="M1460.96,481.32v9.38h0.08c0.42-0.62,0.93-1.1,1.51-1.44c0.59-0.34,1.25-0.5,2-0.5c0.92,0,1.64,0.16,2.15,0.49
		c0.51,0.32,0.93,0.73,1.25,1.23c0.25,0.4,0.41,0.92,0.49,1.57c0.07,0.65,0.11,1.66,0.11,3.03v7.22c0,1.05-0.05,1.88-0.15,2.5
		c-0.1,0.62-0.26,1.15-0.49,1.57c-0.65,1.2-1.76,1.79-3.33,1.79c-0.95,0-1.67-0.19-2.17-0.56c-0.5-0.37-0.98-0.83-1.46-1.38v1.72
		h-3.81v-26.62H1460.96z M1464.34,493.25c-0.26-0.45-0.75-0.67-1.48-0.67c-0.55,0-1,0.19-1.36,0.58c-0.36,0.39-0.54,0.88-0.54,1.48
		V502c0,0.7,0.17,1.26,0.52,1.7c0.35,0.44,0.81,0.65,1.38,0.65c0.65,0,1.12-0.24,1.42-0.71c0.3-0.47,0.45-1.1,0.45-1.87v-6.95
		C1464.73,494.22,1464.6,493.7,1464.34,493.25z"/>
	<path class="st0" d="M1479.03,503.87c0.34,0.32,0.79,0.49,1.36,0.49c0.72,0,1.2-0.21,1.44-0.64c0.24-0.42,0.38-0.85,0.43-1.27h3.81
		c0,0.8-0.13,1.55-0.39,2.24s-0.64,1.3-1.14,1.79c-0.5,0.52-1.1,0.93-1.79,1.23c-0.7,0.3-1.48,0.45-2.36,0.45
		c-1.17,0-2.18-0.25-3.03-0.75c-0.85-0.5-1.5-1.16-1.94-1.98c-0.27-0.5-0.46-1.07-0.56-1.72c-0.1-0.65-0.15-1.36-0.15-2.13v-6.24
		c0-0.77,0.05-1.48,0.15-2.13s0.29-1.22,0.56-1.72c0.45-0.82,1.1-1.48,1.94-1.98c0.85-0.5,1.86-0.75,3.03-0.75
		c0.87,0,1.66,0.15,2.37,0.45c0.71,0.3,1.31,0.72,1.79,1.25c0.49,0.54,0.86,1.18,1.12,1.93s0.39,1.56,0.39,2.43h-3.81
		c0-0.77-0.17-1.34-0.5-1.7c-0.34-0.36-0.79-0.54-1.37-0.54s-1.03,0.18-1.36,0.54s-0.5,0.9-0.5,1.63v7.74
		C1478.53,503.08,1478.7,503.54,1479.03,503.87z"/>
	<path class="st0" d="M1498.01,506.99c-0.22,0.24-0.47,0.44-0.75,0.62s-0.59,0.31-0.93,0.41s-0.76,0.15-1.23,0.15
		c-1.57,0-2.68-0.6-3.33-1.79c-0.22-0.42-0.39-0.95-0.49-1.57s-0.15-1.46-0.15-2.5v-7.22c0-1.37,0.04-2.38,0.11-3.03
		c0.07-0.65,0.24-1.17,0.49-1.57c0.32-0.5,0.74-0.91,1.25-1.23c0.51-0.32,1.23-0.49,2.15-0.49c0.75,0,1.41,0.17,2,0.5
		s1.09,0.82,1.51,1.44h0.08v-9.38h3.81v26.62h-3.81v-1.72L1498.01,506.99z M1495.39,503.64c0.3,0.47,0.77,0.71,1.42,0.71
		c0.57,0,1.03-0.22,1.38-0.65s0.52-1,0.52-1.7v-7.36c0-0.6-0.18-1.09-0.54-1.48c-0.36-0.39-0.82-0.58-1.36-0.58
		c-0.72,0-1.22,0.22-1.48,0.67s-0.39,0.97-0.39,1.57v6.95C1494.94,502.55,1495.09,503.17,1495.39,503.64z"/>
	<path class="st0" d="M1511.95,502.48c0,0.6,0.17,1.06,0.5,1.38c0.34,0.32,0.79,0.49,1.36,0.49c0.72,0,1.2-0.21,1.44-0.64
		c0.24-0.42,0.38-0.85,0.43-1.27h3.81c0,0.8-0.13,1.55-0.39,2.24s-0.64,1.3-1.14,1.79c-0.5,0.52-1.1,0.93-1.79,1.23
		c-0.7,0.3-1.48,0.45-2.36,0.45c-1.17,0-2.18-0.25-3.03-0.75c-0.85-0.5-1.5-1.16-1.94-1.98c-0.27-0.5-0.46-1.07-0.56-1.72
		c-0.1-0.65-0.15-1.36-0.15-2.13v-6.24c0-0.77,0.05-1.48,0.15-2.13s0.29-1.22,0.56-1.72c0.45-0.82,1.1-1.48,1.94-1.98
		c0.85-0.5,1.86-0.75,3.03-0.75c0.87,0,1.66,0.15,2.37,0.45c0.71,0.3,1.31,0.72,1.79,1.25c0.49,0.54,0.86,1.17,1.12,1.89
		c0.26,0.72,0.39,1.5,0.39,2.32v5.23h-7.55V502.48z M1515.69,496.91v-2.17c0-0.72-0.17-1.26-0.5-1.63
		c-0.34-0.36-0.79-0.54-1.36-0.54s-1.03,0.18-1.36,0.54c-0.34,0.36-0.5,0.9-0.5,1.63v2.17H1515.69z"/>
	<path class="st0" d="M1523.73,491.98v-2.99h1.87v-2.58c0-0.92,0.14-1.7,0.41-2.34c0.27-0.64,0.64-1.16,1.1-1.57s0.98-0.71,1.57-0.9
		c0.58-0.19,1.19-0.28,1.81-0.28h1.76v3.59h-1.72c-0.75,0-1.12,0.44-1.12,1.31v2.77h2.84v2.99h-2.84v15.96h-3.81v-15.96H1523.73z"/>
	<path class="st0" d="M1540.03,481.32v9.5h0.08c0.4-0.6,0.88-1.09,1.44-1.48s1.28-0.58,2.15-0.58c0.47,0,0.95,0.08,1.42,0.24
		s0.9,0.43,1.27,0.8c0.37,0.37,0.67,0.85,0.9,1.44c0.22,0.59,0.34,1.3,0.34,2.15v14.54h-3.81v-13.12c0-0.7-0.16-1.25-0.49-1.65
		c-0.32-0.4-0.79-0.6-1.38-0.6c-0.72,0-1.22,0.22-1.5,0.67c-0.27,0.45-0.41,1.1-0.41,1.94v12.75h-3.81v-26.62H1540.03z"/>
	<path class="st0" d="M1557.38,481.32v3.81h-3.81v-3.81H1557.38z M1557.38,488.99v18.95h-3.81v-18.95H1557.38z"/>
	<path class="st0" d="M1567.13,488.99v20.97c0,1.87-0.59,3.28-1.76,4.22c-1.17,0.95-2.65,1.42-4.45,1.42v-3.59
		c0.45,0,0.83-0.05,1.14-0.15s0.56-0.28,0.75-0.54s0.32-0.62,0.39-1.07s0.11-1.02,0.11-1.72v-19.55H1567.13z M1567.13,481.32v3.81
		h-3.81v-3.81H1567.13z"/>
	<path class="st0" d="M1576.89,481.32v15.93h0.07l4.6-8.26h3.81l-4.52,7.7l5.46,11.25h-4.15l-3.44-8.19l-1.83,2.88v5.31h-3.81
		v-26.62H1576.89z"/>
	<path class="st0" d="M1594.02,481.32v21.27c0,0.72,0.13,1.21,0.39,1.48s0.75,0.43,1.48,0.5v3.59c-0.87,0-1.66-0.07-2.37-0.21
		c-0.71-0.14-1.31-0.4-1.79-0.79c-0.49-0.39-0.86-0.93-1.12-1.63s-0.39-1.6-0.39-2.69v-21.53H1594.02z"/>
	<path class="st0" d="M1604,488.99v1.83h0.08c0.4-0.6,0.88-1.09,1.44-1.48s1.28-0.58,2.15-0.58c0.82,0,1.51,0.2,2.06,0.6
		c0.55,0.4,1,0.83,1.35,1.31c0.47-0.52,1-0.97,1.57-1.35s1.37-0.56,2.39-0.56c0.47,0,0.96,0.08,1.46,0.24
		c0.5,0.16,0.95,0.43,1.35,0.8c0.4,0.37,0.72,0.85,0.97,1.44c0.25,0.59,0.37,1.3,0.37,2.15v14.54h-3.81v-13.12
		c0-0.7-0.16-1.25-0.49-1.65c-0.32-0.4-0.79-0.6-1.38-0.6c-0.72,0-1.22,0.22-1.5,0.67c-0.27,0.45-0.41,1.1-0.41,1.94v12.75h-3.81
		v-13.12c0-0.7-0.16-1.25-0.49-1.65c-0.32-0.4-0.79-0.6-1.38-0.6c-0.72,0-1.22,0.22-1.5,0.67c-0.27,0.45-0.41,1.1-0.41,1.94v12.75
		h-3.81v-18.95H1604z"/>
	<path class="st0" d="M1628.93,488.99v1.83h0.08c0.4-0.6,0.88-1.09,1.44-1.48s1.28-0.58,2.15-0.58c0.47,0,0.95,0.08,1.42,0.24
		s0.9,0.43,1.27,0.8c0.37,0.37,0.67,0.85,0.9,1.44c0.22,0.59,0.34,1.3,0.34,2.15v14.54h-3.81v-13.12c0-0.7-0.16-1.25-0.49-1.65
		c-0.32-0.4-0.79-0.6-1.38-0.6c-0.72,0-1.22,0.22-1.5,0.67c-0.27,0.45-0.41,1.1-0.41,1.94v12.75h-3.81v-18.95H1628.93z"/>
	<path class="st0" d="M1642.28,493.21c0.1-0.65,0.29-1.22,0.56-1.72c0.45-0.82,1.1-1.48,1.94-1.98c0.85-0.5,1.86-0.75,3.03-0.75
		c1.17,0,2.18,0.25,3.03,0.75s1.5,1.16,1.94,1.98c0.27,0.5,0.46,1.07,0.56,1.72s0.15,1.36,0.15,2.13v6.24
		c0,0.77-0.05,1.48-0.15,2.13c-0.1,0.65-0.29,1.22-0.56,1.72c-0.45,0.82-1.1,1.48-1.94,1.98s-1.86,0.75-3.03,0.75
		c-1.17,0-2.18-0.25-3.03-0.75c-0.85-0.5-1.5-1.16-1.94-1.98c-0.27-0.5-0.46-1.07-0.56-1.72c-0.1-0.65-0.15-1.36-0.15-2.13v-6.24
		C1642.13,494.57,1642.18,493.86,1642.28,493.21z M1646.45,503.81c0.34,0.36,0.79,0.54,1.36,0.54s1.03-0.18,1.36-0.54
		c0.34-0.36,0.5-0.9,0.5-1.63v-7.44c0-0.72-0.17-1.26-0.5-1.63c-0.34-0.36-0.79-0.54-1.36-0.54s-1.03,0.18-1.36,0.54
		c-0.34,0.36-0.5,0.9-0.5,1.63v7.44C1645.94,502.91,1646.11,503.45,1646.45,503.81z"/>
	<path class="st0" d="M1662.92,488.99v1.72c0.47-0.55,0.96-1.01,1.46-1.38c0.5-0.37,1.22-0.56,2.17-0.56c1.57,0,2.68,0.6,3.33,1.79
		c0.22,0.42,0.39,0.95,0.49,1.57c0.1,0.62,0.15,1.46,0.15,2.5v7.21c0,1.37-0.04,2.38-0.11,3.03c-0.08,0.65-0.24,1.17-0.49,1.57
		c-0.32,0.5-0.74,0.91-1.25,1.23c-0.51,0.32-1.23,0.49-2.15,0.49c-0.75,0-1.42-0.17-2-0.5c-0.58-0.34-1.09-0.82-1.51-1.44h-0.08
		v9.38h-3.81v-26.62H1662.92z M1666.25,493.29c-0.3-0.47-0.77-0.71-1.42-0.71c-0.57,0-1.03,0.22-1.38,0.65
		c-0.35,0.44-0.52,1-0.52,1.7v7.36c0,0.6,0.18,1.09,0.54,1.48s0.82,0.58,1.36,0.58c0.72,0,1.21-0.22,1.48-0.67s0.39-0.97,0.39-1.57
		v-6.95C1666.69,494.38,1666.54,493.76,1666.25,493.29z"/>
	<path class="st0" d="M1683.97,506.22c-0.42,0.62-0.93,1.1-1.51,1.44s-1.25,0.5-2,0.5c-0.92,0-1.64-0.16-2.15-0.49
		c-0.51-0.32-0.93-0.74-1.25-1.23c-0.25-0.4-0.41-0.92-0.49-1.57c-0.08-0.65-0.11-1.66-0.11-3.03v-7.21c0-1.05,0.05-1.88,0.15-2.5
		s0.26-1.15,0.49-1.57c0.65-1.2,1.76-1.79,3.33-1.79c0.47,0,0.88,0.05,1.23,0.15s0.66,0.24,0.93,0.41s0.52,0.38,0.75,0.62l0.71,0.77
		v-1.72h3.81v26.62h-3.81v-9.38H1683.97z M1680.66,503.68c0.26,0.45,0.75,0.67,1.48,0.67c0.55,0,1-0.19,1.36-0.58
		s0.54-0.88,0.54-1.48v-7.36c0-0.7-0.17-1.26-0.52-1.7c-0.35-0.44-0.81-0.65-1.38-0.65c-0.65,0-1.12,0.24-1.42,0.71
		c-0.3,0.47-0.45,1.1-0.45,1.87v6.95C1680.27,502.71,1680.4,503.23,1680.66,503.68z"/>
	<path class="st0" d="M1697.61,488.99v2.02c0.77-0.7,1.53-1.25,2.28-1.65c0.75-0.4,1.67-0.6,2.77-0.6v4.04
		c-0.37-0.15-0.76-0.22-1.16-0.22c-0.4,0-0.83,0.07-1.29,0.21s-0.88,0.37-1.27,0.69c-0.39,0.32-0.7,0.75-0.95,1.27
		c-0.25,0.52-0.37,1.17-0.37,1.94v11.25h-3.81v-18.95H1697.61z"/>
	<path class="st0" d="M1713.3,492.84c-0.39-0.32-0.83-0.49-1.33-0.49c-0.6,0-1.06,0.19-1.38,0.58s-0.49,0.83-0.49,1.33
		c0,0.35,0.09,0.69,0.26,1.03s0.62,0.64,1.35,0.92l2.24,0.9c1.42,0.55,2.4,1.3,2.93,2.24c0.54,0.95,0.8,1.98,0.8,3.1
		c0,0.8-0.14,1.54-0.43,2.22c-0.29,0.69-0.68,1.29-1.18,1.81c-0.5,0.52-1.1,0.93-1.79,1.23c-0.7,0.3-1.46,0.45-2.28,0.45
		c-0.75,0-1.46-0.12-2.13-0.37c-0.67-0.25-1.26-0.61-1.78-1.08c-0.51-0.47-0.93-1.07-1.25-1.78c-0.32-0.71-0.5-1.54-0.52-2.49h3.59
		c0.07,0.52,0.25,1.01,0.54,1.46c0.29,0.45,0.79,0.67,1.51,0.67c0.55,0,1.04-0.18,1.48-0.54c0.44-0.36,0.65-0.87,0.65-1.51
		c0-0.52-0.14-0.97-0.41-1.35c-0.27-0.37-0.77-0.7-1.5-0.97l-1.83-0.67c-1.2-0.45-2.14-1.12-2.82-2s-1.03-1.96-1.03-3.23
		c0-0.8,0.15-1.54,0.45-2.22c0.3-0.69,0.7-1.27,1.21-1.76c0.51-0.49,1.1-0.87,1.78-1.14c0.67-0.27,1.4-0.41,2.17-0.41
		s1.49,0.14,2.15,0.43c0.66,0.29,1.23,0.67,1.7,1.16c0.47,0.49,0.85,1.07,1.12,1.76c0.27,0.69,0.41,1.41,0.41,2.19h-3.59
		C1713.89,493.65,1713.68,493.16,1713.3,492.84z"/>
	<path class="st0" d="M1726.77,483.23v5.76h2.36v2.99h-2.36v10.5c0,0.45,0.04,0.8,0.13,1.05c0.09,0.25,0.22,0.44,0.41,0.56
		c0.19,0.12,0.43,0.2,0.73,0.22s0.66,0.04,1.08,0.04v3.59h-1.57c-0.87,0-1.6-0.14-2.19-0.41c-0.59-0.27-1.05-0.62-1.4-1.05
		c-0.35-0.42-0.6-0.9-0.77-1.44c-0.16-0.54-0.24-1.05-0.24-1.55v-11.51h-1.91v-2.99h1.91v-5.76H1726.77z"/>
	<path class="st0" d="M1740.98,507.94v-1.83h-0.08c-0.4,0.6-0.88,1.09-1.44,1.48c-0.56,0.39-1.28,0.58-2.15,0.58
		c-0.47,0-0.95-0.08-1.42-0.24s-0.9-0.43-1.27-0.8c-0.37-0.37-0.67-0.85-0.9-1.44c-0.22-0.59-0.34-1.3-0.34-2.15v-14.54h3.81v13.12
		c0,0.7,0.16,1.25,0.49,1.65s0.79,0.6,1.38,0.6c0.72,0,1.22-0.22,1.5-0.67s0.41-1.1,0.41-1.94v-12.75h3.81v18.95H1740.98z"/>
	<path class="st0" d="M1754.07,507.94l-4.93-18.95h4.04l2.54,12.11h0.08l2.54-12.11h4.04l-4.93,18.95H1754.07z"/>
	<path class="st0" d="M1777.28,507.94l-2.09-11.25h-0.08l-2.09,11.25h-3.36l-4.49-18.95h4.04l2.32,11.78h0.08l2.13-11.78h2.99
		l2.02,11.78h0.08l2.28-11.78h4.04l-4.49,18.95H1777.28z"/>
	<path class="st0" d="M1787.79,488.99h4.04l2.36,5.38l2.35-5.38h4.04l-4.52,9.27l4.75,9.68h-4.04l-2.58-5.79l-2.58,5.79h-4.04
		l4.67-9.68L1787.79,488.99z"/>
	<path class="st0" d="M1809.81,500.8h0.07l2.58-11.81h3.92l-5.46,22.24c-0.2,0.85-0.48,1.55-0.84,2.11
		c-0.36,0.56-0.78,1.01-1.25,1.35c-0.47,0.34-0.98,0.57-1.51,0.71c-0.54,0.14-1.09,0.21-1.66,0.21h-1.05v-3.59h0.86
		c0.37,0,0.7-0.05,0.97-0.15c0.27-0.1,0.52-0.32,0.73-0.65s0.41-0.83,0.58-1.5c0.17-0.66,0.37-1.54,0.6-2.64l-5.2-18.09h4.04
		L1809.81,500.8z"/>
	<path class="st0" d="M1825.96,492.35h-5.68v-3.36h10.02v3.03l-6.17,12.34h6.17v3.59h-10.5v-3.03L1825.96,492.35z"/>
</g>
<g>
	<path class="st0" d="M1668.6,533.83v-4.04l3.81-2.8h3.81v26.62h-3.81v-22.58L1668.6,533.83z"/>
	<path class="st0" d="M1691.48,537.05c0.35-0.65,0.55-1.21,0.6-1.7s0.07-1.09,0.07-1.81c0-0.32-0.01-0.67-0.04-1.03
		c-0.02-0.36-0.09-0.68-0.21-0.95c-0.11-0.27-0.29-0.5-0.54-0.69c-0.25-0.19-0.61-0.28-1.08-0.28c-0.57,0-1.03,0.16-1.36,0.49
		c-0.34,0.32-0.5,0.8-0.5,1.42v2.17h-3.81v-2.09c0-0.8,0.15-1.54,0.45-2.24c0.3-0.7,0.7-1.31,1.21-1.83
		c0.51-0.52,1.12-0.94,1.81-1.25c0.7-0.31,1.45-0.47,2.24-0.47c1,0,1.85,0.18,2.56,0.54s1.3,0.85,1.76,1.48s0.8,1.33,1.01,2.13
		c0.21,0.8,0.32,1.64,0.32,2.54c0,0.65-0.01,1.19-0.04,1.63c-0.03,0.44-0.08,0.85-0.15,1.25c-0.08,0.4-0.2,0.8-0.37,1.2
		c-0.17,0.4-0.41,0.88-0.71,1.46l-5.61,10.8h6.88v3.81h-11.36v-3.59L1691.48,537.05z"/>
	<path class="st0" d="M1708.21,537.8c0.44-0.27,0.65-0.91,0.65-1.91v-3.44c0-0.55-0.17-1-0.5-1.35c-0.34-0.35-0.79-0.52-1.37-0.52
		c-0.67,0-1.15,0.21-1.44,0.64c-0.29,0.42-0.43,0.83-0.43,1.23v2.17h-3.81v-2.21c0-0.77,0.15-1.51,0.45-2.21
		c0.3-0.7,0.71-1.29,1.23-1.79c0.52-0.5,1.13-0.9,1.83-1.2c0.7-0.3,1.45-0.45,2.24-0.45c1.05,0,1.91,0.21,2.6,0.62
		c0.69,0.41,1.2,0.83,1.55,1.25c0.25,0.3,0.47,0.61,0.65,0.92c0.19,0.31,0.34,0.67,0.45,1.08c0.11,0.41,0.2,0.91,0.26,1.5
		c0.06,0.59,0.09,1.3,0.09,2.15c0,0.92-0.02,1.67-0.06,2.24c-0.04,0.57-0.14,1.05-0.3,1.44c-0.16,0.39-0.4,0.72-0.71,0.99
		c-0.31,0.27-0.74,0.57-1.29,0.9c0.6,0.37,1.05,0.72,1.37,1.05c0.31,0.32,0.54,0.7,0.69,1.14c0.15,0.44,0.24,0.96,0.26,1.57
		c0.02,0.61,0.04,1.39,0.04,2.34c0,0.87-0.02,1.59-0.06,2.17c-0.04,0.57-0.09,1.05-0.17,1.44c-0.07,0.39-0.17,0.72-0.3,0.99
		c-0.12,0.27-0.29,0.56-0.49,0.86c-0.47,0.7-1.08,1.28-1.83,1.74c-0.75,0.46-1.71,0.69-2.88,0.69c-0.6,0-1.23-0.1-1.91-0.3
		s-1.28-0.52-1.83-0.97c-0.55-0.45-1-1.03-1.36-1.76s-0.54-1.61-0.54-2.65v-2.17h3.81v1.98c0,0.6,0.17,1.09,0.5,1.48
		c0.34,0.39,0.79,0.58,1.36,0.58s1.03-0.19,1.37-0.58c0.34-0.39,0.5-0.9,0.5-1.55v-3.81c0-0.52-0.04-0.95-0.13-1.27
		c-0.09-0.32-0.24-0.58-0.47-0.77c-0.22-0.19-0.53-0.31-0.92-0.37s-0.89-0.09-1.51-0.09v-3.37
		C1706.98,538.21,1707.78,538.07,1708.21,537.8z"/>
	<path class="st0" d="M1717.09,549.65v-3.59l5.5-19.07h4.04l-5.72,19.07h3.78v-7.59h3.81v7.59h1.83v3.59h-1.83v3.96h-3.81v-3.96
		H1717.09z"/>
	<path class="st0" d="M1738.55,530.58v7.18c0.35-0.35,0.8-0.64,1.35-0.88c0.55-0.24,1.16-0.36,1.83-0.36c1.3,0,2.35,0.4,3.16,1.2
		c0.81,0.8,1.21,1.97,1.21,3.51v6.88c0,0.9-0.16,1.69-0.47,2.39s-0.73,1.3-1.25,1.79c-0.52,0.5-1.13,0.88-1.81,1.14
		c-0.68,0.26-1.4,0.39-2.15,0.39c-0.75,0-1.46-0.13-2.15-0.39s-1.29-0.64-1.81-1.14c-0.52-0.5-0.94-1.1-1.25-1.79
		s-0.47-1.5-0.47-2.39v-1.12h3.81v0.97c0,0.65,0.18,1.15,0.54,1.51s0.83,0.54,1.4,0.54s1.02-0.17,1.33-0.52
		c0.31-0.35,0.47-0.84,0.47-1.46v-6.24c0-0.52-0.17-0.97-0.5-1.35c-0.34-0.38-0.77-0.56-1.29-0.56c-0.32,0-0.6,0.05-0.82,0.17
		c-0.22,0.11-0.41,0.24-0.56,0.39c-0.15,0.15-0.27,0.31-0.35,0.49l-0.21,0.41h-3.36v-14.36h10.92v3.59H1738.55z"/>
	<path class="st0" d="M1757.17,538.25c0.12-0.1,0.32-0.18,0.58-0.24s0.6-0.09,1.03-0.09c0.67,0,1.3,0.16,1.87,0.49
		s1.02,0.74,1.35,1.23c0.17,0.27,0.31,0.55,0.41,0.82c0.1,0.27,0.18,0.63,0.24,1.08c0.06,0.45,0.11,1.02,0.13,1.7
		c0.02,0.69,0.04,1.55,0.04,2.6c0,0.87-0.01,1.59-0.04,2.15c-0.03,0.56-0.07,1.03-0.13,1.42s-0.15,0.72-0.26,0.99
		c-0.11,0.27-0.26,0.56-0.43,0.86c-0.5,0.82-1.17,1.46-2,1.91s-1.78,0.67-2.82,0.67s-1.98-0.23-2.8-0.69s-1.48-1.09-1.98-1.89
		c-0.2-0.3-0.35-0.59-0.47-0.86c-0.11-0.27-0.2-0.6-0.26-0.99s-0.11-0.86-0.13-1.42c-0.03-0.56-0.04-1.28-0.04-2.15
		c0-0.82,0.01-1.5,0.04-2.04c0.02-0.54,0.06-1,0.11-1.38c0.05-0.39,0.12-0.74,0.22-1.05c0.1-0.31,0.21-0.64,0.34-0.99l5.01-13.38
		h4.26l-4.34,11.18L1757.17,538.25z M1758.44,541.8c-0.37-0.35-0.81-0.52-1.31-0.52c-0.5,0-0.93,0.17-1.31,0.52
		c-0.37,0.35-0.56,0.81-0.56,1.38v4.93c0,0.57,0.19,1.03,0.56,1.38c0.37,0.35,0.81,0.52,1.31,0.52c0.5,0,0.93-0.17,1.31-0.52
		c0.37-0.35,0.56-0.81,0.56-1.38v-4.93C1759,542.61,1758.81,542.15,1758.44,541.8z"/>
	<path class="st0" d="M1771.53,530.58v3.07h-3.36v-6.65h11.36v3.81l-6.47,22.8h-4.04l6.69-23.03H1771.53z"/>
	<path class="st0" d="M1784.95,532.1c0.05-0.51,0.13-0.95,0.24-1.33c0.11-0.37,0.26-0.71,0.43-1.01c0.17-0.3,0.39-0.61,0.64-0.93
		c0.5-0.65,1.12-1.15,1.87-1.51s1.56-0.54,2.43-0.54c0.87,0,1.68,0.18,2.43,0.54c0.75,0.36,1.37,0.87,1.87,1.51
		c0.25,0.32,0.46,0.64,0.63,0.93c0.17,0.3,0.32,0.64,0.43,1.01c0.11,0.38,0.19,0.82,0.24,1.33c0.05,0.51,0.08,1.13,0.08,1.85
		c0,0.8-0.01,1.47-0.04,2.02c-0.03,0.55-0.1,1.03-0.22,1.46c-0.13,0.42-0.32,0.8-0.58,1.14c-0.26,0.34-0.62,0.69-1.07,1.07
		c0.45,0.35,0.8,0.7,1.07,1.05s0.45,0.76,0.58,1.23c0.13,0.47,0.2,1.05,0.22,1.74c0.02,0.69,0.04,1.53,0.04,2.52
		c0,0.82-0.02,1.5-0.06,2.04c-0.04,0.54-0.09,1-0.17,1.4c-0.07,0.4-0.18,0.74-0.32,1.01s-0.31,0.56-0.5,0.86
		c-0.42,0.65-1.02,1.2-1.79,1.66s-1.72,0.69-2.84,0.69c-1.12,0-2.07-0.23-2.84-0.69s-1.37-1.02-1.79-1.66
		c-0.2-0.3-0.37-0.59-0.5-0.86c-0.14-0.27-0.24-0.61-0.32-1.01c-0.07-0.4-0.13-0.87-0.17-1.4s-0.06-1.22-0.06-2.04
		c0-1,0.01-1.84,0.04-2.52c0.02-0.69,0.1-1.26,0.22-1.74c0.12-0.47,0.32-0.88,0.58-1.23s0.62-0.7,1.07-1.05
		c-0.45-0.38-0.8-0.73-1.07-1.07c-0.26-0.34-0.46-0.72-0.58-1.14c-0.13-0.42-0.2-0.91-0.22-1.46c-0.03-0.55-0.04-1.22-0.04-2.02
		C1784.87,533.22,1784.9,532.61,1784.95,532.1z M1791.86,531.12c-0.37-0.36-0.81-0.54-1.31-0.54c-0.5,0-0.93,0.18-1.31,0.54
		c-0.37,0.36-0.56,0.8-0.56,1.33v3.89c0,0.52,0.19,0.97,0.56,1.33c0.37,0.36,0.81,0.54,1.31,0.54c0.5,0,0.93-0.18,1.31-0.54
		s0.56-0.8,0.56-1.33v-3.89C1792.42,531.93,1792.24,531.48,1791.86,531.12z M1791.86,541.59c-0.37-0.36-0.81-0.54-1.31-0.54
		c-0.5,0-0.93,0.18-1.31,0.54c-0.37,0.36-0.56,0.8-0.56,1.33v5.23c0,0.52,0.19,0.96,0.56,1.33c0.37,0.36,0.81,0.54,1.31,0.54
		c0.5,0,0.93-0.18,1.31-0.54s0.56-0.8,0.56-1.33v-5.23C1792.42,542.39,1792.24,541.95,1791.86,541.59z"/>
	<path class="st0" d="M1807.23,542.36c-0.13,0.1-0.32,0.18-0.58,0.24c-0.26,0.06-0.6,0.09-1.03,0.09c-0.67,0-1.3-0.16-1.87-0.49
		c-0.57-0.32-1.02-0.73-1.35-1.23c-0.17-0.25-0.31-0.52-0.41-0.8c-0.1-0.29-0.18-0.65-0.24-1.1s-0.11-1.02-0.13-1.7
		c-0.03-0.69-0.04-1.55-0.04-2.6c0-0.87,0.01-1.59,0.04-2.15c0.02-0.56,0.07-1.04,0.13-1.42s0.15-0.72,0.26-0.99
		c0.11-0.27,0.25-0.56,0.43-0.86c0.5-0.82,1.17-1.46,2-1.91s1.78-0.67,2.82-0.67s1.98,0.23,2.8,0.69c0.82,0.46,1.48,1.09,1.98,1.89
		c0.17,0.3,0.32,0.59,0.45,0.86c0.12,0.27,0.22,0.61,0.28,0.99s0.11,0.86,0.13,1.42c0.02,0.56,0.04,1.28,0.04,2.15
		c0,0.82-0.01,1.5-0.04,2.04c-0.03,0.54-0.07,1-0.13,1.38c-0.06,0.39-0.14,0.73-0.22,1.05c-0.09,0.31-0.19,0.64-0.32,0.99
		l-5.01,13.38h-4.26l4.34-11.18L1807.23,542.36z M1805.96,538.81c0.37,0.35,0.81,0.52,1.31,0.52c0.5,0,0.93-0.17,1.31-0.52
		s0.56-0.81,0.56-1.38v-4.93c0-0.57-0.19-1.04-0.56-1.38s-0.81-0.52-1.31-0.52c-0.5,0-0.93,0.17-1.31,0.52
		c-0.37,0.35-0.56,0.81-0.56,1.38v4.93C1805.4,538,1805.58,538.46,1805.96,538.81z"/>
	<path class="st0" d="M1818.76,530.1c0.31-0.7,0.73-1.3,1.25-1.79c0.52-0.5,1.13-0.88,1.81-1.14s1.4-0.39,2.15-0.39
		c0.75,0,1.46,0.13,2.15,0.39c0.69,0.26,1.29,0.64,1.81,1.14c0.52,0.5,0.94,1.1,1.25,1.79c0.31,0.7,0.47,1.5,0.47,2.39v15.63
		c0,0.9-0.16,1.69-0.47,2.39s-0.73,1.3-1.25,1.79c-0.52,0.5-1.13,0.88-1.81,1.14c-0.68,0.26-1.4,0.39-2.15,0.39
		c-0.75,0-1.46-0.13-2.15-0.39s-1.29-0.64-1.81-1.14c-0.52-0.5-0.94-1.1-1.25-1.79s-0.47-1.5-0.47-2.39v-15.63
		C1818.3,531.59,1818.45,530.79,1818.76,530.1z M1822.63,549.48c0.35,0.36,0.8,0.54,1.35,0.54c0.55,0,1-0.18,1.35-0.54
		c0.35-0.36,0.52-0.82,0.52-1.36v-15.63c0-0.55-0.17-1-0.52-1.37c-0.35-0.36-0.8-0.54-1.35-0.54c-0.55,0-1,0.18-1.35,0.54
		s-0.52,0.82-0.52,1.37v15.63C1822.11,548.66,1822.28,549.12,1822.63,549.48z"/>
</g>
<g>
	<g>
		<path class="st0" d="M1412.7,311.68c3.07,0,5.41,0.85,7.03,2.56c1.62,1.71,2.43,4.1,2.43,7.16v17.61c0,3.52-0.85,6.12-2.56,7.8
			c-1.71,1.67-4.17,2.51-7.38,2.51h-7.51v-37.64H1412.7z M1412.59,344.25c1.52,0,2.59-0.38,3.22-1.14c0.63-0.76,0.95-1.95,0.95-3.57
			v-18.13c0-1.48-0.3-2.63-0.9-3.44c-0.6-0.81-1.69-1.22-3.28-1.22h-2.49v27.49H1412.59z"/>
		<path class="st0" d="M1436.75,311.68v37.64h-5.39v-37.64H1436.75z"/>
		<path class="st0" d="M1450.92,311.68l8.14,22.68h0.11v-22.68h5.39v37.64h-5.08l-8.25-22.63h-0.11v22.63h-5.39v-37.64H1450.92z"/>
		<path class="st0" d="M1503.66,344.25c-0.44,1.06-1.05,1.98-1.82,2.78s-1.68,1.43-2.72,1.9c-1.04,0.48-2.16,0.71-3.36,0.71
			c-1.02,0-2.06-0.14-3.12-0.42c-1.06-0.28-2.01-0.77-2.85-1.45c-0.85-0.69-1.54-1.6-2.09-2.72c-0.55-1.13-0.82-2.56-0.82-4.28
			v-20.73c0-1.23,0.21-2.38,0.63-3.44c0.42-1.06,1.02-1.97,1.8-2.75s1.7-1.38,2.78-1.82c1.08-0.44,2.26-0.66,3.57-0.66
			c1.23,0,2.38,0.22,3.44,0.66c1.06,0.44,1.97,1.06,2.75,1.85c0.78,0.79,1.38,1.75,1.82,2.86c0.44,1.11,0.66,2.32,0.66,3.62v2.11
			h-5.39v-1.8c0-1.06-0.3-1.97-0.9-2.75c-0.6-0.78-1.41-1.16-2.43-1.16c-1.34,0-2.23,0.41-2.67,1.24c-0.44,0.83-0.66,1.88-0.66,3.15
			v19.25c0,1.09,0.24,2.01,0.71,2.75s1.33,1.11,2.56,1.11c0.35,0,0.73-0.06,1.14-0.19s0.78-0.33,1.11-0.61
			c0.33-0.28,0.61-0.67,0.82-1.16c0.21-0.49,0.32-1.11,0.32-1.85v-1.85h5.39v2.33C1504.32,342.09,1504.1,343.2,1503.66,344.25z"/>
		<path class="st0" d="M1513.15,316.55c0.53-1.16,1.22-2.12,2.09-2.88c0.86-0.76,1.83-1.33,2.91-1.72s2.16-0.58,3.25-0.58
			s2.18,0.19,3.25,0.58c1.07,0.39,2.04,0.96,2.91,1.72c0.86,0.76,1.56,1.72,2.09,2.88c0.53,1.16,0.79,2.5,0.79,4.02v19.88
			c0,1.55-0.26,2.9-0.79,4.04c-0.53,1.15-1.22,2.1-2.09,2.85c-0.86,0.76-1.83,1.33-2.91,1.72c-1.08,0.39-2.16,0.58-3.25,0.58
			s-2.18-0.19-3.25-0.58s-2.04-0.96-2.91-1.72c-0.86-0.76-1.56-1.71-2.09-2.85s-0.79-2.49-0.79-4.04v-19.88
			C1512.35,319.05,1512.62,317.71,1513.15,316.55z M1518.83,343.33c0.72,0.62,1.58,0.93,2.56,0.93s1.84-0.31,2.56-0.93
			s1.08-1.58,1.08-2.88v-19.88c0-1.3-0.36-2.26-1.08-2.88c-0.72-0.62-1.58-0.93-2.56-0.93s-1.84,0.31-2.56,0.93
			c-0.72,0.62-1.08,1.58-1.08,2.88v19.88C1517.75,341.75,1518.11,342.71,1518.83,343.33z"/>
		<path class="st0" d="M1544.13,311.68l8.14,22.68h0.11v-22.68h5.39v37.64h-5.08l-8.25-22.63h-0.11v22.63h-5.39v-37.64H1544.13z"/>
		<path class="st0" d="M1574.58,311.68c3.07,0,5.41,0.85,7.03,2.56c1.62,1.71,2.43,4.1,2.43,7.16v17.61c0,3.52-0.85,6.12-2.56,7.8
			c-1.71,1.67-4.17,2.51-7.38,2.51h-7.51v-37.64H1574.58z M1574.47,344.25c1.52,0,2.59-0.38,3.22-1.14
			c0.63-0.76,0.95-1.95,0.95-3.57v-18.13c0-1.48-0.3-2.63-0.9-3.44c-0.6-0.81-1.69-1.22-3.28-1.22h-2.49v27.49H1574.47z"/>
		<path class="st0" d="M1609.16,311.68v5.08h-10.68v11.05h9.31v5.08h-9.31v11.05h10.68v5.39h-16.07v-37.64H1609.16z"/>
		<path class="st0" d="M1621.58,311.68l8.14,22.68h0.11v-22.68h5.39v37.64h-5.08l-8.25-22.63h-0.11v22.63h-5.39v-37.64H1621.58z"/>
		<path class="st0" d="M1656.1,322.52v-1.22c0-1.23-0.29-2.3-0.87-3.2c-0.58-0.9-1.56-1.35-2.93-1.35c-0.74,0-1.35,0.14-1.82,0.42
			s-0.85,0.64-1.11,1.08c-0.26,0.44-0.45,0.95-0.56,1.53c-0.11,0.58-0.16,1.19-0.16,1.82c0,0.74,0.03,1.37,0.08,1.88
			c0.05,0.51,0.19,0.95,0.4,1.32c0.21,0.37,0.52,0.7,0.93,0.98c0.41,0.28,0.96,0.56,1.67,0.85l4.12,1.64c1.2,0.46,2.17,1,2.91,1.61
			c0.74,0.62,1.31,1.34,1.72,2.17c0.41,0.83,0.68,1.78,0.82,2.85c0.14,1.08,0.21,2.3,0.21,3.67c0,1.59-0.16,3.06-0.48,4.41
			c-0.32,1.36-0.84,2.52-1.56,3.49s-1.68,1.74-2.88,2.3s-2.66,0.85-4.39,0.85c-1.3,0-2.52-0.23-3.65-0.69s-2.1-1.08-2.91-1.88
			s-1.45-1.74-1.93-2.83s-0.71-2.27-0.71-3.54v-2.01h5.39v1.69c0,0.99,0.29,1.88,0.87,2.67c0.58,0.79,1.56,1.19,2.93,1.19
			c0.92,0,1.63-0.13,2.14-0.4c0.51-0.26,0.9-0.63,1.16-1.11s0.43-1.07,0.5-1.77c0.07-0.71,0.11-1.48,0.11-2.33
			c0-0.99-0.04-1.8-0.11-2.43c-0.07-0.63-0.22-1.15-0.45-1.53c-0.23-0.39-0.55-0.71-0.95-0.95s-0.94-0.51-1.61-0.79l-3.86-1.59
			c-2.33-0.95-3.89-2.21-4.68-3.78c-0.79-1.57-1.19-3.53-1.19-5.9c0-1.41,0.19-2.75,0.58-4.02c0.39-1.27,0.96-2.36,1.72-3.28
			s1.72-1.65,2.88-2.19c1.16-0.55,2.52-0.82,4.07-0.82c1.34,0,2.56,0.25,3.67,0.74s2.06,1.15,2.86,1.96
			c0.79,0.81,1.4,1.72,1.82,2.72c0.42,1,0.63,2.04,0.63,3.09v2.64H1656.1z"/>
		<path class="st0" d="M1685.55,311.68v5.08h-10.68v11.05h9.31v5.08h-9.31v11.05h10.68v5.39h-16.07v-37.64H1685.55z"/>
		<path class="st0" d="M1700.99,311.68c3.07,0,5.41,0.85,7.03,2.56c1.62,1.71,2.43,4.1,2.43,7.16v17.61c0,3.52-0.85,6.12-2.56,7.8
			c-1.71,1.67-4.17,2.51-7.38,2.51H1693v-37.64H1700.99z M1700.88,344.25c1.52,0,2.59-0.38,3.22-1.14c0.63-0.76,0.95-1.95,0.95-3.57
			v-18.13c0-1.48-0.3-2.63-0.9-3.44c-0.6-0.81-1.69-1.22-3.28-1.22h-2.49v27.49H1700.88z"/>
		<path class="st0" d="M1741.17,311.68c1.73,0,3.2,0.26,4.41,0.79c1.22,0.53,2.21,1.23,2.99,2.11c0.78,0.88,1.33,1.89,1.67,3.04
			c0.33,1.15,0.5,2.34,0.5,3.57v1.38c0,1.02-0.08,1.89-0.24,2.59c-0.16,0.71-0.4,1.32-0.71,1.85c-0.32,0.53-0.71,1-1.16,1.4
			c-0.46,0.41-0.99,0.78-1.59,1.14c1.27,0.6,2.2,1.49,2.8,2.67c0.6,1.18,0.9,2.76,0.9,4.73v2.11c0,3.31-0.8,5.85-2.41,7.61
			c-1.6,1.76-4.17,2.64-7.69,2.64h-7.35v-37.64H1741.17z M1741.11,327.12c1.8,0,3-0.45,3.62-1.35c0.62-0.9,0.93-2.21,0.93-3.94
			c0-1.69-0.34-2.96-1.03-3.81c-0.69-0.85-1.93-1.27-3.73-1.27h-2.22v10.36H1741.11z M1741.01,343.94c1.09,0,1.95-0.16,2.56-0.48
			c0.62-0.32,1.08-0.76,1.4-1.32s0.51-1.23,0.58-2.01c0.07-0.78,0.11-1.62,0.11-2.54c0-0.95-0.05-1.78-0.16-2.49
			c-0.11-0.7-0.33-1.3-0.66-1.77c-0.33-0.48-0.8-0.84-1.4-1.08c-0.6-0.25-1.39-0.37-2.38-0.37h-2.38v12.05H1741.01z"/>
		<path class="st0" d="M1760.25,316.55c0.53-1.16,1.22-2.12,2.09-2.88c0.86-0.76,1.83-1.33,2.91-1.72s2.16-0.58,3.25-0.58
			s2.18,0.19,3.25,0.58c1.07,0.39,2.04,0.96,2.91,1.72c0.86,0.76,1.56,1.72,2.09,2.88c0.53,1.16,0.79,2.5,0.79,4.02v19.88
			c0,1.55-0.26,2.9-0.79,4.04c-0.53,1.15-1.22,2.1-2.09,2.85c-0.86,0.76-1.83,1.33-2.91,1.72c-1.08,0.39-2.16,0.58-3.25,0.58
			s-2.18-0.19-3.25-0.58s-2.04-0.96-2.91-1.72c-0.86-0.76-1.56-1.71-2.09-2.85s-0.79-2.49-0.79-4.04v-19.88
			C1759.46,319.05,1759.72,317.71,1760.25,316.55z M1765.93,343.33c0.72,0.62,1.58,0.93,2.56,0.93s1.84-0.31,2.56-0.93
			s1.08-1.58,1.08-2.88v-19.88c0-1.3-0.36-2.26-1.08-2.88c-0.72-0.62-1.58-0.93-2.56-0.93s-1.84,0.31-2.56,0.93
			c-0.72,0.62-1.08,1.58-1.08,2.88v19.88C1764.85,341.75,1765.21,342.71,1765.93,343.33z"/>
		<path class="st0" d="M1791.65,311.68v32.25h10.68v5.39h-16.07v-37.64H1791.65z"/>
		<path class="st0" d="M1817.77,311.68c3.07,0,5.41,0.85,7.03,2.56c1.62,1.71,2.43,4.1,2.43,7.16v17.61c0,3.52-0.85,6.12-2.56,7.8
			c-1.71,1.67-4.17,2.51-7.38,2.51h-7.51v-37.64H1817.77z M1817.67,344.25c1.52,0,2.59-0.38,3.22-1.14
			c0.63-0.76,0.95-1.95,0.95-3.57v-18.13c0-1.48-0.3-2.63-0.9-3.44c-0.6-0.81-1.69-1.22-3.28-1.22h-2.49v27.49H1817.67z"/>
	</g>
</g>
<path class="st1" d="M1138.99,370.49c241.27,0,482.55,0,723.82,0"/>
<g>
	<path class="st0" d="M70.75,312.03H67v12.88c0,1.05-0.86,1.92-1.94,1.92c-1.05,0-1.92-0.86-1.92-1.92v-12.88h-3.75
		c-0.92,0-1.67-0.76-1.67-1.73c0-0.89,0.76-1.65,1.67-1.65h11.37c0.89,0,1.65,0.76,1.65,1.7C72.4,311.27,71.64,312.03,70.75,312.03z
		"/>
	<path class="st0" d="M86.66,315.76L81.4,328.8c-0.92,2.27-2.57,3.16-4.48,3.16c-1.19,0-2.11-0.59-2.11-1.54
		c0-0.81,0.65-1.51,1.62-1.51c0.13,0,0.3,0,0.43-0.03c0.57-0.11,1.05-0.38,1.3-0.92l0.49-1.11l-4.46-11.13
		c-0.08-0.19-0.11-0.38-0.11-0.57c0-0.84,0.67-1.7,1.73-1.7c0.67,0,1.32,0.43,1.59,1.13l3.03,8.1l3.03-8.1
		c0.24-0.68,0.92-1.13,1.65-1.13c1.03,0,1.67,0.84,1.67,1.67C86.77,315.35,86.74,315.57,86.66,315.76z"/>
	<path class="st0" d="M97.87,326.99c-1.54,0-2.97-0.65-4.02-2v5.13c0,0.92-0.76,1.67-1.73,1.67c-0.95,0-1.7-0.76-1.7-1.67v-14.99
		c0-0.92,0.76-1.67,1.76-1.67c0.92,0,1.67,0.76,1.67,1.67v0.13c1-1.27,2.43-1.97,4.02-1.97c3.35,0,5.78,2.48,5.78,6.83
		C103.65,324.48,101.22,326.99,97.87,326.99z M96.79,316.35c-1.11,0-2.38,0.65-2.94,1.49v4.62c0.57,0.81,1.84,1.49,2.94,1.49
		c1.97,0,3.29-1.54,3.29-3.81C100.09,317.89,98.76,316.35,96.79,316.35z"/>
	<path class="st0" d="M113.57,326.99c-4.29,0-6.89-3.13-6.89-6.86c0-3.7,2.59-6.83,6.89-6.83c4.32,0,6.91,3.13,6.91,6.83
		C120.48,323.86,117.89,326.99,113.57,326.99z M113.57,316.35c-2.13,0-3.32,1.76-3.32,3.78c0,2.05,1.19,3.81,3.32,3.81
		s3.35-1.76,3.35-3.81C116.92,318.11,115.7,316.35,113.57,316.35z"/>
	<path class="st0" d="M129.72,331.96c-1.59,0-4.27-0.4-5.05-1.62c-0.14-0.22-0.22-0.49-0.22-0.76c0-0.84,0.68-1.43,1.43-1.43
		c0.24,0,0.49,0.05,0.73,0.19c0.92,0.57,1.94,0.81,3.11,0.81c1.65,0,3.59-0.73,3.59-3.29v-1.32c-1.03,1.3-2.43,2.05-4.02,2.05
		c-3.27,0-5.75-2.3-5.75-6.64c0-4.27,2.46-6.64,5.75-6.64c1.57,0,2.97,0.68,4.02,2v-0.13c0-0.95,0.76-1.7,1.75-1.7
		c0.95,0,1.7,0.76,1.7,1.7v10.61C136.77,330.75,132.93,331.96,129.72,331.96z M133.31,317.84c-0.57-0.86-1.81-1.49-2.94-1.49
		c-1.94,0-3.29,1.35-3.29,3.59s1.35,3.59,3.29,3.59c1.13,0,2.38-0.65,2.94-1.49V317.84z"/>
	<path class="st0" d="M147.63,316.67c-1.05,0.14-2.05,0.57-2.67,1.38v7.08c0,0.95-0.76,1.7-1.67,1.7h-0.05c-0.95,0-1.7-0.76-1.7-1.7
		v-9.99c0-0.92,0.76-1.67,1.76-1.67c0.92,0,1.67,0.76,1.67,1.67v0.27c0.65-0.86,1.51-1.89,2.81-1.89c1,0,1.51,0.62,1.51,1.4
		C149.28,315.95,148.58,316.54,147.63,316.67z"/>
	<path class="st0" d="M162.19,326.83h-0.27c-0.27,0-1.49-0.22-1.49-1.51c-0.89,1.05-2.43,1.67-4.13,1.67c-2.08,0-4.54-1.4-4.54-4.32
		c0-3.05,2.46-4.21,4.54-4.21c1.73,0,3.27,0.57,4.13,1.59v-1.76c0-1.32-1.13-2.19-2.86-2.19c-1.03,0-2.03,0.24-2.92,0.84
		c-0.19,0.11-0.41,0.19-0.62,0.19c-0.62,0-1.3-0.51-1.3-1.32c0-0.24,0.08-0.49,0.19-0.67c0.81-1.3,3.73-1.84,5.24-1.84
		c2.97,0,5.7,1.19,5.7,4.94v6.89C163.86,326.07,163.11,326.83,162.19,326.83z M160.43,321.91c-0.57-0.76-1.65-1.13-2.75-1.13
		c-1.35,0-2.46,0.7-2.46,1.97c0,1.22,1.11,1.92,2.46,1.92c1.11,0,2.19-0.38,2.75-1.13V321.91z"/>
	<path class="st0" d="M176.07,326.99c-1.54,0-2.97-0.65-4.02-2v5.13c0,0.92-0.76,1.67-1.73,1.67c-0.95,0-1.7-0.76-1.7-1.67v-14.99
		c0-0.92,0.76-1.67,1.76-1.67c0.92,0,1.67,0.76,1.67,1.67v0.13c1-1.27,2.43-1.97,4.02-1.97c3.35,0,5.78,2.48,5.78,6.83
		C181.85,324.48,179.42,326.99,176.07,326.99z M174.99,316.35c-1.11,0-2.38,0.65-2.94,1.49v4.62c0.57,0.81,1.84,1.49,2.94,1.49
		c1.97,0,3.29-1.54,3.29-3.81C178.29,317.89,176.96,316.35,174.99,316.35z"/>
	<path class="st0" d="M196.25,326.83c-0.95,0-1.7-0.76-1.7-1.7v-6.4c0-1.81-0.95-2.38-2.43-2.38c-1.32,0-2.38,0.76-2.97,1.54v7.24
		c0,0.95-0.76,1.7-1.73,1.7c-0.95,0-1.7-0.76-1.7-1.7v-14.96c0-0.92,0.76-1.67,1.76-1.67c0.92,0,1.67,0.76,1.67,1.67v5.16
		c0.84-1,2.46-2.03,4.59-2.03c2.86,0,4.24,1.57,4.24,4.11v7.72C197.98,326.07,197.22,326.83,196.25,326.83z"/>
	<path class="st0" d="M214.19,315.76l-5.27,13.04c-0.92,2.27-2.57,3.16-4.48,3.16c-1.19,0-2.11-0.59-2.11-1.54
		c0-0.81,0.65-1.51,1.62-1.51c0.13,0,0.3,0,0.43-0.03c0.57-0.11,1.05-0.38,1.3-0.92l0.49-1.11l-4.46-11.13
		c-0.08-0.19-0.11-0.38-0.11-0.57c0-0.84,0.67-1.7,1.73-1.7c0.67,0,1.32,0.43,1.59,1.13l3.02,8.1l3.02-8.1
		c0.24-0.68,0.92-1.13,1.65-1.13c1.03,0,1.67,0.84,1.67,1.67C214.29,315.35,214.27,315.57,214.19,315.76z"/>
</g>
<g>
	<path class="st0" d="M666.79,275.52l62.71,280.81h-40.23l-11.83-60.34h-54.82l-11.83,60.34h-40.23l62.71-280.81H666.79z
		 M649.43,356.37l-19.72,101.75h40.23l-19.72-101.75H649.43z"/>
	<path class="st0" d="M841.9,535.82c-5.26,7.36-10.58,13.01-15.97,16.96c-5.39,3.94-12.95,5.92-22.68,5.92
		c-4.73,0-9.6-0.72-14.59-2.17c-5-1.45-9.66-4.08-14-7.89c-4.34-3.81-7.89-9.2-10.65-16.17c-2.76-6.97-4.14-15.97-4.14-27.02
		c0-11.31,0.92-21.23,2.76-29.78c1.84-8.55,5.19-15.64,10.06-21.3c4.86-5.65,11.37-9.86,19.52-12.62s18.54-4.14,31.16-4.14
		c2.89,0,5.78,0.13,8.68,0.39c2.89,0.26,6.44,0.53,10.65,0.79v-20.9c0-6.84-1.45-12.49-4.34-16.96c-2.89-4.47-8.15-6.7-15.78-6.7
		c-5.26,0-10.06,1.71-14.4,5.13c-4.34,3.42-7.17,8.41-8.48,14.99h-39.04c1.31-18.14,7.36-32.6,18.14-43.38
		c5.26-5.26,11.57-9.4,18.93-12.42c7.36-3.02,15.64-4.54,24.85-4.54c8.41,0,16.3,1.31,23.66,3.94c7.36,2.63,13.74,6.57,19.13,11.83
		c5.39,5.26,9.66,11.83,12.82,19.72s4.73,17.09,4.73,27.61v139.22h-40.23v-20.51H841.9z M831.64,469.17
		c-8.68,0-16.1,2.04-22.28,6.11c-6.18,4.08-9.27,11.5-9.27,22.28c0,7.63,1.84,13.8,5.52,18.54c3.68,4.73,8.81,7.1,15.38,7.1
		c6.84,0,12.16-2.23,15.97-6.71c3.81-4.47,5.72-10.78,5.72-18.93v-27.21C838.22,469.56,834.54,469.17,831.64,469.17z"/>
</g>
<g>
	<path class="st0" d="M63.03,421.72h-3.21c-0.67,0-1.21-0.54-1.21-1.21v-10.04c0-0.67,0.54-1.22,1.21-1.22h3.21
		c3.89,0,6.45,2.65,6.45,6.24C69.48,419.11,66.92,421.72,63.03,421.72z M63.03,410.9h-2.58v9.18h2.58c2.88,0,4.56-2.06,4.56-4.58
		C67.59,412.94,65.98,410.9,63.03,410.9z"/>
	<path class="st0" d="M74.08,410.43c0,0.58-0.47,1.07-1.07,1.07c-0.58,0-1.07-0.49-1.07-1.07c0-0.6,0.49-1.08,1.07-1.08
		C73.61,409.35,74.08,409.84,74.08,410.43z M73.01,421.84c-0.45,0-0.82-0.37-0.82-0.82v-7.63c0-0.43,0.37-0.8,0.86-0.8
		c0.43,0,0.8,0.37,0.8,0.8v7.63C73.85,421.46,73.48,421.84,73.01,421.84z"/>
	<path class="st0" d="M83.93,421.84c-0.45,0-0.82-0.37-0.82-0.82v-5.08c0-1.5-0.77-1.98-1.93-1.98c-1.07,0-2.02,0.64-2.5,1.33v5.74
		c0,0.45-0.37,0.82-0.84,0.82c-0.45,0-0.82-0.37-0.82-0.82v-7.63c0-0.43,0.37-0.8,0.86-0.8c0.43,0,0.8,0.37,0.8,0.8v0.58
		c0.62-0.73,1.81-1.5,3.2-1.5c1.91,0,2.9,0.99,2.9,2.9v5.65C84.77,421.46,84.39,421.84,83.93,421.84z"/>
	<path class="st0" d="M101.31,410.9h-3.18v10.02c0,0.5-0.41,0.92-0.93,0.92c-0.5,0-0.92-0.41-0.92-0.92V410.9H93.1
		c-0.45,0-0.8-0.37-0.8-0.84c0-0.45,0.36-0.8,0.8-0.8h8.21c0.45,0,0.8,0.36,0.8,0.84C102.11,410.53,101.76,410.9,101.31,410.9z"/>
	<path class="st0" d="M110.99,413.69l-4.04,9.78c-0.58,1.36-1.57,1.93-2.79,1.93c-0.58,0-1.2-0.13-1.2-0.75
		c0-0.43,0.34-0.75,0.75-0.75c0.15,0,0.3,0.02,0.43,0c0.5,0,0.92-0.21,1.21-0.86l0.52-1.2l-3.35-8.15
		c-0.04-0.09-0.06-0.19-0.06-0.28c0-0.41,0.34-0.82,0.84-0.82c0.32,0,0.64,0.19,0.77,0.52l2.67,6.69l2.65-6.69
		c0.13-0.32,0.45-0.52,0.79-0.52c0.49,0,0.84,0.39,0.84,0.82C111.05,413.5,111.03,413.61,110.99,413.69z"/>
	<path class="st0" d="M117.85,421.95c-1.2,0-2.24-0.54-2.97-1.53v4.06c0,0.43-0.37,0.8-0.84,0.8c-0.45,0-0.82-0.37-0.82-0.8v-11.08
		c0-0.43,0.37-0.8,0.86-0.8c0.43,0,0.8,0.37,0.8,0.8v0.6c0.65-0.9,1.74-1.51,2.97-1.51c2.36,0,4.02,1.78,4.02,4.73
		C121.87,420.13,120.21,421.95,117.85,421.95z M117.38,413.95c-1.01,0-2.06,0.6-2.5,1.33v3.85c0.45,0.73,1.5,1.35,2.5,1.35
		c1.7,0,2.73-1.38,2.73-3.27S119.09,413.95,117.38,413.95z"/>
	<path class="st0" d="M131.91,417.74h-6.28c0.13,1.55,1.25,2.86,3.08,2.86c0.77,0,1.59-0.26,2.24-0.75
		c0.11-0.06,0.24-0.09,0.37-0.09c0.3,0,0.67,0.26,0.67,0.67c0,1.01-2.32,1.51-3.46,1.51c-2.69,0-4.65-1.91-4.65-4.75
		c0-2.62,1.89-4.73,4.5-4.73c2.19,0,3.68,1.36,4.21,3.38c0.07,0.3,0.17,0.69,0.17,1.05C132.77,417.35,132.38,417.74,131.91,417.74z
		 M128.38,413.82c-1.79,0-2.67,1.5-2.75,2.75h5.53C131.13,415.35,130.3,413.82,128.38,413.82z"/>
	<path class="st0" d="M148.34,410.9h-5.79v3.65h5.66c0.45,0,0.8,0.35,0.8,0.84c0,0.43-0.36,0.8-0.8,0.8h-5.66v4.73
		c0,0.5-0.41,0.92-0.93,0.92c-0.5,0-0.92-0.41-0.92-0.92v-10.45c0-0.67,0.54-1.22,1.21-1.22h6.43c0.45,0,0.8,0.36,0.8,0.84
		C149.15,410.53,148.79,410.9,148.34,410.9z"/>
	<path class="st0" d="M155.5,421.95c-2.8,0-4.54-2.15-4.54-4.75s1.74-4.73,4.54-4.73c2.82,0,4.56,2.13,4.56,4.73
		S158.32,421.95,155.5,421.95z M155.5,413.95c-1.79,0-2.82,1.53-2.82,3.25c0,1.74,1.03,3.27,2.82,3.27c1.81,0,2.82-1.53,2.82-3.27
		C158.32,415.48,157.32,413.95,155.5,413.95z"/>
	<path class="st0" d="M169.6,421.84c-0.45,0-0.82-0.37-0.82-0.82v-5.08c0-1.5-0.77-1.98-1.93-1.98c-1.07,0-2.02,0.64-2.5,1.33v5.74
		c0,0.45-0.37,0.82-0.84,0.82c-0.45,0-0.82-0.37-0.82-0.82v-7.63c0-0.43,0.37-0.8,0.86-0.8c0.43,0,0.8,0.37,0.8,0.8v0.58
		c0.62-0.73,1.81-1.5,3.2-1.5c1.91,0,2.9,0.99,2.9,2.9v5.65C170.44,421.46,170.06,421.84,169.6,421.84z"/>
	<path class="st0" d="M176.08,421.95c-1.42,0-2.17-0.78-2.17-2.21v-5.59h-0.88c-0.41,0-0.73-0.32-0.73-0.75
		c0-0.39,0.32-0.71,0.73-0.71h0.88v-1.78c0-0.43,0.37-0.8,0.86-0.8c0.45,0,0.82,0.37,0.82,0.8v1.78h1.23c0.39,0,0.71,0.32,0.71,0.75
		c0,0.39-0.32,0.71-0.71,0.71h-1.23v5.2c0,0.69,0.34,1.12,0.88,1.12c0.21,0,0.43-0.09,0.62-0.09c0.41,0,0.71,0.3,0.71,0.69
		C177.8,421.67,177.07,421.95,176.08,421.95z"/>
	<path class="st0" d="M186.94,410.43c0,0.58-0.47,1.07-1.07,1.07c-0.58,0-1.07-0.49-1.07-1.07c0-0.6,0.49-1.08,1.07-1.08
		C186.48,409.35,186.94,409.84,186.94,410.43z M185.88,421.84c-0.45,0-0.82-0.37-0.82-0.82v-7.63c0-0.43,0.37-0.8,0.86-0.8
		c0.43,0,0.8,0.37,0.8,0.8v7.63C186.72,421.46,186.34,421.84,185.88,421.84z"/>
	<path class="st0" d="M192.83,421.95c-1.23,0-2.6-0.35-3.42-1.18c-0.13-0.11-0.21-0.26-0.21-0.45c0-0.39,0.34-0.69,0.73-0.69
		c0.17,0,0.3,0.04,0.43,0.13c0.67,0.49,1.61,0.86,2.54,0.86c1.29,0,1.96-0.58,1.96-1.4c0-2-5.51-0.69-5.51-4.09
		c0-1.42,1.23-2.65,3.44-2.65c1.29,0,2.43,0.39,3.14,1.08c0.11,0.11,0.17,0.26,0.17,0.41c0,0.37-0.32,0.65-0.65,0.65
		c-0.15,0-0.28-0.04-0.39-0.13c-0.58-0.41-1.38-0.69-2.24-0.69c-1.14,0-1.85,0.54-1.85,1.27c0,1.81,5.53,0.56,5.53,4.11
		C196.49,420.71,195.22,421.95,192.83,421.95z"/>
	<path class="st0" d="M206.85,421.95c-1.42,0-2.17-0.78-2.17-2.21v-5.59h-0.88c-0.41,0-0.73-0.32-0.73-0.75
		c0-0.39,0.32-0.71,0.73-0.71h0.88v-1.78c0-0.43,0.37-0.8,0.86-0.8c0.45,0,0.82,0.37,0.82,0.8v1.78h1.23c0.39,0,0.71,0.32,0.71,0.75
		c0,0.39-0.32,0.71-0.71,0.71h-1.23v5.2c0,0.69,0.34,1.12,0.88,1.12c0.21,0,0.43-0.09,0.62-0.09c0.41,0,0.71,0.3,0.71,0.69
		C208.57,421.67,207.84,421.95,206.85,421.95z"/>
	<path class="st0" d="M217.49,421.84c-0.45,0-0.82-0.37-0.82-0.82v-5.12c0-1.5-0.79-1.94-1.94-1.94c-1.05,0-2,0.64-2.5,1.33v5.74
		c0,0.45-0.37,0.82-0.84,0.82c-0.45,0-0.82-0.37-0.82-0.82v-11.07c0-0.43,0.37-0.8,0.86-0.8c0.43,0,0.8,0.37,0.8,0.8v4.02
		c0.62-0.73,1.81-1.5,3.21-1.5c1.91,0,2.9,0.95,2.9,2.86v5.68C218.33,421.46,217.95,421.84,217.49,421.84z"/>
	<path class="st0" d="M228.96,417.74h-6.28c0.13,1.55,1.25,2.86,3.08,2.86c0.77,0,1.59-0.26,2.24-0.75
		c0.11-0.06,0.24-0.09,0.37-0.09c0.3,0,0.67,0.26,0.67,0.67c0,1.01-2.32,1.51-3.46,1.51c-2.69,0-4.65-1.91-4.65-4.75
		c0-2.62,1.89-4.73,4.5-4.73c2.19,0,3.68,1.36,4.21,3.38c0.07,0.3,0.17,0.69,0.17,1.05C229.82,417.35,229.43,417.74,228.96,417.74z
		 M225.43,413.82c-1.79,0-2.67,1.5-2.75,2.75h5.53C228.18,415.35,227.36,413.82,225.43,413.82z"/>
	<path class="st0" d="M242.33,421.95c-1.2,0-2.24-0.54-2.97-1.53v4.06c0,0.43-0.37,0.8-0.84,0.8c-0.45,0-0.82-0.37-0.82-0.8v-11.08
		c0-0.43,0.37-0.8,0.86-0.8c0.43,0,0.8,0.37,0.8,0.8v0.6c0.65-0.9,1.74-1.51,2.97-1.51c2.36,0,4.02,1.78,4.02,4.73
		C246.35,420.13,244.69,421.95,242.33,421.95z M241.86,413.95c-1.01,0-2.06,0.6-2.5,1.33v3.85c0.45,0.73,1.5,1.35,2.5,1.35
		c1.7,0,2.73-1.38,2.73-3.27S243.56,413.95,241.86,413.95z"/>
	<path class="st0" d="M252.82,414.19c-0.86,0.07-1.7,0.45-2.24,1.25v5.57c0,0.45-0.37,0.82-0.84,0.82h-0.02
		c-0.45-0.02-0.8-0.37-0.8-0.82v-7.63c0-0.43,0.37-0.8,0.86-0.8c0.43,0,0.8,0.37,0.8,0.8v0.71c0.5-0.69,1.33-1.53,2.34-1.53
		c0.43,0,0.75,0.32,0.75,0.75C253.66,413.8,253.28,414.15,252.82,414.19z"/>
	<path class="st0" d="M257.58,410.43c0,0.58-0.47,1.07-1.07,1.07c-0.58,0-1.07-0.49-1.07-1.07c0-0.6,0.49-1.08,1.07-1.08
		C257.12,409.35,257.58,409.84,257.58,410.43z M256.52,421.84c-0.45,0-0.82-0.37-0.82-0.82v-7.63c0-0.43,0.37-0.8,0.86-0.8
		c0.43,0,0.8,0.37,0.8,0.8v7.63C257.36,421.46,256.99,421.84,256.52,421.84z"/>
	<path class="st0" d="M272.31,421.84c-0.45,0-0.82-0.37-0.82-0.82v-5.31c0-1.07-0.47-1.76-1.57-1.76c-0.92,0-1.83,0.65-2.26,1.31
		v5.76c0,0.45-0.37,0.82-0.84,0.82c-0.45,0-0.82-0.37-0.82-0.82v-5.31c0-1.07-0.45-1.76-1.59-1.76c-0.88,0-1.78,0.65-2.22,1.33v5.74
		c0,0.45-0.37,0.82-0.84,0.82c-0.45,0-0.82-0.37-0.82-0.82v-7.63c0-0.43,0.37-0.8,0.86-0.8c0.43,0,0.8,0.37,0.8,0.8v0.58
		c0.37-0.56,1.57-1.5,2.92-1.5c1.38,0,2.17,0.71,2.45,1.66c0.52-0.82,1.72-1.66,3.05-1.66c1.66,0,2.56,0.9,2.56,2.73v5.81
		C273.15,421.46,272.78,421.84,272.31,421.84z"/>
	<path class="st0" d="M282.73,421.84h-0.06c-0.34,0-0.77-0.28-0.77-0.82v-0.3c-0.73,0.8-1.76,1.23-2.97,1.23
		c-1.5,0-3.14-1.01-3.14-2.99c0-2.04,1.65-2.95,3.14-2.95c1.23,0,2.26,0.39,2.97,1.2v-1.51c0-1.14-0.93-1.81-2.21-1.81
		c-0.84,0-1.59,0.26-2.26,0.79c-0.13,0.09-0.28,0.15-0.41,0.15c-0.34,0-0.69-0.26-0.69-0.65c0-0.15,0.06-0.3,0.17-0.43
		c0.86-0.86,2.22-1.25,3.44-1.25c1.94,0,3.63,0.84,3.63,3.14v5.4C283.57,421.46,283.19,421.84,282.73,421.84z M281.9,418.21
		c-0.5-0.69-1.4-1.05-2.34-1.05c-1.22,0-2.09,0.75-2.09,1.83c0,1.05,0.88,1.78,2.09,1.78c0.93,0,1.83-0.34,2.34-1.03V418.21z"/>
	<path class="st0" d="M290.61,414.19c-0.86,0.07-1.7,0.45-2.24,1.25v5.57c0,0.45-0.37,0.82-0.84,0.82h-0.02
		c-0.45-0.02-0.8-0.37-0.8-0.82v-7.63c0-0.43,0.37-0.8,0.86-0.8c0.43,0,0.8,0.37,0.8,0.8v0.71c0.5-0.69,1.33-1.53,2.34-1.53
		c0.43,0,0.75,0.32,0.75,0.75C291.46,413.8,291.08,414.15,290.61,414.19z"/>
	<path class="st0" d="M301.01,413.69l-4.04,9.78c-0.58,1.36-1.57,1.93-2.79,1.93c-0.58,0-1.2-0.13-1.2-0.75
		c0-0.43,0.34-0.75,0.75-0.75c0.15,0,0.3,0.02,0.43,0c0.5,0,0.92-0.21,1.21-0.86l0.52-1.2l-3.35-8.15
		c-0.04-0.09-0.06-0.19-0.06-0.28c0-0.41,0.34-0.82,0.84-0.82c0.32,0,0.64,0.19,0.77,0.52l2.67,6.69l2.65-6.69
		c0.13-0.32,0.45-0.52,0.79-0.52c0.49,0,0.84,0.39,0.84,0.82C301.06,413.5,301.04,413.61,301.01,413.69z"/>
	<path class="st0" d="M312.91,410.64c-0.3,0-0.58-0.22-0.97-0.22c-0.86,0-1.35,0.58-1.35,1.65v0.64h1.23c0.39,0,0.71,0.32,0.71,0.75
		c0,0.39-0.32,0.71-0.71,0.71h-1.23v6.86c0,0.45-0.37,0.82-0.84,0.82c-0.45,0-0.82-0.37-0.82-0.82v-6.86h-0.9
		c-0.39,0-0.71-0.32-0.71-0.75c0-0.39,0.32-0.71,0.71-0.71h0.9v-0.64c0-1.87,1.07-2.99,2.73-2.99c0.8,0,1.89,0.28,1.89,0.92
		C313.55,410.4,313.23,410.64,312.91,410.64z"/>
	<path class="st0" d="M318.49,421.95c-2.8,0-4.54-2.15-4.54-4.75s1.74-4.73,4.54-4.73c2.82,0,4.56,2.13,4.56,4.73
		S321.31,421.95,318.49,421.95z M318.49,413.95c-1.79,0-2.82,1.53-2.82,3.25c0,1.74,1.03,3.27,2.82,3.27c1.81,0,2.82-1.53,2.82-3.27
		C321.31,415.48,320.3,413.95,318.49,413.95z"/>
	<path class="st0" d="M332.58,421.84c-0.45,0-0.82-0.37-0.82-0.82v-5.08c0-1.5-0.77-1.98-1.93-1.98c-1.07,0-2.02,0.64-2.5,1.33v5.74
		c0,0.45-0.37,0.82-0.84,0.82c-0.45,0-0.82-0.37-0.82-0.82v-7.63c0-0.43,0.37-0.8,0.86-0.8c0.43,0,0.8,0.37,0.8,0.8v0.58
		c0.62-0.73,1.81-1.5,3.2-1.5c1.91,0,2.9,0.99,2.9,2.9v5.65C333.42,421.46,333.05,421.84,332.58,421.84z"/>
	<path class="st0" d="M339.07,421.95c-1.42,0-2.17-0.78-2.17-2.21v-5.59h-0.88c-0.41,0-0.73-0.32-0.73-0.75
		c0-0.39,0.32-0.71,0.73-0.71h0.88v-1.78c0-0.43,0.37-0.8,0.86-0.8c0.45,0,0.82,0.37,0.82,0.8v1.78h1.23c0.39,0,0.71,0.32,0.71,0.75
		c0,0.39-0.32,0.71-0.71,0.71h-1.23v5.2c0,0.69,0.34,1.12,0.88,1.12c0.21,0,0.43-0.09,0.62-0.09c0.41,0,0.71,0.3,0.71,0.69
		C340.79,421.67,340.06,421.95,339.07,421.95z"/>
	<path class="st0" d="M61.03,444.38c-1.42,0-2.17-0.78-2.17-2.21v-5.59h-0.88c-0.41,0-0.73-0.32-0.73-0.75
		c0-0.39,0.32-0.71,0.73-0.71h0.88v-1.78c0-0.43,0.37-0.8,0.86-0.8c0.45,0,0.82,0.37,0.82,0.8v1.78h1.23c0.39,0,0.71,0.32,0.71,0.75
		c0,0.39-0.32,0.71-0.71,0.71h-1.23v5.2c0,0.69,0.34,1.12,0.88,1.12c0.21,0,0.43-0.09,0.62-0.09c0.41,0,0.71,0.3,0.71,0.69
		C62.75,444.1,62.02,444.38,61.03,444.38z"/>
	<path class="st0" d="M71.66,444.27c-0.45,0-0.82-0.37-0.82-0.82v-5.12c0-1.5-0.79-1.94-1.94-1.94c-1.05,0-2,0.64-2.5,1.33v5.74
		c0,0.45-0.37,0.82-0.84,0.82c-0.45,0-0.82-0.37-0.82-0.82v-11.07c0-0.43,0.37-0.8,0.86-0.8c0.43,0,0.8,0.37,0.8,0.8v4.02
		c0.62-0.73,1.81-1.5,3.21-1.5c1.91,0,2.9,0.95,2.9,2.86v5.68C72.5,443.89,72.13,444.27,71.66,444.27z"/>
	<path class="st0" d="M82.08,444.27h-0.06c-0.34,0-0.77-0.28-0.77-0.82v-0.3c-0.73,0.8-1.76,1.23-2.97,1.23
		c-1.5,0-3.14-1.01-3.14-2.99c0-2.04,1.65-2.95,3.14-2.95c1.23,0,2.26,0.39,2.97,1.2v-1.51c0-1.14-0.93-1.81-2.21-1.81
		c-0.84,0-1.59,0.26-2.26,0.79c-0.13,0.09-0.28,0.15-0.41,0.15c-0.34,0-0.69-0.26-0.69-0.65c0-0.15,0.06-0.3,0.17-0.43
		c0.86-0.86,2.22-1.25,3.44-1.25c1.94,0,3.63,0.84,3.63,3.14v5.4C82.92,443.89,82.54,444.27,82.08,444.27z M81.25,440.64
		c-0.5-0.69-1.4-1.05-2.34-1.05c-1.22,0-2.09,0.75-2.09,1.83c0,1.05,0.88,1.78,2.09,1.78c0.93,0,1.83-0.34,2.34-1.03V440.64z"/>
	<path class="st0" d="M88.54,444.38c-1.42,0-2.17-0.78-2.17-2.21v-5.59H85.5c-0.41,0-0.73-0.32-0.73-0.75
		c0-0.39,0.32-0.71,0.73-0.71h0.88v-1.78c0-0.43,0.37-0.8,0.86-0.8c0.45,0,0.82,0.37,0.82,0.8v1.78h1.23c0.39,0,0.71,0.32,0.71,0.75
		c0,0.39-0.32,0.71-0.71,0.71h-1.23v5.2c0,0.69,0.34,1.12,0.88,1.12c0.21,0,0.43-0.09,0.62-0.09c0.41,0,0.71,0.3,0.71,0.69
		C90.26,444.1,89.53,444.38,88.54,444.38z"/>
	<path class="st0" d="M99.4,432.87c0,0.58-0.47,1.07-1.07,1.07c-0.58,0-1.07-0.49-1.07-1.07c0-0.6,0.49-1.08,1.07-1.08
		C98.94,431.78,99.4,432.27,99.4,432.87z M98.34,444.27c-0.45,0-0.82-0.37-0.82-0.82v-7.63c0-0.43,0.37-0.8,0.86-0.8
		c0.43,0,0.8,0.37,0.8,0.8v7.63C99.18,443.89,98.81,444.27,98.34,444.27z"/>
	<path class="st0" d="M105.29,444.38c-1.23,0-2.6-0.35-3.42-1.18c-0.13-0.11-0.21-0.26-0.21-0.45c0-0.39,0.34-0.69,0.73-0.69
		c0.17,0,0.3,0.04,0.43,0.13c0.67,0.49,1.61,0.86,2.54,0.86c1.29,0,1.96-0.58,1.96-1.4c0-2-5.51-0.69-5.51-4.09
		c0-1.42,1.23-2.65,3.44-2.65c1.29,0,2.43,0.39,3.14,1.08c0.11,0.11,0.17,0.26,0.17,0.41c0,0.37-0.32,0.65-0.65,0.65
		c-0.15,0-0.28-0.04-0.39-0.13c-0.58-0.41-1.38-0.69-2.24-0.69c-1.14,0-1.85,0.54-1.85,1.27c0,1.81,5.53,0.56,5.53,4.11
		C108.96,443.15,107.68,444.38,105.29,444.38z"/>
	<path class="st0" d="M123.24,444.27h-0.06c-0.34,0-0.77-0.28-0.77-0.82v-0.3c-0.73,0.8-1.76,1.23-2.97,1.23
		c-1.5,0-3.14-1.01-3.14-2.99c0-2.04,1.65-2.95,3.14-2.95c1.23,0,2.26,0.39,2.97,1.2v-1.51c0-1.14-0.93-1.81-2.21-1.81
		c-0.84,0-1.59,0.26-2.26,0.79c-0.13,0.09-0.28,0.15-0.41,0.15c-0.34,0-0.69-0.26-0.69-0.65c0-0.15,0.06-0.3,0.17-0.43
		c0.86-0.86,2.22-1.25,3.44-1.25c1.94,0,3.63,0.84,3.63,3.14v5.4C124.08,443.89,123.7,444.27,123.24,444.27z M122.41,440.64
		c-0.5-0.69-1.4-1.05-2.34-1.05c-1.22,0-2.09,0.75-2.09,1.83c0,1.05,0.88,1.78,2.09,1.78c0.93,0,1.83-0.34,2.34-1.03V440.64z"/>
	<path class="st0" d="M131.85,444.38c-1.2,0-2.24-0.54-2.97-1.53v4.06c0,0.43-0.37,0.8-0.84,0.8c-0.45,0-0.82-0.37-0.82-0.8v-11.08
		c0-0.43,0.37-0.8,0.86-0.8c0.43,0,0.8,0.37,0.8,0.8v0.6c0.65-0.9,1.74-1.51,2.97-1.51c2.36,0,4.02,1.78,4.02,4.73
		C135.87,442.57,134.21,444.38,131.85,444.38z M131.39,436.38c-1.01,0-2.06,0.6-2.5,1.33v3.85c0.45,0.73,1.5,1.35,2.5,1.35
		c1.7,0,2.73-1.38,2.73-3.27S133.09,436.38,131.39,436.38z"/>
	<path class="st0" d="M143.07,444.38c-1.2,0-2.24-0.54-2.97-1.53v4.06c0,0.43-0.37,0.8-0.84,0.8c-0.45,0-0.82-0.37-0.82-0.8v-11.08
		c0-0.43,0.37-0.8,0.86-0.8c0.43,0,0.8,0.37,0.8,0.8v0.6c0.65-0.9,1.74-1.51,2.97-1.51c2.36,0,4.02,1.78,4.02,4.73
		C147.09,442.57,145.43,444.38,143.07,444.38z M142.6,436.38c-1.01,0-2.06,0.6-2.5,1.33v3.85c0.45,0.73,1.5,1.35,2.5,1.35
		c1.7,0,2.73-1.38,2.73-3.27S144.3,436.38,142.6,436.38z"/>
	<path class="st0" d="M150.47,444.27c-0.45,0-0.82-0.37-0.82-0.82v-11.07c0-0.43,0.37-0.8,0.86-0.8c0.43,0,0.8,0.37,0.8,0.8v11.07
		C151.31,443.89,150.94,444.27,150.47,444.27z"/>
	<path class="st0" d="M156.36,432.87c0,0.58-0.47,1.07-1.07,1.07c-0.58,0-1.07-0.49-1.07-1.07c0-0.6,0.49-1.08,1.07-1.08
		C155.89,431.78,156.36,432.27,156.36,432.87z M155.3,444.27c-0.45,0-0.82-0.37-0.82-0.82v-7.63c0-0.43,0.37-0.8,0.86-0.8
		c0.43,0,0.8,0.37,0.8,0.8v7.63C156.14,443.89,155.76,444.27,155.3,444.27z"/>
	<path class="st0" d="M166.77,440.17h-6.28c0.13,1.55,1.25,2.86,3.08,2.86c0.77,0,1.59-0.26,2.24-0.75
		c0.11-0.06,0.24-0.09,0.37-0.09c0.3,0,0.67,0.26,0.67,0.67c0,1.01-2.32,1.51-3.46,1.51c-2.69,0-4.65-1.91-4.65-4.75
		c0-2.62,1.89-4.73,4.5-4.73c2.19,0,3.68,1.36,4.21,3.38c0.07,0.3,0.17,0.69,0.17,1.05C167.63,439.78,167.24,440.17,166.77,440.17z
		 M163.24,436.25c-1.79,0-2.67,1.5-2.75,2.75h5.53C165.99,437.78,165.17,436.25,163.24,436.25z"/>
	<path class="st0" d="M177.5,444.27c-0.45,0-0.82-0.37-0.82-0.82v-0.58c-0.69,0.9-1.76,1.51-2.97,1.51c-2.34,0-4.02-1.78-4.02-4.73
		c0-2.9,1.66-4.75,4.02-4.75c1.18,0,2.24,0.56,2.97,1.53v-4.06c0-0.43,0.37-0.8,0.86-0.8c0.43,0,0.8,0.37,0.8,0.8v11.07
		C178.34,443.89,177.97,444.27,177.5,444.27z M176.68,437.73c-0.47-0.73-1.5-1.35-2.54-1.35c-1.68,0-2.73,1.38-2.73,3.27
		c0,1.89,1.05,3.25,2.73,3.25c1.05,0,2.07-0.58,2.54-1.33V437.73z"/>
	<path class="st0" d="M189.26,444.38c-1.42,0-2.17-0.78-2.17-2.21v-5.59h-0.88c-0.41,0-0.73-0.32-0.73-0.75
		c0-0.39,0.32-0.71,0.73-0.71h0.88v-1.78c0-0.43,0.37-0.8,0.86-0.8c0.45,0,0.82,0.37,0.82,0.8v1.78h1.23c0.39,0,0.71,0.32,0.71,0.75
		c0,0.39-0.32,0.71-0.71,0.71h-1.23v5.2c0,0.69,0.34,1.12,0.88,1.12c0.21,0,0.43-0.09,0.62-0.09c0.41,0,0.71,0.3,0.71,0.69
		C190.98,444.1,190.25,444.38,189.26,444.38z"/>
	<path class="st0" d="M196.96,444.38c-2.8,0-4.54-2.15-4.54-4.75s1.74-4.73,4.54-4.73c2.82,0,4.56,2.13,4.56,4.73
		S199.78,444.38,196.96,444.38z M196.96,436.38c-1.79,0-2.82,1.53-2.82,3.25c0,1.74,1.03,3.27,2.82,3.27c1.81,0,2.82-1.53,2.82-3.27
		C199.78,437.91,198.78,436.38,196.96,436.38z"/>
	<path class="st0" d="M221.21,444.27c-0.45,0-0.82-0.37-0.82-0.82v-5.31c0-1.07-0.47-1.76-1.57-1.76c-0.92,0-1.83,0.65-2.26,1.31
		v5.76c0,0.45-0.37,0.82-0.84,0.82c-0.45,0-0.82-0.37-0.82-0.82v-5.31c0-1.07-0.45-1.76-1.59-1.76c-0.88,0-1.78,0.65-2.22,1.33v5.74
		c0,0.45-0.37,0.82-0.84,0.82c-0.45,0-0.82-0.37-0.82-0.82v-7.63c0-0.43,0.37-0.8,0.86-0.8c0.43,0,0.8,0.37,0.8,0.8v0.58
		c0.37-0.56,1.57-1.5,2.92-1.5c1.38,0,2.17,0.71,2.45,1.66c0.52-0.82,1.72-1.66,3.05-1.66c1.66,0,2.56,0.9,2.56,2.73v5.81
		C222.05,443.89,221.67,444.27,221.21,444.27z"/>
	<path class="st0" d="M229.21,444.38c-2.8,0-4.54-2.15-4.54-4.75s1.74-4.73,4.54-4.73c2.82,0,4.56,2.13,4.56,4.73
		S232.03,444.38,229.21,444.38z M229.21,436.38c-1.79,0-2.82,1.53-2.82,3.25c0,1.74,1.03,3.27,2.82,3.27c1.81,0,2.82-1.53,2.82-3.27
		C232.03,437.91,231.02,436.38,229.21,436.38z"/>
	<path class="st0" d="M239.34,444.38c-1.23,0-2.6-0.35-3.42-1.18c-0.13-0.11-0.21-0.26-0.21-0.45c0-0.39,0.34-0.69,0.73-0.69
		c0.17,0,0.3,0.04,0.43,0.13c0.67,0.49,1.61,0.86,2.54,0.86c1.29,0,1.96-0.58,1.96-1.4c0-2-5.51-0.69-5.51-4.09
		c0-1.42,1.23-2.65,3.44-2.65c1.29,0,2.43,0.39,3.14,1.08c0.11,0.11,0.17,0.26,0.17,0.41c0,0.37-0.32,0.65-0.65,0.65
		c-0.15,0-0.28-0.04-0.39-0.13c-0.58-0.41-1.38-0.69-2.24-0.69c-1.14,0-1.85,0.54-1.85,1.27c0,1.81,5.53,0.56,5.53,4.11
		C243,443.15,241.73,444.38,239.34,444.38z"/>
	<path class="st0" d="M248.09,444.38c-1.42,0-2.17-0.78-2.17-2.21v-5.59h-0.88c-0.41,0-0.73-0.32-0.73-0.75
		c0-0.39,0.32-0.71,0.73-0.71h0.88v-1.78c0-0.43,0.37-0.8,0.86-0.8c0.45,0,0.82,0.37,0.82,0.8v1.78h1.23c0.39,0,0.71,0.32,0.71,0.75
		c0,0.39-0.32,0.71-0.71,0.71h-1.23v5.2c0,0.69,0.34,1.12,0.88,1.12c0.21,0,0.43-0.09,0.62-0.09c0.41,0,0.71,0.3,0.71,0.69
		C249.81,444.1,249.08,444.38,248.09,444.38z"/>
	<path class="st0" d="M259.92,444.38c-1.66,0-2.56-0.86-2.56-2.47v-4.71h-0.58c-0.56,0-1.03-0.47-1.03-1.07
		c0-0.54,0.47-1.01,1.03-1.01h0.58v-1.4c0-0.65,0.52-1.18,1.22-1.18c0.65,0,1.18,0.52,1.18,1.18v1.4h0.93
		c0.54,0,1.01,0.47,1.01,1.05c0,0.56-0.47,1.03-1.01,1.03h-0.93v4.08c0,0.71,0.45,0.99,0.82,0.99c0.06,0,0.15,0,0.21,0
		c0.67,0,1.05,0.45,1.05,1.03C261.83,443.89,261.47,444.38,259.92,444.38z"/>
	<path class="st0" d="M266.27,432.73c0,0.79-0.63,1.42-1.42,1.42c-0.77,0-1.42-0.64-1.42-1.42s0.65-1.4,1.42-1.4
		C265.64,431.33,266.27,431.95,266.27,432.73z M264.85,444.27c-0.65,0-1.18-0.52-1.18-1.18v-6.92c0-0.64,0.52-1.16,1.21-1.16
		c0.64,0,1.16,0.52,1.16,1.16v6.92C266.05,443.74,265.53,444.27,264.85,444.27z"/>
	<path class="st0" d="M271.9,444.38c-1.66,0-2.56-0.86-2.56-2.47v-4.71h-0.58c-0.56,0-1.03-0.47-1.03-1.07
		c0-0.54,0.47-1.01,1.03-1.01h0.58v-1.4c0-0.65,0.52-1.18,1.22-1.18c0.65,0,1.18,0.52,1.18,1.18v1.4h0.93
		c0.54,0,1.01,0.47,1.01,1.05c0,0.56-0.47,1.03-1.01,1.03h-0.93v4.08c0,0.71,0.45,0.99,0.82,0.99c0.06,0,0.15,0,0.21,0
		c0.67,0,1.05,0.45,1.05,1.03C273.81,443.89,273.45,444.38,271.9,444.38z"/>
	<path class="st0" d="M276.84,444.27c-0.65,0-1.18-0.52-1.18-1.18v-10.36c0-0.64,0.52-1.16,1.21-1.16c0.64,0,1.16,0.52,1.16,1.16
		v10.36C278.03,443.74,277.51,444.27,276.84,444.27z"/>
	<path class="st0" d="M288.33,440.4h-5.57c0.15,1.14,1.07,2.09,2.6,2.09c0.5,0,1.2-0.15,1.76-0.45c0.15-0.07,0.32-0.11,0.47-0.11
		c0.5,0,1.01,0.39,1.01,0.95c0,1.07-2.3,1.5-3.5,1.5c-2.75,0-4.82-1.85-4.82-4.75c0-2.62,1.93-4.73,4.67-4.73
		c2.04,0,3.59,1.18,4.22,3.05c0.13,0.41,0.26,0.92,0.26,1.36C289.43,439.89,288.95,440.4,288.33,440.4z M284.95,436.79
		c-1.48,0-2.11,1.1-2.22,2h4.45C287.12,437.93,286.52,436.79,284.95,436.79z"/>
	<path class="st0" d="M294.91,444.38c-1.18,0-3.07-0.39-3.63-1.2c-0.11-0.15-0.17-0.32-0.17-0.5c0-0.56,0.49-0.99,0.99-0.99
		c0.17,0,0.34,0.04,0.49,0.13c0.71,0.41,1.64,0.73,2.43,0.73c1.03,0,1.51-0.41,1.51-0.97c0-1.5-5.37-0.28-5.37-3.83
		c0-1.51,1.33-2.84,3.7-2.84c1.18,0,2.79,0.37,3.29,1.1c0.09,0.13,0.15,0.3,0.15,0.47c0,0.5-0.45,0.9-0.93,0.9
		c-0.15,0-0.32-0.04-0.45-0.11c-0.58-0.34-1.31-0.54-2.04-0.54c-0.86,0-1.42,0.39-1.42,0.9c0,1.35,5.35,0.22,5.35,3.87
		C298.82,443.13,297.42,444.38,294.91,444.38z"/>
	<path class="st0" d="M312.88,444.27h-0.06c-0.34,0-0.77-0.28-0.77-0.82v-0.3c-0.73,0.8-1.76,1.23-2.97,1.23
		c-1.5,0-3.14-1.01-3.14-2.99c0-2.04,1.65-2.95,3.14-2.95c1.23,0,2.26,0.39,2.97,1.2v-1.51c0-1.14-0.93-1.81-2.21-1.81
		c-0.84,0-1.59,0.26-2.26,0.79c-0.13,0.09-0.28,0.15-0.41,0.15c-0.34,0-0.69-0.26-0.69-0.65c0-0.15,0.06-0.3,0.17-0.43
		c0.86-0.86,2.22-1.25,3.44-1.25c1.94,0,3.63,0.84,3.63,3.14v5.4C313.72,443.89,313.34,444.27,312.88,444.27z M312.05,440.64
		c-0.5-0.69-1.4-1.05-2.34-1.05c-1.22,0-2.09,0.75-2.09,1.83c0,1.05,0.88,1.78,2.09,1.78c0.93,0,1.83-0.34,2.34-1.03V440.64z"/>
	<path class="st0" d="M323.77,444.27c-0.45,0-0.82-0.37-0.82-0.82v-5.08c0-1.5-0.77-1.98-1.93-1.98c-1.07,0-2.02,0.64-2.5,1.33v5.74
		c0,0.45-0.37,0.82-0.84,0.82c-0.45,0-0.82-0.37-0.82-0.82v-7.63c0-0.43,0.37-0.8,0.86-0.8c0.43,0,0.8,0.37,0.8,0.8v0.58
		c0.62-0.73,1.81-1.5,3.2-1.5c1.91,0,2.9,0.99,2.9,2.9v5.65C324.62,443.89,324.24,444.27,323.77,444.27z"/>
	<path class="st0" d="M335.05,444.27c-0.45,0-0.82-0.37-0.82-0.82v-0.58c-0.69,0.9-1.76,1.51-2.97,1.51c-2.34,0-4.02-1.78-4.02-4.73
		c0-2.9,1.66-4.75,4.02-4.75c1.18,0,2.24,0.56,2.97,1.53v-4.06c0-0.43,0.37-0.8,0.86-0.8c0.43,0,0.8,0.37,0.8,0.8v11.07
		C335.89,443.89,335.51,444.27,335.05,444.27z M334.22,437.73c-0.47-0.73-1.5-1.35-2.54-1.35c-1.68,0-2.73,1.38-2.73,3.27
		c0,1.89,1.05,3.25,2.73,3.25c1.05,0,2.07-0.58,2.54-1.33V437.73z"/>
	<path class="st0" d="M349.31,444.38c-1.08,0-2.08-0.49-2.79-1.38v0.09c0,0.65-0.52,1.18-1.2,1.18c-0.65,0-1.18-0.52-1.18-1.18
		v-10.36c0-0.64,0.52-1.16,1.21-1.16c0.64,0,1.16,0.52,1.16,1.16v3.55c0.71-0.92,1.72-1.38,2.79-1.38c2.3,0,4,1.79,4,4.75
		C353.31,442.66,351.59,444.38,349.31,444.38z M348.56,437.02c-0.77,0-1.64,0.45-2.04,1.05v3.2c0.39,0.58,1.27,1.01,2.04,1.01
		c1.38,0,2.3-1.05,2.3-2.62C350.86,438.08,349.94,437.02,348.56,437.02z"/>
	<path class="st0" d="M358.17,432.73c0,0.79-0.63,1.42-1.42,1.42c-0.77,0-1.42-0.64-1.42-1.42s0.65-1.4,1.42-1.4
		C357.53,431.33,358.17,431.95,358.17,432.73z M356.75,444.27c-0.65,0-1.18-0.52-1.18-1.18v-6.92c0-0.64,0.52-1.16,1.21-1.16
		c0.64,0,1.16,0.52,1.16,1.16v6.92C357.95,443.74,357.42,444.27,356.75,444.27z"/>
	<path class="st0" d="M364.47,447.82c-1.1,0-2.95-0.28-3.5-1.12c-0.09-0.15-0.15-0.34-0.15-0.52c0-0.58,0.47-0.99,0.99-0.99
		c0.17,0,0.34,0.04,0.5,0.13c0.63,0.39,1.35,0.56,2.15,0.56c1.14,0,2.49-0.5,2.49-2.28v-0.92c-0.71,0.9-1.68,1.42-2.79,1.42
		c-2.26,0-3.98-1.59-3.98-4.6c0-2.95,1.7-4.6,3.98-4.6c1.08,0,2.06,0.47,2.79,1.38v-0.09c0-0.65,0.52-1.18,1.22-1.18
		c0.65,0,1.18,0.52,1.18,1.18v7.35C369.35,446.98,366.69,447.82,364.47,447.82z M366.95,438.04c-0.39-0.6-1.25-1.03-2.04-1.03
		c-1.35,0-2.28,0.93-2.28,2.49s0.93,2.49,2.28,2.49c0.79,0,1.64-0.45,2.04-1.03V438.04z"/>
	<path class="st0" d="M65.66,466.7c-0.65,0-1.18-0.52-1.18-1.18v-4.43c0-1.25-0.65-1.64-1.68-1.64c-0.92,0-1.64,0.52-2.06,1.07v5.01
		c0,0.65-0.52,1.18-1.2,1.18c-0.65,0-1.18-0.52-1.18-1.18v-10.36c0-0.64,0.52-1.16,1.21-1.16c0.64,0,1.16,0.52,1.16,1.16v3.57
		c0.58-0.69,1.7-1.4,3.18-1.4c1.98,0,2.93,1.08,2.93,2.84v5.35C66.86,466.18,66.34,466.7,65.66,466.7z"/>
	<path class="st0" d="M77.16,462.83h-5.57c0.15,1.14,1.07,2.09,2.6,2.09c0.5,0,1.2-0.15,1.76-0.45c0.15-0.07,0.32-0.11,0.47-0.11
		c0.5,0,1.01,0.39,1.01,0.95c0,1.07-2.3,1.5-3.5,1.5c-2.75,0-4.82-1.85-4.82-4.75c0-2.62,1.92-4.73,4.67-4.73
		c2.04,0,3.59,1.18,4.22,3.05c0.13,0.41,0.26,0.92,0.26,1.36C78.26,462.33,77.78,462.83,77.16,462.83z M73.78,459.22
		c-1.48,0-2.11,1.1-2.22,2H76C75.94,460.36,75.35,459.22,73.78,459.22z"/>
	<path class="st0" d="M87.12,466.7h-0.19c-0.19,0-1.03-0.15-1.03-1.05c-0.62,0.73-1.68,1.16-2.86,1.16c-1.44,0-3.14-0.97-3.14-2.99
		c0-2.11,1.7-2.92,3.14-2.92c1.2,0,2.26,0.39,2.86,1.1v-1.21c0-0.92-0.79-1.51-1.98-1.51c-0.71,0-1.4,0.17-2.02,0.58
		c-0.13,0.07-0.28,0.13-0.43,0.13c-0.43,0-0.9-0.36-0.9-0.92c0-0.17,0.06-0.34,0.13-0.47c0.56-0.9,2.58-1.27,3.63-1.27
		c2.06,0,3.94,0.82,3.94,3.42v4.77C88.28,466.18,87.76,466.7,87.12,466.7z M85.91,463.3c-0.39-0.52-1.14-0.78-1.91-0.78
		c-0.93,0-1.7,0.49-1.7,1.36c0,0.84,0.77,1.33,1.7,1.33c0.77,0,1.51-0.26,1.91-0.79V463.3z"/>
	<path class="st0" d="M98.49,466.7c-0.65,0-1.18-0.52-1.18-1.18v-0.09c-0.71,0.9-1.7,1.38-2.79,1.38c-2.28,0-4-1.72-4-4.73
		c0-2.95,1.7-4.75,4-4.75c1.07,0,2.07,0.47,2.79,1.38v-3.53c0-0.65,0.52-1.18,1.21-1.18c0.65,0,1.18,0.52,1.18,1.18v10.34
		C99.7,466.18,99.18,466.7,98.49,466.7z M97.31,460.48c-0.39-0.6-1.25-1.03-2.06-1.03c-1.35,0-2.28,1.07-2.28,2.64
		c0,1.55,0.93,2.62,2.28,2.62c0.8,0,1.66-0.43,2.06-1.03V460.48z"/>
	<path class="st0" d="M105.12,455.17c0,0.79-0.63,1.42-1.42,1.42c-0.77,0-1.42-0.64-1.42-1.42s0.65-1.4,1.42-1.4
		C104.49,453.77,105.12,454.38,105.12,455.17z M103.7,466.7c-0.65,0-1.18-0.52-1.18-1.18v-6.92c0-0.64,0.52-1.16,1.21-1.16
		c0.64,0,1.16,0.52,1.16,1.16v6.92C104.9,466.18,104.38,466.7,103.7,466.7z"/>
	<path class="st0" d="M114.99,466.7c-0.65,0-1.18-0.52-1.18-1.18v-4.39c0-1.25-0.65-1.68-1.66-1.68c-0.93,0-1.66,0.52-2.06,1.07
		v5.01c0,0.65-0.52,1.18-1.2,1.18c-0.65,0-1.18-0.52-1.18-1.18v-6.92c0-0.64,0.52-1.16,1.21-1.16c0.64,0,1.16,0.52,1.16,1.16v0.13
		c0.58-0.69,1.68-1.4,3.16-1.4c1.98,0,2.94,1.12,2.94,2.88v5.31C116.19,466.18,115.67,466.7,114.99,466.7z"/>
	<path class="st0" d="M122.71,470.25c-1.1,0-2.95-0.28-3.5-1.12c-0.09-0.15-0.15-0.34-0.15-0.52c0-0.58,0.47-0.99,0.99-0.99
		c0.17,0,0.34,0.04,0.5,0.13c0.63,0.39,1.35,0.56,2.15,0.56c1.14,0,2.49-0.5,2.49-2.28v-0.92c-0.71,0.9-1.68,1.42-2.79,1.42
		c-2.26,0-3.98-1.59-3.98-4.6c0-2.95,1.7-4.6,3.98-4.6c1.08,0,2.06,0.47,2.79,1.38v-0.09c0-0.65,0.52-1.18,1.22-1.18
		c0.65,0,1.18,0.52,1.18,1.18v7.35C127.59,469.41,124.94,470.25,122.71,470.25z M125.2,460.48c-0.39-0.6-1.25-1.03-2.04-1.03
		c-1.35,0-2.28,0.93-2.28,2.49s0.93,2.49,2.28,2.49c0.79,0,1.64-0.45,2.04-1.03V460.48z"/>
	<path class="st0" d="M133.67,466.81c-1.18,0-3.07-0.39-3.63-1.2c-0.11-0.15-0.17-0.32-0.17-0.5c0-0.56,0.49-0.99,0.99-0.99
		c0.17,0,0.34,0.04,0.49,0.13c0.71,0.41,1.64,0.73,2.43,0.73c1.03,0,1.51-0.41,1.51-0.97c0-1.5-5.37-0.28-5.37-3.83
		c0-1.51,1.33-2.84,3.7-2.84c1.18,0,2.79,0.37,3.29,1.1c0.09,0.13,0.15,0.3,0.15,0.47c0,0.5-0.45,0.9-0.93,0.9
		c-0.15,0-0.32-0.04-0.45-0.11c-0.58-0.34-1.31-0.54-2.04-0.54c-0.86,0-1.42,0.39-1.42,0.9c0,1.35,5.35,0.22,5.35,3.87
		C137.58,465.56,136.17,466.81,133.67,466.81z"/>
	<path class="st0" d="M141.01,466.79c-0.82,0-1.51-0.69-1.51-1.51c0-0.82,0.69-1.51,1.51-1.51s1.51,0.69,1.51,1.51
		C142.53,466.1,141.84,466.79,141.01,466.79z"/>
</g>
<g>
	<path class="st0" d="M66.53,77.55h-6.15c-0.96,0-1.74-0.79-1.74-1.74V64.75c0-0.96,0.78-1.74,1.74-1.74h5.91
		c2.77,0,4.19,1.77,4.19,3.71c0,1.83-1.13,3.05-2.51,3.34c1.55,0.24,2.79,1.74,2.79,3.58C70.76,75.81,69.3,77.55,66.53,77.55z
		 M65.61,65.67h-3.88v3.16h3.88c1.05,0,1.7-0.65,1.7-1.57C67.31,66.34,66.66,65.67,65.61,65.67z M65.72,71.49h-3.99v3.38h3.99
		c1.18,0,1.88-0.63,1.88-1.68C67.6,72.27,66.94,71.49,65.72,71.49z"/>
	<path class="st0" d="M82.69,72.01l2.01,3.4c0.13,0.24,0.2,0.5,0.2,0.74c0,0.74-0.61,1.53-1.53,1.53c-0.54,0-1.05-0.28-1.33-0.79
		l-2.49-4.51h-2.27v3.77c0,0.83-0.7,1.53-1.57,1.53c-0.83,0-1.53-0.7-1.53-1.53v-11.4c0-0.96,0.78-1.74,1.74-1.74h5.06
		c3.03,0,4.88,1.98,4.88,4.69C85.87,70.27,84.26,71.64,82.69,72.01z M77.28,65.73v3.92h3.25c1.24,0,2.18-0.74,2.18-1.96
		c0-1.22-0.94-1.96-2.18-1.96H77.28z"/>
	<path class="st0" d="M100.5,77.68c-0.65,0-1.26-0.39-1.5-1.02l-0.57-1.57H92.2l-0.59,1.57c-0.24,0.63-0.85,1.02-1.53,1.02
		c-0.98,0-1.63-0.83-1.63-1.66c0-0.2,0.02-0.39,0.11-0.59l4.25-10.92c0.37-0.98,1.35-1.64,2.38-1.64c1.11-0.09,2.22,0.57,2.64,1.64
		l4.23,10.92c0.07,0.2,0.11,0.39,0.11,0.59C102.16,76.83,101.51,77.68,100.5,77.68z M95.32,66.1l-2.27,6.26h4.54L95.32,66.1z"/>
	<path class="st0" d="M116.4,77.68c-0.59,0-1.18-0.28-1.55-0.79l-6.45-8.83v8.09c0,0.83-0.7,1.53-1.57,1.53
		c-0.83,0-1.53-0.7-1.53-1.53V64.86c0-1.02,0.87-1.98,2.03-1.98c0.65,0,1.31,0.31,1.7,0.85l6.19,8.42V64.4
		c0-0.83,0.7-1.53,1.57-1.53c0.83,0,1.53,0.7,1.53,1.53v11.4C118.32,76.79,117.52,77.68,116.4,77.68z"/>
	<path class="st0" d="M128.03,77.55h-3.99c-0.96,0-1.74-0.79-1.74-1.74V64.75c0-0.96,0.78-1.74,1.74-1.74h3.99
		c4.56,0,7.72,2.9,7.72,7.28C135.75,74.67,132.59,77.55,128.03,77.55z M128.03,65.73h-2.64v9.09h2.64c2.88,0,4.56-2.07,4.56-4.54
		C132.59,67.72,131.02,65.73,128.03,65.73z"/>
	<path class="st0" d="M152.76,77.83c-4.25,0-7.74-2.97-7.74-7.54c0-4.6,3.49-7.52,7.74-7.52c2.35,0,4.03,0.92,5.17,2.14
		c0.24,0.26,0.37,0.61,0.37,0.94c0,0.76-0.7,1.4-1.46,1.4c-0.37,0-0.76-0.15-1.05-0.44c-0.83-0.81-1.92-1.29-3.03-1.29
		c-2.64,0-4.56,2.03-4.56,4.77c0,2.75,1.92,4.78,4.56,4.78c1.29,0,2.51-0.57,3.1-1.11v-1.74h-2.64c-0.74,0-1.33-0.59-1.33-1.37
		c0-0.74,0.59-1.33,1.33-1.33h3.99c0.96,0,1.74,0.78,1.74,1.74v2.46C158.95,76.35,155.7,77.83,152.76,77.83z"/>
	<path class="st0" d="M169.07,77.81c-4.43,0-6.56-2.49-6.56-6.06v-7.33c0-0.85,0.7-1.55,1.59-1.55c0.85,0,1.55,0.7,1.55,1.55v7.22
		c0,2.03,1.18,3.42,3.42,3.42c2.25,0,3.4-1.4,3.4-3.42v-7.22c0-0.85,0.7-1.55,1.61-1.55c0.85,0,1.55,0.7,1.55,1.55v7.3
		C175.64,75.35,173.5,77.81,169.07,77.81z"/>
	<path class="st0" d="M181.11,77.68c-0.83,0-1.53-0.7-1.53-1.53V64.4c0-0.83,0.7-1.53,1.57-1.53c0.83,0,1.53,0.7,1.53,1.53v11.75
		C182.68,76.98,181.98,77.68,181.11,77.68z"/>
	<path class="st0" d="M192.39,77.55h-3.99c-0.96,0-1.74-0.79-1.74-1.74V64.75c0-0.96,0.78-1.74,1.74-1.74h3.99
		c4.56,0,7.72,2.9,7.72,7.28C200.1,74.67,196.94,77.55,192.39,77.55z M192.39,65.73h-2.64v9.09h2.64c2.88,0,4.56-2.07,4.56-4.54
		C196.94,67.72,195.37,65.73,192.39,65.73z"/>
	<path class="st0" d="M212.49,77.55h-7.35c-0.96,0-1.74-0.79-1.74-1.74V64.75c0-0.96,0.78-1.74,1.74-1.74h7.35
		c0.72,0,1.33,0.61,1.33,1.37c0,0.74-0.61,1.35-1.33,1.35h-6v3.07h5.84c0.72,0,1.33,0.61,1.33,1.37c0,0.74-0.61,1.35-1.33,1.35
		h-5.84v3.29h6c0.72,0,1.33,0.61,1.33,1.33C213.82,76.94,213.21,77.55,212.49,77.55z"/>
	<path class="st0" d="M225.25,77.55h-6.3c-0.96,0-1.74-0.79-1.74-1.74V64.4c0-0.83,0.7-1.53,1.57-1.53c0.83,0,1.53,0.7,1.53,1.53
		v10.42h4.95c0.72,0,1.33,0.61,1.33,1.33C226.58,76.94,225.97,77.55,225.25,77.55z"/>
	<path class="st0" d="M231.23,77.68c-0.83,0-1.53-0.7-1.53-1.53V64.4c0-0.83,0.7-1.53,1.57-1.53c0.83,0,1.53,0.7,1.53,1.53v11.75
		C232.8,76.98,232.1,77.68,231.23,77.68z"/>
	<path class="st0" d="M247.87,77.68c-0.59,0-1.18-0.28-1.55-0.79l-6.45-8.83v8.09c0,0.83-0.7,1.53-1.57,1.53
		c-0.83,0-1.53-0.7-1.53-1.53V64.86c0-1.02,0.87-1.98,2.03-1.98c0.65,0,1.31,0.31,1.7,0.85l6.19,8.42V64.4
		c0-0.83,0.7-1.53,1.57-1.53c0.83,0,1.53,0.7,1.53,1.53v11.4C249.79,76.79,248.98,77.68,247.87,77.68z"/>
	<path class="st0" d="M262.85,77.55h-7.35c-0.96,0-1.74-0.79-1.74-1.74V64.75c0-0.96,0.78-1.74,1.74-1.74h7.35
		c0.72,0,1.33,0.61,1.33,1.37c0,0.74-0.61,1.35-1.33,1.35h-6v3.07h5.84c0.72,0,1.33,0.61,1.33,1.37c0,0.74-0.61,1.35-1.33,1.35
		h-5.84v3.29h6c0.72,0,1.33,0.61,1.33,1.33C264.18,76.94,263.57,77.55,262.85,77.55z"/>
	<path class="st0" d="M272.73,77.81c-2.11,0-4.73-0.7-5.54-1.9c-0.15-0.22-0.24-0.48-0.24-0.74c0-0.83,0.72-1.44,1.46-1.44
		c0.28,0,0.59,0.07,0.83,0.24c0.98,0.68,2.22,1.13,3.64,1.13c1.7,0,2.53-0.79,2.53-1.61c0-2.57-8.37-0.81-8.37-6.28
		c0-2.42,2.09-4.43,5.52-4.43c1.66,0,4.19,0.54,4.99,1.61c0.17,0.22,0.26,0.48,0.26,0.74c0,0.83-0.81,1.4-1.55,1.4
		c-0.26,0-0.52-0.07-0.79-0.22c-1-0.57-2.14-0.83-3.21-0.83c-1.33,0-2.07,0.59-2.07,1.46c0,2.31,8.35,0.76,8.35,6.19
		C278.55,75.81,276.65,77.81,272.73,77.81z"/>
</g>
<g>
	<path class="st0" d="M1671.41,64.91h-3.03v10.4c0,0.85-0.7,1.55-1.57,1.55c-0.85,0-1.55-0.7-1.55-1.55v-10.4h-3.03
		c-0.74,0-1.35-0.61-1.35-1.4c0-0.72,0.61-1.33,1.35-1.33h9.18c0.72,0,1.33,0.61,1.33,1.37
		C1672.74,64.3,1672.13,64.91,1671.41,64.91z"/>
	<path class="st0" d="M1684.19,71.19l2.01,3.4c0.13,0.24,0.2,0.5,0.2,0.74c0,0.74-0.61,1.53-1.53,1.53c-0.54,0-1.05-0.28-1.33-0.79
		l-2.49-4.51h-2.27v3.77c0,0.83-0.7,1.53-1.57,1.53c-0.83,0-1.53-0.7-1.53-1.53v-11.4c0-0.96,0.78-1.74,1.74-1.74h5.06
		c3.03,0,4.88,1.98,4.88,4.69C1687.38,69.45,1685.76,70.82,1684.19,71.19z M1678.78,64.91v3.92h3.25c1.24,0,2.18-0.74,2.18-1.96
		c0-1.22-0.94-1.96-2.18-1.96H1678.78z"/>
	<path class="st0" d="M1702.01,76.86c-0.65,0-1.26-0.39-1.5-1.02l-0.57-1.57h-6.24l-0.59,1.57c-0.24,0.63-0.85,1.02-1.53,1.02
		c-0.98,0-1.63-0.83-1.63-1.66c0-0.2,0.02-0.39,0.11-0.59l4.25-10.92c0.37-0.98,1.35-1.64,2.38-1.64c1.11-0.09,2.22,0.57,2.64,1.64
		l4.23,10.92c0.07,0.2,0.11,0.39,0.11,0.59C1703.67,76.01,1703.01,76.86,1702.01,76.86z M1696.82,65.28l-2.27,6.26h4.54
		L1696.82,65.28z"/>
	<path class="st0" d="M1718.56,64.24l-4.23,10.99c-0.37,0.98-1.35,1.64-2.38,1.64h-0.31c-1.02,0-2.01-0.65-2.38-1.64l-4.25-10.99
		c-0.09-0.17-0.11-0.37-0.11-0.57c0-0.79,0.65-1.61,1.63-1.61c0.68,0,1.31,0.41,1.55,1.07l3.71,10.25l3.69-10.25
		c0.22-0.63,0.85-1.07,1.53-1.07c0.98,0,1.66,0.79,1.66,1.61C1718.67,63.86,1718.63,64.06,1718.56,64.24z"/>
	<path class="st0" d="M1730.88,76.73h-7.35c-0.96,0-1.74-0.79-1.74-1.74V63.93c0-0.96,0.78-1.74,1.74-1.74h7.35
		c0.72,0,1.33,0.61,1.33,1.37c0,0.74-0.61,1.35-1.33,1.35h-6v3.07h5.84c0.72,0,1.33,0.61,1.33,1.37c0,0.74-0.61,1.35-1.33,1.35
		h-5.84V74h6c0.72,0,1.33,0.61,1.33,1.33C1732.21,76.12,1731.6,76.73,1730.88,76.73z"/>
	<path class="st0" d="M1743.64,76.73h-6.3c-0.96,0-1.74-0.79-1.74-1.74v-11.4c0-0.83,0.7-1.53,1.57-1.53c0.83,0,1.53,0.7,1.53,1.53
		V74h4.95c0.72,0,1.33,0.61,1.33,1.33C1744.97,76.12,1744.36,76.73,1743.64,76.73z"/>
	<path class="st0" d="M1762.66,76.73h-6.15c-0.96,0-1.74-0.79-1.74-1.74V63.93c0-0.96,0.78-1.74,1.74-1.74h5.91
		c2.77,0,4.19,1.77,4.19,3.71c0,1.83-1.13,3.05-2.51,3.34c1.55,0.24,2.79,1.74,2.79,3.58C1766.89,74.99,1765.43,76.73,1762.66,76.73
		z M1761.74,64.85h-3.88v3.16h3.88c1.05,0,1.7-0.65,1.7-1.57C1763.44,65.52,1762.79,64.85,1761.74,64.85z M1761.85,70.67h-3.99v3.38
		h3.99c1.18,0,1.88-0.63,1.88-1.68C1763.73,71.45,1763.07,70.67,1761.85,70.67z"/>
	<path class="st0" d="M1776.88,76.99c-4.43,0-6.56-2.49-6.56-6.06V63.6c0-0.85,0.7-1.55,1.59-1.55c0.85,0,1.55,0.7,1.55,1.55v7.22
		c0,2.03,1.18,3.42,3.42,3.42c2.25,0,3.4-1.4,3.4-3.42V63.6c0-0.85,0.7-1.55,1.61-1.55c0.85,0,1.55,0.7,1.55,1.55v7.3
		C1783.44,74.53,1781.31,76.99,1776.88,76.99z"/>
	<path class="st0" d="M1793.13,76.73h-3.99c-0.96,0-1.74-0.79-1.74-1.74V63.93c0-0.96,0.78-1.74,1.74-1.74h3.99
		c4.56,0,7.72,2.9,7.72,7.28C1800.85,73.85,1797.68,76.73,1793.13,76.73z M1793.13,64.91h-2.64V74h2.64c2.88,0,4.56-2.07,4.56-4.54
		C1797.68,66.9,1796.11,64.91,1793.13,64.91z"/>
	<path class="st0" d="M1809.88,76.73h-3.99c-0.96,0-1.74-0.79-1.74-1.74V63.93c0-0.96,0.78-1.74,1.74-1.74h3.99
		c4.56,0,7.72,2.9,7.72,7.28C1817.59,73.85,1814.43,76.73,1809.88,76.73z M1809.88,64.91h-2.64V74h2.64c2.88,0,4.56-2.07,4.56-4.54
		C1814.43,66.9,1812.86,64.91,1809.88,64.91z"/>
	<path class="st0" d="M1831.38,64.26l-4.21,6.52v4.56c0,0.83-0.7,1.53-1.57,1.53c-0.83,0-1.53-0.7-1.53-1.53v-4.56l-4.25-6.54
		c-0.15-0.22-0.22-0.48-0.22-0.74c0-0.7,0.61-1.42,1.48-1.42c0.48,0,0.98,0.24,1.26,0.7l3.27,5.25l3.21-5.23
		c0.28-0.46,0.76-0.72,1.29-0.72c0.89,0,1.48,0.7,1.48,1.42C1831.6,63.76,1831.53,64.02,1831.38,64.26z"/>
</g>
<line class="st1" x1="57.2" y1="88.44" x2="1862.8" y2="88.44"/>
</svg>
