<?xml version="1.0" encoding="utf-8"?>
<!-- Generator: Adobe Illustrator 23.1.0, SVG Export Plug-In . SVG Version: 6.00 Build 0)  -->
<svg version="1.1" id="Layer_1" xmlns="http://www.w3.org/2000/svg" xmlns:xlink="http://www.w3.org/1999/xlink" x="0px" y="0px"
	 viewBox="0 0 1920 525" style="enable-background:new 0 0 1920 525;" xml:space="preserve">
<style type="text/css">
	.st0{fill:#0046EB;}
	.st1{fill:none;stroke:#FFFFFF;stroke-linecap:round;stroke-linejoin:round;}
	.st2{fill:none;stroke:#FFFFFF;stroke-linecap:round;stroke-linejoin:round;stroke-dasharray:8.005,8.005;}
	.st3{fill:#0046EB;stroke:#FFFFFF;stroke-width:0.9378;stroke-miterlimit:10;}
	.st4{fill:#FFFFFF;}
</style>
<rect x="-1.97" y="-0.14" class="st0" width="1920" height="534"/>
<g>
	<g>
		<g>
			<path class="st1" d="M61.38,294.61c1.33,0,2.67,0,4,0"/>
			<path class="st2" d="M73.38,294.61c585.7,0.03,1171.39,0.07,1757.09,0.1"/>
			<path class="st1" d="M1834.47,294.71c1.33,0,2.67,0,4,0"/>
		</g>
	</g>
	<g>
		<rect x="36.83" y="234.15" class="st3" width="223.1" height="120.46"/>
		<g>
			<g>
				<path class="st4" d="M92.23,269.73h-3.8v4.49c0,0.57-0.46,1.03-1.05,1.03c-0.57,0-1.03-0.46-1.03-1.03v-11.74
					c0-0.76,0.61-1.37,1.36-1.37h4.51c2.88,0,4.47,1.97,4.47,4.3S95.07,269.73,92.23,269.73z M91.96,262.97h-3.53v4.91h3.53
					c1.53,0,2.6-1.01,2.6-2.46C94.56,263.96,93.49,262.97,91.96,262.97z"/>
				<path class="st4" d="M104.27,266.67c-0.97,0.08-1.91,0.5-2.52,1.41v6.26c0,0.5-0.42,0.92-0.95,0.92h-0.02
					c-0.5-0.02-0.9-0.42-0.9-0.92v-8.57c0-0.48,0.42-0.9,0.97-0.9c0.48,0,0.9,0.42,0.9,0.9v0.8c0.57-0.78,1.49-1.72,2.62-1.72
					c0.48,0,0.84,0.36,0.84,0.84C105.21,266.23,104.79,266.63,104.27,266.67z"/>
				<path class="st4" d="M112.52,275.38c-3.15,0-5.1-2.42-5.1-5.33s1.95-5.31,5.1-5.31c3.17,0,5.12,2.39,5.12,5.31
					S115.69,275.38,112.52,275.38z M112.52,266.39c-2.02,0-3.17,1.72-3.17,3.65c0,1.95,1.15,3.67,3.17,3.67
					c2.04,0,3.17-1.72,3.17-3.67C115.69,268.12,114.56,266.39,112.52,266.39z"/>
				<path class="st4" d="M129.55,266.12l-3.4,8.25c-0.23,0.52-0.76,0.88-1.34,0.88h-0.04c-0.57,0-1.07-0.36-1.28-0.88l-3.42-8.25
					c-0.04-0.11-0.06-0.23-0.06-0.34c0-0.46,0.38-0.92,0.95-0.92c0.38,0,0.71,0.21,0.86,0.59l3,7.52l2.98-7.52
					c0.15-0.36,0.5-0.59,0.86-0.59c0.57,0,0.97,0.44,0.97,0.92C129.61,265.89,129.59,266.02,129.55,266.12z"/>
				<path class="st4" d="M134.7,262.45c0,0.65-0.52,1.2-1.2,1.2c-0.65,0-1.2-0.54-1.2-1.2c0-0.67,0.54-1.22,1.2-1.22
					C134.17,261.23,134.7,261.77,134.7,262.45z M133.5,275.25c-0.5,0-0.92-0.42-0.92-0.92v-8.57c0-0.48,0.42-0.9,0.97-0.9
					c0.48,0,0.9,0.42,0.9,0.9v8.57C134.44,274.83,134.02,275.25,133.5,275.25z"/>
				<path class="st4" d="M146.69,275.25c-0.5,0-0.92-0.42-0.92-0.92v-0.65c-0.78,1.01-1.97,1.7-3.34,1.7c-2.62,0-4.51-2-4.51-5.31
					c0-3.25,1.87-5.33,4.51-5.33c1.32,0,2.52,0.63,3.34,1.72v-4.56c0-0.48,0.42-0.9,0.96-0.9c0.48,0,0.9,0.42,0.9,0.9v12.43
					C147.63,274.83,147.21,275.25,146.69,275.25z M145.76,267.91c-0.53-0.82-1.68-1.51-2.86-1.51c-1.89,0-3.07,1.55-3.07,3.67
					c0,2.12,1.18,3.65,3.07,3.65c1.18,0,2.33-0.65,2.86-1.49V267.91z"/>
				<path class="st4" d="M160.1,270.66h-7.05c0.15,1.74,1.41,3.21,3.46,3.21c0.86,0,1.79-0.29,2.52-0.84
					c0.13-0.06,0.27-0.1,0.42-0.1c0.34,0,0.76,0.29,0.76,0.76c0,1.13-2.6,1.7-3.88,1.7c-3.02,0-5.23-2.14-5.23-5.33
					c0-2.94,2.12-5.31,5.06-5.31c2.46,0,4.14,1.53,4.72,3.8c0.08,0.34,0.19,0.78,0.19,1.18
					C161.07,270.22,160.63,270.66,160.1,270.66z M156.14,266.25c-2.02,0-3,1.68-3.09,3.09h6.21
					C159.22,267.97,158.3,266.25,156.14,266.25z"/>
				<path class="st4" d="M178.67,275.13h-6.28c-0.76,0-1.37-0.61-1.37-1.36v-11.76c0-0.55,0.46-1.01,1.07-1.01
					c0.55,0,1.01,0.46,1.01,1.01v11.27h5.56c0.5,0,0.9,0.42,0.9,0.9C179.57,274.73,179.17,275.13,178.67,275.13z"/>
				<path class="st4" d="M184.91,262.45c0,0.65-0.53,1.2-1.2,1.2c-0.65,0-1.2-0.54-1.2-1.2c0-0.67,0.55-1.22,1.2-1.22
					C184.38,261.23,184.91,261.77,184.91,262.45z M183.71,275.25c-0.5,0-0.92-0.42-0.92-0.92v-8.57c0-0.48,0.42-0.9,0.97-0.9
					c0.48,0,0.9,0.42,0.9,0.9v8.57C184.65,274.83,184.23,275.25,183.71,275.25z"/>
				<path class="st4" d="M196.5,275.25c-0.5,0-0.92-0.42-0.92-0.92v-5.71c0-1.68-0.86-2.23-2.16-2.23c-1.2,0-2.27,0.71-2.81,1.49
					v6.45c0,0.5-0.42,0.92-0.94,0.92c-0.5,0-0.92-0.42-0.92-0.92v-8.57c0-0.48,0.42-0.9,0.97-0.9c0.48,0,0.9,0.42,0.9,0.9v0.65
					c0.69-0.82,2.04-1.68,3.59-1.68c2.14,0,3.25,1.11,3.25,3.25v6.34C197.44,274.83,197.02,275.25,196.5,275.25z"/>
				<path class="st4" d="M208.89,275.28c-0.27,0-0.57-0.13-0.74-0.38l-3.21-4.16l-1.55,1.57v2.02c0,0.5-0.42,0.92-0.94,0.92
					c-0.5,0-0.92-0.42-0.92-0.92V261.9c0-0.48,0.42-0.9,0.97-0.9c0.48,0,0.9,0.42,0.9,0.9v8.25l4.79-5.04
					c0.17-0.17,0.4-0.27,0.61-0.27c0.46,0,0.88,0.42,0.88,0.88c0,0.21-0.08,0.4-0.23,0.57l-3.15,3.3l3.34,4.2
					c0.13,0.15,0.19,0.36,0.19,0.55C209.81,274.77,209.45,275.28,208.89,275.28z"/>
				<path class="st4" d="M95.28,300.45c-0.44,0-0.84-0.25-1.01-0.67l-0.92-2.37h-6.7l-0.92,2.37c-0.17,0.42-0.57,0.67-1.01,0.67
					c-0.65,0-1.11-0.55-1.11-1.11c0-0.13,0.02-0.25,0.06-0.4l4.64-11.63c0.25-0.67,0.92-1.11,1.66-1.11
					c0.73-0.02,1.43,0.42,1.7,1.11l4.64,11.63c0.06,0.15,0.08,0.27,0.08,0.4C96.39,299.87,95.95,300.45,95.28,300.45z M89.99,288.44
					l-2.75,7.14h5.52L89.99,288.44z"/>
				<path class="st4" d="M104.25,287.88c-0.34,0-0.65-0.25-1.09-0.25c-0.97,0-1.51,0.65-1.51,1.85v0.71h1.39
					c0.44,0,0.8,0.36,0.8,0.84c0,0.44-0.36,0.8-0.8,0.8h-1.39v7.71c0,0.5-0.42,0.92-0.95,0.92c-0.5,0-0.92-0.42-0.92-0.92v-7.71
					h-1.01c-0.44,0-0.8-0.36-0.8-0.84c0-0.44,0.36-0.8,0.8-0.8h1.01v-0.71c0-2.1,1.2-3.36,3.07-3.36c0.9,0,2.12,0.32,2.12,1.03
					C104.96,287.6,104.6,287.88,104.25,287.88z"/>
				<path class="st4" d="M109.33,300.58c-1.6,0-2.44-0.88-2.44-2.48v-6.28h-0.99c-0.46,0-0.82-0.36-0.82-0.84
					c0-0.44,0.36-0.8,0.82-0.8h0.99v-2c0-0.48,0.42-0.9,0.97-0.9c0.5,0,0.92,0.42,0.92,0.9v2h1.38c0.44,0,0.8,0.36,0.8,0.84
					c0,0.44-0.36,0.8-0.8,0.8h-1.38v5.84c0,0.78,0.38,1.26,0.99,1.26c0.23,0,0.48-0.11,0.69-0.11c0.46,0,0.8,0.34,0.8,0.78
					C111.26,300.27,110.44,300.58,109.33,300.58z"/>
				<path class="st4" d="M122.41,295.86h-7.05c0.15,1.74,1.41,3.21,3.46,3.21c0.86,0,1.79-0.29,2.52-0.84
					c0.13-0.06,0.27-0.11,0.42-0.11c0.34,0,0.76,0.29,0.76,0.76c0,1.13-2.6,1.7-3.88,1.7c-3.02,0-5.23-2.14-5.23-5.33
					c0-2.94,2.12-5.31,5.06-5.31c2.46,0,4.14,1.53,4.72,3.8c0.08,0.34,0.19,0.78,0.19,1.18
					C123.38,295.42,122.94,295.86,122.41,295.86z M118.44,291.45c-2.02,0-3,1.68-3.09,3.09h6.21
					C121.53,293.17,120.61,291.45,118.44,291.45z"/>
				<path class="st4" d="M131.21,291.87c-0.97,0.08-1.91,0.5-2.52,1.41v6.26c0,0.5-0.42,0.92-0.95,0.92h-0.02
					c-0.5-0.02-0.9-0.42-0.9-0.92v-8.57c0-0.48,0.42-0.9,0.97-0.9c0.48,0,0.9,0.42,0.9,0.9v0.8c0.57-0.78,1.49-1.72,2.62-1.72
					c0.48,0,0.84,0.36,0.84,0.84C132.16,291.43,131.74,291.82,131.21,291.87z"/>
				<path class="st4" d="M147.93,300.58c-4.18,0-7.05-3.09-7.05-7.24c0-4.16,2.88-7.24,7.05-7.24c4.16,0,7.05,3.09,7.05,7.24
					C154.98,297.49,152.08,300.58,147.93,300.58z M147.93,287.94c-3,0-4.89,2.29-4.89,5.4c0,3.09,1.89,5.4,4.89,5.4
					c2.98,0,4.91-2.31,4.91-5.4C152.84,290.23,150.91,287.94,147.93,287.94z"/>
				<path class="st4" d="M166.3,300.45c-0.5,0-0.92-0.42-0.92-0.92v-5.71c0-1.68-0.86-2.23-2.16-2.23c-1.2,0-2.27,0.71-2.81,1.49
					v6.45c0,0.5-0.42,0.92-0.94,0.92c-0.5,0-0.92-0.42-0.92-0.92v-8.57c0-0.48,0.42-0.9,0.97-0.9c0.48,0,0.9,0.42,0.9,0.9v0.65
					c0.69-0.82,2.04-1.68,3.59-1.68c2.14,0,3.25,1.11,3.25,3.25v6.34C167.25,300.03,166.83,300.45,166.3,300.45z"/>
				<path class="st4" d="M172.24,300.45c-0.5,0-0.92-0.42-0.92-0.92V287.1c0-0.48,0.42-0.9,0.97-0.9c0.48,0,0.9,0.42,0.9,0.9v12.43
					C173.19,300.03,172.77,300.45,172.24,300.45z"/>
				<path class="st4" d="M179.39,287.65c0,0.65-0.53,1.2-1.2,1.2c-0.65,0-1.2-0.55-1.2-1.2c0-0.67,0.55-1.22,1.2-1.22
					C178.86,286.43,179.39,286.98,179.39,287.65z M178.19,300.45c-0.5,0-0.92-0.42-0.92-0.92v-8.57c0-0.48,0.42-0.9,0.97-0.9
					c0.48,0,0.9,0.42,0.9,0.9v8.57C179.13,300.03,178.71,300.45,178.19,300.45z"/>
				<path class="st4" d="M190.98,300.45c-0.5,0-0.92-0.42-0.92-0.92v-5.71c0-1.68-0.86-2.23-2.16-2.23c-1.2,0-2.27,0.71-2.81,1.49
					v6.45c0,0.5-0.42,0.92-0.94,0.92c-0.5,0-0.92-0.42-0.92-0.92v-8.57c0-0.48,0.42-0.9,0.97-0.9c0.48,0,0.9,0.42,0.9,0.9v0.65
					c0.69-0.82,2.04-1.68,3.59-1.68c2.14,0,3.25,1.11,3.25,3.25v6.34C191.92,300.03,191.5,300.45,190.98,300.45z"/>
				<path class="st4" d="M204.39,295.86h-7.05c0.15,1.74,1.41,3.21,3.46,3.21c0.86,0,1.79-0.29,2.52-0.84
					c0.13-0.06,0.27-0.11,0.42-0.11c0.34,0,0.76,0.29,0.76,0.76c0,1.13-2.6,1.7-3.88,1.7c-3.02,0-5.23-2.14-5.23-5.33
					c0-2.94,2.12-5.31,5.06-5.31c2.46,0,4.14,1.53,4.72,3.8c0.08,0.34,0.19,0.78,0.19,1.18
					C205.36,295.42,204.92,295.86,204.39,295.86z M200.43,291.45c-2.02,0-3,1.68-3.09,3.09h6.21
					C203.51,293.17,202.59,291.45,200.43,291.45z"/>
				<path class="st4" d="M116.29,313.37c0.17,0.19,0.25,0.42,0.25,0.67c0,0.53-0.44,0.97-0.99,0.97c-0.25,0-0.55-0.11-0.71-0.34
					c-0.82-0.95-2.12-1.53-3.34-1.53c-2.94,0-5.12,2.25-5.12,5.4c0,3.13,2.18,5.4,5.12,5.4c1.24,0,2.48-0.55,3.34-1.51
					c0.17-0.21,0.46-0.34,0.73-0.34c0.55,0,0.97,0.46,0.97,0.97c0,0.25-0.08,0.48-0.25,0.65c-1.09,1.18-2.6,2.08-4.79,2.08
					c-4.07,0-7.29-2.94-7.29-7.24c0-4.3,3.21-7.24,7.29-7.24C113.69,311.29,115.22,312.18,116.29,313.37z"/>
				<path class="st4" d="M127.86,325.65c-0.5,0-0.92-0.42-0.92-0.92v-5.75c0-1.68-0.88-2.18-2.18-2.18c-1.18,0-2.25,0.71-2.81,1.49
					v6.45c0,0.5-0.42,0.92-0.95,0.92c-0.5,0-0.92-0.42-0.92-0.92V312.3c0-0.48,0.42-0.9,0.97-0.9c0.48,0,0.9,0.42,0.9,0.9v4.51
					c0.69-0.82,2.04-1.68,3.61-1.68c2.14,0,3.25,1.07,3.25,3.21v6.38C128.81,325.23,128.39,325.65,127.86,325.65z"/>
				<path class="st4" d="M141.28,321.06h-7.05c0.15,1.74,1.41,3.21,3.46,3.21c0.86,0,1.79-0.29,2.52-0.84
					c0.13-0.06,0.27-0.1,0.42-0.1c0.34,0,0.76,0.29,0.76,0.76c0,1.13-2.6,1.7-3.88,1.7c-3.02,0-5.23-2.14-5.23-5.33
					c0-2.94,2.12-5.31,5.06-5.31c2.46,0,4.14,1.53,4.72,3.8c0.08,0.34,0.19,0.78,0.19,1.18
					C142.24,320.62,141.8,321.06,141.28,321.06z M137.31,316.65c-2.02,0-3,1.68-3.09,3.09h6.21
					C140.4,318.37,139.47,316.65,137.31,316.65z"/>
				<path class="st4" d="M153.52,324.54c-0.76,0.74-1.78,1.24-3.3,1.24c-3.04,0-5.14-2.29-5.14-5.33c0-3.02,2.1-5.31,5.14-5.31
					c1.55,0,2.69,0.55,3.38,1.34c0.11,0.13,0.15,0.27,0.15,0.44c0,0.46-0.4,0.84-0.86,0.84c-0.21,0-0.42-0.08-0.59-0.23
					c-0.57-0.5-1.24-0.74-1.97-0.74c-2.02,0-3.32,1.53-3.32,3.65s1.3,3.67,3.32,3.67c0.76,0,1.41-0.25,1.97-0.76
					c0.17-0.13,0.38-0.19,0.59-0.19c0.44,0,0.88,0.34,0.88,0.82C153.77,324.19,153.69,324.4,153.52,324.54z"/>
				<path class="st4" d="M164.53,325.68c-0.27,0-0.57-0.13-0.73-0.38l-3.21-4.16l-1.55,1.57v2.02c0,0.5-0.42,0.92-0.95,0.92
					c-0.5,0-0.92-0.42-0.92-0.92V312.3c0-0.48,0.42-0.9,0.97-0.9c0.48,0,0.9,0.42,0.9,0.9v8.25l4.79-5.04
					c0.17-0.17,0.4-0.27,0.61-0.27c0.46,0,0.88,0.42,0.88,0.88c0,0.21-0.08,0.4-0.23,0.57l-3.15,3.3l3.34,4.2
					c0.13,0.15,0.19,0.36,0.19,0.55C165.45,325.17,165.09,325.68,164.53,325.68z"/>
				<path class="st4" d="M172.42,321.27h-3.7c-0.44,0-0.8-0.36-0.8-0.84c0-0.44,0.36-0.8,0.8-0.8h3.7c0.44,0,0.8,0.36,0.8,0.8
					C173.22,320.91,172.86,321.27,172.42,321.27z"/>
				<path class="st4" d="M178.41,312.85c0,0.65-0.53,1.2-1.2,1.2c-0.65,0-1.2-0.54-1.2-1.2c0-0.67,0.55-1.22,1.2-1.22
					C177.88,311.63,178.41,312.18,178.41,312.85z M177.21,325.65c-0.5,0-0.92-0.42-0.92-0.92v-8.57c0-0.48,0.42-0.9,0.97-0.9
					c0.48,0,0.9,0.42,0.9,0.9v8.57C178.16,325.23,177.74,325.65,177.21,325.65z"/>
				<path class="st4" d="M190,325.65c-0.5,0-0.92-0.42-0.92-0.92v-5.71c0-1.68-0.86-2.23-2.16-2.23c-1.2,0-2.27,0.71-2.81,1.49v6.45
					c0,0.5-0.42,0.92-0.94,0.92c-0.5,0-0.92-0.42-0.92-0.92v-8.57c0-0.48,0.42-0.9,0.97-0.9c0.48,0,0.9,0.42,0.9,0.9v0.65
					c0.69-0.82,2.04-1.68,3.59-1.68c2.14,0,3.25,1.11,3.25,3.25v6.34C190.94,325.23,190.52,325.65,190,325.65z"/>
			</g>
		</g>
	</g>
	<g>
		<g>
			<rect x="307.37" y="234.15" class="st3" width="223.1" height="120.46"/>
			<g>
				<g>
					<path class="st4" d="M346.44,300.33h-7.22c-0.76,0-1.36-0.61-1.36-1.36v-11.28c0-0.76,0.61-1.37,1.36-1.37h7.22
						c0.5,0,0.9,0.4,0.9,0.95c0,0.48-0.4,0.9-0.9,0.9h-6.51v4.09h6.36c0.5,0,0.9,0.4,0.9,0.94c0,0.48-0.4,0.9-0.9,0.9h-6.36v4.37
						h6.51c0.5,0,0.9,0.42,0.9,0.9C347.34,299.93,346.94,300.33,346.44,300.33z"/>
					<path class="st4" d="M358.64,300.45c-0.5,0-0.92-0.42-0.92-0.92v-5.71c0-1.68-0.86-2.23-2.16-2.23c-1.2,0-2.27,0.71-2.81,1.49
						v6.45c0,0.5-0.42,0.92-0.95,0.92c-0.5,0-0.92-0.42-0.92-0.92v-8.57c0-0.48,0.42-0.9,0.97-0.9c0.48,0,0.9,0.42,0.9,0.9v0.65
						c0.69-0.82,2.04-1.68,3.59-1.68c2.14,0,3.25,1.11,3.25,3.25v6.34C359.58,300.03,359.16,300.45,358.64,300.45z"/>
					<path class="st4" d="M366.45,300.58c-1.6,0-2.44-0.88-2.44-2.48v-6.28h-0.99c-0.46,0-0.82-0.36-0.82-0.84
						c0-0.44,0.36-0.8,0.82-0.8h0.99v-1.99c0-0.48,0.42-0.9,0.96-0.9c0.5,0,0.92,0.42,0.92,0.9v1.99h1.39c0.44,0,0.8,0.36,0.8,0.84
						c0,0.44-0.36,0.8-0.8,0.8h-1.39v5.84c0,0.78,0.38,1.26,0.99,1.26c0.23,0,0.48-0.1,0.69-0.1c0.46,0,0.8,0.34,0.8,0.78
						C368.38,300.27,367.56,300.58,366.45,300.58z"/>
					<path class="st4" d="M379.53,295.86h-7.05c0.15,1.74,1.41,3.21,3.46,3.21c0.86,0,1.79-0.29,2.52-0.84
						c0.13-0.06,0.27-0.1,0.42-0.1c0.34,0,0.76,0.29,0.76,0.76c0,1.13-2.6,1.7-3.88,1.7c-3.02,0-5.23-2.14-5.23-5.33
						c0-2.94,2.12-5.31,5.06-5.31c2.46,0,4.14,1.53,4.72,3.8c0.08,0.34,0.19,0.78,0.19,1.18
						C380.5,295.42,380.06,295.86,379.53,295.86z M375.57,291.45c-2.02,0-3,1.68-3.09,3.09h6.21
						C378.65,293.17,377.73,291.45,375.57,291.45z"/>
					<path class="st4" d="M388.33,291.87c-0.97,0.08-1.91,0.5-2.52,1.41v6.26c0,0.5-0.42,0.92-0.95,0.92h-0.02
						c-0.5-0.02-0.9-0.42-0.9-0.92v-8.57c0-0.48,0.42-0.9,0.97-0.9c0.48,0,0.9,0.42,0.9,0.9v0.8c0.57-0.78,1.49-1.72,2.62-1.72
						c0.48,0,0.84,0.36,0.84,0.84C389.28,291.43,388.86,291.83,388.33,291.87z"/>
					<path class="st4" d="M405.3,300.33h-5.33c-0.76,0-1.36-0.61-1.36-1.36v-11.28c0-0.76,0.61-1.37,1.36-1.37h5.17
						c2.5,0,3.97,1.53,3.97,3.57c0,1.76-1.16,2.94-2.46,3.21c1.49,0.23,2.73,1.74,2.73,3.44
						C409.37,298.75,407.9,300.33,405.3,300.33z M404.75,288.15h-4.07v4.12h4.07c1.41,0,2.2-0.88,2.2-2.06
						C406.96,289.05,406.16,288.15,404.75,288.15z M404.84,294.09h-4.16v4.41h4.16c1.51,0,2.39-0.84,2.39-2.2
						C407.23,295.12,406.41,294.09,404.84,294.09z"/>
					<path class="st4" d="M417.48,300.58c-3.15,0-5.1-2.42-5.1-5.33s1.95-5.31,5.1-5.31c3.17,0,5.12,2.39,5.12,5.31
						S420.65,300.58,417.48,300.58z M417.48,291.59c-2.02,0-3.17,1.72-3.17,3.65c0,1.95,1.16,3.67,3.17,3.67
						c2.04,0,3.17-1.72,3.17-3.67C420.65,293.32,419.52,291.59,417.48,291.59z"/>
					<path class="st4" d="M430.56,300.58c-3.15,0-5.1-2.42-5.1-5.33s1.95-5.31,5.1-5.31c3.17,0,5.12,2.39,5.12,5.31
						S433.73,300.58,430.56,300.58z M430.56,291.59c-2.02,0-3.17,1.72-3.17,3.65c0,1.95,1.15,3.67,3.17,3.67
						c2.04,0,3.17-1.72,3.17-3.67C433.73,293.32,432.6,291.59,430.56,291.59z"/>
					<path class="st4" d="M446.52,300.48c-0.27,0-0.57-0.13-0.73-0.38l-3.21-4.16l-1.55,1.57v2.02c0,0.5-0.42,0.92-0.95,0.92
						c-0.5,0-0.92-0.42-0.92-0.92V287.1c0-0.48,0.42-0.9,0.97-0.9c0.48,0,0.9,0.42,0.9,0.9v8.25l4.79-5.04
						c0.17-0.17,0.4-0.27,0.61-0.27c0.46,0,0.88,0.42,0.88,0.88c0,0.21-0.08,0.4-0.23,0.57l-3.15,3.3l3.34,4.2
						c0.13,0.15,0.19,0.36,0.19,0.55C447.45,299.97,447.09,300.48,446.52,300.48z"/>
					<path class="st4" d="M453.24,287.65c0,0.65-0.52,1.2-1.2,1.2c-0.65,0-1.2-0.54-1.2-1.2c0-0.67,0.54-1.22,1.2-1.22
						C452.72,286.43,453.24,286.98,453.24,287.65z M452.05,300.45c-0.5,0-0.92-0.42-0.92-0.92v-8.57c0-0.48,0.42-0.9,0.97-0.9
						c0.48,0,0.9,0.42,0.9,0.9v8.57C452.99,300.03,452.57,300.45,452.05,300.45z"/>
					<path class="st4" d="M464.83,300.45c-0.5,0-0.92-0.42-0.92-0.92v-5.71c0-1.68-0.86-2.23-2.16-2.23c-1.2,0-2.27,0.71-2.81,1.49
						v6.45c0,0.5-0.42,0.92-0.95,0.92c-0.5,0-0.92-0.42-0.92-0.92v-8.57c0-0.48,0.42-0.9,0.97-0.9c0.48,0,0.9,0.42,0.9,0.9v0.65
						c0.69-0.82,2.04-1.68,3.59-1.68c2.14,0,3.25,1.11,3.25,3.25v6.34C465.78,300.03,465.36,300.45,464.83,300.45z"/>
					<path class="st4" d="M473.95,304.44c-1.43,0-2.86-0.29-3.84-1.24c-0.13-0.13-0.21-0.31-0.21-0.52c0-0.44,0.38-0.8,0.8-0.8
						c0.19,0,0.34,0.04,0.48,0.15c0.78,0.65,1.66,0.88,2.77,0.88c1.58,0,3.13-0.76,3.13-2.92v-1.34c-0.76,1.03-1.95,1.76-3.34,1.76
						c-2.6,0-4.49-1.93-4.49-5.23c0-3.28,1.87-5.25,4.49-5.25c1.34,0,2.52,0.63,3.34,1.72v-0.69c0-0.48,0.42-0.9,0.97-0.9
						c0.48,0,0.9,0.42,0.9,0.9v8.96C478.95,303.42,476.43,304.44,473.95,304.44z M477.08,293.11c-0.53-0.82-1.68-1.51-2.83-1.51
						c-1.89,0-3.07,1.47-3.07,3.59c0,2.08,1.18,3.57,3.07,3.57c1.15,0,2.31-0.71,2.83-1.53V293.11z"/>
					<path class="st4" d="M499.34,291.34h-1.85l-1.34,3.99h1.51c0.34,0,0.61,0.27,0.61,0.63s-0.27,0.63-0.61,0.63h-1.95l-1.11,3.4
						c-0.11,0.29-0.38,0.48-0.67,0.48c-0.42,0-0.71-0.34-0.71-0.67c0-0.08,0.02-0.15,0.04-0.23l1.03-2.98h-2.25l-1.13,3.4
						c-0.11,0.29-0.38,0.48-0.67,0.48c-0.42,0-0.71-0.34-0.71-0.69c0-0.06,0.02-0.15,0.04-0.21l1.01-2.98h-1.39
						c-0.34,0-0.61-0.27-0.61-0.67c0-0.31,0.27-0.59,0.61-0.59H491l1.3-3.99h-1.45c-0.34,0-0.61-0.27-0.61-0.65
						c0-0.34,0.27-0.61,0.61-0.61h1.89l1.13-3.42c0.08-0.27,0.36-0.46,0.67-0.46c0.4,0,0.69,0.31,0.69,0.67c0,0.08,0,0.15-0.02,0.21
						l-0.99,3h2.21l1.13-3.42c0.1-0.27,0.38-0.46,0.67-0.46c0.42,0,0.69,0.31,0.69,0.67c0,0.08,0,0.15-0.02,0.21l-1.03,3h1.45
						c0.34,0,0.61,0.27,0.61,0.65C499.94,291.07,499.67,291.34,499.34,291.34z M493.77,291.34l-1.3,3.99h2.21l1.32-3.99H493.77z"/>
				</g>
			</g>
		</g>
		<g>
			<g>
				<path class="st4" d="M385.65,185.65h-2.16c-0.84,0-1.53-0.69-1.53-1.51v-15.2c0-0.82,0.69-1.51,1.53-1.51h2.16
					c0.38,0,0.74,0.34,0.74,0.78c0,0.42-0.36,0.76-0.74,0.76h-2.04v15.16h2.04c0.38,0,0.74,0.34,0.74,0.76
					C386.38,185.31,386.02,185.65,385.65,185.65z"/>
				<path class="st4" d="M393.96,181.91c-2.06,0-4.24-0.67-5.19-1.78c-0.17-0.21-0.25-0.44-0.25-0.69c0-0.65,0.57-1.2,1.2-1.2
					c0.23,0,0.48,0.06,0.67,0.21c0.97,0.73,2.2,1.26,3.67,1.26c1.97,0,2.77-0.99,2.77-1.89c0-2.9-8.15-1.09-8.15-6.26
					c0-2.33,2.02-4.12,5.1-4.12c1.68,0,3.78,0.52,4.7,1.53c0.17,0.19,0.25,0.44,0.25,0.67c0,0.65-0.61,1.16-1.22,1.16
					c-0.23,0-0.46-0.06-0.67-0.21c-0.99-0.65-2.14-0.94-3.28-0.94c-1.43,0-2.33,0.69-2.33,1.72c0,2.58,8.13,0.97,8.13,6.19
					C399.38,179.91,397.74,181.91,393.96,181.91z"/>
				<path class="st4" d="M405.38,181.91c-1.72,0-2.63-0.92-2.63-2.62v-5.79h-0.84c-0.52,0-0.96-0.44-0.96-1.01
					c0-0.53,0.44-0.97,0.96-0.97h0.84v-1.78c0-0.61,0.5-1.11,1.16-1.11c0.61,0,1.09,0.5,1.09,1.11v1.78h1.24
					c0.52,0,0.94,0.44,0.94,1.01c0,0.53-0.42,0.97-0.94,0.97h-1.24v5.23c0,0.78,0.44,1.2,0.97,1.2c0.15,0,0.34-0.06,0.46-0.06
					c0.61,0,0.99,0.42,0.99,0.97C407.42,181.49,406.81,181.91,405.38,181.91z"/>
				<path class="st4" d="M418.51,177.31h-6.68c0.15,1.51,1.3,2.79,3.19,2.79c0.73,0,1.57-0.23,2.27-0.67
					c0.15-0.08,0.31-0.13,0.46-0.13c0.46,0,0.94,0.38,0.94,0.92c0,1.16-2.6,1.68-3.9,1.68c-3.04,0-5.31-2.12-5.31-5.33
					c0-2.94,2.14-5.31,5.14-5.31c2.37,0,4.09,1.43,4.72,3.61c0.13,0.42,0.25,0.9,0.25,1.34
					C419.6,176.81,419.12,177.31,418.51,177.31z M414.62,173.07c-1.85,0-2.71,1.47-2.81,2.69h5.63
					C417.4,174.58,416.6,173.07,414.62,173.07z"/>
				<path class="st4" d="M428.34,181.91c-1.26,0-2.42-0.57-3.23-1.64v4.28c0,0.59-0.5,1.09-1.13,1.09c-0.63,0-1.11-0.5-1.11-1.09
					v-12.07c0-0.59,0.48-1.09,1.15-1.09c0.59,0,1.09,0.5,1.09,1.09v0.4c0.76-1.01,1.93-1.62,3.23-1.62c2.62,0,4.49,1.97,4.49,5.31
					S430.96,181.91,428.34,181.91z M427.67,173.26c-1.01,0-2.08,0.61-2.56,1.34v3.97c0.48,0.71,1.55,1.34,2.56,1.34
					c1.72,0,2.83-1.38,2.83-3.34C430.5,174.64,429.39,173.26,427.67,173.26z"/>
				<path class="st4" d="M446.38,181.78c-0.67,0-1.24-0.57-1.24-1.24v-9.64l-1.68,1.74c-0.19,0.21-0.44,0.29-0.69,0.29
					c-0.55,0-1.05-0.46-1.05-1.05c0-0.27,0.11-0.55,0.31-0.76l3.13-3.17c0.25-0.27,0.63-0.42,1.05-0.42c0.78,0,1.45,0.61,1.45,1.41
					v11.59C447.66,181.22,447.09,181.78,446.38,181.78z"/>
				<path class="st4" d="M453.31,185.65h-2.14c-0.42,0-0.76-0.34-0.76-0.78c0-0.42,0.34-0.76,0.76-0.76h2.02v-15.16h-2.02
					c-0.42,0-0.76-0.34-0.76-0.8c0-0.4,0.34-0.73,0.76-0.73h2.14c0.84,0,1.51,0.69,1.51,1.51v15.2
					C454.82,184.95,454.15,185.65,453.31,185.65z"/>
			</g>
		</g>
	</g>
	<g>
		<g>
			<rect x="848.45" y="234.15" class="st3" width="223.1" height="120.46"/>
			<g>
				<g>
					<path class="st4" d="M913.66,288c-4.03,0-7.29-2.9-7.29-7.26s3.25-7.24,7.29-7.24c2.14,0,3.74,0.82,4.85,1.95
						c0.19,0.17,0.25,0.44,0.25,0.67c0,0.52-0.42,0.96-0.95,0.96c-0.25,0-0.5-0.1-0.69-0.31c-0.86-0.88-2.16-1.43-3.46-1.43
						c-2.94,0-5.12,2.25-5.12,5.4c0,3.13,2.18,5.42,5.12,5.42c1.55,0,2.88-0.76,3.55-1.41v-2.54h-3.74c-0.5,0-0.9-0.4-0.9-0.92
						c0-0.5,0.4-0.9,0.9-0.9h4.43c0.76,0,1.39,0.61,1.39,1.37v2.67C919.29,286.68,916.22,288,913.66,288z"/>
					<path class="st4" d="M931.39,283.26h-7.05c0.15,1.74,1.41,3.21,3.46,3.21c0.86,0,1.78-0.29,2.52-0.84
						c0.13-0.06,0.27-0.1,0.42-0.1c0.34,0,0.76,0.29,0.76,0.76c0,1.13-2.6,1.7-3.88,1.7c-3.02,0-5.23-2.14-5.23-5.33
						c0-2.94,2.12-5.31,5.06-5.31c2.46,0,4.14,1.53,4.72,3.8c0.08,0.34,0.19,0.78,0.19,1.18
						C932.35,282.82,931.91,283.26,931.39,283.26z M927.42,278.85c-2.02,0-3,1.68-3.09,3.09h6.21
						C930.5,280.57,929.58,278.85,927.42,278.85z"/>
					<path class="st4" d="M938.59,287.98c-1.6,0-2.44-0.88-2.44-2.48v-6.28h-0.99c-0.46,0-0.82-0.36-0.82-0.84
						c0-0.44,0.36-0.8,0.82-0.8h0.99v-1.99c0-0.48,0.42-0.9,0.96-0.9c0.5,0,0.92,0.42,0.92,0.9v1.99h1.39c0.44,0,0.8,0.36,0.8,0.84
						c0,0.44-0.36,0.8-0.8,0.8h-1.39v5.84c0,0.78,0.38,1.26,0.99,1.26c0.23,0,0.48-0.1,0.69-0.1c0.46,0,0.8,0.34,0.8,0.78
						C940.52,287.67,939.7,287.98,938.59,287.98z"/>
					<path class="st4" d="M946.07,287.98c-1.6,0-2.44-0.88-2.44-2.48v-6.28h-0.99c-0.46,0-0.82-0.36-0.82-0.84
						c0-0.44,0.36-0.8,0.82-0.8h0.99v-1.99c0-0.48,0.42-0.9,0.97-0.9c0.5,0,0.92,0.42,0.92,0.9v1.99h1.38c0.44,0,0.8,0.36,0.8,0.84
						c0,0.44-0.36,0.8-0.8,0.8h-1.38v5.84c0,0.78,0.38,1.26,0.99,1.26c0.23,0,0.48-0.1,0.69-0.1c0.46,0,0.8,0.34,0.8,0.78
						C948,287.67,947.18,287.98,946.07,287.98z"/>
					<path class="st4" d="M952.87,275.05c0,0.65-0.52,1.2-1.2,1.2c-0.65,0-1.2-0.54-1.2-1.2c0-0.67,0.54-1.22,1.2-1.22
						C952.35,273.83,952.87,274.38,952.87,275.05z M951.67,287.85c-0.5,0-0.92-0.42-0.92-0.92v-8.57c0-0.48,0.42-0.9,0.97-0.9
						c0.48,0,0.9,0.42,0.9,0.9v8.57C952.62,287.43,952.2,287.85,951.67,287.85z"/>
					<path class="st4" d="M964.46,287.85c-0.5,0-0.92-0.42-0.92-0.92v-5.71c0-1.68-0.86-2.23-2.16-2.23c-1.2,0-2.27,0.71-2.81,1.49
						v6.45c0,0.5-0.42,0.92-0.95,0.92c-0.5,0-0.92-0.42-0.92-0.92v-8.57c0-0.48,0.42-0.9,0.97-0.9c0.48,0,0.9,0.42,0.9,0.9v0.65
						c0.69-0.82,2.04-1.68,3.59-1.68c2.14,0,3.25,1.11,3.25,3.25v6.34C965.41,287.43,964.99,287.85,964.46,287.85z"/>
					<path class="st4" d="M973.58,291.84c-1.43,0-2.86-0.29-3.84-1.24c-0.13-0.13-0.21-0.31-0.21-0.52c0-0.44,0.38-0.8,0.8-0.8
						c0.19,0,0.34,0.04,0.48,0.15c0.78,0.65,1.66,0.88,2.77,0.88c1.57,0,3.13-0.76,3.13-2.92v-1.34c-0.76,1.03-1.95,1.76-3.34,1.76
						c-2.6,0-4.49-1.93-4.49-5.23c0-3.28,1.87-5.25,4.49-5.25c1.34,0,2.52,0.63,3.34,1.72v-0.69c0-0.48,0.42-0.9,0.96-0.9
						c0.48,0,0.9,0.42,0.9,0.9v8.96C978.57,290.82,976.05,291.84,973.58,291.84z M976.71,280.51c-0.53-0.82-1.68-1.51-2.83-1.51
						c-1.89,0-3.07,1.47-3.07,3.59c0,2.08,1.18,3.57,3.07,3.57c1.15,0,2.31-0.71,2.83-1.53V280.51z"/>
					<path class="st4" d="M991.89,287.98c-1.6,0-2.44-0.88-2.44-2.48v-6.28h-0.99c-0.46,0-0.82-0.36-0.82-0.84
						c0-0.44,0.36-0.8,0.82-0.8h0.99v-1.99c0-0.48,0.42-0.9,0.96-0.9c0.5,0,0.92,0.42,0.92,0.9v1.99h1.39c0.44,0,0.8,0.36,0.8,0.84
						c0,0.44-0.36,0.8-0.8,0.8h-1.39v5.84c0,0.78,0.38,1.26,0.99,1.26c0.23,0,0.48-0.1,0.69-0.1c0.46,0,0.8,0.34,0.8,0.78
						C993.82,287.67,993,287.98,991.89,287.98z"/>
					<path class="st4" d="M1001.06,287.98c-3.15,0-5.1-2.42-5.1-5.33s1.95-5.31,5.1-5.31c3.17,0,5.12,2.39,5.12,5.31
						S1004.24,287.98,1001.06,287.98z M1001.06,278.99c-2.02,0-3.17,1.72-3.17,3.65c0,1.95,1.15,3.67,3.17,3.67
						c2.04,0,3.17-1.72,3.17-3.67C1004.24,280.72,1003.1,278.99,1001.06,278.99z"/>
					<path class="st4" d="M927.19,300.77h-3.57v11.25c0,0.57-0.46,1.03-1.05,1.03c-0.57,0-1.03-0.46-1.03-1.03v-11.25h-3.57
						c-0.5,0-0.9-0.42-0.9-0.95c0-0.5,0.4-0.9,0.9-0.9h9.22c0.5,0,0.9,0.4,0.9,0.94C928.09,300.35,927.69,300.77,927.19,300.77z"/>
					<path class="st4" d="M937.25,308.46h-7.05c0.15,1.74,1.41,3.21,3.46,3.21c0.86,0,1.78-0.29,2.52-0.84
						c0.13-0.06,0.27-0.11,0.42-0.11c0.34,0,0.76,0.29,0.76,0.76c0,1.13-2.6,1.7-3.88,1.7c-3.02,0-5.23-2.14-5.23-5.33
						c0-2.94,2.12-5.31,5.06-5.31c2.46,0,4.14,1.53,4.72,3.8c0.08,0.34,0.19,0.78,0.19,1.18
						C938.21,308.02,937.77,308.46,937.25,308.46z M933.28,304.05c-2.02,0-3,1.68-3.09,3.09h6.21
						C936.36,305.77,935.44,304.05,933.28,304.05z"/>
					<path class="st4" d="M946.04,304.47c-0.96,0.08-1.91,0.5-2.52,1.41v6.26c0,0.5-0.42,0.92-0.94,0.92h-0.02
						c-0.5-0.02-0.9-0.42-0.9-0.92v-8.57c0-0.48,0.42-0.9,0.97-0.9c0.48,0,0.9,0.42,0.9,0.9v0.8c0.57-0.78,1.49-1.72,2.63-1.72
						c0.48,0,0.84,0.36,0.84,0.84C946.99,304.03,946.57,304.42,946.04,304.47z"/>
					<path class="st4" d="M963.05,313.05c-0.5,0-0.92-0.42-0.92-0.92v-5.96c0-1.2-0.53-1.97-1.76-1.97c-1.03,0-2.06,0.73-2.54,1.47
						v6.47c0,0.5-0.42,0.92-0.95,0.92c-0.5,0-0.92-0.42-0.92-0.92v-5.96c0-1.2-0.5-1.97-1.78-1.97c-0.99,0-2,0.73-2.5,1.49v6.45
						c0,0.5-0.42,0.92-0.94,0.92c-0.5,0-0.92-0.42-0.92-0.92v-8.57c0-0.48,0.42-0.9,0.97-0.9c0.48,0,0.9,0.42,0.9,0.9v0.65
						c0.42-0.63,1.76-1.68,3.28-1.68c1.55,0,2.44,0.8,2.75,1.87c0.59-0.92,1.93-1.87,3.42-1.87c1.87,0,2.88,1.01,2.88,3.06v6.53
						C964,312.63,963.58,313.05,963.05,313.05z"/>
					<path class="st4" d="M970.2,300.25c0,0.65-0.53,1.2-1.2,1.2c-0.65,0-1.2-0.55-1.2-1.2c0-0.67,0.54-1.22,1.2-1.22
						C969.67,299.03,970.2,299.58,970.2,300.25z M969,313.05c-0.5,0-0.92-0.42-0.92-0.92v-8.57c0-0.48,0.42-0.9,0.97-0.9
						c0.48,0,0.9,0.42,0.9,0.9v8.57C969.94,312.63,969.52,313.05,969,313.05z"/>
					<path class="st4" d="M981.79,313.05c-0.5,0-0.92-0.42-0.92-0.92v-5.71c0-1.68-0.86-2.23-2.16-2.23c-1.2,0-2.27,0.71-2.81,1.49
						v6.45c0,0.5-0.42,0.92-0.95,0.92c-0.5,0-0.92-0.42-0.92-0.92v-8.57c0-0.48,0.42-0.9,0.96-0.9c0.48,0,0.9,0.42,0.9,0.9v0.65
						c0.69-0.82,2.04-1.68,3.59-1.68c2.14,0,3.25,1.11,3.25,3.25v6.34C982.73,312.63,982.31,313.05,981.79,313.05z"/>
					<path class="st4" d="M994.01,313.05h-0.06c-0.38,0-0.86-0.32-0.86-0.92v-0.34c-0.82,0.9-1.97,1.39-3.34,1.39
						c-1.68,0-3.53-1.13-3.53-3.36c0-2.29,1.85-3.32,3.53-3.32c1.38,0,2.54,0.44,3.34,1.34v-1.7c0-1.28-1.05-2.04-2.48-2.04
						c-0.95,0-1.79,0.29-2.54,0.88c-0.15,0.1-0.31,0.17-0.46,0.17c-0.38,0-0.78-0.29-0.78-0.74c0-0.17,0.06-0.34,0.19-0.48
						c0.97-0.97,2.5-1.41,3.86-1.41c2.18,0,4.07,0.94,4.07,3.53v6.07C994.95,312.63,994.53,313.05,994.01,313.05z M993.08,308.98
						c-0.57-0.78-1.57-1.18-2.63-1.18c-1.36,0-2.35,0.84-2.35,2.06c0,1.18,0.99,2,2.35,2c1.05,0,2.06-0.38,2.63-1.16V308.98z"/>
					<path class="st4" d="M999.93,313.05c-0.5,0-0.92-0.42-0.92-0.92V299.7c0-0.48,0.42-0.9,0.96-0.9c0.48,0,0.9,0.42,0.9,0.9v12.43
						C1000.88,312.63,1000.46,313.05,999.93,313.05z"/>
				</g>
			</g>
		</g>
		<g>
			<g>
				<path class="st4" d="M924.71,185.65h-2.16c-0.84,0-1.53-0.69-1.53-1.51v-15.2c0-0.82,0.69-1.51,1.53-1.51h2.16
					c0.38,0,0.74,0.34,0.74,0.78c0,0.42-0.36,0.76-0.74,0.76h-2.04v15.16h2.04c0.38,0,0.74,0.34,0.74,0.76
					C925.45,185.31,925.09,185.65,924.71,185.65z"/>
				<path class="st4" d="M933.03,181.91c-2.06,0-4.24-0.67-5.19-1.78c-0.17-0.21-0.25-0.44-0.25-0.69c0-0.65,0.57-1.2,1.2-1.2
					c0.23,0,0.48,0.06,0.67,0.21c0.97,0.73,2.2,1.26,3.67,1.26c1.97,0,2.77-0.99,2.77-1.89c0-2.9-8.15-1.09-8.15-6.26
					c0-2.33,2.02-4.12,5.1-4.12c1.68,0,3.78,0.52,4.7,1.53c0.17,0.19,0.25,0.44,0.25,0.67c0,0.65-0.61,1.16-1.22,1.16
					c-0.23,0-0.46-0.06-0.67-0.21c-0.99-0.65-2.14-0.94-3.28-0.94c-1.43,0-2.33,0.69-2.33,1.72c0,2.58,8.13,0.97,8.13,6.19
					C938.44,179.91,936.8,181.91,933.03,181.91z"/>
				<path class="st4" d="M944.45,181.91c-1.72,0-2.63-0.92-2.63-2.62v-5.79h-0.84c-0.52,0-0.96-0.44-0.96-1.01
					c0-0.53,0.44-0.97,0.96-0.97h0.84v-1.78c0-0.61,0.5-1.11,1.16-1.11c0.61,0,1.09,0.5,1.09,1.11v1.78h1.24
					c0.52,0,0.94,0.44,0.94,1.01c0,0.53-0.42,0.97-0.94,0.97h-1.24v5.23c0,0.78,0.44,1.2,0.97,1.2c0.15,0,0.34-0.06,0.46-0.06
					c0.61,0,0.99,0.42,0.99,0.97C946.49,181.49,945.88,181.91,944.45,181.91z"/>
				<path class="st4" d="M957.57,177.31h-6.68c0.15,1.51,1.3,2.79,3.19,2.79c0.73,0,1.57-0.23,2.27-0.67
					c0.15-0.08,0.31-0.13,0.46-0.13c0.46,0,0.94,0.38,0.94,0.92c0,1.16-2.6,1.68-3.9,1.68c-3.04,0-5.31-2.12-5.31-5.33
					c0-2.94,2.14-5.31,5.14-5.31c2.37,0,4.09,1.43,4.72,3.61c0.13,0.42,0.25,0.9,0.25,1.34
					C958.67,176.81,958.18,177.31,957.57,177.31z M953.69,173.07c-1.85,0-2.71,1.47-2.81,2.69h5.63
					C956.46,174.58,955.66,173.07,953.69,173.07z"/>
				<path class="st4" d="M967.4,181.91c-1.26,0-2.42-0.57-3.23-1.64v4.28c0,0.59-0.5,1.09-1.13,1.09c-0.63,0-1.11-0.5-1.11-1.09
					v-12.07c0-0.59,0.48-1.09,1.15-1.09c0.59,0,1.09,0.5,1.09,1.09v0.4c0.76-1.01,1.93-1.62,3.23-1.62c2.62,0,4.49,1.97,4.49,5.31
					S970.03,181.91,967.4,181.91z M966.73,173.26c-1.01,0-2.08,0.61-2.56,1.34v3.97c0.48,0.71,1.55,1.34,2.56,1.34
					c1.72,0,2.83-1.38,2.83-3.34C969.56,174.64,968.45,173.26,966.73,173.26z"/>
				<path class="st4" d="M985.94,181.91c-2.02,0-4.07-0.76-4.85-1.85c-0.13-0.17-0.19-0.34-0.19-0.55c0-0.61,0.52-1.13,1.11-1.13
					c0.23,0,0.46,0.08,0.65,0.21c0.92,0.69,2.08,1.09,3.21,1.09c1.83,0,2.88-0.84,2.88-2.1c0-1.37-1.07-1.95-3.07-1.95
					c-0.92,0.08-1.76-0.19-1.76-1.13c0-0.61,0.46-1.09,1.13-1.09c1.93,0.06,3.46-0.32,3.46-1.81c0-1.28-1.24-1.93-2.79-1.93
					c-1.11,0-2.08,0.34-2.94,0.99c-0.19,0.13-0.4,0.19-0.63,0.19c-0.52,0-1.09-0.44-1.09-1.05c0-0.29,0.13-0.57,0.38-0.76
					c1.11-0.99,2.6-1.6,4.51-1.6c3.04,0,5.08,1.43,5.08,3.78c0,1.85-1.58,2.96-3.04,3.21c1.37,0.13,3.25,1.24,3.25,3.4
					C991.26,180.21,989.2,181.91,985.94,181.91z"/>
				<path class="st4" d="M996.4,185.65h-2.14c-0.42,0-0.76-0.34-0.76-0.78c0-0.42,0.34-0.76,0.76-0.76h2.02v-15.16h-2.02
					c-0.42,0-0.76-0.34-0.76-0.8c0-0.4,0.34-0.73,0.76-0.73h2.14c0.84,0,1.51,0.69,1.51,1.51v15.2
					C997.91,184.95,997.24,185.65,996.4,185.65z"/>
			</g>
		</g>
	</g>
	<g>
		<g>
			<rect x="1118.99" y="234.15" class="st3" width="223.1" height="120.46"/>
			<g>
				<g>
					<path class="st4" d="M1170.25,300.58c-2.06,0-3.93-0.69-5.02-1.76c-0.17-0.19-0.25-0.42-0.25-0.65c0-0.52,0.4-1.03,0.97-1.03
						c0.19,0,0.42,0.06,0.59,0.19c0.96,0.82,2.27,1.43,3.8,1.43c2.27,0,3.07-1.2,3.07-2.18c0-3.32-8.23-1.41-8.23-6.47
						c0-2.31,2.06-3.99,4.96-3.99c1.74,0,3.53,0.54,4.58,1.51c0.19,0.17,0.27,0.42,0.27,0.65c0,0.53-0.46,0.97-0.99,0.97
						c-0.19,0-0.4-0.06-0.57-0.19c-1.03-0.76-2.25-1.11-3.46-1.11c-1.57,0-2.65,0.82-2.65,2.02c0,2.9,8.23,1.18,8.23,6.4
						C1175.54,298.54,1174.03,300.58,1170.25,300.58z"/>
					<path class="st4" d="M1187.38,295.86h-7.05c0.15,1.74,1.41,3.21,3.46,3.21c0.86,0,1.79-0.29,2.52-0.84
						c0.13-0.06,0.27-0.1,0.42-0.1c0.34,0,0.76,0.29,0.76,0.76c0,1.13-2.6,1.7-3.88,1.7c-3.02,0-5.23-2.14-5.23-5.33
						c0-2.94,2.12-5.31,5.06-5.31c2.46,0,4.14,1.53,4.72,3.8c0.08,0.34,0.19,0.78,0.19,1.18
						C1188.35,295.42,1187.91,295.86,1187.38,295.86z M1183.42,291.45c-2.02,0-3,1.68-3.09,3.09h6.21
						C1186.5,293.17,1185.58,291.45,1183.42,291.45z"/>
					<path class="st4" d="M1199.63,299.34c-0.76,0.74-1.78,1.24-3.3,1.24c-3.04,0-5.14-2.29-5.14-5.33c0-3.02,2.1-5.31,5.14-5.31
						c1.55,0,2.69,0.55,3.38,1.34c0.11,0.13,0.15,0.27,0.15,0.44c0,0.46-0.4,0.84-0.86,0.84c-0.21,0-0.42-0.08-0.59-0.23
						c-0.57-0.5-1.24-0.74-1.97-0.74c-2.02,0-3.32,1.53-3.32,3.65s1.3,3.67,3.32,3.67c0.76,0,1.41-0.25,1.97-0.76
						c0.17-0.13,0.38-0.19,0.59-0.19c0.44,0,0.88,0.34,0.88,0.82C1199.88,298.98,1199.8,299.19,1199.63,299.34z"/>
					<path class="st4" d="M1211.03,300.45c-0.5,0-0.92-0.42-0.92-0.92v-0.59c-0.76,0.86-2.06,1.64-3.61,1.64
						c-2.14,0-3.23-1.07-3.23-3.21v-6.4c0-0.48,0.42-0.9,0.97-0.9c0.48,0,0.9,0.42,0.9,0.9v5.75c0,1.68,0.86,2.2,2.16,2.2
						c1.18,0,2.25-0.67,2.81-1.45v-6.51c0-0.48,0.42-0.9,0.97-0.9c0.48,0,0.9,0.42,0.9,0.9v8.57
						C1211.98,300.03,1211.56,300.45,1211.03,300.45z"/>
					<path class="st4" d="M1220.44,291.87c-0.97,0.08-1.91,0.5-2.52,1.41v6.26c0,0.5-0.42,0.92-0.95,0.92h-0.02
						c-0.5-0.02-0.9-0.42-0.9-0.92v-8.57c0-0.48,0.42-0.9,0.97-0.9c0.48,0,0.9,0.42,0.9,0.9v0.8c0.57-0.78,1.49-1.72,2.62-1.72
						c0.48,0,0.84,0.36,0.84,0.84C1221.38,291.43,1220.96,291.83,1220.44,291.87z"/>
					<path class="st4" d="M1226.32,287.65c0,0.65-0.52,1.2-1.2,1.2c-0.65,0-1.2-0.54-1.2-1.2c0-0.67,0.54-1.22,1.2-1.22
						C1225.79,286.43,1226.32,286.98,1226.32,287.65z M1225.12,300.45c-0.5,0-0.92-0.42-0.92-0.92v-8.57c0-0.48,0.42-0.9,0.97-0.9
						c0.48,0,0.9,0.42,0.9,0.9v8.57C1226.07,300.03,1225.65,300.45,1225.12,300.45z"/>
					<path class="st4" d="M1232.93,300.58c-1.6,0-2.44-0.88-2.44-2.48v-6.28h-0.99c-0.46,0-0.82-0.36-0.82-0.84
						c0-0.44,0.36-0.8,0.82-0.8h0.99v-1.99c0-0.48,0.42-0.9,0.96-0.9c0.5,0,0.92,0.42,0.92,0.9v1.99h1.39c0.44,0,0.8,0.36,0.8,0.84
						c0,0.44-0.36,0.8-0.8,0.8h-1.39v5.84c0,0.78,0.38,1.26,0.99,1.26c0.23,0,0.48-0.1,0.69-0.1c0.46,0,0.8,0.34,0.8,0.78
						C1234.87,300.27,1234.05,300.58,1232.93,300.58z"/>
					<path class="st4" d="M1246.06,291.3l-4.54,10.98c-0.65,1.53-1.76,2.16-3.13,2.16c-0.65,0-1.34-0.15-1.34-0.84
						c0-0.48,0.38-0.84,0.84-0.84c0.17,0,0.34,0.02,0.48,0c0.57,0,1.03-0.23,1.37-0.97l0.59-1.34l-3.76-9.15
						c-0.04-0.11-0.06-0.21-0.06-0.31c0-0.46,0.38-0.92,0.95-0.92c0.36,0,0.71,0.21,0.86,0.59l3,7.52l2.98-7.52
						c0.15-0.36,0.5-0.59,0.88-0.59c0.55,0,0.95,0.44,0.95,0.92C1246.12,291.09,1246.1,291.22,1246.06,291.3z"/>
					<path class="st4" d="M1264.64,288.17h-3.57v11.25c0,0.57-0.46,1.03-1.05,1.03c-0.57,0-1.03-0.46-1.03-1.03v-11.25h-3.57
						c-0.5,0-0.9-0.42-0.9-0.94c0-0.5,0.4-0.9,0.9-0.9h9.22c0.5,0,0.9,0.4,0.9,0.95C1265.55,287.75,1265.15,288.17,1264.64,288.17z"
						/>
					<path class="st4" d="M1270.73,287.65c0,0.65-0.52,1.2-1.2,1.2c-0.65,0-1.2-0.54-1.2-1.2c0-0.67,0.54-1.22,1.2-1.22
						C1270.21,286.43,1270.73,286.98,1270.73,287.65z M1269.54,300.45c-0.5,0-0.92-0.42-0.92-0.92v-8.57c0-0.48,0.42-0.9,0.97-0.9
						c0.48,0,0.9,0.42,0.9,0.9v8.57C1270.48,300.03,1270.06,300.45,1269.54,300.45z"/>
					<path class="st4" d="M1279.76,300.58c-1.34,0-2.52-0.61-3.34-1.72v4.56c0,0.48-0.42,0.9-0.95,0.9c-0.5,0-0.92-0.42-0.92-0.9
						v-12.45c0-0.48,0.42-0.9,0.97-0.9c0.48,0,0.9,0.42,0.9,0.9v0.67c0.73-1.01,1.95-1.7,3.34-1.7c2.65,0,4.51,2,4.51,5.31
						C1284.28,298.54,1282.41,300.58,1279.76,300.58z M1279.24,291.59c-1.13,0-2.31,0.67-2.81,1.49v4.32
						c0.5,0.82,1.68,1.51,2.81,1.51c1.91,0,3.07-1.55,3.07-3.67S1281.15,291.59,1279.24,291.59z"/>
					<path class="st4" d="M1291,300.58c-1.39,0-2.92-0.4-3.84-1.32c-0.15-0.13-0.23-0.29-0.23-0.5c0-0.44,0.38-0.78,0.82-0.78
						c0.19,0,0.34,0.04,0.48,0.15c0.76,0.54,1.81,0.96,2.86,0.96c1.45,0,2.2-0.65,2.2-1.57c0-2.25-6.19-0.78-6.19-4.6
						c0-1.6,1.39-2.98,3.86-2.98c1.45,0,2.73,0.44,3.53,1.22c0.13,0.13,0.19,0.29,0.19,0.46c0,0.42-0.36,0.74-0.74,0.74
						c-0.17,0-0.32-0.04-0.44-0.15c-0.65-0.46-1.55-0.78-2.52-0.78c-1.28,0-2.08,0.61-2.08,1.43c0,2.04,6.21,0.63,6.21,4.62
						C1295.11,299.19,1293.69,300.58,1291,300.58z"/>
				</g>
			</g>
		</g>
		<g>
			<g>
				<path class="st4" d="M1195.18,185.65h-2.16c-0.84,0-1.53-0.69-1.53-1.51v-15.2c0-0.82,0.69-1.51,1.53-1.51h2.16
					c0.38,0,0.74,0.34,0.74,0.78c0,0.42-0.36,0.76-0.74,0.76h-2.04v15.16h2.04c0.38,0,0.74,0.34,0.74,0.76
					C1195.91,185.31,1195.55,185.65,1195.18,185.65z"/>
				<path class="st4" d="M1203.49,181.91c-2.06,0-4.24-0.67-5.19-1.78c-0.17-0.21-0.25-0.44-0.25-0.69c0-0.65,0.57-1.2,1.2-1.2
					c0.23,0,0.48,0.06,0.67,0.21c0.97,0.73,2.2,1.26,3.67,1.26c1.97,0,2.77-0.99,2.77-1.89c0-2.9-8.15-1.09-8.15-6.26
					c0-2.33,2.02-4.12,5.1-4.12c1.68,0,3.78,0.52,4.7,1.53c0.17,0.19,0.25,0.44,0.25,0.67c0,0.65-0.61,1.16-1.22,1.16
					c-0.23,0-0.46-0.06-0.67-0.21c-0.99-0.65-2.14-0.94-3.28-0.94c-1.43,0-2.33,0.69-2.33,1.72c0,2.58,8.13,0.97,8.13,6.19
					C1208.91,179.91,1207.27,181.91,1203.49,181.91z"/>
				<path class="st4" d="M1214.92,181.91c-1.72,0-2.63-0.92-2.63-2.62v-5.79h-0.84c-0.52,0-0.96-0.44-0.96-1.01
					c0-0.53,0.44-0.97,0.96-0.97h0.84v-1.78c0-0.61,0.5-1.11,1.16-1.11c0.61,0,1.09,0.5,1.09,1.11v1.78h1.24
					c0.52,0,0.94,0.44,0.94,1.01c0,0.53-0.42,0.97-0.94,0.97h-1.24v5.23c0,0.78,0.44,1.2,0.97,1.2c0.15,0,0.34-0.06,0.46-0.06
					c0.61,0,0.99,0.42,0.99,0.97C1216.95,181.49,1216.34,181.91,1214.92,181.91z"/>
				<path class="st4" d="M1228.04,177.31h-6.68c0.15,1.51,1.3,2.79,3.19,2.79c0.73,0,1.57-0.23,2.27-0.67
					c0.15-0.08,0.31-0.13,0.46-0.13c0.46,0,0.94,0.38,0.94,0.92c0,1.16-2.6,1.68-3.9,1.68c-3.04,0-5.31-2.12-5.31-5.33
					c0-2.94,2.14-5.31,5.14-5.31c2.37,0,4.09,1.43,4.72,3.61c0.13,0.42,0.25,0.9,0.25,1.34
					C1229.13,176.81,1228.65,177.31,1228.04,177.31z M1224.16,173.07c-1.85,0-2.71,1.47-2.81,2.69h5.63
					C1226.93,174.58,1226.13,173.07,1224.16,173.07z"/>
				<path class="st4" d="M1237.87,181.91c-1.26,0-2.42-0.57-3.23-1.64v4.28c0,0.59-0.5,1.09-1.13,1.09c-0.63,0-1.11-0.5-1.11-1.09
					v-12.07c0-0.59,0.48-1.09,1.15-1.09c0.59,0,1.09,0.5,1.09,1.09v0.4c0.76-1.01,1.93-1.62,3.23-1.62c2.62,0,4.49,1.97,4.49,5.31
					S1240.49,181.91,1237.87,181.91z M1237.2,173.26c-1.01,0-2.08,0.61-2.56,1.34v3.97c0.48,0.71,1.55,1.34,2.56,1.34
					c1.72,0,2.83-1.38,2.83-3.34C1240.03,174.64,1238.92,173.26,1237.2,173.26z"/>
				<path class="st4" d="M1261.3,178.51h-0.92v2.04c0,0.67-0.54,1.24-1.26,1.24c-0.67,0-1.24-0.57-1.24-1.24v-2.04h-5.52
					c-0.69,0-1.28-0.57-1.28-1.37c0-0.29,0.08-0.57,0.23-0.82l5.04-7.79c0.4-0.61,1.16-1.01,1.89-1.01c1.11-0.13,2.14,0.5,2.14,1.6
					v7.18h0.92c0.59,0,1.07,0.48,1.07,1.11C1262.37,178.03,1261.89,178.51,1261.3,178.51z M1257.88,169.9l-4.22,6.4h4.22V169.9z"/>
				<path class="st4" d="M1267.02,185.65h-2.14c-0.42,0-0.76-0.34-0.76-0.78c0-0.42,0.34-0.76,0.76-0.76h2.02v-15.16h-2.02
					c-0.42,0-0.76-0.34-0.76-0.8c0-0.4,0.34-0.73,0.76-0.73h2.14c0.84,0,1.51,0.69,1.51,1.51v15.2
					C1268.53,184.95,1267.86,185.65,1267.02,185.65z"/>
			</g>
		</g>
	</g>
	<g>
		<g>
			<rect x="1389.53" y="234.15" class="st3" width="223.1" height="120.46"/>
			<g>
				<g>
					<path class="st4" d="M1430.47,300.6c-4.03,0-7.29-2.9-7.29-7.26s3.25-7.24,7.29-7.24c2.14,0,3.74,0.82,4.85,1.95
						c0.19,0.17,0.25,0.44,0.25,0.67c0,0.52-0.42,0.96-0.95,0.96c-0.25,0-0.5-0.1-0.69-0.31c-0.86-0.88-2.16-1.43-3.46-1.43
						c-2.94,0-5.12,2.25-5.12,5.4c0,3.13,2.18,5.42,5.12,5.42c1.55,0,2.88-0.76,3.55-1.41v-2.54h-3.74c-0.5,0-0.9-0.4-0.9-0.92
						c0-0.5,0.4-0.9,0.9-0.9h4.43c0.76,0,1.38,0.61,1.38,1.37v2.67C1436.09,299.28,1433.03,300.6,1430.47,300.6z"/>
					<path class="st4" d="M1448.19,295.86h-7.05c0.15,1.74,1.41,3.21,3.46,3.21c0.86,0,1.79-0.29,2.52-0.84
						c0.13-0.06,0.27-0.1,0.42-0.1c0.34,0,0.76,0.29,0.76,0.76c0,1.13-2.6,1.7-3.88,1.7c-3.02,0-5.23-2.14-5.23-5.33
						c0-2.94,2.12-5.31,5.06-5.31c2.46,0,4.13,1.53,4.72,3.8c0.08,0.34,0.19,0.78,0.19,1.18
						C1449.16,295.42,1448.71,295.86,1448.19,295.86z M1444.22,291.45c-2.02,0-3,1.68-3.09,3.09h6.21
						C1447.31,293.17,1446.38,291.45,1444.22,291.45z"/>
					<path class="st4" d="M1455.39,300.58c-1.6,0-2.44-0.88-2.44-2.48v-6.28h-0.99c-0.46,0-0.82-0.36-0.82-0.84
						c0-0.44,0.36-0.8,0.82-0.8h0.99v-1.99c0-0.48,0.42-0.9,0.97-0.9c0.5,0,0.92,0.42,0.92,0.9v1.99h1.38c0.44,0,0.8,0.36,0.8,0.84
						c0,0.44-0.36,0.8-0.8,0.8h-1.38v5.84c0,0.78,0.38,1.26,0.99,1.26c0.23,0,0.48-0.1,0.69-0.1c0.46,0,0.8,0.34,0.8,0.78
						C1457.33,300.27,1456.51,300.58,1455.39,300.58z"/>
					<path class="st4" d="M1462.87,300.58c-1.6,0-2.44-0.88-2.44-2.48v-6.28h-0.99c-0.46,0-0.82-0.36-0.82-0.84
						c0-0.44,0.36-0.8,0.82-0.8h0.99v-1.99c0-0.48,0.42-0.9,0.96-0.9c0.5,0,0.92,0.42,0.92,0.9v1.99h1.39c0.44,0,0.8,0.36,0.8,0.84
						c0,0.44-0.36,0.8-0.8,0.8h-1.39v5.84c0,0.78,0.38,1.26,0.99,1.26c0.23,0,0.48-0.1,0.69-0.1c0.46,0,0.8,0.34,0.8,0.78
						C1464.8,300.27,1463.98,300.58,1462.87,300.58z"/>
					<path class="st4" d="M1469.68,287.65c0,0.65-0.53,1.2-1.2,1.2c-0.65,0-1.2-0.54-1.2-1.2c0-0.67,0.55-1.22,1.2-1.22
						C1469.15,286.43,1469.68,286.98,1469.68,287.65z M1468.48,300.45c-0.5,0-0.92-0.42-0.92-0.92v-8.57c0-0.48,0.42-0.9,0.97-0.9
						c0.48,0,0.9,0.42,0.9,0.9v8.57C1469.42,300.03,1469,300.45,1468.48,300.45z"/>
					<path class="st4" d="M1481.27,300.45c-0.5,0-0.92-0.42-0.92-0.92v-5.71c0-1.68-0.86-2.23-2.16-2.23c-1.2,0-2.27,0.71-2.81,1.49
						v6.45c0,0.5-0.42,0.92-0.94,0.92c-0.5,0-0.92-0.42-0.92-0.92v-8.57c0-0.48,0.42-0.9,0.96-0.9c0.48,0,0.9,0.42,0.9,0.9v0.65
						c0.69-0.82,2.04-1.68,3.59-1.68c2.14,0,3.25,1.11,3.25,3.25v6.34C1482.21,300.03,1481.79,300.45,1481.27,300.45z"/>
					<path class="st4" d="M1490.38,304.44c-1.43,0-2.86-0.29-3.84-1.24c-0.13-0.13-0.21-0.31-0.21-0.52c0-0.44,0.38-0.8,0.8-0.8
						c0.19,0,0.34,0.04,0.48,0.15c0.78,0.65,1.66,0.88,2.77,0.88c1.57,0,3.13-0.76,3.13-2.92v-1.34c-0.76,1.03-1.95,1.76-3.34,1.76
						c-2.6,0-4.49-1.93-4.49-5.23c0-3.28,1.87-5.25,4.49-5.25c1.34,0,2.52,0.63,3.34,1.72v-0.69c0-0.48,0.42-0.9,0.96-0.9
						c0.48,0,0.9,0.42,0.9,0.9v8.96C1495.38,303.42,1492.86,304.44,1490.38,304.44z M1493.51,293.11c-0.53-0.82-1.68-1.51-2.84-1.51
						c-1.89,0-3.06,1.47-3.06,3.59c0,2.08,1.18,3.57,3.06,3.57c1.16,0,2.31-0.71,2.84-1.53V293.11z"/>
					<path class="st4" d="M1508.69,300.58c-1.6,0-2.44-0.88-2.44-2.48v-6.28h-0.99c-0.46,0-0.82-0.36-0.82-0.84
						c0-0.44,0.36-0.8,0.82-0.8h0.99v-1.99c0-0.48,0.42-0.9,0.97-0.9c0.5,0,0.92,0.42,0.92,0.9v1.99h1.38c0.44,0,0.8,0.36,0.8,0.84
						c0,0.44-0.36,0.8-0.8,0.8h-1.38v5.84c0,0.78,0.38,1.26,0.99,1.26c0.23,0,0.48-0.1,0.69-0.1c0.46,0,0.8,0.34,0.8,0.78
						C1510.62,300.27,1509.8,300.58,1508.69,300.58z"/>
					<path class="st4" d="M1517.87,300.58c-3.15,0-5.1-2.42-5.1-5.33s1.95-5.31,5.1-5.31c3.17,0,5.12,2.39,5.12,5.31
						S1521.04,300.58,1517.87,300.58z M1517.87,291.59c-2.02,0-3.17,1.72-3.17,3.65c0,1.95,1.15,3.67,3.17,3.67
						c2.04,0,3.17-1.72,3.17-3.67C1521.04,293.32,1519.91,291.59,1517.87,291.59z"/>
					<path class="st4" d="M1539.64,300.6c-4.03,0-7.29-2.9-7.29-7.26s3.25-7.24,7.29-7.24c2.14,0,3.74,0.82,4.85,1.95
						c0.19,0.17,0.25,0.44,0.25,0.67c0,0.52-0.42,0.96-0.95,0.96c-0.25,0-0.5-0.1-0.69-0.31c-0.86-0.88-2.16-1.43-3.46-1.43
						c-2.94,0-5.12,2.25-5.12,5.4c0,3.13,2.18,5.42,5.12,5.42c1.55,0,2.88-0.76,3.55-1.41v-2.54h-3.74c-0.5,0-0.9-0.4-0.9-0.92
						c0-0.5,0.4-0.9,0.9-0.9h4.43c0.76,0,1.38,0.61,1.38,1.37v2.67C1545.27,299.28,1542.21,300.6,1539.64,300.6z"/>
					<path class="st4" d="M1556.17,300.45h-0.06c-0.38,0-0.86-0.31-0.86-0.92v-0.34c-0.82,0.9-1.97,1.39-3.34,1.39
						c-1.68,0-3.53-1.13-3.53-3.36c0-2.29,1.85-3.32,3.53-3.32c1.39,0,2.54,0.44,3.34,1.34v-1.7c0-1.28-1.05-2.04-2.48-2.04
						c-0.95,0-1.79,0.29-2.54,0.88c-0.15,0.11-0.31,0.17-0.46,0.17c-0.38,0-0.78-0.29-0.78-0.73c0-0.17,0.06-0.34,0.19-0.48
						c0.96-0.97,2.5-1.41,3.86-1.41c2.18,0,4.07,0.95,4.07,3.53v6.07C1557.12,300.03,1556.7,300.45,1556.17,300.45z M1555.25,296.38
						c-0.57-0.78-1.57-1.18-2.62-1.18c-1.37,0-2.35,0.84-2.35,2.06c0,1.18,0.99,1.99,2.35,1.99c1.05,0,2.06-0.38,2.62-1.15V296.38z"
						/>
					<path class="st4" d="M1563.96,300.58c-1.6,0-2.44-0.88-2.44-2.48v-6.28h-0.99c-0.46,0-0.82-0.36-0.82-0.84
						c0-0.44,0.36-0.8,0.82-0.8h0.99v-1.99c0-0.48,0.42-0.9,0.97-0.9c0.5,0,0.92,0.42,0.92,0.9v1.99h1.38c0.44,0,0.8,0.36,0.8,0.84
						c0,0.44-0.36,0.8-0.8,0.8h-1.38v5.84c0,0.78,0.38,1.26,0.99,1.26c0.23,0,0.48-0.1,0.69-0.1c0.46,0,0.8,0.34,0.8,0.78
						C1565.89,300.27,1565.08,300.58,1563.96,300.58z"/>
					<path class="st4" d="M1577.05,295.86h-7.05c0.15,1.74,1.41,3.21,3.46,3.21c0.86,0,1.79-0.29,2.52-0.84
						c0.13-0.06,0.27-0.1,0.42-0.1c0.34,0,0.76,0.29,0.76,0.76c0,1.13-2.6,1.7-3.88,1.7c-3.02,0-5.23-2.14-5.23-5.33
						c0-2.94,2.12-5.31,5.06-5.31c2.46,0,4.13,1.53,4.72,3.8c0.08,0.34,0.19,0.78,0.19,1.18
						C1578.01,295.42,1577.57,295.86,1577.05,295.86z M1573.08,291.45c-2.02,0-3,1.68-3.09,3.09h6.21
						C1576.16,293.17,1575.24,291.45,1573.08,291.45z"/>
				</g>
			</g>
		</g>
		<g>
			<g>
				<path class="st4" d="M1465.52,185.65h-2.16c-0.84,0-1.53-0.69-1.53-1.51v-15.2c0-0.82,0.69-1.51,1.53-1.51h2.16
					c0.38,0,0.73,0.34,0.73,0.78c0,0.42-0.36,0.76-0.73,0.76h-2.04v15.16h2.04c0.38,0,0.73,0.34,0.73,0.76
					C1466.25,185.31,1465.89,185.65,1465.52,185.65z"/>
				<path class="st4" d="M1473.83,181.91c-2.06,0-4.24-0.67-5.19-1.78c-0.17-0.21-0.25-0.44-0.25-0.69c0-0.65,0.57-1.2,1.2-1.2
					c0.23,0,0.48,0.06,0.67,0.21c0.96,0.73,2.2,1.26,3.67,1.26c1.97,0,2.77-0.99,2.77-1.89c0-2.9-8.15-1.09-8.15-6.26
					c0-2.33,2.02-4.12,5.1-4.12c1.68,0,3.78,0.52,4.7,1.53c0.17,0.19,0.25,0.44,0.25,0.67c0,0.65-0.61,1.16-1.22,1.16
					c-0.23,0-0.46-0.06-0.67-0.21c-0.99-0.65-2.14-0.94-3.28-0.94c-1.43,0-2.33,0.69-2.33,1.72c0,2.58,8.13,0.97,8.13,6.19
					C1479.25,179.91,1477.61,181.91,1473.83,181.91z"/>
				<path class="st4" d="M1485.26,181.91c-1.72,0-2.63-0.92-2.63-2.62v-5.79h-0.84c-0.52,0-0.96-0.44-0.96-1.01
					c0-0.53,0.44-0.97,0.96-0.97h0.84v-1.78c0-0.61,0.5-1.11,1.16-1.11c0.61,0,1.09,0.5,1.09,1.11v1.78h1.24
					c0.53,0,0.95,0.44,0.95,1.01c0,0.53-0.42,0.97-0.95,0.97h-1.24v5.23c0,0.78,0.44,1.2,0.96,1.2c0.15,0,0.34-0.06,0.46-0.06
					c0.61,0,0.99,0.42,0.99,0.97C1487.29,181.49,1486.68,181.91,1485.26,181.91z"/>
				<path class="st4" d="M1498.38,177.31h-6.68c0.15,1.51,1.3,2.79,3.19,2.79c0.73,0,1.57-0.23,2.27-0.67
					c0.15-0.08,0.31-0.13,0.46-0.13c0.46,0,0.94,0.38,0.94,0.92c0,1.16-2.6,1.68-3.9,1.68c-3.04,0-5.31-2.12-5.31-5.33
					c0-2.94,2.14-5.31,5.14-5.31c2.37,0,4.09,1.43,4.72,3.61c0.13,0.42,0.25,0.9,0.25,1.34
					C1499.47,176.81,1498.99,177.31,1498.38,177.31z M1494.5,173.07c-1.85,0-2.71,1.47-2.81,2.69h5.63
					C1497.27,174.58,1496.47,173.07,1494.5,173.07z"/>
				<path class="st4" d="M1508.21,181.91c-1.26,0-2.41-0.57-3.23-1.64v4.28c0,0.59-0.5,1.09-1.13,1.09c-0.63,0-1.11-0.5-1.11-1.09
					v-12.07c0-0.59,0.48-1.09,1.15-1.09c0.59,0,1.09,0.5,1.09,1.09v0.4c0.76-1.01,1.93-1.62,3.23-1.62c2.63,0,4.49,1.97,4.49,5.31
					S1510.83,181.91,1508.21,181.91z M1507.54,173.26c-1.01,0-2.08,0.61-2.56,1.34v3.97c0.48,0.71,1.55,1.34,2.56,1.34
					c1.72,0,2.83-1.38,2.83-3.34C1510.37,174.64,1509.26,173.26,1507.54,173.26z"/>
				<path class="st4" d="M1527.34,181.91c-1.91,0-3.91-0.61-4.72-1.72c-0.13-0.17-0.19-0.38-0.19-0.59c0-0.61,0.55-1.13,1.18-1.13
					c0.23,0,0.46,0.06,0.69,0.21c0.84,0.67,1.85,1.01,3.02,1.01c1.76,0,2.86-1.09,2.86-2.44c0-1.47-1.07-2.44-2.79-2.44
					c-0.92,0-1.79,0.23-2.56,0.8c-0.27,0.21-0.63,0.32-0.99,0.32c-0.76,0-1.26-0.5-1.26-1.2v-5.56c0-0.82,0.67-1.51,1.51-1.51h6.74
					c0.59,0,1.07,0.48,1.07,1.11c0,0.61-0.48,1.09-1.07,1.09h-5.75v3.99c0.67-0.67,1.83-1.22,3.15-1.22c2.37,0,4.49,1.66,4.49,4.51
					C1532.71,180.08,1530.51,181.91,1527.34,181.91z"/>
				<path class="st4" d="M1537.76,185.65h-2.14c-0.42,0-0.76-0.34-0.76-0.78c0-0.42,0.34-0.76,0.76-0.76h2.02v-15.16h-2.02
					c-0.42,0-0.76-0.34-0.76-0.8c0-0.4,0.34-0.73,0.76-0.73h2.14c0.84,0,1.51,0.69,1.51,1.51v15.2
					C1539.27,184.95,1538.6,185.65,1537.76,185.65z"/>
			</g>
		</g>
	</g>
	<g>
		<g>
			<rect x="1660.07" y="240.45" class="st3" width="223.1" height="120.46"/>
			<g>
				<g>
					<path class="st4" d="M1684.65,294.03h-3.61c-0.76,0-1.37-0.61-1.37-1.36v-11.28c0-0.76,0.61-1.37,1.37-1.37h3.61
						c4.37,0,7.24,2.98,7.24,7.01C1691.89,291.09,1689.02,294.03,1684.65,294.03z M1684.65,281.87h-2.9v10.31h2.9
						c3.23,0,5.12-2.31,5.12-5.14C1689.77,284.16,1687.97,281.87,1684.65,281.87z"/>
					<path class="st4" d="M1699.96,294.28c-3.15,0-5.1-2.42-5.1-5.33s1.95-5.31,5.1-5.31c3.17,0,5.12,2.39,5.12,5.31
						S1703.13,294.28,1699.96,294.28z M1699.96,285.29c-2.02,0-3.17,1.72-3.17,3.65c0,1.95,1.15,3.67,3.17,3.67
						c2.04,0,3.17-1.72,3.17-3.67C1703.13,287.02,1702,285.29,1699.96,285.29z"/>
					<path class="st4" d="M1722.13,284.92l-2.64,8.38c-0.15,0.5-0.63,0.86-1.18,0.86h-0.02c-0.55,0-1.01-0.36-1.18-0.86l-2.27-7.08
						l-2.29,7.08c-0.15,0.5-0.63,0.86-1.18,0.86h-0.04c-0.53,0-0.99-0.36-1.16-0.86l-2.65-8.38c-0.02-0.08-0.04-0.17-0.04-0.25
						c0-0.44,0.38-0.9,0.9-0.9c0.4,0,0.8,0.25,0.92,0.63l2.16,7.24l2.35-7.16c0.15-0.42,0.53-0.71,1.03-0.71
						c0.44,0,0.82,0.29,0.96,0.71l2.37,7.16l2.16-7.24c0.11-0.38,0.48-0.63,0.88-0.63c0.54,0,0.92,0.42,0.92,0.9
						C1722.18,284.75,1722.15,284.83,1722.13,284.92z"/>
					<path class="st4" d="M1732.97,294.15c-0.5,0-0.92-0.42-0.92-0.92v-5.71c0-1.68-0.86-2.23-2.16-2.23c-1.2,0-2.27,0.71-2.81,1.49
						v6.45c0,0.5-0.42,0.92-0.94,0.92c-0.5,0-0.92-0.42-0.92-0.92v-8.57c0-0.48,0.42-0.9,0.97-0.9c0.48,0,0.9,0.42,0.9,0.9v0.65
						c0.69-0.82,2.04-1.68,3.59-1.68c2.14,0,3.25,1.11,3.25,3.25v6.34C1733.92,293.73,1733.5,294.15,1732.97,294.15z"/>
					<path class="st4" d="M1738.92,294.15c-0.5,0-0.92-0.42-0.92-0.92V280.8c0-0.48,0.42-0.9,0.97-0.9c0.48,0,0.9,0.42,0.9,0.9
						v12.43C1739.86,293.73,1739.44,294.15,1738.92,294.15z"/>
					<path class="st4" d="M1748.43,294.28c-3.15,0-5.1-2.42-5.1-5.33s1.95-5.31,5.1-5.31c3.17,0,5.12,2.39,5.12,5.31
						S1751.6,294.28,1748.43,294.28z M1748.43,285.29c-2.02,0-3.17,1.72-3.17,3.65c0,1.95,1.16,3.67,3.17,3.67
						c2.04,0,3.17-1.72,3.17-3.67C1751.6,287.02,1750.46,285.29,1748.43,285.29z"/>
					<path class="st4" d="M1764.22,294.15h-0.06c-0.38,0-0.86-0.31-0.86-0.92v-0.34c-0.82,0.9-1.97,1.39-3.34,1.39
						c-1.68,0-3.53-1.13-3.53-3.36c0-2.29,1.85-3.32,3.53-3.32c1.39,0,2.54,0.44,3.34,1.34v-1.7c0-1.28-1.05-2.04-2.48-2.04
						c-0.94,0-1.78,0.29-2.54,0.88c-0.15,0.11-0.32,0.17-0.46,0.17c-0.38,0-0.78-0.29-0.78-0.73c0-0.17,0.06-0.34,0.19-0.48
						c0.97-0.97,2.5-1.41,3.86-1.41c2.18,0,4.07,0.95,4.07,3.53v6.07C1765.16,293.73,1764.74,294.15,1764.22,294.15z
						 M1763.29,290.08c-0.57-0.78-1.58-1.18-2.63-1.18c-1.37,0-2.35,0.84-2.35,2.06c0,1.18,0.99,1.99,2.35,1.99
						c1.05,0,2.06-0.38,2.63-1.15V290.08z"/>
					<path class="st4" d="M1777.38,294.15c-0.5,0-0.92-0.42-0.92-0.92v-0.65c-0.78,1.01-1.97,1.7-3.34,1.7c-2.62,0-4.51-2-4.51-5.31
						c0-3.25,1.87-5.33,4.51-5.33c1.32,0,2.52,0.63,3.34,1.72v-4.56c0-0.48,0.42-0.9,0.96-0.9c0.48,0,0.9,0.42,0.9,0.9v12.43
						C1778.33,293.73,1777.91,294.15,1777.38,294.15z M1776.46,286.81c-0.53-0.82-1.68-1.51-2.86-1.51c-1.89,0-3.07,1.55-3.07,3.67
						c0,2.12,1.18,3.65,3.07,3.65c1.18,0,2.33-0.65,2.86-1.49V286.81z"/>
					<path class="st4" d="M1800.38,281.87c0.17,0.19,0.25,0.42,0.25,0.67c0,0.53-0.44,0.97-0.99,0.97c-0.25,0-0.55-0.11-0.71-0.34
						c-0.82-0.95-2.12-1.53-3.34-1.53c-2.94,0-5.12,2.25-5.12,5.4c0,3.13,2.18,5.4,5.12,5.4c1.24,0,2.48-0.55,3.34-1.51
						c0.17-0.21,0.46-0.34,0.73-0.34c0.55,0,0.97,0.46,0.97,0.97c0,0.25-0.08,0.48-0.25,0.65c-1.09,1.18-2.6,2.08-4.79,2.08
						c-4.07,0-7.29-2.94-7.29-7.24c0-4.3,3.21-7.24,7.29-7.24C1797.78,279.79,1799.31,280.67,1800.38,281.87z"/>
					<path class="st4" d="M1811.93,294.15c-0.5,0-0.92-0.42-0.92-0.92v-0.59c-0.76,0.86-2.06,1.64-3.61,1.64
						c-2.14,0-3.23-1.07-3.23-3.21v-6.4c0-0.48,0.42-0.9,0.97-0.9c0.48,0,0.9,0.42,0.9,0.9v5.75c0,1.68,0.86,2.2,2.16,2.2
						c1.18,0,2.25-0.67,2.81-1.45v-6.51c0-0.48,0.42-0.9,0.97-0.9c0.48,0,0.9,0.42,0.9,0.9v8.57
						C1812.87,293.73,1812.45,294.15,1811.93,294.15z"/>
					<path class="st4" d="M1820.27,294.28c-1.39,0-2.92-0.4-3.84-1.32c-0.15-0.13-0.23-0.29-0.23-0.5c0-0.44,0.38-0.78,0.82-0.78
						c0.19,0,0.34,0.04,0.48,0.15c0.76,0.54,1.81,0.96,2.86,0.96c1.45,0,2.2-0.65,2.2-1.57c0-2.25-6.19-0.78-6.19-4.6
						c0-1.6,1.39-2.98,3.86-2.98c1.45,0,2.73,0.44,3.53,1.22c0.13,0.13,0.19,0.29,0.19,0.46c0,0.42-0.36,0.74-0.74,0.74
						c-0.17,0-0.32-0.04-0.44-0.15c-0.65-0.46-1.55-0.78-2.52-0.78c-1.28,0-2.08,0.61-2.08,1.43c0,2.04,6.21,0.63,6.21,4.62
						C1824.38,292.89,1822.95,294.28,1820.27,294.28z"/>
					<path class="st4" d="M1830.62,294.28c-1.6,0-2.44-0.88-2.44-2.48v-6.28h-0.99c-0.46,0-0.82-0.36-0.82-0.84
						c0-0.44,0.36-0.8,0.82-0.8h0.99v-1.99c0-0.48,0.42-0.9,0.97-0.9c0.5,0,0.92,0.42,0.92,0.9v1.99h1.38c0.44,0,0.8,0.36,0.8,0.84
						c0,0.44-0.36,0.8-0.8,0.8h-1.38v5.84c0,0.78,0.38,1.26,0.99,1.26c0.23,0,0.48-0.1,0.69-0.1c0.46,0,0.8,0.34,0.8,0.78
						C1832.55,293.96,1831.73,294.28,1830.62,294.28z"/>
					<path class="st4" d="M1839.8,294.28c-3.15,0-5.1-2.42-5.1-5.33s1.95-5.31,5.1-5.31c3.17,0,5.12,2.39,5.12,5.31
						S1842.97,294.28,1839.8,294.28z M1839.8,285.29c-2.02,0-3.17,1.72-3.17,3.65c0,1.95,1.16,3.67,3.17,3.67
						c2.04,0,3.17-1.72,3.17-3.67C1842.97,287.02,1841.83,285.29,1839.8,285.29z"/>
					<path class="st4" d="M1861.63,294.15c-0.5,0-0.92-0.42-0.92-0.92v-5.96c0-1.2-0.53-1.97-1.76-1.97c-1.03,0-2.06,0.74-2.54,1.47
						v6.47c0,0.5-0.42,0.92-0.95,0.92c-0.5,0-0.92-0.42-0.92-0.92v-5.96c0-1.2-0.5-1.97-1.78-1.97c-0.99,0-2,0.74-2.5,1.49v6.45
						c0,0.5-0.42,0.92-0.94,0.92c-0.5,0-0.92-0.42-0.92-0.92v-8.57c0-0.48,0.42-0.9,0.97-0.9c0.48,0,0.9,0.42,0.9,0.9v0.65
						c0.42-0.63,1.76-1.68,3.28-1.68c1.55,0,2.44,0.8,2.75,1.87c0.59-0.92,1.93-1.87,3.42-1.87c1.87,0,2.88,1.01,2.88,3.07v6.53
						C1862.58,293.73,1862.16,294.15,1861.63,294.15z"/>
					<path class="st4" d="M1703.11,319.35c-0.59,0-1.05-0.46-1.05-1.03v-10.16l-4.45,10.85c-0.08,0.19-0.27,0.34-0.55,0.34
						c-0.21,0-0.42-0.15-0.5-0.34l-4.43-10.85v10.16c0,0.57-0.46,1.03-1.05,1.03c-0.57,0-1.03-0.46-1.03-1.03v-11.7
						c0-0.8,0.67-1.49,1.51-1.49c0.78-0.04,1.53,0.29,1.83,1.03l3.7,9.03l3.72-9.03c0.25-0.63,0.88-1.03,1.55-1.03
						c0.95-0.04,1.81,0.57,1.81,1.49v11.7C1704.16,318.89,1703.7,319.35,1703.11,319.35z"/>
					<path class="st4" d="M1715.48,319.35h-0.06c-0.38,0-0.86-0.32-0.86-0.92v-0.34c-0.82,0.9-1.97,1.39-3.34,1.39
						c-1.68,0-3.53-1.13-3.53-3.36c0-2.29,1.85-3.32,3.53-3.32c1.39,0,2.54,0.44,3.34,1.34v-1.7c0-1.28-1.05-2.04-2.48-2.04
						c-0.94,0-1.78,0.29-2.54,0.88c-0.15,0.1-0.32,0.17-0.46,0.17c-0.38,0-0.78-0.29-0.78-0.74c0-0.17,0.06-0.34,0.19-0.48
						c0.97-0.97,2.5-1.41,3.86-1.41c2.18,0,4.07,0.94,4.07,3.53v6.07C1716.42,318.93,1716,319.35,1715.48,319.35z M1714.55,315.28
						c-0.57-0.78-1.58-1.18-2.63-1.18c-1.37,0-2.35,0.84-2.35,2.06c0,1.18,0.99,2,2.35,2c1.05,0,2.06-0.38,2.63-1.16V315.28z"/>
					<path class="st4" d="M1725.68,319.48c-1.34,0-2.52-0.61-3.34-1.72v4.56c0,0.48-0.42,0.9-0.94,0.9c-0.5,0-0.92-0.42-0.92-0.9
						v-12.45c0-0.48,0.42-0.9,0.97-0.9c0.48,0,0.9,0.42,0.9,0.9v0.67c0.74-1.01,1.95-1.7,3.34-1.7c2.65,0,4.51,1.99,4.51,5.31
						C1730.2,317.44,1728.33,319.48,1725.68,319.48z M1725.16,310.49c-1.13,0-2.31,0.67-2.81,1.49v4.33
						c0.5,0.82,1.68,1.51,2.81,1.51c1.91,0,3.06-1.55,3.06-3.67S1727.07,310.49,1725.16,310.49z"/>
					<path class="st4" d="M1750.4,318.47c0,0.44-0.36,0.88-0.88,0.88c-0.59,0-1.45-1.03-1.89-1.49c-1.03,0.97-2.33,1.62-3.97,1.62
						c-2.46,0-4.43-1.32-4.43-3.95c0-2.16,1.45-3.28,3.06-4.12c-0.61-1.07-1.03-2.14-1.03-3.13c0-1.87,1.58-3.28,3.65-3.28
						c1.87,0,3.3,1.01,3.3,2.81c0,2.1-1.76,3.02-3.53,3.9c1.2,1.66,2.08,2.58,3.04,3.63c0.52-0.78,0.92-1.68,1.2-2.41
						c0.13-0.32,0.44-0.5,0.78-0.5c0.48,0,0.84,0.42,0.84,0.82c0,0.13-0.04,0.27-0.11,0.4c-0.4,0.92-1.01,2.02-1.62,2.88
						C1749.48,317.28,1750.4,317.88,1750.4,318.47z M1743.87,317.97c1.03,0,1.95-0.5,2.69-1.22c-1.89-2.02-2.46-2.67-3.49-4.14
						c-1.05,0.65-1.85,1.45-1.85,2.77C1741.22,317.02,1742.48,317.97,1743.87,317.97z M1743.18,308.33c0,0.69,0.31,1.49,0.78,2.27
						c1.41-0.69,2.58-1.41,2.58-2.69c0-0.95-0.67-1.47-1.53-1.47C1744,306.44,1743.18,307.22,1743.18,308.33z"/>
					<path class="st4" d="M1765.73,319.48c-2.06,0-3.93-0.69-5.02-1.76c-0.17-0.19-0.25-0.42-0.25-0.65c0-0.53,0.4-1.03,0.96-1.03
						c0.19,0,0.42,0.06,0.59,0.19c0.97,0.82,2.27,1.43,3.8,1.43c2.27,0,3.07-1.2,3.07-2.18c0-3.32-8.23-1.41-8.23-6.47
						c0-2.31,2.06-3.99,4.96-3.99c1.74,0,3.53,0.55,4.58,1.51c0.19,0.17,0.27,0.42,0.27,0.65c0,0.52-0.46,0.97-0.99,0.97
						c-0.19,0-0.4-0.06-0.57-0.19c-1.03-0.76-2.25-1.11-3.46-1.11c-1.58,0-2.65,0.82-2.65,2.02c0,2.9,8.23,1.18,8.23,6.4
						C1771.02,317.44,1769.51,319.48,1765.73,319.48z"/>
					<path class="st4" d="M1782.3,318.24c-0.76,0.73-1.78,1.24-3.3,1.24c-3.04,0-5.14-2.29-5.14-5.33c0-3.02,2.1-5.31,5.14-5.31
						c1.55,0,2.69,0.54,3.38,1.34c0.11,0.13,0.15,0.27,0.15,0.44c0,0.46-0.4,0.84-0.86,0.84c-0.21,0-0.42-0.08-0.59-0.23
						c-0.57-0.5-1.24-0.73-1.97-0.73c-2.02,0-3.32,1.53-3.32,3.65s1.3,3.67,3.32,3.67c0.76,0,1.41-0.25,1.97-0.76
						c0.17-0.13,0.38-0.19,0.59-0.19c0.44,0,0.88,0.34,0.88,0.82C1782.55,317.88,1782.47,318.09,1782.3,318.24z"/>
					<path class="st4" d="M1793.72,319.35c-0.5,0-0.92-0.42-0.92-0.92v-5.75c0-1.68-0.88-2.18-2.18-2.18
						c-1.18,0-2.25,0.71-2.81,1.49v6.45c0,0.5-0.42,0.92-0.95,0.92c-0.5,0-0.92-0.42-0.92-0.92V306c0-0.48,0.42-0.9,0.97-0.9
						c0.48,0,0.9,0.42,0.9,0.9v4.51c0.69-0.82,2.04-1.68,3.61-1.68c2.14,0,3.25,1.07,3.25,3.21v6.38
						C1794.67,318.93,1794.25,319.35,1793.72,319.35z"/>
					<path class="st4" d="M1807.14,314.76h-7.05c0.15,1.74,1.41,3.21,3.46,3.21c0.86,0,1.79-0.29,2.52-0.84
						c0.13-0.06,0.27-0.11,0.42-0.11c0.34,0,0.76,0.29,0.76,0.76c0,1.13-2.6,1.7-3.88,1.7c-3.02,0-5.23-2.14-5.23-5.33
						c0-2.94,2.12-5.31,5.06-5.31c2.46,0,4.14,1.53,4.72,3.8c0.08,0.34,0.19,0.78,0.19,1.18
						C1808.11,314.32,1807.67,314.76,1807.14,314.76z M1803.17,310.35c-2.02,0-3,1.68-3.09,3.09h6.21
						C1806.26,312.07,1805.34,310.35,1803.17,310.35z"/>
					<path class="st4" d="M1819.72,319.35c-0.5,0-0.92-0.42-0.92-0.92v-0.65c-0.78,1.01-1.97,1.7-3.34,1.7
						c-2.62,0-4.51-1.99-4.51-5.31c0-3.25,1.87-5.33,4.51-5.33c1.32,0,2.52,0.63,3.34,1.72V306c0-0.48,0.42-0.9,0.96-0.9
						c0.48,0,0.9,0.42,0.9,0.9v12.43C1820.67,318.93,1820.25,319.35,1819.72,319.35z M1818.8,312.01c-0.53-0.82-1.68-1.51-2.86-1.51
						c-1.89,0-3.07,1.55-3.07,3.67c0,2.12,1.18,3.65,3.07,3.65c1.18,0,2.33-0.65,2.86-1.49V312.01z"/>
					<path class="st4" d="M1832.51,319.35c-0.5,0-0.92-0.42-0.92-0.92v-0.59c-0.76,0.86-2.06,1.64-3.61,1.64
						c-2.14,0-3.23-1.07-3.23-3.21v-6.4c0-0.48,0.42-0.9,0.97-0.9c0.48,0,0.9,0.42,0.9,0.9v5.75c0,1.68,0.86,2.21,2.16,2.21
						c1.18,0,2.25-0.67,2.81-1.45v-6.51c0-0.48,0.42-0.9,0.97-0.9c0.48,0,0.9,0.42,0.9,0.9v8.57
						C1833.46,318.93,1833.04,319.35,1832.51,319.35z"/>
					<path class="st4" d="M1838.45,319.35c-0.5,0-0.92-0.42-0.92-0.92V306c0-0.48,0.42-0.9,0.97-0.9c0.48,0,0.9,0.42,0.9,0.9v12.43
						C1839.4,318.93,1838.98,319.35,1838.45,319.35z"/>
					<path class="st4" d="M1851.87,314.76h-7.05c0.15,1.74,1.41,3.21,3.46,3.21c0.86,0,1.78-0.29,2.52-0.84
						c0.13-0.06,0.27-0.11,0.42-0.11c0.34,0,0.76,0.29,0.76,0.76c0,1.13-2.6,1.7-3.88,1.7c-3.02,0-5.23-2.14-5.23-5.33
						c0-2.94,2.12-5.31,5.06-5.31c2.46,0,4.14,1.53,4.72,3.8c0.08,0.34,0.19,0.78,0.19,1.18
						C1852.84,314.32,1852.4,314.76,1851.87,314.76z M1847.9,310.35c-2.02,0-3,1.68-3.09,3.09h6.21
						C1850.99,312.07,1850.07,310.35,1847.9,310.35z"/>
				</g>
			</g>
		</g>
		<g>
			<g>
				<path class="st4" d="M1736.06,185.65h-2.16c-0.84,0-1.53-0.69-1.53-1.51v-15.2c0-0.82,0.69-1.51,1.53-1.51h2.16
					c0.38,0,0.74,0.34,0.74,0.78c0,0.42-0.36,0.76-0.74,0.76h-2.04v15.16h2.04c0.38,0,0.74,0.34,0.74,0.76
					C1736.79,185.31,1736.44,185.65,1736.06,185.65z"/>
				<path class="st4" d="M1744.37,181.91c-2.06,0-4.24-0.67-5.19-1.78c-0.17-0.21-0.25-0.44-0.25-0.69c0-0.65,0.57-1.2,1.2-1.2
					c0.23,0,0.48,0.06,0.67,0.21c0.97,0.73,2.2,1.26,3.67,1.26c1.97,0,2.77-0.99,2.77-1.89c0-2.9-8.15-1.09-8.15-6.26
					c0-2.33,2.02-4.12,5.1-4.12c1.68,0,3.78,0.52,4.7,1.53c0.17,0.19,0.25,0.44,0.25,0.67c0,0.65-0.61,1.16-1.22,1.16
					c-0.23,0-0.46-0.06-0.67-0.21c-0.99-0.65-2.14-0.94-3.28-0.94c-1.43,0-2.33,0.69-2.33,1.72c0,2.58,8.13,0.97,8.13,6.19
					C1749.79,179.91,1748.15,181.91,1744.37,181.91z"/>
				<path class="st4" d="M1755.8,181.91c-1.72,0-2.63-0.92-2.63-2.62v-5.79h-0.84c-0.52,0-0.96-0.44-0.96-1.01
					c0-0.53,0.44-0.97,0.96-0.97h0.84v-1.78c0-0.61,0.5-1.11,1.16-1.11c0.61,0,1.09,0.5,1.09,1.11v1.78h1.24
					c0.52,0,0.94,0.44,0.94,1.01c0,0.53-0.42,0.97-0.94,0.97h-1.24v5.23c0,0.78,0.44,1.2,0.97,1.2c0.15,0,0.34-0.06,0.46-0.06
					c0.61,0,0.99,0.42,0.99,0.97C1757.83,181.49,1757.22,181.91,1755.8,181.91z"/>
				<path class="st4" d="M1768.92,177.31h-6.68c0.15,1.51,1.3,2.79,3.19,2.79c0.73,0,1.57-0.23,2.27-0.67
					c0.15-0.08,0.31-0.13,0.46-0.13c0.46,0,0.94,0.38,0.94,0.92c0,1.16-2.6,1.68-3.9,1.68c-3.04,0-5.31-2.12-5.31-5.33
					c0-2.94,2.14-5.31,5.14-5.31c2.37,0,4.09,1.43,4.72,3.61c0.13,0.42,0.25,0.9,0.25,1.34
					C1770.01,176.81,1769.53,177.31,1768.92,177.31z M1765.04,173.07c-1.85,0-2.71,1.47-2.81,2.69h5.63
					C1767.81,174.58,1767.01,173.07,1765.04,173.07z"/>
				<path class="st4" d="M1778.75,181.91c-1.26,0-2.42-0.57-3.23-1.64v4.28c0,0.59-0.5,1.09-1.13,1.09c-0.63,0-1.11-0.5-1.11-1.09
					v-12.07c0-0.59,0.48-1.09,1.15-1.09c0.59,0,1.09,0.5,1.09,1.09v0.4c0.76-1.01,1.93-1.62,3.23-1.62c2.62,0,4.49,1.97,4.49,5.31
					S1781.37,181.91,1778.75,181.91z M1778.08,173.26c-1.01,0-2.08,0.61-2.56,1.34v3.97c0.48,0.71,1.55,1.34,2.56,1.34
					c1.72,0,2.83-1.38,2.83-3.34C1780.91,174.64,1779.8,173.26,1778.08,173.26z"/>
				<path class="st4" d="M1798.15,181.91c-4.14,0-5.79-3.34-5.79-7.22c0-4.07,2.14-7.24,6.19-7.24c1.43,0,2.94,0.42,3.63,1.32
					c0.11,0.17,0.17,0.36,0.17,0.57c0,0.65-0.59,1.09-1.13,1.09c-0.21,0-0.42-0.04-0.59-0.17c-0.55-0.38-1.2-0.59-2.08-0.59
					c-2.31,0-3.67,2.12-3.67,4.56c0,0.15,0,0.25,0.02,0.4c0.63-0.96,2.1-1.95,3.74-1.95c2.52,0,4.7,1.53,4.7,4.51
					C1803.34,179.81,1801.28,181.91,1798.15,181.91z M1797.94,174.83c-1.18,0-2.31,0.61-3.02,1.62c0.15,1.49,0.96,3.23,3.11,3.23
					c1.83,0,2.77-1.28,2.77-2.41C1800.8,175.59,1799.48,174.83,1797.94,174.83z"/>
				<path class="st4" d="M1808.3,185.65h-2.14c-0.42,0-0.76-0.34-0.76-0.78c0-0.42,0.34-0.76,0.76-0.76h2.02v-15.16h-2.02
					c-0.42,0-0.76-0.34-0.76-0.8c0-0.4,0.34-0.73,0.76-0.73h2.14c0.84,0,1.51,0.69,1.51,1.51v15.2
					C1809.81,184.95,1809.14,185.65,1808.3,185.65z"/>
			</g>
		</g>
	</g>
	<g>
		<g>
			<rect x="577.91" y="234.15" class="st3" width="223.1" height="120.46"/>
			<g>
				<g>
					<path class="st4" d="M654.58,269.73h-3.8v4.49c0,0.57-0.46,1.03-1.05,1.03c-0.57,0-1.03-0.46-1.03-1.03v-11.74
						c0-0.76,0.61-1.37,1.37-1.37h4.51c2.88,0,4.47,1.97,4.47,4.3S657.41,269.73,654.58,269.73z M654.31,262.97h-3.53v4.91h3.53
						c1.53,0,2.6-1.01,2.6-2.46C656.91,263.96,655.84,262.97,654.31,262.97z"/>
					<path class="st4" d="M666.61,266.67c-0.96,0.08-1.91,0.5-2.52,1.41v6.26c0,0.5-0.42,0.92-0.94,0.92h-0.02
						c-0.5-0.02-0.9-0.42-0.9-0.92v-8.57c0-0.48,0.42-0.9,0.97-0.9c0.48,0,0.9,0.42,0.9,0.9v0.8c0.57-0.78,1.49-1.72,2.63-1.72
						c0.48,0,0.84,0.36,0.84,0.84C667.56,266.23,667.14,266.63,666.61,266.67z"/>
					<path class="st4" d="M674.86,275.38c-3.15,0-5.1-2.42-5.1-5.33s1.95-5.31,5.1-5.31c3.17,0,5.12,2.39,5.12,5.31
						S678.04,275.38,674.86,275.38z M674.86,266.39c-2.02,0-3.17,1.72-3.17,3.65c0,1.95,1.16,3.67,3.17,3.67
						c2.04,0,3.17-1.72,3.17-3.67C678.04,268.12,676.9,266.39,674.86,266.39z"/>
					<path class="st4" d="M691.9,266.12l-3.4,8.25c-0.23,0.52-0.76,0.88-1.34,0.88h-0.04c-0.57,0-1.07-0.36-1.28-0.88l-3.42-8.25
						c-0.04-0.11-0.06-0.23-0.06-0.34c0-0.46,0.38-0.92,0.94-0.92c0.38,0,0.71,0.21,0.86,0.59l3,7.52l2.98-7.52
						c0.15-0.36,0.5-0.59,0.86-0.59c0.57,0,0.96,0.44,0.96,0.92C691.96,265.89,691.94,266.02,691.9,266.12z"/>
					<path class="st4" d="M697.04,262.45c0,0.65-0.53,1.2-1.2,1.2c-0.65,0-1.2-0.54-1.2-1.2c0-0.67,0.55-1.22,1.2-1.22
						C696.52,261.23,697.04,261.77,697.04,262.45z M695.84,275.25c-0.5,0-0.92-0.42-0.92-0.92v-8.57c0-0.48,0.42-0.9,0.97-0.9
						c0.48,0,0.9,0.42,0.9,0.9v8.57C696.79,274.83,696.37,275.25,695.84,275.25z"/>
					<path class="st4" d="M709.03,275.25c-0.5,0-0.92-0.42-0.92-0.92v-0.65c-0.78,1.01-1.97,1.7-3.34,1.7c-2.63,0-4.51-2-4.51-5.31
						c0-3.25,1.87-5.33,4.51-5.33c1.32,0,2.52,0.63,3.34,1.72v-4.56c0-0.48,0.42-0.9,0.97-0.9c0.48,0,0.9,0.42,0.9,0.9v12.43
						C709.98,274.83,709.56,275.25,709.03,275.25z M708.11,267.91c-0.52-0.82-1.68-1.51-2.86-1.51c-1.89,0-3.06,1.55-3.06,3.67
						c0,2.12,1.18,3.65,3.06,3.65c1.18,0,2.33-0.65,2.86-1.49V267.91z"/>
					<path class="st4" d="M722.45,270.66h-7.05c0.15,1.74,1.41,3.21,3.46,3.21c0.86,0,1.78-0.29,2.52-0.84
						c0.13-0.06,0.27-0.1,0.42-0.1c0.34,0,0.76,0.29,0.76,0.76c0,1.13-2.6,1.7-3.88,1.7c-3.02,0-5.23-2.14-5.23-5.33
						c0-2.94,2.12-5.31,5.06-5.31c2.46,0,4.14,1.53,4.72,3.8c0.08,0.34,0.19,0.78,0.19,1.18
						C723.42,270.22,722.98,270.66,722.45,270.66z M718.48,266.25c-2.02,0-3,1.68-3.09,3.09h6.21
						C721.57,267.97,720.64,266.25,718.48,266.25z"/>
					<path class="st4" d="M634.29,300.45c-0.44,0-0.84-0.25-1.01-0.67l-0.92-2.37h-6.7l-0.92,2.37c-0.17,0.42-0.57,0.67-1.01,0.67
						c-0.65,0-1.11-0.55-1.11-1.11c0-0.13,0.02-0.25,0.06-0.4l4.64-11.63c0.25-0.67,0.92-1.11,1.66-1.11
						c0.73-0.02,1.43,0.42,1.7,1.11l4.64,11.63c0.06,0.15,0.08,0.27,0.08,0.4C635.4,299.87,634.96,300.45,634.29,300.45z
						 M629,288.44l-2.75,7.14h5.52L629,288.44z"/>
					<path class="st4" d="M646.39,299.34c-0.76,0.73-1.79,1.24-3.3,1.24c-3.04,0-5.14-2.29-5.14-5.33c0-3.02,2.1-5.31,5.14-5.31
						c1.55,0,2.69,0.54,3.38,1.34c0.1,0.13,0.15,0.27,0.15,0.44c0,0.46-0.4,0.84-0.86,0.84c-0.21,0-0.42-0.08-0.59-0.23
						c-0.57-0.5-1.24-0.73-1.97-0.73c-2.02,0-3.32,1.53-3.32,3.65s1.3,3.67,3.32,3.67c0.76,0,1.41-0.25,1.97-0.76
						c0.17-0.13,0.38-0.19,0.59-0.19c0.44,0,0.88,0.34,0.88,0.82C646.64,298.98,646.56,299.19,646.39,299.34z"/>
					<path class="st4" d="M657.85,299.34c-0.76,0.73-1.78,1.24-3.3,1.24c-3.04,0-5.14-2.29-5.14-5.33c0-3.02,2.1-5.31,5.14-5.31
						c1.55,0,2.69,0.54,3.38,1.34c0.11,0.13,0.15,0.27,0.15,0.44c0,0.46-0.4,0.84-0.86,0.84c-0.21,0-0.42-0.08-0.59-0.23
						c-0.57-0.5-1.24-0.73-1.97-0.73c-2.02,0-3.32,1.53-3.32,3.65s1.3,3.67,3.32,3.67c0.76,0,1.41-0.25,1.97-0.76
						c0.17-0.13,0.38-0.19,0.59-0.19c0.44,0,0.88,0.34,0.88,0.82C658.11,298.98,658.02,299.19,657.85,299.34z"/>
					<path class="st4" d="M669.89,295.86h-7.05c0.15,1.74,1.41,3.21,3.46,3.21c0.86,0,1.78-0.29,2.52-0.84
						c0.13-0.06,0.27-0.11,0.42-0.11c0.34,0,0.76,0.29,0.76,0.76c0,1.13-2.6,1.7-3.88,1.7c-3.02,0-5.23-2.14-5.23-5.33
						c0-2.94,2.12-5.31,5.06-5.31c2.46,0,4.14,1.53,4.72,3.8c0.08,0.34,0.19,0.78,0.19,1.18
						C670.85,295.42,670.41,295.86,669.89,295.86z M665.92,291.45c-2.02,0-3,1.68-3.09,3.09h6.21
						C669.01,293.17,668.08,291.45,665.92,291.45z"/>
					<path class="st4" d="M677.62,300.58c-1.39,0-2.92-0.4-3.84-1.32c-0.15-0.13-0.23-0.29-0.23-0.5c0-0.44,0.38-0.78,0.82-0.78
						c0.19,0,0.34,0.04,0.48,0.15c0.76,0.55,1.81,0.97,2.86,0.97c1.45,0,2.21-0.65,2.21-1.58c0-2.25-6.19-0.78-6.19-4.6
						c0-1.6,1.39-2.98,3.86-2.98c1.45,0,2.73,0.44,3.53,1.22c0.13,0.13,0.19,0.29,0.19,0.46c0,0.42-0.36,0.73-0.73,0.73
						c-0.17,0-0.31-0.04-0.44-0.15c-0.65-0.46-1.55-0.78-2.52-0.78c-1.28,0-2.08,0.61-2.08,1.43c0,2.04,6.21,0.63,6.21,4.62
						C681.73,299.19,680.3,300.58,677.62,300.58z"/>
					<path class="st4" d="M688.49,300.58c-1.39,0-2.92-0.4-3.84-1.32c-0.15-0.13-0.23-0.29-0.23-0.5c0-0.44,0.38-0.78,0.82-0.78
						c0.19,0,0.34,0.04,0.48,0.15c0.76,0.55,1.81,0.97,2.86,0.97c1.45,0,2.2-0.65,2.2-1.58c0-2.25-6.19-0.78-6.19-4.6
						c0-1.6,1.39-2.98,3.86-2.98c1.45,0,2.73,0.44,3.53,1.22c0.13,0.13,0.19,0.29,0.19,0.46c0,0.42-0.36,0.73-0.74,0.73
						c-0.17,0-0.32-0.04-0.44-0.15c-0.65-0.46-1.55-0.78-2.52-0.78c-1.28,0-2.08,0.61-2.08,1.43c0,2.04,6.21,0.63,6.21,4.62
						C692.61,299.19,691.18,300.58,688.49,300.58z"/>
					<path class="st4" d="M698.17,287.65c0,0.65-0.52,1.2-1.2,1.2c-0.65,0-1.2-0.55-1.2-1.2c0-0.67,0.54-1.22,1.2-1.22
						C697.65,286.43,698.17,286.98,698.17,287.65z M696.98,300.45c-0.5,0-0.92-0.42-0.92-0.92v-8.57c0-0.48,0.42-0.9,0.97-0.9
						c0.48,0,0.9,0.42,0.9,0.9v8.57C697.92,300.03,697.5,300.45,696.98,300.45z"/>
					<path class="st4" d="M707.2,300.58c-1.37,0-2.58-0.69-3.34-1.7v0.65c0,0.5-0.42,0.92-0.95,0.92c-0.5,0-0.92-0.42-0.92-0.92
						V287.1c0-0.48,0.42-0.9,0.97-0.9c0.48,0,0.9,0.42,0.9,0.9v4.56c0.82-1.09,1.99-1.72,3.34-1.72c2.63,0,4.51,2.08,4.51,5.33
						C711.72,298.59,709.83,300.58,707.2,300.58z M706.68,291.59c-1.13,0-2.31,0.69-2.81,1.51v4.35c0.5,0.82,1.68,1.47,2.81,1.47
						c1.93,0,3.09-1.53,3.09-3.65C709.77,293.15,708.61,291.59,706.68,291.59z"/>
					<path class="st4" d="M717.31,287.65c0,0.65-0.52,1.2-1.2,1.2c-0.65,0-1.2-0.55-1.2-1.2c0-0.67,0.54-1.22,1.2-1.22
						C716.78,286.43,717.31,286.98,717.31,287.65z M716.11,300.45c-0.5,0-0.92-0.42-0.92-0.92v-8.57c0-0.48,0.42-0.9,0.97-0.9
						c0.48,0,0.9,0.42,0.9,0.9v8.57C717.05,300.03,716.63,300.45,716.11,300.45z"/>
					<path class="st4" d="M722.05,300.45c-0.5,0-0.92-0.42-0.92-0.92V287.1c0-0.48,0.42-0.9,0.97-0.9c0.48,0,0.9,0.42,0.9,0.9v12.43
						C723,300.03,722.58,300.45,722.05,300.45z"/>
					<path class="st4" d="M729.19,287.65c0,0.65-0.52,1.2-1.2,1.2c-0.65,0-1.2-0.55-1.2-1.2c0-0.67,0.54-1.22,1.2-1.22
						C728.67,286.43,729.19,286.98,729.19,287.65z M727.99,300.45c-0.5,0-0.92-0.42-0.92-0.92v-8.57c0-0.48,0.42-0.9,0.97-0.9
						c0.48,0,0.9,0.42,0.9,0.9v8.57C728.94,300.03,728.52,300.45,727.99,300.45z"/>
					<path class="st4" d="M735.81,300.58c-1.6,0-2.44-0.88-2.44-2.48v-6.28h-0.99c-0.46,0-0.82-0.36-0.82-0.84
						c0-0.44,0.36-0.8,0.82-0.8h0.99v-2c0-0.48,0.42-0.9,0.97-0.9c0.5,0,0.92,0.42,0.92,0.9v2h1.38c0.44,0,0.8,0.36,0.8,0.84
						c0,0.44-0.36,0.8-0.8,0.8h-1.38v5.84c0,0.78,0.38,1.26,0.99,1.26c0.23,0,0.48-0.11,0.69-0.11c0.46,0,0.8,0.34,0.8,0.78
						C737.74,300.27,736.92,300.58,735.81,300.58z"/>
					<path class="st4" d="M748.93,291.3l-4.54,10.98c-0.65,1.53-1.76,2.16-3.13,2.16c-0.65,0-1.34-0.15-1.34-0.84
						c0-0.48,0.38-0.84,0.84-0.84c0.17,0,0.34,0.02,0.48,0c0.57,0,1.03-0.23,1.37-0.97l0.59-1.34l-3.76-9.15
						c-0.04-0.1-0.06-0.21-0.06-0.32c0-0.46,0.38-0.92,0.95-0.92c0.36,0,0.71,0.21,0.86,0.59l3,7.52l2.98-7.52
						c0.15-0.36,0.5-0.59,0.88-0.59c0.55,0,0.95,0.44,0.95,0.92C748.99,291.09,748.97,291.22,748.93,291.3z"/>
					<path class="st4" d="M660.46,325.53h-3.61c-0.76,0-1.36-0.61-1.36-1.36v-11.28c0-0.76,0.61-1.37,1.36-1.37h3.61
						c4.37,0,7.24,2.98,7.24,7.01C667.7,322.59,664.83,325.53,660.46,325.53z M660.46,313.37h-2.9v10.31h2.9
						c3.23,0,5.12-2.31,5.12-5.14C665.58,315.66,663.78,313.37,660.46,313.37z"/>
					<path class="st4" d="M679.67,321.06h-7.05c0.15,1.74,1.41,3.21,3.46,3.21c0.86,0,1.78-0.29,2.52-0.84
						c0.13-0.06,0.27-0.1,0.42-0.1c0.34,0,0.76,0.29,0.76,0.76c0,1.13-2.6,1.7-3.88,1.7c-3.02,0-5.23-2.14-5.23-5.33
						c0-2.94,2.12-5.31,5.06-5.31c2.46,0,4.14,1.53,4.72,3.8c0.08,0.34,0.19,0.78,0.19,1.18
						C680.64,320.62,680.2,321.06,679.67,321.06z M675.7,316.65c-2.02,0-3,1.68-3.09,3.09h6.21
						C678.79,318.37,677.87,316.65,675.7,316.65z"/>
					<path class="st4" d="M686.88,325.78c-1.6,0-2.44-0.88-2.44-2.48v-6.28h-0.99c-0.46,0-0.82-0.36-0.82-0.84
						c0-0.44,0.36-0.8,0.82-0.8h0.99v-1.99c0-0.48,0.42-0.9,0.96-0.9c0.5,0,0.92,0.42,0.92,0.9v1.99h1.39c0.44,0,0.8,0.36,0.8,0.84
						c0,0.44-0.36,0.8-0.8,0.8h-1.39v5.84c0,0.78,0.38,1.26,0.99,1.26c0.23,0,0.48-0.1,0.69-0.1c0.46,0,0.8,0.34,0.8,0.78
						C688.81,325.47,687.99,325.78,686.88,325.78z"/>
					<path class="st4" d="M698.76,325.65h-0.06c-0.38,0-0.86-0.31-0.86-0.92v-0.34c-0.82,0.9-1.97,1.39-3.34,1.39
						c-1.68,0-3.53-1.13-3.53-3.36c0-2.29,1.85-3.32,3.53-3.32c1.39,0,2.54,0.44,3.34,1.34v-1.7c0-1.28-1.05-2.04-2.48-2.04
						c-0.94,0-1.78,0.29-2.54,0.88c-0.15,0.11-0.32,0.17-0.46,0.17c-0.38,0-0.78-0.29-0.78-0.73c0-0.17,0.06-0.34,0.19-0.48
						c0.97-0.97,2.5-1.41,3.86-1.41c2.18,0,4.07,0.95,4.07,3.53v6.07C699.71,325.23,699.29,325.65,698.76,325.65z M697.84,321.58
						c-0.57-0.78-1.58-1.18-2.63-1.18c-1.37,0-2.35,0.84-2.35,2.06c0,1.18,0.99,1.99,2.35,1.99c1.05,0,2.06-0.38,2.63-1.15V321.58z"
						/>
					<path class="st4" d="M705.88,312.85c0,0.65-0.52,1.2-1.2,1.2c-0.65,0-1.2-0.54-1.2-1.2c0-0.67,0.54-1.22,1.2-1.22
						C705.36,311.63,705.88,312.18,705.88,312.85z M704.69,325.65c-0.5,0-0.92-0.42-0.92-0.92v-8.57c0-0.48,0.42-0.9,0.97-0.9
						c0.48,0,0.9,0.42,0.9,0.9v8.57C705.63,325.23,705.21,325.65,704.69,325.65z"/>
					<path class="st4" d="M710.63,325.65c-0.5,0-0.92-0.42-0.92-0.92V312.3c0-0.48,0.42-0.9,0.97-0.9c0.48,0,0.9,0.42,0.9,0.9v12.43
						C711.57,325.23,711.15,325.65,710.63,325.65z"/>
					<path class="st4" d="M718.96,325.78c-1.39,0-2.92-0.4-3.84-1.32c-0.15-0.13-0.23-0.29-0.23-0.5c0-0.44,0.38-0.78,0.82-0.78
						c0.19,0,0.34,0.04,0.48,0.15c0.76,0.54,1.81,0.96,2.86,0.96c1.45,0,2.21-0.65,2.21-1.57c0-2.25-6.19-0.78-6.19-4.6
						c0-1.6,1.39-2.98,3.86-2.98c1.45,0,2.73,0.44,3.53,1.22c0.13,0.13,0.19,0.29,0.19,0.46c0,0.42-0.36,0.74-0.73,0.74
						c-0.17,0-0.31-0.04-0.44-0.15c-0.65-0.46-1.55-0.78-2.52-0.78c-1.28,0-2.08,0.61-2.08,1.43c0,2.04,6.21,0.63,6.21,4.62
						C723.08,324.4,721.65,325.78,718.96,325.78z"/>
				</g>
			</g>
		</g>
		<g>
			<g>
				<path class="st4" d="M653.96,185.65h-2.16c-0.84,0-1.53-0.69-1.53-1.51v-15.2c0-0.82,0.69-1.51,1.53-1.51h2.16
					c0.38,0,0.74,0.34,0.74,0.78c0,0.42-0.36,0.76-0.74,0.76h-2.04v15.16h2.04c0.38,0,0.74,0.34,0.74,0.76
					C654.69,185.31,654.34,185.65,653.96,185.65z"/>
				<path class="st4" d="M662.27,181.91c-2.06,0-4.24-0.67-5.19-1.78c-0.17-0.21-0.25-0.44-0.25-0.69c0-0.65,0.57-1.2,1.2-1.2
					c0.23,0,0.48,0.06,0.67,0.21c0.97,0.73,2.2,1.26,3.67,1.26c1.97,0,2.77-0.99,2.77-1.89c0-2.9-8.15-1.09-8.15-6.26
					c0-2.33,2.02-4.12,5.1-4.12c1.68,0,3.78,0.52,4.7,1.53c0.17,0.19,0.25,0.44,0.25,0.67c0,0.65-0.61,1.16-1.22,1.16
					c-0.23,0-0.46-0.06-0.67-0.21c-0.99-0.65-2.14-0.94-3.28-0.94c-1.43,0-2.33,0.69-2.33,1.72c0,2.58,8.13,0.97,8.13,6.19
					C667.69,179.91,666.05,181.91,662.27,181.91z"/>
				<path class="st4" d="M673.7,181.91c-1.72,0-2.63-0.92-2.63-2.62v-5.79h-0.84c-0.52,0-0.96-0.44-0.96-1.01
					c0-0.53,0.44-0.97,0.96-0.97h0.84v-1.78c0-0.61,0.5-1.11,1.16-1.11c0.61,0,1.09,0.5,1.09,1.11v1.78h1.24
					c0.52,0,0.94,0.44,0.94,1.01c0,0.53-0.42,0.97-0.94,0.97h-1.24v5.23c0,0.78,0.44,1.2,0.97,1.2c0.15,0,0.34-0.06,0.46-0.06
					c0.61,0,0.99,0.42,0.99,0.97C675.73,181.49,675.13,181.91,673.7,181.91z"/>
				<path class="st4" d="M686.82,177.31h-6.68c0.15,1.51,1.3,2.79,3.19,2.79c0.73,0,1.57-0.23,2.27-0.67
					c0.15-0.08,0.31-0.13,0.46-0.13c0.46,0,0.94,0.38,0.94,0.92c0,1.16-2.6,1.68-3.9,1.68c-3.04,0-5.31-2.12-5.31-5.33
					c0-2.94,2.14-5.31,5.14-5.31c2.37,0,4.09,1.43,4.72,3.61c0.13,0.42,0.25,0.9,0.25,1.34
					C687.91,176.81,687.43,177.31,686.82,177.31z M682.94,173.07c-1.85,0-2.71,1.47-2.81,2.69h5.63
					C685.71,174.58,684.91,173.07,682.94,173.07z"/>
				<path class="st4" d="M696.65,181.91c-1.26,0-2.42-0.57-3.23-1.64v4.28c0,0.59-0.5,1.09-1.13,1.09c-0.63,0-1.11-0.5-1.11-1.09
					v-12.07c0-0.59,0.48-1.09,1.15-1.09c0.59,0,1.09,0.5,1.09,1.09v0.4c0.76-1.01,1.93-1.62,3.23-1.62c2.62,0,4.49,1.97,4.49,5.31
					S699.27,181.91,696.65,181.91z M695.98,173.26c-1.01,0-2.08,0.61-2.56,1.34v3.97c0.48,0.71,1.55,1.34,2.56,1.34
					c1.72,0,2.83-1.38,2.83-3.34C698.81,174.64,697.7,173.26,695.98,173.26z"/>
				<path class="st4" d="M719.66,181.66h-8.21c-0.59,0-1.15-0.5-1.15-1.22c0-0.4,0.17-0.78,0.5-1.03c5.1-3.84,7.18-5.71,7.18-7.64
					c0-1.43-1.24-2.1-2.52-2.1c-1.22,0-2.25,0.38-3.06,1.03c-0.23,0.17-0.46,0.25-0.71,0.25c-0.59,0-1.11-0.48-1.11-1.13
					c0-0.19,0.06-0.4,0.19-0.59c0.86-1.09,2.92-1.78,4.66-1.78c2.75,0,5.12,1.53,5.12,4.32c0,2.58-2.33,4.87-6.07,7.69h5.19
					c0.59,0,1.09,0.48,1.09,1.07C720.76,181.17,720.25,181.66,719.66,181.66z"/>
				<path class="st4" d="M726.07,185.65h-2.14c-0.42,0-0.76-0.34-0.76-0.78c0-0.42,0.34-0.76,0.76-0.76h2.02v-15.16h-2.02
					c-0.42,0-0.76-0.34-0.76-0.8c0-0.4,0.34-0.73,0.76-0.73h2.14c0.84,0,1.51,0.69,1.51,1.51v15.2
					C727.58,184.95,726.91,185.65,726.07,185.65z"/>
			</g>
		</g>
	</g>
</g>
</svg>
