<?xml version="1.0" encoding="utf-8"?>
<!-- Generator: Adobe Illustrator 23.1.0, SVG Export Plug-In . SVG Version: 6.00 Build 0)  -->
<svg version="1.1" id="Layer_1" xmlns="http://www.w3.org/2000/svg" xmlns:xlink="http://www.w3.org/1999/xlink" x="0px" y="0px"
	 viewBox="0 0 500 500" style="enable-background:new 0 0 500 500;" xml:space="preserve">
<style type="text/css">
	.st0{fill:#1156F4;stroke:#FFFFFF;stroke-width:3.7627;stroke-miterlimit:10;}
	.st1{fill:#1156F4;}
</style>
<g>
	<path class="st0" d="M284.02,350.36c6.67,4.07,12.66,8.52,18.25,13.44c10.08,8.88,16.58,20.18,20.88,32.77
		c1.85,5.41,4.25,10.63,5.52,16.24c0.9,3.97-0.47,6.89-3.89,7.84c-3.71,1.03-6.87-0.91-8.12-4.79c-3.04-9.47-6.01-18.96-10.6-27.86
		c-6.42-12.43-16.98-20.54-28.44-27.76c-2.54-1.6-5.35-1.73-8.19-1.43c-5.77,0.61-11.54,1.32-17.3,2.03
		c-2.86,0.35-5.42,1.55-7.79,3.14c-7.93,5.36-13.77,12.42-17.81,21.14c-4.11,8.87-6.88,18.16-9.74,27.45
		c-1.21,3.91-5.18,5.62-8.84,3.98c-2.52-1.13-4.03-3.74-3.3-6.34c3.63-12.93,7.54-25.79,14.63-37.32
		c5.66-9.2,13.35-16.38,23.19-21.1c3.98-1.91,8.27-2.35,12.57-2.77c1.54-0.15,3.12-0.13,4.7-0.79c-0.96-0.87-2.09-0.9-3.08-1.24
		c-11.29-3.81-20.97-10.37-29.69-18.23c-15.53-13.99-25.7-31.11-31.29-51.49c-4.62-16.83-3.89-33.51-2.76-50.45
		c1.11-16.72,6.42-32.06,15.84-45.7c13.89-20.13,32.39-34.39,56.33-40.85c7.92-2.14,16-3.21,24.24-2.1c1.04,0.14,1.94,0.56,2.87,1
		c5.53,2.66,9.67,6.88,13.3,11.7c2.69,3.57,5.52,7.04,8.19,10.63c9.14,12.24,15.5,25.63,18.16,40.84
		c3.07,17.52,5.67,35.04,4.65,52.88c-0.85,14.9-1.62,29.93-6.39,44.15c-6.44,19.21-17.18,35.55-34.98,46.37
		c-1.68,1.02-3.4,1.96-5.25,2.62C288.03,349.05,286.16,349.65,284.02,350.36z M324.25,247.32c0.35-9.39-0.9-18.66-2.2-27.91
		c-2.13-15.19-4.77-30.2-13.14-43.55c-4.36-6.95-9.99-12.9-14.59-19.63c-0.39-0.57-0.96-0.78-1.59-0.89
		c-2.27-0.4-3.81-1.77-4.84-3.75c-0.9-1.74-2.31-2.31-4.23-2.35c-7.98-0.13-15.76,1.33-22.94,4.51
		c-31.1,13.76-50.68,36.68-55.03,71.16c-1.32,10.44-2.03,21-1.33,31.5c0.77,11.67,4.75,22.67,8.68,33.6
		c3.57,9.9,10.25,17.87,17.26,25.33c10.5,11.18,22.76,19.92,38.32,22.95c8.06,1.57,15.53,1.29,22.62-3.84
		c13.78-9.96,22.4-23.53,27.21-39.36C323.15,279.61,323.75,263.41,324.25,247.32z"/>
	<path class="st0" d="M265.91,196.06c4.52,0,7.27,3.8,5.65,7.97c-0.44,1.14-0.33,2.12-0.06,3.19c3.63,14.44,7.26,28.89,10.9,43.33
		c1.38,5.5,1.65,11.16,2.55,16.74c0.63,3.93-3.09,7.17-7.43,6.79c-5.02-0.43-10-0.56-15,0.38c-3.42,0.64-6.6-1.65-7.05-4.71
		c-0.46-3.13,1.55-5.65,5.12-6.46c3-0.68,6.03-1.11,9.1-0.98c1.6,0.06,1.94-0.45,1.78-2.03c-0.81-7.78-3.48-15.12-5.23-22.67
		c-2.4-10.3-5.04-20.55-7.38-30.87c-0.77-3.39,0.33-6.55,2.76-9.08C262.75,196.49,264.25,195.99,265.91,196.06z"/>
	<path class="st0" d="M269.15,309.23c-5.58-0.11-10.9-1.06-15.31-4.9c-2.98-2.6-3.52-5.63-1.45-8.21c2.09-2.62,6.2-3.27,8.85-0.97
		c2.61,2.26,5.5,2.73,8.71,2.67c2.32-0.04,4.28-0.69,5.81-2.52c1.59-1.89,3.68-2.57,6.11-2.23c2.29,0.32,3.93,1.55,4.77,3.68
		c0.82,2.09,0.28,3.98-1.16,5.67C281.2,307.48,275.57,309.29,269.15,309.23z"/>
	<path class="st0" d="M225.65,182.27c-2.87,1.22-4.6,4.24-4.08,6.76c0.53,2.58,2.8,4.53,5.67,4.36c5.48-0.33,10.53,1.28,15.58,3.01
		c3.81,1.3,7.25,0.05,8.73-3.24c1.19-2.66,0.45-5.75-2.2-6.86c-7.13-2.99-14.48-5.17-22.38-4.31
		C226.44,182.05,225.91,182.22,225.65,182.27z"/>
	<path class="st0" d="M304.81,188.81c-5.12-0.86-10.68-1.12-16.22-0.31c-3.42,0.5-5.53,2.87-6.6,6.04c-0.78,2.3,0,4.34,1.81,5.94
		c2.01,1.77,5.25,2.46,7.21,0.87c3.41-2.77,7.09-1.55,10.74-1.45c0.46,0.01,0.92,0.21,1.39,0.26c3.39,0.39,6.26-1.46,6.82-4.39
		C310.53,192.72,308.51,189.8,304.81,188.81z"/>
	<path class="st0" d="M232.12,227.37c-3.59-0.05-6.5-2.85-6.4-6.14c0.1-3.21,2.99-5.82,6.48-5.83c3.56-0.01,6.56,2.76,6.54,6.02
		C238.71,224.67,235.65,227.42,232.12,227.37z"/>
	<path class="st0" d="M295.69,223.42c-3.54-0.05-6.34-2.64-6.35-5.88c-0.01-3.32,2.91-5.99,6.54-5.97c3.61,0.02,6.56,2.76,6.5,6.03
		C302.32,220.85,299.32,223.47,295.69,223.42z"/>
	<g>
		<g>
			<path class="st1" d="M405.32,145.89c0.27,5.98,0.54,11.97,0.81,17.95c0.07,1.47,1.25,2.89,2.82,2.82
				c1.47-0.07,2.89-1.24,2.82-2.82c-0.27-5.98-0.54-11.97-0.81-17.95c-0.07-1.47-1.25-2.89-2.82-2.82
				C406.67,143.14,405.25,144.31,405.32,145.89L405.32,145.89z"/>
		</g>
	</g>
	<g>
		<g>
			<path class="st1" d="M398.79,156.37c6.41,0.03,12.82,0.29,19.21,0.79c1.52,0.12,2.82-1.38,2.82-2.82c0-1.63-1.3-2.7-2.82-2.82
				c-6.39-0.5-12.8-0.76-19.21-0.79c-1.53-0.01-2.82,1.3-2.82,2.82C395.97,155.09,397.26,156.37,398.79,156.37L398.79,156.37z"/>
		</g>
	</g>
	<g>
		<g>
			<path class="st1" d="M278.13,53.04c0,4.06,0,8.11,0,12.17c0,1.48,1.3,2.89,2.82,2.82c1.53-0.07,2.82-1.24,2.82-2.82
				c0-4.06,0-8.11,0-12.17c0-1.48-1.3-2.89-2.82-2.82C279.42,50.29,278.13,51.46,278.13,53.04L278.13,53.04z"/>
		</g>
	</g>
	<g>
		<g>
			<path class="st1" d="M273.92,58.91c7.08-0.18,14.15,0.17,21.17,1.05c1.51,0.19,2.82-1.43,2.82-2.82c0-1.68-1.3-2.63-2.82-2.82
				c-7.02-0.88-14.1-1.23-21.17-1.05c-1.52,0.04-2.82,1.27-2.82,2.82C271.1,57.59,272.39,58.95,273.92,58.91L273.92,58.91z"/>
		</g>
	</g>
	<g>
		<g>
			<path class="st1" d="M72.77,169.59c4.91,0.4,9.84,0.47,14.76,0.22c1.47-0.07,2.89-1.24,2.82-2.82c-0.07-1.47-1.24-2.9-2.82-2.82
				c-4.92,0.25-9.85,0.17-14.76-0.22c-1.48-0.12-2.89,1.38-2.82,2.82C70.02,168.4,71.19,169.47,72.77,169.59L72.77,169.59z"/>
		</g>
	</g>
	<g>
		<g>
			<path class="st1" d="M78.04,154.85c0.42,6.44,0.95,12.87,1.59,19.3c0.15,1.52,1.19,2.82,2.82,2.82c1.41,0,2.97-1.3,2.82-2.82
				c-0.64-6.42-1.17-12.86-1.59-19.3c-0.1-1.52-1.23-2.82-2.82-2.82C79.41,152.03,77.94,153.32,78.04,154.85L78.04,154.85z"/>
		</g>
	</g>
</g>
</svg>
