<?xml version="1.0" encoding="utf-8"?>
<!-- Generator: Adobe Illustrator 23.1.0, SVG Export Plug-In . SVG Version: 6.00 Build 0)  -->
<svg version="1.1" id="Layer_1" xmlns="http://www.w3.org/2000/svg" xmlns:xlink="http://www.w3.org/1999/xlink" x="0px" y="0px"
	 viewBox="0 0 500 500" style="enable-background:new 0 0 500 500;" xml:space="preserve">
<style type="text/css">
	.st0{fill:#1156F4;stroke:#FFFFFF;stroke-width:3.7247;stroke-miterlimit:10;}
</style>
<g>
	<path class="st0" d="M279.46,347.15c6.6,4.03,12.54,8.43,18.07,13.3c9.98,8.79,16.41,19.98,20.66,32.44
		c1.83,5.36,4.21,10.52,5.47,16.08c0.89,3.93-0.46,6.82-3.85,7.76c-3.68,1.02-6.8-0.9-8.03-4.74c-3.01-9.37-5.94-18.77-10.5-27.58
		c-6.36-12.3-16.81-20.33-28.15-27.48c-2.51-1.58-5.3-1.72-8.11-1.42c-5.72,0.61-11.42,1.3-17.13,2.01
		c-2.83,0.35-5.37,1.53-7.71,3.11c-7.85,5.31-13.63,12.29-17.63,20.92c-4.07,8.78-6.81,17.98-9.64,27.17
		c-1.19,3.88-5.13,5.56-8.75,3.94c-2.49-1.11-3.99-3.7-3.27-6.28c3.59-12.8,7.46-25.53,14.48-36.94
		c5.6-9.11,13.22-16.21,22.95-20.89c3.94-1.89,8.18-2.33,12.44-2.74c1.52-0.15,3.08-0.13,4.65-0.78c-0.95-0.86-2.06-0.89-3.05-1.22
		c-11.17-3.77-20.76-10.27-29.39-18.04c-15.37-13.85-25.44-30.8-30.97-50.97c-4.57-16.66-3.85-33.17-2.73-49.94
		c1.1-16.55,6.36-31.74,15.68-45.24c13.75-19.92,32.06-34.04,55.76-40.44c7.84-2.12,15.84-3.18,23.99-2.08
		c1.03,0.14,1.93,0.55,2.84,0.99c5.47,2.64,9.57,6.81,13.16,11.59c2.66,3.54,5.46,6.97,8.11,10.52
		c9.05,12.11,15.34,25.37,17.98,40.43c3.04,17.34,5.61,34.69,4.61,52.35c-0.84,14.75-1.61,29.63-6.32,43.71
		c-6.37,19.01-17.01,35.19-34.62,45.9c-1.66,1.01-3.36,1.94-5.2,2.59C283.42,345.85,281.58,346.44,279.46,347.15z M319.28,245.14
		c0.35-9.3-0.89-18.47-2.18-27.63c-2.11-15.03-4.72-29.89-13.01-43.11c-4.31-6.88-9.88-12.77-14.44-19.43
		c-0.38-0.56-0.95-0.77-1.58-0.88c-2.25-0.4-3.77-1.75-4.79-3.71c-0.9-1.72-2.28-2.29-4.19-2.32c-7.9-0.13-15.6,1.32-22.7,4.46
		c-30.79,13.62-50.17,36.31-54.47,70.44c-1.3,10.34-2.01,20.78-1.32,31.18c0.76,11.56,4.7,22.44,8.6,33.26
		c3.53,9.8,10.15,17.69,17.08,25.07c10.4,11.07,22.53,19.72,37.93,22.72c7.98,1.56,15.37,1.27,22.4-3.8
		c13.64-9.86,22.17-23.3,26.93-38.96C318.19,277.1,318.79,261.07,319.28,245.14z"/>
	<path class="st0" d="M136.5,273.49c3.5-0.21,6.71,0.6,9.47,2.68c1.2,0.91,1.97,0.68,3-0.16c3.84-3.12,8.06-5.18,13.21-4.8
		c2.95,0.22,5.55,1.32,8.11,2.64c1.38,0.71,2.79,1.36,4.16,2.07c2.95,1.53,4.15,4.22,3.11,6.91c-1.08,2.78-4.27,4.41-7.24,3.62
		c-2.35-0.62-4.44-1.85-6.52-3.03c-2.19-1.25-4.08-1.09-5.98,0.5c-1.13,0.94-2.33,1.81-3.57,2.6c-4.61,2.92-9.91,2.95-14.16-0.32
		c-2.32-1.78-4.61-1.61-7.01-0.9c-1.46,0.43-2.83,1.25-4.19,1.99c-1.71,0.93-2.96,1.73-2.38,4.42c0.85,3.95-4.07,7.04-8.23,5.54
		c-5.51-1.98-7.49-7.6-3.92-12.43C119.8,277.47,127.42,273.93,136.5,273.49z"/>
	<path class="st0" d="M396.85,231.4c-3.88,0.03-7.62-0.67-11.3-1.68c-6.86-1.88-13.23-0.57-19.29,2.78c-1.63,0.9-3.24,1.46-5.1,1.15
		c-2.44-0.41-4.47-2.17-4.96-4.35c-0.52-2.26,0.44-4.55,2.77-5.92c9.24-5.42,19.05-7.28,29.57-4.63c1.88,0.47,3.79,0.83,5.7,1.17
		c3.82,0.67,7.38,0.14,10.68-2.09c3.11-2.1,6.42-3.72,10.25-4.18c3.62-0.43,6.85,1.59,7.37,4.84c0.47,2.98-1.85,5.76-5.47,6.31
		c-2.34,0.35-4.15,1.7-6.05,2.87C406.64,230.35,401.94,231.66,396.85,231.4z"/>
	<path class="st0" d="M337.03,150.02c-4.22-0.02-6.86-3.45-5.86-7.54c0.61-2.51,1.96-4.51,3.89-6.2
		c8.85-7.71,19.3-11.07,30.85-11.13c3.39-0.02,6.2-0.88,8.8-2.94c1.94-1.54,3.97-3.01,6.24-4.05c2.53-1.16,5.51-0.6,7.32,1.28
		c1.63,1.69,2.01,3.96,1.01,6.02c-0.45,0.93-1.11,1.68-1.97,2.26c-2.5,1.7-5,3.41-7.52,5.09c-3.87,2.59-8.12,3.65-12.78,3.59
		c-8.22-0.11-15.84,1.89-22.37,7.17c-0.79,0.64-1.4,1.32-1.73,2.38C342.1,148.54,339.79,150.04,337.03,150.02z"/>
	<path class="st0" d="M151.37,208.8c-2.13-0.07-4.12-1.4-5.24-3.88c-0.83-1.86-1.97-2.62-4.12-2.47c-4.78,0.34-8.85-1.17-11.75-5.25
		c-1.11-1.56-2.75-2.2-4.66-2.18c-3.65,0.03-7.3,0.08-10.95,0.03c-3.28-0.05-6.31-0.86-8.59-3.46c-2.16-2.46-2.56-5.94-0.96-9.16
		c1.2-2.4,3.24-3.48,5.88-3.41c2.36,0.07,4.3,1.09,5.26,3.24c0.62,1.39,1.47,1.49,2.71,1.48c3.26-0.03,6.51-0.25,9.77,0.22
		c4.43,0.64,8.11,2.6,10.97,6c0.87,1.03,1.78,1.3,3.03,1.22c9.3-0.63,11.93,3.83,14.92,9.75
		C159.55,204.69,156.43,208.83,151.37,208.8z"/>
	<path class="st0" d="M137.76,133.48c0.01-5,5.48-9.29,10.3-8.09c3.5,0.87,5.33,3.76,4.33,7.2c-0.39,1.32-0.06,1.56,1.13,1.77
		c3.82,0.66,7.65,1.29,11.41,2.21c6.41,1.57,10.67,5.22,10.9,12.33c0.02,0.64,0.26,1.16,0.64,1.7c1.91,2.75,1.92,5.12,0.09,7.18
		c-1.92,2.17-5.25,2.78-7.87,1.27c-3.21-1.86-5.42-4.5-5.13-8.45c0.17-2.2-0.79-3.1-2.76-3.44c-3.59-0.61-7.19-1.2-10.76-1.94
		c-4.38-0.92-8.2-2.84-10.77-6.71C138.28,136.99,137.68,135.34,137.76,133.48z"/>
	<path class="st0" d="M363.78,274.94c8.04,1.01,15.87,2.69,22.76,7.27c0.73,0.49,1.45,0.42,2.21,0.46c2.78,0.14,4.98,1.7,5.71,4.02
		c0.76,2.42-0.14,4.63-2.6,6.4c-4.21,3.03-8.76,2.75-12.36-1.08c-1.46-1.56-3.09-2.44-5.06-3.02c-2.45-0.73-4.83-1.67-7.33-2.24
		c-2.57-0.59-5.03-0.35-7.57,0.31c-3.78,0.97-7.42-1.58-7.62-5.13c-0.14-2.43,1.33-4.63,3.84-5.5
		C358.34,275.52,361,274.95,363.78,274.94z"/>
	<path class="st0" d="M261.53,194.4c4.47,0,7.19,3.76,5.59,7.89c-0.44,1.12-0.33,2.1-0.06,3.16c3.6,14.3,7.19,28.6,10.79,42.89
		c1.37,5.44,1.64,11.05,2.52,16.57c0.63,3.9-3.06,7.1-7.36,6.73c-4.97-0.43-9.9-0.55-14.85,0.38c-3.38,0.64-6.53-1.63-6.97-4.66
		c-0.46-3.1,1.54-5.59,5.07-6.4c2.97-0.68,5.97-1.1,9.01-0.97c1.58,0.06,1.92-0.44,1.76-2.01c-0.8-7.7-3.44-14.97-5.18-22.44
		c-2.37-10.2-4.99-20.35-7.31-30.56c-0.76-3.35,0.32-6.48,2.73-8.99C258.4,194.83,259.89,194.33,261.53,194.4z"/>
	<path class="st0" d="M264.63,290.36c5.53,0.11,10.79,1.05,15.15,4.85c2.95,2.57,3.48,5.58,1.44,8.13
		c-2.07,2.59-6.14,3.24-8.76,0.96c-2.58-2.24-5.44-2.7-8.62-2.65c-2.3,0.04-4.23,0.69-5.75,2.5c-1.57,1.87-3.65,2.54-6.05,2.2
		c-2.26-0.32-3.89-1.53-4.72-3.64c-0.82-2.07-0.28-3.94,1.14-5.61C252.71,292.1,258.28,290.31,264.63,290.36z"/>
	<path class="st0" d="M219.79,200.72c-3.09,0.02-5.84-2.05-6.36-4.55c-0.53-2.56,0.77-5.22,3.44-6.18
		c5.11-1.84,9.08-5.29,12.99-8.84c2.95-2.68,6.57-2.89,9.2-0.47c2.13,1.95,2.66,5.05,0.69,7.1c-5.31,5.51-11.14,10.37-18.65,12.69
		C220.59,200.62,220.05,200.67,219.79,200.72z"/>
	<path class="st0" d="M292.27,192.66c-5.1-0.6-10.46-1.89-15.5-4.19c-3.12-1.42-4.47-4.26-4.61-7.56c-0.1-2.4,1.2-4.13,3.36-5.14
		c2.41-1.13,5.67-0.89,7.09,1.17c2.48,3.58,6.31,3.43,9.8,4.35c0.44,0.12,0.93,0.05,1.39,0.13c3.33,0.56,5.55,3.12,5.27,6.05
		C298.78,190.52,296.05,192.74,292.27,192.66z"/>
	<path class="st0" d="M228.08,225.39c-3.55-0.05-6.43-2.82-6.33-6.08c0.1-3.18,2.96-5.76,6.41-5.77c3.52-0.01,6.5,2.73,6.47,5.96
		C234.61,222.72,231.58,225.45,228.08,225.39z"/>
	<path class="st0" d="M291.01,221.48c-3.5-0.05-6.27-2.62-6.29-5.83c-0.01-3.29,2.88-5.93,6.47-5.91c3.57,0.02,6.49,2.73,6.44,5.97
		C297.57,218.94,294.6,221.53,291.01,221.48z"/>
</g>
</svg>
